<?xml version="1.0" encoding="utf-8"?>
<!-- Generator: Adobe Illustrator 22.0.1, SVG Export Plug-In . SVG Version: 6.00 Build 0)  -->
<svg version="1.1" id="Layer_1" xmlns="http://www.w3.org/2000/svg" xmlns:xlink="http://www.w3.org/1999/xlink" x="0px" y="0px"
	 width="194px" height="150px" viewBox="0 0 194 150" style="enable-background:new 0 0 194 150;" xml:space="preserve">
<style type="text/css">
	.st0{opacity:0.25;}
	.st1{fill:#2C2A2A;stroke:#2C2A2A;stroke-width:3;stroke-miterlimit:10;}
	.st2{fill:#FFFFFF;}
</style>
<title>SVG</title>
<g class="st0">
	<g>
		<path class="st1" d="M114.5,55.5c-0.8-0.7-2-0.8-2.8-0.2l0,0c-0.6,0.5-14.9,11-28.4,0c-0.9-0.7-2.1-0.6-2.9,0
			c-0.5,0.4-12.5,11.1-12.8,32c0,1.2,1,2.3,2.2,2.3c0,0,0,0,0,0l54.4,0c1.2,0,2.2-1,2.2-2.2C126.4,86.6,127,66.8,114.5,55.5z
			 M72.1,85.2l0.1-1.1c1-12.2,6.2-19.9,9.2-23.4l0.6-0.7l0.7,0.5c12.9,8.5,25.7,2.1,29.4-0.1l0.7-0.4l0.5,0.6
			c6.5,7.4,8.1,17.9,8.5,23.5l0.1,1.1L72.1,85.2z"/>
		<path class="st1" d="M98.3,6.5c-12.7,0-23,10.2-23,23c0,3.6,0.8,7.2,2.5,10.5l2.8,4.3c8.1,9.8,22.6,11.3,32.4,3.2
			s11.3-22.6,3.2-32.4C111.7,9.6,105.2,6.5,98.3,6.5z M111.4,42.6c-7.2,7.2-19,7.2-26.2,0s-7.2-19,0-26.2s19-7.2,26.2,0
			c3.5,3.5,5.4,8.2,5.4,13.1C116.8,34.4,114.9,39.1,111.4,42.6z"/>
	</g>
	<circle class="st2" cx="63.8" cy="83.3" r="18.3"/>
	<circle class="st2" cx="132.7" cy="83.3" r="18.3"/>
	<g>
		<g>
			<path class="st1" d="M63.8,60.3c-12.7,0-23,10.3-23,23c0,3.6,0.8,7.2,2.5,10.4L46,98c8.1,9.8,22.6,11.3,32.4,3.2
				s11.3-22.6,3.2-32.4C77.3,63.4,70.7,60.3,63.8,60.3z M76.9,96.5L76.9,96.5c-7.2,7.2-19,7.2-26.2,0c-7.2-7.2-7.2-19,0-26.2
				s19-7.2,26.2,0c3.5,3.5,5.4,8.2,5.4,13.1C82.4,88.3,80.4,93,76.9,96.5z"/>
			<path class="st1" d="M48.8,109.2c-0.9-0.7-2.1-0.6-2.9,0c-0.5,0.4-12.5,11.1-12.8,32c0,1.2,1,2.3,2.2,2.3c0,0,0,0,0,0l54.4,0
				c1.2,0,2.2-1,2.2-2.2c0-0.8,0.6-20.6-11.9-32c-0.8-0.7-2-0.8-2.9-0.1C76.6,109.7,62.3,120.2,48.8,109.2z M77.7,114.3l0.7-0.4
				l0.5,0.6c6.5,7.4,8.1,17.9,8.5,23.5l0.1,1.1l-49.8,0l0.1-1.1c1-12.2,6.2-19.9,9.2-23.4l0.6-0.7l0.7,0.5
				C61.2,122.9,74,116.5,77.7,114.3z"/>
		</g>
		<g>
			<path class="st1" d="M132.7,60.3c-12.7,0-23,10.2-23,22.9c0,3.6,0.8,7.2,2.5,10.5l2.8,4.3c8.1,9.8,22.6,11.3,32.4,3.2
				c9.8-8.1,11.3-22.6,3.2-32.4C146.2,63.4,139.6,60.3,132.7,60.3z M145.8,96.5c-7.2,7.2-19,7.2-26.2,0s-7.2-19,0-26.2
				s19-7.2,26.2,0c3.5,3.5,5.4,8.2,5.4,13.1C151.2,88.3,149.3,93,145.8,96.5z"/>
			<path class="st1" d="M117.7,109.2c-0.9-0.7-2.1-0.6-2.9,0c-0.5,0.4-12.5,11.1-12.8,32c0,1.2,1,2.3,2.2,2.3c0,0,0,0,0,0l54.4,0
				c1.2,0,2.2-1,2.2-2.2c0-0.8,0.6-20.6-11.9-32c-0.8-0.7-2-0.8-2.9-0.1C145.5,109.7,131.2,120.2,117.7,109.2z M146.5,114.3l0.7-0.4
				l0.5,0.6c6.5,7.4,8.1,17.9,8.5,23.5l0.1,1.1l-49.8,0l0.1-1.1c1-12.2,6.2-19.9,9.2-23.4l0.6-0.7l0.7,0.5
				C130,122.9,142.9,116.5,146.5,114.3L146.5,114.3z"/>
		</g>
	</g>
</g>
</svg>
