<?xml version="1.0" encoding="utf-8"?>
<!-- Generator: Adobe Illustrator 19.0.0, SVG Export Plug-In . SVG Version: 6.00 Build 0)  -->
<svg version="1.1" id="Warstwa_1" xmlns="http://www.w3.org/2000/svg" xmlns:xlink="http://www.w3.org/1999/xlink" x="0px" y="0px"
	 viewBox="-2 7 44.5 38" style="enable-background:new -2 7 44.5 38;" xml:space="preserve">
<style type="text/css">
	.st0{fill:#838383;}
	.st1{fill:none;}
</style>
<g id="XMLID_406_">
	<g id="XMLID_2279_">
		<path id="XMLID_3009_" class="st0" d="M14.4,21.9c-1.4,0-2.5-1.1-2.5-2.5c0-1.4,1.1-2.5,2.5-2.5c1.4,0,2.5,1.1,2.5,2.5
			C16.9,20.8,15.8,21.9,14.4,21.9z M14.4,18.3c-0.6,0-1.2,0.5-1.2,1.2c0,0.6,0.5,1.2,1.2,1.2c0.6,0,1.2-0.5,1.2-1.2
			C15.6,18.8,15.1,18.3,14.4,18.3z"/>
	</g>
	<g id="XMLID_2278_">
		<path id="XMLID_3006_" class="st0" d="M12,27.3c-1.4,0-2.5-1.1-2.5-2.5s1.1-2.5,2.5-2.5s2.5,1.1,2.5,2.5S13.3,27.3,12,27.3z
			 M12,23.7c-0.6,0-1.2,0.5-1.2,1.2S11.3,26,12,26s1.2-0.5,1.2-1.2S12.6,23.7,12,23.7z"/>
	</g>
	<g id="XMLID_2276_">
		<path id="XMLID_3000_" class="st0" d="M15.9,36.6c-0.1,0-0.2,0-0.3-0.1c-0.7-0.3-0.8-1-0.9-1.7c-0.1-0.7-0.3-1.5-0.9-2.1
			c-0.6-0.6-1.4-0.8-2.1-0.9c-0.7-0.1-1.4-0.3-1.7-0.9c-0.1-0.4,0-0.8,0.2-1.1c0.7-0.8,2.6-1.4,4.3-1.3c-0.1-2.3,0.8-5.4,3.6-8.2
			c2.9-2.9,7.3-3.5,9.5-3c0.3,0.1,0.5,0.3,0.5,0.6l0,0.6l0.6,0c0.3,0,0.6,0.2,0.6,0.5c0.5,2.2-0.1,6.6-3,9.5
			c-2.8,2.8-5.9,3.6-8.2,3.6c0.1,1.7-0.5,3.6-1.3,4.3C16.4,36.5,16.1,36.6,15.9,36.6z M11.3,30.5c0.1,0,0.3,0.1,0.5,0.1
			c0.8,0.1,1.9,0.3,2.8,1.3c0.9,0.9,1.1,2,1.3,2.8c0,0.1,0.1,0.3,0.1,0.5c0.4-0.6,0.9-2.3,0.5-3.6c-0.1-0.2,0-0.4,0.2-0.6
			c0.1-0.2,0.4-0.2,0.6-0.2c2,0.3,5.2-0.3,7.9-3.1c2.3-2.3,3-5.8,2.8-7.8l-0.6,0c-0.3,0-0.6-0.3-0.6-0.6l0-0.6
			c-2-0.2-5.5,0.4-7.8,2.8c-2.8,2.8-3.4,5.9-3.1,7.9c0,0.2,0,0.4-0.2,0.6c-0.2,0.1-0.4,0.2-0.6,0.2C13.6,29.6,12,30.1,11.3,30.5z"/>
	</g>
	<g id="XMLID_2275_">
		<path id="XMLID_3070_" class="st0" d="M24.3,19.4c0.6,0,1.1,0.5,1.1,1.1c0,0.6-0.5,1.1-1.1,1.1c-0.6,0-1.1-0.5-1.1-1.1
			C23.3,19.9,23.8,19.4,24.3,19.4L24.3,19.4z"/>
	</g>
	<g id="XMLID_2274_">
		<path id="XMLID_2997_" class="st0" d="M20.4,39.4c-7.4,0-13.4-6-13.4-13.4s6-13.4,13.4-13.4c0.5,0,0.9,0,1.4,0.1
			c1.3,0.1,2.6,0.5,3.8,1c0.4,0.2,0.8,0.4,1.2,0.6c2.3,1.2,4.1,3.1,5.4,5.4c0.4,0.8,0.8,1.6,1,2.4c0.3,0.8,0.4,1.7,0.5,2.6
			c0,0.5,0.1,0.9,0.1,1.4s0,0.9-0.1,1.4c-0.1,0.9-0.3,1.8-0.5,2.6c-1.3,4.2-4.6,7.5-8.8,8.8c-0.8,0.3-1.7,0.4-2.6,0.5
			C21.3,39.3,20.9,39.4,20.4,39.4z M20.4,13.9c-6.7,0-12.1,5.4-12.1,12.1s5.4,12.1,12.1,12.1c0.4,0,0.8,0,1.2-0.1
			c0.8-0.1,1.6-0.2,2.4-0.5c3.8-1.2,6.8-4.1,7.9-7.9c0.2-0.8,0.4-1.6,0.5-2.4c0-0.4,0.1-0.8,0.1-1.2c0-0.4,0-0.8-0.1-1.2v0
			c-0.1-0.8-0.2-1.6-0.5-2.4c-0.2-0.7-0.5-1.5-0.9-2.2c-1.1-2.1-2.8-3.7-4.9-4.9c-0.3-0.2-0.7-0.4-1.1-0.5c-1.1-0.5-2.3-0.8-3.5-0.9
			C21.3,13.9,20.8,13.9,20.4,13.9z"/>
	</g>
	<g id="XMLID_2273_">
		<path id="XMLID_2996_" class="st0" d="M26.6,26.7c-0.1,0-0.1,0-0.2,0c-0.1,0-3.5-1-5-2.6c-1.6-1.7-1.6-3.9-1.6-4
			c0-0.4,0.3-0.6,0.7-0.6h0c0.4,0,0.6,0.3,0.6,0.7c0,0,0,1.8,1.3,3.1c1.3,1.4,4.4,2.3,4.5,2.3c0.3,0.1,0.5,0.5,0.4,0.8
			C27.2,26.5,26.9,26.7,26.6,26.7z"/>
	</g>
	<g id="XMLID_2272_">
		<path id="XMLID_2993_" class="st0" d="M23.9,36.4c-1.9,0-3.7-1.1-4.6-2.9c-0.1-0.2-0.1-0.3,0-0.5c0.1-0.2,0.2-0.3,0.3-0.4l2-0.9
			c0.2-0.1,0.3-0.1,0.5,0c0.2,0.1,0.3,0.2,0.4,0.3c0.4,0.8,1.3,1.1,2.1,0.7c0.8-0.4,1.1-1.3,0.7-2.1c-0.2-0.3,0-0.7,0.3-0.9l2-0.9
			c0.2-0.1,0.3-0.1,0.5,0c0.2,0.1,0.3,0.2,0.4,0.3c1.2,2.5,0.1,5.6-2.4,6.8C25.3,36.3,24.6,36.4,23.9,36.4z M20.8,33.5
			c0.4,0.6,1.1,1.1,1.8,1.4c1,0.3,2,0.3,2.9-0.1c1.7-0.8,2.5-2.7,2-4.4l-0.8,0.4c0.3,1.3-0.3,2.6-1.6,3.2c-1.2,0.6-2.7,0.2-3.5-0.8
			L20.8,33.5z"/>
	</g>
	<g id="XMLID_2263_">
		<g id="XMLID_2270_">
			<path id="XMLID_2262_" class="st1" d="M5.6,27v-7.7c0-0.3-0.3-0.6-0.6-0.6H2.8c-0.3,0-0.6,0.2-0.6,0.6V27v14.3
				C2.2,42.2,3,43,3.9,43c0.9,0,1.7-0.7,1.7-1.7V27L5.6,27z"/>
			<path id="XMLID_2989_" class="st0" d="M3.9,43.6c-1.3,0-2.3-1-2.3-2.3V19.3c0-0.7,0.5-1.2,1.2-1.2h2.3c0.7,0,1.2,0.5,1.2,1.2
				v22.1C6.3,42.6,5.2,43.6,3.9,43.6z M2.9,19.4v22c0,0.6,0.5,1,1,1s1-0.5,1-1v-22H2.9z"/>
		</g>
		<g id="XMLID_2269_">
			<path id="XMLID_3053_" class="st0" d="M7.3,15.3H0.5c-0.3,0-0.6,0.3-0.6,0.6c0,0.3,0.3,0.6,0.6,0.6h6.8c0.3,0,0.6-0.3,0.6-0.6
				C7.9,15.5,7.6,15.3,7.3,15.3L7.3,15.3z"/>
		</g>
		<g id="XMLID_2265_">
			<g id="XMLID_2268_">
				<path id="XMLID_3051_" class="st0" d="M2.8,18.1c-0.9,0-1.7-0.8-1.7-1.7V9.6C1.1,9.3,0.8,9,0.5,9S0,9.3,0,9.6v6.8
					c0,1.6,1.3,2.8,2.8,2.8c0.3,0,0.6-0.3,0.6-0.6C3.4,18.3,3.1,18.1,2.8,18.1z"/>
			</g>
			<g id="XMLID_2267_">
				<path id="XMLID_3049_" class="st0" d="M7.3,9C7,9,6.8,9.3,6.8,9.6v6.8c0,0.9-0.8,1.7-1.7,1.7c-0.3,0-0.6,0.3-0.6,0.6
					c0,0.3,0.3,0.6,0.6,0.6c1.6,0,2.8-1.3,2.8-2.8V9.6C7.9,9.3,7.6,9,7.3,9z"/>
			</g>
			<g id="XMLID_2266_">
				<path id="XMLID_3047_" class="st0" d="M2.8,9C2.5,9,2.2,9.3,2.2,9.6v6.2c0,0.3,0.3,0.6,0.6,0.6s0.6-0.3,0.6-0.6V9.6
					C3.4,9.3,3.1,9,2.8,9z"/>
			</g>
		</g>
		<g id="XMLID_2264_">
			<path id="XMLID_3044_" class="st0" d="M5.1,9C4.7,9,4.5,9.3,4.5,9.6v6.2c0,0.3,0.3,0.6,0.6,0.6s0.6-0.3,0.6-0.6V9.6
				C5.6,9.3,5.4,9,5.1,9L5.1,9z"/>
		</g>
	</g>
	<g id="XMLID_2249_">
		<g id="XMLID_2261_">
			<path id="XMLID_2986_" class="st0" d="M39.3,27.8h-2c-1.5-0.2-2.6-1.5-2.6-2.9V11.3c0-1.6,1.3-2.9,2.9-2.9h1.1
				c1,0,1.8,0.8,1.8,1.8v16.4C40.5,27.2,40,27.8,39.3,27.8z M37.6,9.7c-0.9,0-1.6,0.7-1.6,1.6v13.6c0,0.8,0.6,1.5,1.4,1.6l0,0h1.8
				V10.2c0-0.3-0.2-0.5-0.5-0.5H37.6z"/>
		</g>
		<g id="XMLID_2259_">
			<path id="XMLID_2386_" class="st0" d="M38.2,43.6c-1.3,0-2.3-1-2.3-2.3V27.4c0-0.7,0.5-1.2,1.2-1.2h2.3c0.7,0,1.2,0.5,1.2,1.2
				v13.9C40.5,42.6,39.5,43.6,38.2,43.6z M37.1,27.5v13.8c0,0.5,0.5,1,1,1s1-0.4,1-1V27.5H37.1z"/>
		</g>
	</g>
	<g id="XMLID_3016_">
		<path id="XMLID_3018_" class="st0" d="M3.9,43.6c-1.3,0-2.3-1-2.3-2.3V19.3c0-0.7,0.5-1.2,1.2-1.2h2.3c0.7,0,1.2,0.5,1.2,1.2v22.1
			C6.3,42.6,5.2,43.6,3.9,43.6z M2.9,19.4v22c0,0.6,0.5,1,1,1s1-0.5,1-1v-22H2.9z"/>
	</g>
	<g id="XMLID_2248_">
		<g id="XMLID_3014_">
			<path id="XMLID_3017_" class="st0" d="M2.8,18.1c-0.9,0-1.7-0.8-1.7-1.7V9.6C1.1,9.3,0.8,9,0.5,9S0,9.3,0,9.6v6.8
				c0,1.6,1.3,2.8,2.8,2.8c0.3,0,0.6-0.3,0.6-0.6C3.4,18.3,3.1,18.1,2.8,18.1z"/>
		</g>
		<g id="XMLID_3012_">
			<path id="XMLID_3015_" class="st0" d="M7.3,9C7,9,6.8,9.3,6.8,9.6v6.8c0,0.9-0.8,1.7-1.7,1.7c-0.3,0-0.6,0.3-0.6,0.6
				c0,0.3,0.3,0.6,0.6,0.6c1.6,0,2.8-1.3,2.8-2.8V9.6C7.9,9.3,7.6,9,7.3,9z"/>
		</g>
		<g id="XMLID_2992_">
			<path id="XMLID_3013_" class="st0" d="M2.8,9C2.5,9,2.2,9.3,2.2,9.6v6.2c0,0.3,0.3,0.6,0.6,0.6s0.6-0.3,0.6-0.6V9.6
				C3.4,9.3,3.1,9,2.8,9z"/>
		</g>
	</g>
	<g id="XMLID_403_">
		<path id="XMLID_404_" class="st1" d="M4.3,19.4H2.9v22c0,0.6,0.5,1,1,1s1-0.5,1-1V34c-1.3-2.4-2-5.1-2-8C3,23.6,3.5,21.4,4.3,19.4
			z"/>
		<path id="XMLID_2385_" class="st1" d="M28.1,11.8c-0.5-0.2-0.9-0.5-1.4-0.7c-1.5-0.6-3-1-4.6-1.2c-0.5-0.1-1.1-0.1-1.7-0.1
			c-5.1,0-9.6,2.3-12.5,6v0.5c0,1.1-0.7,2.1-1.7,2.6c0,0.1,0.1,0.2,0.1,0.3v14.5c2.7,5,8.1,8.4,14.2,8.4c0.6,0,1.1,0,1.6-0.1
			c1.1-0.1,2.1-0.3,3.1-0.6c5.1-1.6,9-5.5,10.6-10.6c0.3-1,0.5-2.1,0.6-3.1c0-0.3,0-0.5,0-0.8c-0.7-0.4-1.2-1.1-1.2-2v-4.9
			c-0.2-0.5-0.5-1.1-0.8-1.6C33.1,15.6,30.9,13.3,28.1,11.8z"/>
		<path id="XMLID_2985_" class="st1" d="M4.3,26c0,1.6,0.2,3.1,0.7,4.6v-9.2C4.5,22.9,4.3,24.4,4.3,26z"/>
		<path id="XMLID_3003_" class="st0" d="M36.5,26.9c0,0.3,0,0.5,0,0.8c-0.1,1.1-0.3,2.1-0.6,3.1c-1.6,5.1-5.5,9-10.6,10.6
			c-1,0.3-2.1,0.5-3.1,0.6c-0.5,0.1-1.1,0.1-1.6,0.1c-6.1,0-11.4-3.4-14.2-8.4v2.4c3.2,4.4,8.3,7.3,14.2,7.3c0.6,0,1.2,0,1.8-0.1
			c1.2-0.1,2.3-0.3,3.4-0.7c4.9-1.5,8.9-5.2,10.9-9.9v-5.3c0-0.2,0.1-0.3,0.3-0.4C36.7,26.9,36.6,26.9,36.5,26.9z"/>
		<path id="XMLID_3022_" class="st0" d="M20.4,9.9c0.5,0,1.1,0,1.7,0.1c1.6,0.2,3.2,0.6,4.6,1.2c0.5,0.2,1,0.4,1.4,0.7
			c2.8,1.5,5,3.7,6.5,6.5c0.3,0.5,0.5,1.1,0.8,1.6V17c-1.6-2.7-3.9-4.9-6.6-6.4c-0.5-0.3-1-0.5-1.5-0.7c-1.6-0.7-3.3-1.1-5-1.3
			c-0.6-0.1-1.2-0.1-1.8-0.1c-4.9,0-9.4,2.1-12.5,5.4v2C10.8,12.2,15.4,9.9,20.4,9.9z"/>
	</g>
</g>
</svg>
