<?xml version="1.0" encoding="utf-8"?>
<!-- Generator: Adobe Illustrator 24.0.2, SVG Export Plug-In . SVG Version: 6.00 Build 0)  -->
<svg version="1.1" id="Layer_1" xmlns="http://www.w3.org/2000/svg" xmlns:xlink="http://www.w3.org/1999/xlink" x="0px" y="0px"
	 viewBox="0 0 508 347.3" style="enable-background:new 0 0 508 347.3;" xml:space="preserve">
<style type="text/css">
	.st0{fill:#838383;}
</style>
<path class="st0" d="M309.3,274.1c6.2,0,12.2,0,18.2,0c5.2,0,7,1.8,7,7c0,6.7,0,13.4,0,20.2c0,0.9,0,1.8,0,3c1.6,0,3,0,4.5,0
	c13.4,0,26.9,0,40.3,0c4.7,0,6.7,1.9,6.7,6.7c0,9.3,0,18.6,0,27.8c0,4.4-2,6.4-6.3,6.4c-22.7,0-45.4,0-68.2,0c-8,0-16,0-24,0
	c-16.5,0-33.1,0-49.6,0c-19.8,0-39.6,0-59.4,0c-16.6,0-33.2,0-49.8,0c-4.7,0-6.7-2-6.7-6.7c0-9.4,0-18.7,0-28.1c0-4,2.1-6.2,6.1-6.2
	c14.3,0,28.5,0,42.8,0c0.7,0,1.5,0,2.5,0c0-0.9,0-1.7,0-2.4c0-7.2,0-14.4,0-21.6c0-3.9,2.1-6,6-6c5.6,0,11.2,0,16.8,0
	c0.8,0,1.5,0,2.3,0c0.4-2.3,0.7-4.4,1.2-6.5c3.2-13.3,10.8-23.2,23-29.4c1.5-0.8,2-1.6,2-3.3c-0.1-11.9,0-23.8,0-35.7
	c0-1.2-0.1-2-1.4-2.6c-14-6.2-25-16-33.8-28.3c-0.8-1.1-1.6-1.5-2.9-1.5c-11.9-0.3-23.6-1.7-35-5.1c-29.9-9-49.4-28.5-58.5-58.3
	c-5.5-17.9-6.4-36.3-4.8-54.9c0.6-6.2,1.7-12.3,2.7-18.5c0.6-3.9,2.5-5.4,6.6-5.4c18.8,0,37.5,0,56.3,0c0.8,0,1.6,0,2.6,0
	c0.2-4.1,0.3-8,0.5-11.9c0.1-1.6,0.1-3.2,0.2-4.8c0.3-3.7,2.4-5.6,6.1-5.6c11.7,0,23.4,0,35.1,0c20.4,0,40.9,0,61.3,0
	c28,0,56,0,83.9,0c4.9,0,6.7,1.7,7,6.7c0.3,5.1,0.5,10.2,0.7,15.6c0.6,0,1.3,0.1,2,0.1c19,0,38,0,56.9,0c3.9,0,5.8,1.4,6.6,5.2
	c4.3,21.9,5,43.9,0,65.8c-3.3,14.3-8.9,27.6-18.3,39c-10.9,13.2-24.8,21.8-41.1,26.8c-11.8,3.6-23.9,5.2-36.2,5.5
	c-1.5,0-2.2,0.7-3,1.8c-8.8,12.2-19.8,21.9-33.7,28.2c-0.6,0.3-1.3,1.3-1.3,2c-0.1,12.4,0,24.8-0.1,37.2c0,1.4,0.7,1.8,1.7,2.3
	c13.8,6.8,21.4,18.1,24,33C309,272.1,309.1,272.9,309.3,274.1z M167.6,13.1c0,2.6,0,5.1,0,7.5c-0.4,25.7,1,51.2,5.8,76.5
	c3.3,17.4,8.1,34.4,16.1,50.2c6.9,13.5,15.7,25.4,28.5,34c11.1,7.4,23.4,11.5,36.6,11.2c18.1-0.3,33.6-7.5,46.4-20.3
	c11.6-11.6,18.9-25.8,24.5-41c6.9-19,10.6-38.7,12.8-58.7c2-17.9,2.5-35.9,2.1-53.9c0-1.8-0.2-3.5-0.3-5.4
	C282.6,13.1,225.3,13.1,167.6,13.1z M326.5,155.6c0.5,0.1,0.7,0.1,0.9,0.1c11.1-0.8,22-2.7,32.4-6.7c14.6-5.6,26.6-14.5,35.1-27.7
	c5.1-7.9,8.5-16.6,10.8-25.7c3.6-14.4,4.3-29,3.2-43.7c-0.4-5.4-1.2-10.8-1.8-16.3c-18.8,0-37.3,0-55.8,0c0,0.7-0.1,1.1-0.1,1.6
	c-0.2,18.4-1.6,36.8-4.7,55c-3.2,19.2-8.1,37.9-16.3,55.6C329.2,150.3,327.9,152.8,326.5,155.6z M156.6,35.5
	c-0.7-0.1-1.2-0.2-1.7-0.2c-17.3,0-34.6,0-51.9,0c-1.5,0-2.1,0.4-2.2,1.9c-0.6,6.4-1.5,12.8-1.9,19.2c-0.9,17.2,0.8,34,7,50.2
	c5.3,14,13.9,25.6,26.4,34.1c10.6,7.2,22.5,11.2,35,13.3c4.6,0.8,9.3,1.2,14.5,1.9c-10.2-18.8-15.8-38.5-19.5-58.8
	C158.4,76.8,156.8,56.3,156.6,35.5z M375.1,315.1c-80.8,0-161.4,0-242.1,0c0,6.5,0,12.8,0,19.1c80.8,0,161.4,0,242.1,0
	C375.1,327.8,375.1,321.6,375.1,315.1z M184.3,304.1c46.6,0,92.9,0,139.2,0c0-6.4,0-12.7,0-19c-46.5,0-92.8,0-139.2,0
	C184.3,291.5,184.3,297.7,184.3,304.1z M209.7,274c29.6,0,59,0,88.9,0c-0.8-2.9-1.3-5.5-2.2-8c-2.2-6.5-6.3-11.6-11.9-15.6
	c-4.2-3-8.7-4.3-13.9-4.1c-11.6,0.3-23.2,0.3-34.9,0.1c-4.6-0.1-8.4,1.2-11.9,3.8c-2.3,1.7-4.5,3.5-6.3,5.6
	C212.9,261,210.5,267.1,209.7,274z M272.2,235.5c0-11.6,0-23,0-34.7c-12.2,3.4-24.3,3.2-36.4,0.1c0,11.8,0,23.2,0,34.7
	C248,235.5,260,235.5,272.2,235.5z"/>
</svg>
