<?xml version="1.0" encoding="utf-8"?>
<!-- Generator: Adobe Illustrator 19.0.0, SVG Export Plug-In . SVG Version: 6.00 Build 0)  -->
<svg version="1.1" id="Warstwa_1" xmlns="http://www.w3.org/2000/svg" xmlns:xlink="http://www.w3.org/1999/xlink" x="0px" y="0px"
	 viewBox="-395 279.3 49.2 38" style="enable-background:new -395 279.3 49.2 38;" xml:space="preserve">
<style type="text/css">
	.st0{fill:#838383;}
</style>
<g>
	<path class="st0" d="M-379.7,300c-0.3-0.2-0.7-0.1-0.9,0.2l-1.5,2.2c0,0,0,0,0,0l-0.2,0.3l-0.1,0.2v0l-1.3,2
		c-0.2-0.5-0.5-0.9-1-1.2c-0.6-0.4-1.4-0.6-2.1-0.4c-0.7,0.1-1.4,0.6-1.8,1.2c-0.9,1.3-0.5,3,0.8,3.9c0.5,0.3,1,0.5,1.6,0.5
		c0.9,0,1.8-0.4,2.3-1.2l2.3-3.4l5.5,3.7l-1,1.5c-0.2-0.5-0.6-0.9-1-1.2c-0.6-0.4-1.4-0.6-2.1-0.4c-0.7,0.1-1.4,0.6-1.8,1.2
		c-0.4,0.6-0.6,1.4-0.4,2.1c0.1,0.7,0.6,1.4,1.2,1.8c0.5,0.3,1,0.5,1.6,0.5c0.2,0,0.4,0,0.5-0.1c0.7-0.1,1.4-0.6,1.8-1.2l3-4.5
		c0,0,0,0,0,0l1.5-2.2c0.1-0.1,0.1-0.3,0.1-0.5c0-0.2-0.1-0.3-0.3-0.4L-379.7,300z M-387.2,307.2c-0.7-0.5-0.9-1.4-0.4-2.1
		c0.2-0.3,0.6-0.6,1-0.6c0.1,0,0.2,0,0.3,0c0.3,0,0.6,0.1,0.8,0.3c0.7,0.5,0.9,1.4,0.4,2.1S-386.5,307.7-387.2,307.2z M-379.9,301.4
		l5.5,3.7l-1.1,1.6l-5.5-3.7L-379.9,301.4z M-379.5,311.9c-0.4,0.1-0.8,0-1.1-0.2c-0.3-0.2-0.6-0.6-0.6-1c-0.1-0.4,0-0.8,0.2-1.1
		c0.2-0.3,0.6-0.6,1-0.6c0.1,0,0.2,0,0.3,0c0.3,0,0.6,0.1,0.8,0.3c0.3,0.2,0.6,0.6,0.6,1c0.1,0.4,0,0.8-0.2,1.1
		C-378.7,311.6-379.1,311.8-379.5,311.9z"/>
	<path class="st0" d="M-356.5,307.8l-1.5-4.5c0,0,0,0,0,0l-1.1-3.1c-0.1-0.3-0.5-0.5-0.8-0.4l-7.6,2.6c-0.2,0.1-0.3,0.2-0.4,0.3
		c-0.1,0.2-0.1,0.3,0,0.5l0.8,2.5c0,0,0,0,0,0l1,2.9c-0.5-0.1-1.1-0.1-1.6,0.1c-0.7,0.2-1.3,0.7-1.6,1.4c-0.3,0.7-0.4,1.4-0.1,2.1
		c0.2,0.7,0.7,1.3,1.4,1.6c0.4,0.2,0.8,0.3,1.2,0.3c0.3,0,0.6-0.1,0.9-0.2c0.7-0.2,1.3-0.7,1.6-1.4c0.3-0.7,0.4-1.4,0.1-2.1
		l-1.3-3.9l6.3-2.2l0.6,1.7c-0.5-0.1-1.1-0.1-1.6,0.1c-1.5,0.5-2.3,2.1-1.8,3.6c0.2,0.7,0.7,1.3,1.4,1.6c0.4,0.2,0.8,0.3,1.2,0.3
		c0.3,0,0.6-0.1,0.9-0.2c0.7-0.2,1.3-0.7,1.6-1.4C-356.4,309.2-356.3,308.5-356.5,307.8C-356.5,307.8-356.5,307.8-356.5,307.8z
		 M-365.4,311.9c-0.2,0.4-0.5,0.6-0.9,0.8c-0.4,0.1-0.8,0.1-1.2-0.1s-0.6-0.5-0.8-0.9c-0.1-0.4-0.1-0.8,0.1-1.2
		c0.2-0.4,0.5-0.6,0.9-0.8c0.2-0.1,0.3-0.1,0.5-0.1c0.6,0,1.2,0.4,1.4,1l0,0C-365.2,311.1-365.2,311.6-365.4,311.9z M-365.9,305.2
		L-365.9,305.2C-365.9,305.2-365.9,305.2-365.9,305.2l-0.6-1.9l6.3-2.2l0.6,1.9L-365.9,305.2z M-357.9,309.3
		c-0.2,0.4-0.5,0.6-0.9,0.8c-0.4,0.1-0.8,0.1-1.2-0.1c-0.4-0.2-0.6-0.5-0.8-0.9c-0.3-0.8,0.2-1.7,0.9-1.9c0.2-0.1,0.3-0.1,0.5-0.1
		c0.6,0,1.2,0.4,1.4,1l0,0C-357.6,308.6-357.7,309-357.9,309.3z"/>
	<circle class="st0" cx="-390.1" cy="289.3" r="0.6"/>
	<circle class="st0" cx="-390.7" cy="291.5" r="0.6"/>
	<circle class="st0" cx="-388.4" cy="290.6" r="0.6"/>
	<path class="st0" d="M-349.1,286.2c0-0.1-0.1-0.3-0.2-0.3l0.1-4.6c0-0.2-0.1-0.3-0.2-0.5c-0.1-0.1-0.3-0.2-0.5-0.2h-41
		c-0.4,0-0.6,0.3-0.6,0.6l-0.1,5c0,0,0,0,0,0l-2.1,7.7c-0.1,0.2,0,0.5,0.2,0.7c0.2,0.2,0.4,0.2,0.7,0.1l1.3-0.5v21
		c0,0.4,0.3,0.7,0.6,0.7h41c0.4,0,0.7-0.3,0.7-0.7v-21l1.4,0.6c0.1,0,0.2,0,0.2,0c0.2,0,0.3-0.1,0.4-0.2c0.2-0.2,0.3-0.4,0.2-0.7
		L-349.1,286.2z M-372.3,287.1c0.5-0.3,1.2-0.5,1.9-0.5s1.3,0.2,1.9,0.5H-372.3z M-368.4,288.4c-0.5,0.4-1.3,0.6-2.1,0.6
		s-1.5-0.2-2.1-0.6H-368.4z M-370.4,290.2c1,0,1.9-0.3,2.6-0.7c-0.6,0.8-1.5,1.4-2.6,1.4s-2-0.5-2.6-1.4
		C-372.3,290-371.4,290.2-370.4,290.2z M-370.4,285.3c-1,0-2,0.3-2.7,0.8c0.6-0.9,1.6-1.6,2.7-1.6s2.2,0.6,2.7,1.6
		C-368.5,285.6-369.4,285.3-370.4,285.3z M-390.3,282h19.2v1.3c-2.2,0.3-3.8,2.2-3.8,4.4c0,2.5,2,4.5,4.5,4.5s4.5-2,4.5-4.5
		c0-2.3-1.7-4.1-3.8-4.4V282h19.2l-0.1,4.1c-1.3,1.2-9.2,7.5-19.9,7.5c-10.6,0-18.5-6.3-19.9-7.5L-390.3,282z M-357.7,295.3l-2,0.9
		l-0.8-0.7l2.9-1.2L-357.7,295.3z M-357.7,296.8l0,1l-0.8-0.6L-357.7,296.8z M-357.6,293c-0.1,0-0.1,0-0.2,0l-3.9,1.6l-1-0.8
		c1.9-0.5,3.6-1.2,5.1-1.8L-357.6,293z M-368,294.7l-2.6,4.9l-2.3-4.9c0.8,0.1,1.6,0.1,2.4,0.1C-369.7,294.9-368.9,294.8-368,294.7z
		 M-381.1,296.2l-2-0.9l0-1l2.9,1.2L-381.1,296.2z M-382.2,297.1l-0.8,0.6l0-1L-382.2,297.1z M-379.1,294.6l-3.9-1.6
		c-0.1,0-0.1,0-0.2,0l0-0.9c1.5,0.7,3.2,1.3,5,1.8L-379.1,294.6z M-390.7,287.6c0.9,0.7,2.4,1.9,4.5,3l-6,2.5L-390.7,287.6z
		 M-350.6,314.6h-39.7v-20.9l5.5-2.3c0,0,0.1,0,0.1-0.1c0.1,0,0.1,0.1,0.2,0.1l0.1,4.3c0,0,0,0,0,0l0.1,3.4c0,0.2,0.2,0.5,0.4,0.6
		c0.1,0,0.2,0.1,0.3,0.1c0.1,0,0.3,0,0.4-0.1l6.5-5.2c0.1,0,0.1-0.1,0.1-0.2c0.7,0.1,1.4,0.3,2.2,0.4l3.1,6.8
		c0.1,0.2,0.3,0.4,0.6,0.4c0,0,0,0,0,0c0.2,0,0.5-0.1,0.6-0.3l3.6-6.9c0.8-0.1,1.5-0.2,2.2-0.4c0,0.1,0.1,0.2,0.2,0.2l6.5,5.2
		c0.1,0.1,0.3,0.1,0.4,0.1c0.1,0,0.2,0,0.3-0.1c0.2-0.1,0.4-0.3,0.4-0.6l0.2-7.8c0,0,0,0,0.1,0c0.1,0.1,0.1,0.1,0.2,0.2l5.4,2.2
		V314.6z M-354.8,290.5c2.3-1.3,3.9-2.5,4.7-3.2l1.6,5.7L-354.8,290.5z"/>
	<circle class="st0" cx="-350.7" cy="289.3" r="0.6"/>
	<circle class="st0" cx="-350.1" cy="291.5" r="0.6"/>
	<circle class="st0" cx="-352.4" cy="290.6" r="0.6"/>
	<path class="st0" d="M-381.3,283.2c-1.4,0-2.6,1.2-2.6,2.6c0,1.4,1.2,2.6,2.6,2.6c1.4,0,2.6-1.2,2.6-2.6
		C-378.7,284.4-379.9,283.2-381.3,283.2z M-381.3,287.1c-0.7,0-1.3-0.6-1.3-1.3c0-0.7,0.6-1.3,1.3-1.3c0.7,0,1.3,0.6,1.3,1.3
		C-380,286.5-380.6,287.1-381.3,287.1z"/>
	<path class="st0" d="M-359.6,289.5c1.4,0,2.6-1.2,2.6-2.6c0-1.4-1.2-2.6-2.6-2.6s-2.6,1.2-2.6,2.6
		C-362.2,288.4-361,289.5-359.6,289.5z M-359.6,285.7c0.7,0,1.3,0.6,1.3,1.3c0,0.7-0.6,1.3-1.3,1.3s-1.3-0.6-1.3-1.3
		C-360.9,286.3-360.3,285.7-359.6,285.7z"/>
	<circle class="st0" cx="-353.3" cy="301.4" r="1.5"/>
	<circle class="st0" cx="-387.1" cy="298.3" r="1.5"/>
</g>
</svg>
