<?xml version="1.0" encoding="utf-8"?>
<!-- Generator: Adobe Illustrator 25.2.3, SVG Export Plug-In . SVG Version: 6.00 Build 0)  -->
<svg version="1.1" id="Warstwa_1" xmlns="http://www.w3.org/2000/svg" xmlns:xlink="http://www.w3.org/1999/xlink" x="0px" y="0px"
	 viewBox="0 0 49.2 38" style="enable-background:new 0 0 49.2 38;" xml:space="preserve">
<style type="text/css">
	.st0{fill:#838383;}
</style>
<g>
	<g>
		<g>
			<path class="st0" d="M32.9,14.1l-3.2-3.2c-0.5-0.5-1.1-0.7-1.7-0.7H18c-0.6,0-1.3,0.3-1.7,0.7L13,14.1c-0.9,0.9-0.9,2.5,0,3.4
				c0.5,0.5,1.1,0.7,1.7,0.7h16.4c1.3,0,2.4-1.1,2.4-2.4C33.6,15.1,33.4,14.5,32.9,14.1z M15.7,16.6h-0.9c-0.3,0-0.6-0.2-0.8-0.5
				c-0.1-0.3-0.1-0.7,0.2-0.9l1.5-1.5V16.6z M23.8,16.6h-6.5v-4.5l0.1-0.1c0.2-0.2,0.4-0.2,0.6-0.2h5.8V16.6z M32,16.1
				c-0.1,0.3-0.4,0.5-0.7,0.5h-5.8v-4.9H28c0.2,0,0.4,0.1,0.6,0.2l3.2,3.2C32,15.4,32.1,15.8,32,16.1z"/>
		</g>
	</g>
	<g>
		<g>
			<path class="st0" d="M44.8,16.6h-3.5c-0.6,0-1.3-0.3-1.7-0.7l-7.8-7.8C31,7.3,30,6.9,28.9,6.9H27V4.4c0-0.4-0.4-0.8-0.8-0.8H23
				c-0.4,0-0.8,0.4-0.8,0.8v2.4H17c-1.1,0-2.1,0.4-2.9,1.2l-7.8,7.8c-0.5,0.5-1.1,0.7-1.7,0.7H4.4c-2.2,0-4,1.8-4,4v4.9
				c0,2.2,1.8,4,4,4h0.9c0.4,3.1,3.3,5.2,6.4,4.8c2.5-0.4,4.4-2.3,4.8-4.8h16.3c0.4,3.1,3.3,5.2,6.4,4.8c2.5-0.4,4.4-2.3,4.8-4.8
				h0.9c2.2,0,4-1.8,4-4v-4.9C48.9,18.4,47,16.6,44.8,16.6z M45.6,18.3C45.6,18.3,45.7,18.4,45.6,18.3c0.2,0.1,0.3,0.1,0.4,0.2
				c0,0,0.1,0,0.1,0.1c0.3,0.2,0.5,0.4,0.7,0.7c0,0,0.1,0.1,0.1,0.1c0.1,0.1,0.1,0.2,0.2,0.3c0,0,0,0,0,0.1h-1.5V18.3z M23.8,5.3
				h1.6v1.6h-1.6V5.3z M2.1,19.8c0-0.1,0.1-0.2,0.2-0.3c0,0,0-0.1,0.1-0.1c0.2-0.3,0.4-0.5,0.7-0.7c0,0,0.1-0.1,0.1-0.1
				c0.1-0.1,0.2-0.1,0.3-0.2c0,0,0,0,0.1,0v1.5L2.1,19.8C2.1,19.8,2.1,19.8,2.1,19.8z M10.9,32.7c-2.2,0-4-1.8-4-4s1.8-4,4-4
				s4,1.8,4,4C14.9,30.9,13.1,32.7,10.9,32.7z M38.3,32.7c-2.2,0-4-1.8-4-4s1.8-4,4-4s4,1.8,4,4C42.4,30.9,40.6,32.7,38.3,32.7z
				 M47.2,24.7h-1.6v1.6h1.5c-0.3,1-1.3,1.6-2.3,1.6h-0.9c0-0.1,0-0.1,0-0.2c0-0.1,0-0.2,0-0.2c0-0.1-0.1-0.2-0.1-0.3
				c0-0.1,0-0.1-0.1-0.2c0-0.1-0.1-0.2-0.1-0.3c0-0.1,0-0.1-0.1-0.2c0-0.1-0.1-0.2-0.2-0.3c0,0,0-0.1-0.1-0.1
				c-0.1-0.2-0.2-0.3-0.3-0.4c0,0-0.1-0.1-0.1-0.1c-0.1-0.1-0.2-0.2-0.2-0.3c0-0.1-0.1-0.1-0.1-0.1c-0.1-0.1-0.1-0.2-0.2-0.2
				c-0.1-0.1-0.1-0.1-0.2-0.1c-0.1-0.1-0.1-0.1-0.2-0.2c-0.1,0-0.1-0.1-0.2-0.1c-0.1-0.1-0.2-0.1-0.2-0.2c-0.1,0-0.1-0.1-0.2-0.1
				c-0.1-0.1-0.2-0.1-0.3-0.2c-0.1,0-0.1-0.1-0.2-0.1c-0.1,0-0.2-0.1-0.3-0.1c-0.1,0-0.1-0.1-0.2-0.1c-0.1,0-0.2-0.1-0.3-0.1
				c-0.1,0-0.1,0-0.2-0.1c-0.1,0-0.2-0.1-0.3-0.1c-0.1,0-0.1,0-0.2,0c-0.1,0-0.2,0-0.4-0.1c-0.1,0-0.1,0-0.2,0c-0.2,0-0.4,0-0.5,0
				s-0.4,0-0.6,0c-0.1,0-0.1,0-0.2,0c-0.1,0-0.2,0-0.4,0.1c-0.1,0-0.1,0-0.2,0c-0.1,0-0.2,0.1-0.3,0.1c-0.1,0-0.1,0-0.2,0.1
				c-0.1,0-0.2,0.1-0.3,0.1c-0.1,0-0.1,0.1-0.2,0.1c-0.1,0-0.2,0.1-0.3,0.1c-0.1,0-0.1,0.1-0.2,0.1c-0.1,0-0.2,0.1-0.3,0.2
				c-0.1,0-0.1,0.1-0.2,0.1c-0.1,0.1-0.2,0.1-0.2,0.2c-0.1,0-0.1,0.1-0.2,0.1c-0.1,0.1-0.2,0.1-0.2,0.2c-0.1,0-0.1,0.1-0.2,0.1
				c-0.1,0.1-0.1,0.2-0.2,0.2c0,0-0.1,0.1-0.1,0.1c-0.1,0.1-0.2,0.2-0.2,0.3c0,0-0.1,0.1-0.1,0.1c-0.1,0.1-0.2,0.3-0.3,0.4
				c0,0,0,0.1-0.1,0.1c-0.1,0.1-0.1,0.2-0.2,0.3c0,0.1,0,0.1-0.1,0.2c0,0.1-0.1,0.2-0.1,0.3c0,0.1,0,0.1-0.1,0.2
				c0,0.1-0.1,0.2-0.1,0.3c0,0.1,0,0.2,0,0.2c0,0.1,0,0.1,0,0.2H16.5c0-0.1,0-0.1,0-0.2c0-0.1,0-0.2,0-0.2c0-0.1-0.1-0.2-0.1-0.3
				c0-0.1,0-0.1-0.1-0.2c0-0.1-0.1-0.2-0.1-0.3c0-0.1,0-0.1-0.1-0.2c0-0.1-0.1-0.2-0.2-0.3c0,0,0-0.1-0.1-0.1
				c-0.1-0.2-0.2-0.3-0.3-0.4c0,0-0.1-0.1-0.1-0.1c-0.1-0.1-0.2-0.2-0.2-0.3c0-0.1-0.1-0.1-0.1-0.1c-0.1-0.1-0.1-0.2-0.2-0.2
				c-0.1-0.1-0.1-0.1-0.2-0.1c-0.1-0.1-0.1-0.1-0.2-0.2c-0.1,0-0.1-0.1-0.2-0.1c-0.1-0.1-0.2-0.1-0.2-0.2C14,24,14,24,13.9,23.9
				c-0.1-0.1-0.2-0.1-0.3-0.2c-0.1,0-0.1-0.1-0.2-0.1c-0.1,0-0.2-0.1-0.3-0.1c-0.1,0-0.1-0.1-0.2-0.1c-0.1,0-0.2-0.1-0.3-0.1
				c-0.1,0-0.1,0-0.2-0.1c-0.1,0-0.2-0.1-0.3-0.1c-0.1,0-0.1,0-0.2,0c-0.1,0-0.2,0-0.4-0.1c-0.1,0-0.1,0-0.2,0c-0.2,0-0.4,0-0.5,0
				s-0.4,0-0.6,0c-0.1,0-0.1,0-0.2,0c-0.1,0-0.2,0-0.4,0.1c-0.1,0-0.1,0-0.2,0c-0.1,0-0.2,0.1-0.3,0.1c-0.1,0-0.1,0-0.2,0.1
				c-0.1,0-0.2,0.1-0.3,0.1c-0.1,0-0.1,0.1-0.2,0.1c-0.1,0-0.2,0.1-0.3,0.1c-0.1,0-0.1,0.1-0.2,0.1c-0.1,0-0.2,0.1-0.3,0.2
				c-0.1,0-0.1,0.1-0.2,0.1c-0.1,0.1-0.2,0.1-0.2,0.2c-0.1,0-0.1,0.1-0.2,0.1C7.1,24.5,7,24.5,7,24.6c-0.1,0-0.1,0.1-0.2,0.1
				c-0.1,0.1-0.1,0.2-0.2,0.2c0,0-0.1,0.1-0.1,0.1c-0.1,0.1-0.2,0.2-0.2,0.3c0,0-0.1,0.1-0.1,0.1C6.1,25.7,6,25.8,5.9,26
				c0,0,0,0.1-0.1,0.1c-0.1,0.1-0.1,0.2-0.2,0.3c0,0.1,0,0.1-0.1,0.2c0,0.1-0.1,0.2-0.1,0.3c0,0.1,0,0.1-0.1,0.2
				c0,0.1-0.1,0.2-0.1,0.3c0,0.1,0,0.2,0,0.2c0,0.1,0,0.1,0,0.2H4.4C3,27.9,2,26.8,2,25.5v-4h2.4c0.4,0,0.8-0.4,0.8-0.8v-2.5
				C6.1,18,6.9,17.6,7.5,17l7.8-7.8c0.5-0.5,1.1-0.7,1.7-0.7h11.9c0.6,0,1.3,0.3,1.7,0.7l7.8,7.8c0.8,0.8,1.8,1.2,2.9,1.2H44v2.4
				c0,0.4,0.4,0.8,0.8,0.8h2.4V24.7z"/>
		</g>
	</g>
	<g>
		<g>
			<path class="st0" d="M10.9,26.3c-1.3,0-2.4,1.1-2.4,2.4s1.1,2.4,2.4,2.4s2.4-1.1,2.4-2.4S12.2,26.3,10.9,26.3z M10.9,29.5
				c-0.4,0-0.8-0.4-0.8-0.8c0-0.4,0.4-0.8,0.8-0.8c0.4,0,0.8,0.4,0.8,0.8C11.7,29.1,11.3,29.5,10.9,29.5z"/>
		</g>
	</g>
	<g>
		<g>
			<path class="st0" d="M38.3,26.3c-1.3,0-2.4,1.1-2.4,2.4s1.1,2.4,2.4,2.4s2.4-1.1,2.4-2.4S39.7,26.3,38.3,26.3z M38.3,29.5
				c-0.4,0-0.8-0.4-0.8-0.8c0-0.4,0.4-0.8,0.8-0.8s0.8,0.4,0.8,0.8C39.2,29.1,38.8,29.5,38.3,29.5z"/>
		</g>
	</g>
	<g>
		<g>
			<rect x="18.1" y="24.7" class="st0" width="1.6" height="1.6"/>
		</g>
	</g>
	<g>
		<g>
			<rect x="19.7" y="23" class="st0" width="1.6" height="1.6"/>
		</g>
	</g>
	<g>
		<g>
			<rect x="21.4" y="24.7" class="st0" width="1.6" height="1.6"/>
		</g>
	</g>
	<g>
		<g>
			<rect x="23" y="23" class="st0" width="1.6" height="1.6"/>
		</g>
	</g>
	<g>
		<g>
			<rect x="24.6" y="24.7" class="st0" width="1.6" height="1.6"/>
		</g>
	</g>
	<g>
		<g>
			<rect x="26.2" y="23" class="st0" width="1.6" height="1.6"/>
		</g>
	</g>
	<g>
		<g>
			<rect x="27.8" y="24.7" class="st0" width="1.6" height="1.6"/>
		</g>
	</g>
	<g>
		<g>
			<rect x="29.5" y="23" class="st0" width="1.6" height="1.6"/>
		</g>
	</g>
	<g>
		<g>
			<rect x="18.1" y="21.4" class="st0" width="1.6" height="1.6"/>
		</g>
	</g>
	<g>
		<g>
			<rect x="21.4" y="21.4" class="st0" width="1.6" height="1.6"/>
		</g>
	</g>
	<g>
		<g>
			<rect x="24.6" y="21.4" class="st0" width="1.6" height="1.6"/>
		</g>
	</g>
	<g>
		<g>
			<rect x="27.8" y="21.4" class="st0" width="1.6" height="1.6"/>
		</g>
	</g>
</g>
</svg>
