<?xml version="1.0" encoding="utf-8"?>
<!-- Generator: Adobe Illustrator 19.0.0, SVG Export Plug-In . SVG Version: 6.00 Build 0)  -->
<svg version="1.1" id="Warstwa_1" xmlns="http://www.w3.org/2000/svg" xmlns:xlink="http://www.w3.org/1999/xlink" x="0px" y="0px"
	 viewBox="-395 279.3 49.2 38" style="enable-background:new -395 279.3 49.2 38;" xml:space="preserve">
<style type="text/css">
	.st0{fill:#838383;}
	.st1{fill:#FFFFFF;}
</style>
<g id="XMLID_280_">
	<g id="XMLID_296_">
		<path class="st0" d="M-371,301.2c-0.2,0-0.4-0.1-0.5-0.2c-0.2-0.3-0.2-0.7,0.1-0.9c1.7-1.3,3.7-2,5.9-2c0.4,0,0.4,0.3,0.4,0.7
			s0,0.6-0.4,0.6c-1.9,0-3.6,0.6-5.1,1.8C-370.7,301.2-370.8,301.2-371,301.2z"/>
	</g>
	<g id="XMLID_295_">
		<path class="st0" d="M-346.5,316.1h-27.9c-0.4,0-0.7-0.3-0.7-0.7s0.3-0.7,0.7-0.7h27.2v-7.2c0-4.5-3.7-8.2-8.2-8.2
			c-0.4,0-0.4-0.3-0.4-0.7s0-0.6,0.4-0.6c5.3,0,9.5,4.3,9.5,9.5v7.9C-345.9,315.8-346.2,316.1-346.5,316.1z"/>
	</g>
	<g id="XMLID_294_">
		<path class="st0" d="M-349.3,309.6h-3.6c-0.4,0-0.7-0.3-0.7-0.7s0.3-0.7,0.7-0.7h3.6c0.4,0,0.7,0.3,0.7,0.7
			S-349,309.6-349.3,309.6z"/>
	</g>
	<g id="XMLID_293_">
		<path class="st0" d="M-360.4,306c-3.6,0-6.5-2.9-6.5-6.5v-0.7c0-0.4,0.3-0.6,0.7-0.6s0.7,0.3,0.7,0.6v0.7c0,2.9,2.3,5.2,5.2,5.2
			s5.2-2.3,5.2-5.2v-0.7c0-0.4,0.3-0.6,0.7-0.6s0.7,0.3,0.7,0.6v0.7C-353.9,303.1-356.8,306-360.4,306z"/>
	</g>
	<g id="XMLID_292_">
		<path class="st0" d="M-360.4,281.8c3.9,0,7.1,3.2,7.1,7.1v3.9c0,3.9-3.2,7.1-7.1,7.1s-7.1-3.2-7.1-7.1v-3.9
			C-367.6,285-364.4,281.8-360.4,281.8 M-360.4,280.5L-360.4,280.5c-4.6,0-8.4,3.8-8.4,8.4v3.9c0,4.6,3.8,8.4,8.4,8.4h0
			c4.6,0,8.4-3.8,8.4-8.4v-3.9C-352,284.2-355.8,280.5-360.4,280.5L-360.4,280.5z"/>
	</g>
	<g id="XMLID_291_">
		<path class="st0" d="M-354.1,291c-10.2,0-13.4-4.7-13.6-4.9c-0.2-0.3-0.1-0.7,0.2-0.9c0.3-0.2,0.7-0.1,0.9,0.2
			c0.1,0.1,3.4,4.6,13.7,4.3c0,0,0,0,0,0c0.3,0,0.6,0.3,0.6,0.6c0,0.4-0.3,0.7-0.6,0.7C-353.3,291-353.7,291-354.1,291z"/>
	</g>
	<g id="XMLID_282_">
		<g id="XMLID_290_">
			<path class="st0" d="M-367.1,316.1h-27.1c-0.4,0-0.6-0.3-0.6-0.7v-7.7c0-5.1,4.2-9.3,9.3-9.3c0.4,0,0.4,0.3,0.4,0.7
				c0,0.4-0.1,0.6-0.4,0.6c-4.4,0-8,3.6-8,8v7h25.8v-7c0-2.7-1.3-5.2-3.5-6.7c-1.3-0.9-2.9-1.4-4.5-1.4c-0.4,0-0.5-0.2-0.5-0.6
				c0-0.4,0.1-0.7,0.5-0.7c1.9,0,3.6,0.5,5.2,1.6c2.6,1.7,4.1,4.6,4.1,7.7v7.7C-366.5,315.8-366.8,316.1-367.1,316.1z"/>
		</g>
		<g id="XMLID_289_">
			<path class="st0" d="M-370.5,309.5h-3.3c-0.4,0-0.7-0.3-0.7-0.7s0.3-0.7,0.7-0.7h3.3c0.4,0,0.7,0.3,0.7,0.7
				S-370.1,309.5-370.5,309.5z"/>
		</g>
		<g id="XMLID_288_">
			<path class="st0" d="M-380.6,306.2c-3.3,0-6-2.7-6-6v-0.7c0-0.4,0.3-0.6,0.7-0.6s0.7,0.3,0.7,0.6v0.7c0,2.6,2.1,4.7,4.7,4.7
				c2.6,0,4.7-2.1,4.7-4.7v-0.7c0-0.4,0.3-0.6,0.7-0.6s0.7,0.3,0.7,0.6v0.7C-374.6,303.5-377.3,306.2-380.6,306.2z"/>
		</g>
		<g id="XMLID_287_">
			<path class="st0" d="M-373.8,296.6c-0.3,0-0.5-0.2-0.6-0.5c-0.1-0.3,0.1-0.7,0.4-0.8c0.3-0.1,0.7-0.2,1-0.4
				c3.2-1.5,4.5-5.3,3-8.4c-0.7-1.5-2-2.7-3.6-3.2c-1.6-0.6-3.3-0.5-4.8,0.2c-0.3,0.2-0.7,0.4-1,0.6c-0.3,0.2-0.7,0.1-0.9-0.1
				s-0.1-0.7,0.1-0.9c0.4-0.3,0.8-0.5,1.2-0.7c1.8-0.9,3.9-1,5.8-0.3c1.9,0.7,3.5,2.1,4.3,3.9c1.8,3.8,0.2,8.4-3.6,10.2
				c-0.4,0.2-0.8,0.3-1.2,0.4C-373.7,296.6-373.8,296.6-373.8,296.6z"/>
		</g>
		<g id="XMLID_286_">
			<path class="st0" d="M-387.9,296.5c-0.1,0-0.1,0-0.2,0c-2-0.6-3.7-2.1-4.6-4c-1.8-3.8-0.2-8.4,3.6-10.2c2.6-1.2,5.7-0.9,8,0.9
				c0.3,0.2,0.3,0.6,0.1,0.9c-0.2,0.3-0.6,0.3-0.9,0.1c-1.9-1.5-4.4-1.8-6.6-0.7c-3.2,1.5-4.5,5.3-3,8.4c0.7,1.6,2.1,2.8,3.8,3.3
				c0.3,0.1,0.5,0.5,0.4,0.8C-387.4,296.3-387.7,296.5-387.9,296.5z"/>
		</g>
		<g id="XMLID_285_">
			<path class="st0" d="M-380.7,284.6c3.6,0,6.5,2.9,6.5,6.5v3c0,3.6-2.9,6.5-6.5,6.5s-6.5-2.9-6.5-6.5v-3
				C-387.2,287.5-384.3,284.6-380.7,284.6 M-380.7,283.3L-380.7,283.3c-4.3,0-7.8,3.5-7.8,7.8v3c0,4.3,3.5,7.8,7.8,7.8l0,0
				c4.3,0,7.8-3.5,7.8-7.8v-3C-373,286.8-376.4,283.3-380.7,283.3L-380.7,283.3z"/>
		</g>
		<g id="XMLID_284_">
			<path class="st0" d="M-385.4,292c-1.2,0-2.3-0.2-2.5-0.2c-0.4-0.1-0.6-0.4-0.5-0.7c0.1-0.4,0.4-0.6,0.7-0.5
				c1.4,0.2,5.4,0.5,6.3-1.2c0.2-0.3,0.6-0.4,0.9-0.3c0.3,0.2,0.4,0.6,0.2,0.9C-381.1,291.7-383.5,292-385.4,292z"/>
		</g>
		<g id="XMLID_283_">
			<path class="st0" d="M-376.2,292c-1.9,0-4.2-0.4-5.1-2c-0.2-0.3-0.1-0.7,0.3-0.9c0.3-0.2,0.7-0.1,0.9,0.3c0.9,1.6,5,1.4,6.3,1.2
				c0.4-0.1,0.7,0.2,0.7,0.5c0.1,0.4-0.2,0.7-0.5,0.7C-374,291.9-375,292-376.2,292z"/>
		</g>
	</g>
	<g id="XMLID_281_">
		<line class="st1" x1="-360.4" y1="305.4" x2="-360.4" y2="315.1"/>
		<path class="st0" d="M-360.4,315.8c-0.4,0-0.7-0.3-0.7-0.7v-9.8c0-0.4,0.3-0.7,0.7-0.7s0.7,0.3,0.7,0.7v9.8
			C-359.7,315.5-360,315.8-360.4,315.8z"/>
	</g>
</g>
</svg>
