<?xml version="1.0" encoding="utf-8"?>
<!-- Generator: Adobe Illustrator 19.0.0, SVG Export Plug-In . SVG Version: 6.00 Build 0)  -->
<svg version="1.1" id="Warstwa_1" xmlns="http://www.w3.org/2000/svg" xmlns:xlink="http://www.w3.org/1999/xlink" x="0px" y="0px"
	 viewBox="-4 7 41 38" style="enable-background:new -4 7 41 38;" xml:space="preserve">
<style type="text/css">
	.st0{fill:#838383;}
	.st1{clip-path:url(#SVGID_2_);}
	.st2{fill:#FFFFFF;}
	.st3{fill:none;}
</style>
<g>
	<g id="XMLID_511_">
		<g id="XMLID_2520_">
			<g id="XMLID_2534_">
				<path class="st0" d="M3.3,32.6c-2.9,0-5.2-2.3-5.2-5.2c0-2.9,2.3-5.2,5.2-5.2s5.2,2.3,5.2,5.2C8.5,30.2,6.1,32.6,3.3,32.6z
					 M3.3,23.5c-2.1,0-3.9,1.7-3.9,3.9c0,2.1,1.7,3.9,3.9,3.9s3.9-1.7,3.9-3.9C7.2,25.3,5.4,23.5,3.3,23.5z"/>
			</g>
		</g>
		<g id="XMLID_2260_">
			<defs>
				<circle id="SVGID_1_" cx="3.3" cy="27.4" r="4.5"/>
			</defs>
			<clipPath id="SVGID_2_">
				<use xlink:href="#SVGID_1_"  style="overflow:visible;"/>
			</clipPath>
			<g id="XMLID_2519_" class="st1">
				<g id="XMLID_2531_">
					<line class="st2" x1="3.3" y1="21.7" x2="3.3" y2="27.6"/>
				</g>
				<g id="XMLID_2532_">
					<path class="st0" d="M3.3,28.3c-0.4,0-0.7-0.3-0.7-0.7v-5.9c0-0.4,0.3-0.7,0.7-0.7s0.7,0.3,0.7,0.7v5.9
						C3.9,28,3.6,28.3,3.3,28.3z"/>
				</g>
			</g>
			<g id="XMLID_2518_" class="st1">
				<g id="XMLID_2529_">
					<line class="st2" x1="8.2" y1="24.5" x2="3.1" y2="27.5"/>
				</g>
				<g id="XMLID_2530_">
					<path class="st0" d="M3.1,28.1c-0.2,0-0.4-0.1-0.6-0.3c-0.2-0.3-0.1-0.7,0.2-0.9L7.9,24c0.3-0.2,0.7-0.1,0.9,0.2
						c0.2,0.3,0.1,0.7-0.2,0.9l-5.1,2.9C3.3,28.1,3.2,28.1,3.1,28.1z"/>
				</g>
			</g>
			<g id="XMLID_2517_" class="st1">
				<g id="XMLID_2527_">
					<line class="st2" x1="-1.6" y1="24.5" x2="3.5" y2="27.5"/>
				</g>
				<g id="XMLID_2528_">
					<path class="st0" d="M3.5,28.1c-0.1,0-0.2,0-0.3-0.1l-5.1-2.9c-0.3-0.2-0.4-0.6-0.2-0.9c0.2-0.3,0.6-0.4,0.9-0.2l5.1,2.9
						c0.3,0.2,0.4,0.6,0.2,0.9C3.9,28,3.7,28.1,3.5,28.1z"/>
				</g>
			</g>
			<g id="XMLID_2516_" class="st1">
				<g id="XMLID_2525_">
					<line class="st2" x1="-1.6" y1="30.2" x2="3.5" y2="27.3"/>
				</g>
				<g id="XMLID_2526_">
					<path class="st0" d="M-1.6,30.9c-0.2,0-0.4-0.1-0.6-0.3c-0.2-0.3-0.1-0.7,0.2-0.9l5.1-2.9c0.3-0.2,0.7-0.1,0.9,0.2
						c0.2,0.3,0.1,0.7-0.2,0.9l-5.1,2.9C-1.4,30.8-1.5,30.9-1.6,30.9z"/>
				</g>
			</g>
			<g id="XMLID_2515_" class="st1">
				<g id="XMLID_2523_">
					<line class="st2" x1="3.3" y1="33" x2="3.3" y2="27.1"/>
				</g>
				<g id="XMLID_2524_">
					<path class="st0" d="M3.3,33.7c-0.4,0-0.7-0.3-0.7-0.7v-5.9c0-0.4,0.3-0.7,0.7-0.7s0.7,0.3,0.7,0.7V33
						C3.9,33.4,3.6,33.7,3.3,33.7z"/>
				</g>
			</g>
			<g id="XMLID_2277_" class="st1">
				<g id="XMLID_2521_">
					<line class="st2" x1="8.2" y1="30.2" x2="3.1" y2="27.3"/>
				</g>
				<g id="XMLID_2522_">
					<path class="st0" d="M8.2,30.9c-0.1,0-0.2,0-0.3-0.1l-5.1-2.9c-0.3-0.2-0.4-0.6-0.2-0.9c0.2-0.3,0.6-0.4,0.9-0.2l5.1,2.9
						c0.3,0.2,0.4,0.6,0.2,0.9C8.6,30.7,8.4,30.9,8.2,30.9z"/>
				</g>
			</g>
		</g>
	</g>
	<g id="XMLID_2457_">
		<g id="XMLID_2458_">
			<path class="st3" d="M0.3,29.8c0.6,0.7,1.4,1.2,2.3,1.4v-2.7L0.3,29.8z"/>
		</g>
		<g id="XMLID_3282_">
			<path class="st3" d="M16.7,31.3l0.4-3.2L10.5,28H8.4c-0.2,1.3-0.8,2.4-1.7,3.2H16.7z"/>
		</g>
		<g id="XMLID_3283_">
			<path class="st3" d="M-0.3,26c-0.2,0.4-0.3,0.9-0.3,1.4c0,0.5,0.1,0.9,0.2,1.3L2,27.4L-0.3,26z"/>
		</g>
		<g id="XMLID_3284_">
			<path class="st3" d="M6.2,24.9c-0.6-0.7-1.4-1.2-2.3-1.3v2.7L6.2,24.9z"/>
		</g>
		<g id="XMLID_3285_">
			<path class="st3" d="M6.9,28.7C7,28.5,7.1,28.3,7.1,28H5.7L6.9,28.7z"/>
		</g>
		<g id="XMLID_3286_">
			<path class="st3" d="M2.6,23.6c-0.9,0.2-1.7,0.6-2.3,1.3l2.3,1.3V23.6z"/>
		</g>
		<g id="XMLID_3287_">
			<path class="st3" d="M4.4,31.1c0.7-0.2,1.4-0.7,1.9-1.2l-2.2-1.3L4.4,31.1z"/>
		</g>
		<g id="XMLID_3288_">
			<path class="st3" d="M7.1,26.7C7,26.5,7,26.3,6.9,26l-1.2,0.7H7.1z"/>
		</g>
		<g id="XMLID_3289_">
			<path class="st0" d="M34.1,20H19.7c-0.2,0-0.4-0.1-0.6-0.3s-0.1-0.4,0-0.6c0.1-0.2,0.2-0.4,0.4-0.5l4.8-5.4
				c0.2-0.3,0.4-0.6,0.4-1v-0.2c0-0.4,0.3-0.6,0.7-0.6h3.1c0.4,0,0.7,0.3,0.7,0.6V12c0,0.4,0.1,0.7,0.4,1l4.8,5.4
				c0.1,0.2,0.3,0.3,0.4,0.5c0.1,0.2,0.1,0.4,0,0.6S34.3,20,34.1,20z M21.1,18.7h11.6l-4.2-4.7c-0.4-0.4-0.6-0.9-0.7-1.5H26
				c-0.1,0.5-0.3,1-0.7,1.5L21.1,18.7z"/>
		</g>
		<g id="XMLID_3290_">
			<path class="st0" d="M33.5,24.4h-13c-0.8,0-1.4-0.6-1.4-1.4v-3.7c0-0.4,0.3-0.6,0.7-0.6h14.6c0.4,0,0.7,0.3,0.7,0.6V23
				C34.9,23.8,34.3,24.4,33.5,24.4z M20.3,20v3c0,0.1,0.1,0.1,0.1,0.1h13c0.1,0,0.1-0.1,0.1-0.1v-3H20.3z"/>
		</g>
		<g id="XMLID_3291_">
			<path class="st0" d="M33.5,27.3H32c-0.4,0-0.7-0.3-0.7-0.7v-0.2h-8.5v0.2c0,0.4-0.3,0.7-0.7,0.7h-1.7c-0.8,0-1.4-0.7-1.4-1.6
				v-0.9c0-0.9,0.6-1.6,1.4-1.6h13c0.8,0,1.4,0.7,1.4,1.6v0.9C34.9,26.6,34.3,27.3,33.5,27.3z M32.6,26h0.9c0,0,0.1-0.1,0.1-0.3
				v-0.9c0-0.2-0.1-0.3-0.1-0.3h-13c0,0-0.1,0.1-0.1,0.3v0.9c0,0.2,0.1,0.3,0.1,0.3h1v-0.2c0-0.4,0.3-0.6,0.7-0.6H32
				c0.4,0,0.7,0.3,0.7,0.6V26z"/>
		</g>
		<g id="XMLID_3292_">
			<path class="st0" d="M33.5,30H32c-0.4,0-0.7-0.3-0.7-0.7v-2.7c0-0.4,0.3-0.6,0.7-0.6h1.5c0.8,0,1.4,0.7,1.4,1.6v0.9
				C34.9,29.3,34.3,30,33.5,30z M32.6,28.7h0.9c0,0,0.1-0.1,0.1-0.3v-0.9c0-0.2-0.1-0.3-0.1-0.3h-0.9V28.7z"/>
		</g>
		<g id="XMLID_3293_">
			<path class="st0" d="M22.1,30h-1.7c-0.8,0-1.4-0.7-1.4-1.6v-0.9c0-0.9,0.6-1.6,1.4-1.6h1.7c0.4,0,0.7,0.3,0.7,0.6v2.7
				C22.8,29.7,22.5,30,22.1,30z M20.4,27.3c0,0-0.1,0.1-0.1,0.3v0.9c0,0.2,0.1,0.3,0.1,0.3h1v-1.4H20.4z"/>
		</g>
		<g id="XMLID_3294_">
			<path class="st0" d="M33.5,32.7H32c-0.4,0-0.7-0.3-0.7-0.7v-2.7c0-0.4,0.3-0.7,0.7-0.7h1.5c0.8,0,1.4,0.7,1.4,1.6v0.9
				C34.9,32,34.3,32.7,33.5,32.7z M32.6,31.4h0.9c0,0,0.1-0.1,0.1-0.3v-0.9c0-0.2-0.1-0.3-0.1-0.3h-0.9V31.4z"/>
		</g>
		<g id="XMLID_3295_">
			<path class="st0" d="M22.1,32.7h-1.7c-0.8,0-1.4-0.7-1.4-1.6v-0.9c0-0.9,0.6-1.6,1.4-1.6h1.7c0.4,0,0.7,0.3,0.7,0.7v2.7
				C22.8,32.5,22.5,32.7,22.1,32.7z M20.4,30c0,0-0.1,0.1-0.1,0.3v0.9c0,0.2,0.1,0.3,0.1,0.3h1V30H20.4z"/>
		</g>
		<g id="XMLID_3296_">
			<path class="st0" d="M33.5,35.4H32c-0.4,0-0.7-0.3-0.7-0.7v-2.7c0-0.4,0.3-0.7,0.7-0.7h1.5c0.8,0,1.4,0.7,1.4,1.6v0.9
				C34.9,34.7,34.3,35.4,33.5,35.4z M32.6,34.1h0.9c0,0,0.1-0.1,0.1-0.3V33c0-0.2-0.1-0.3-0.1-0.3h-0.9V34.1z"/>
		</g>
		<g id="XMLID_3297_">
			<path class="st0" d="M22.1,35.4h-1.7c-0.8,0-1.4-0.7-1.4-1.6V33c0-0.9,0.6-1.6,1.4-1.6h1.7c0.4,0,0.7,0.3,0.7,0.7v2.7
				C22.8,35.2,22.5,35.4,22.1,35.4z M20.4,32.7c0,0-0.1,0.1-0.1,0.3v0.9c0,0.2,0.1,0.3,0.1,0.3h1v-1.4H20.4z"/>
		</g>
		<g id="XMLID_3298_">
			<path class="st0" d="M33.5,38.2h-13c-0.8,0-1.4-0.7-1.4-1.6v-0.9c0-0.9,0.6-1.6,1.4-1.6h1.7c0.4,0,0.7,0.3,0.7,0.7V35h8.5v-0.2
				c0-0.4,0.3-0.7,0.7-0.7h1.5c0.8,0,1.4,0.7,1.4,1.6v0.9C34.9,37.4,34.3,38.2,33.5,38.2z M20.4,35.4c0,0-0.1,0.1-0.1,0.3v0.9
				c0,0.2,0.1,0.3,0.1,0.3h13c0,0,0.1-0.1,0.1-0.3v-0.9c0-0.2-0.1-0.3-0.1-0.3h-0.9v0.2c0,0.4-0.3,0.7-0.7,0.7h-9.8
				c-0.4,0-0.7-0.3-0.7-0.7v-0.2H20.4z"/>
		</g>
		<g id="XMLID_3299_">
			<path class="st0" d="M32,43.3H21.9c-1.6,0-2.9-1.3-2.9-2.9v-2.2c0-0.8,0.6-1.4,1.4-1.4h13c0.8,0,1.4,0.6,1.4,1.4v2.2
				C34.9,42,33.6,43.3,32,43.3z M20.4,38.2c-0.1,0-0.1,0.1-0.1,0.1v2.2c0,0.9,0.7,1.6,1.6,1.6H32c0.9,0,1.6-0.7,1.6-1.6v-2.2
				c0-0.1-0.1-0.1-0.1-0.1H20.4z"/>
		</g>
		<g id="XMLID_3300_">
			<path class="st0" d="M29.6,12.5h-5.3c-0.4,0-0.7-0.3-0.7-0.6V9.2c0-0.4,0.3-0.6,0.7-0.6h5.3c0.4,0,0.7,0.3,0.7,0.6v2.6
				C30.2,12.2,29.9,12.5,29.6,12.5z M24.9,11.2h4V9.9h-4V11.2z"/>
		</g>
		<g id="XMLID_3303_">
			<path class="st3" d="M5.8,42.1L5.8,42.1l9.5,0.1c0,0,0.1-0.1,0.1-0.1l1.2-9.5h-12L5.8,42.1z M13.8,34.3c0.4,0,0.7,0.3,0.7,0.7
				s-0.3,0.7-0.7,0.7s-0.7-0.3-0.7-0.7S13.4,34.3,13.8,34.3z M13.8,39.1c0.4,0,0.7,0.3,0.7,0.7s-0.3,0.7-0.7,0.7s-0.7-0.3-0.7-0.7
				S13.4,39.1,13.8,39.1z M11.8,36.8c0.4,0,0.7,0.3,0.7,0.7s-0.3,0.7-0.7,0.7s-0.7-0.3-0.7-0.7S11.5,36.8,11.8,36.8z M8.6,38.4
				c0.4,0,0.7,0.3,0.7,0.7S9,39.7,8.6,39.7c-0.4,0-0.7-0.3-0.7-0.7S8.2,38.4,8.6,38.4z M6.4,35.6c0.4,0,0.7,0.3,0.7,0.7
				c0,0.4-0.3,0.7-0.7,0.7c-0.4,0-0.7-0.3-0.7-0.7C5.7,35.8,6,35.6,6.4,35.6z"/>
		</g>
		<g id="XMLID_3308_">
			<path class="st3" d="M17.8,33C17.8,33,17.8,33,17.8,33l0,0.2L17.8,33z"/>
		</g>
		<g id="XMLID_3309_">
			<path class="st0" d="M6.2,24.9l0.6-0.3c-0.7-0.9-1.7-1.5-2.9-1.7v0.7C4.9,23.7,5.7,24.2,6.2,24.9z"/>
		</g>
		<g id="XMLID_3310_">
			<path class="st0" d="M0.3,29.8l-0.6,0.3c0.7,0.9,1.7,1.5,2.9,1.7v-0.7C1.7,31,0.9,30.5,0.3,29.8z"/>
		</g>
		<g id="XMLID_3311_">
			<path class="st0" d="M7.1,26.7h0.7c-0.1-0.4-0.1-0.7-0.3-1L6.9,26C7,26.3,7,26.5,7.1,26.7z"/>
		</g>
		<g id="XMLID_3312_">
			<path class="st0" d="M4.4,31.1l0,0.2h1.2c0.5-0.3,0.9-0.7,1.2-1.1l-0.6-0.3C5.8,30.4,5.1,30.9,4.4,31.1z"/>
		</g>
		<g id="XMLID_3313_">
			<path class="st0" d="M-0.6,27.4c0-0.5,0.1-0.9,0.3-1.4l-0.6-0.3c-0.2,0.5-0.3,1.1-0.3,1.7c0,0.6,0.1,1.1,0.3,1.7l0.6-0.3
				C-0.5,28.3-0.6,27.9-0.6,27.4z"/>
		</g>
		<g id="XMLID_3314_">
			<path class="st0" d="M2.6,23.6v-0.7c-1.2,0.2-2.2,0.8-2.9,1.7l0.6,0.3C0.9,24.2,1.7,23.7,2.6,23.6z"/>
		</g>
		<g id="XMLID_3315_">
			<path class="st0" d="M6.9,28.7L7.5,29c0.1-0.3,0.2-0.7,0.3-1H7.1C7.1,28.3,7,28.5,6.9,28.7z"/>
		</g>
		<g id="XMLID_3316_">
			<path class="st0" d="M3.1,31.9C3.1,31.9,3.1,31.9,3.1,31.9c-0.1,0-0.3,0-0.4-0.1c-1.2-0.2-2.2-0.8-2.9-1.7
				c-0.1-0.2-0.3-0.4-0.4-0.5c-0.1-0.2-0.2-0.4-0.3-0.6c-0.2-0.5-0.3-1.1-0.3-1.7c0-0.6,0.1-1.2,0.3-1.7c0.1-0.2,0.2-0.4,0.3-0.6
				c0.1-0.2,0.2-0.4,0.4-0.5c0.7-0.9,1.7-1.5,2.9-1.7c0.2,0,0.4-0.1,0.7-0.1c0.2,0,0.4,0,0.7,0.1c1.2,0.2,2.2,0.8,2.9,1.7
				c0.1,0.2,0.3,0.3,0.4,0.5c0.1,0.2,0.2,0.4,0.3,0.6c0.1,0.3,0.2,0.7,0.3,1h0.7c-0.3-2.5-2.5-4.5-5.1-4.5c-2.9,0-5.2,2.3-5.2,5.2
				c0,2.8,2.3,5.1,5.1,5.2l0-0.3C3.1,32.1,3.1,32,3.1,31.9z"/>
		</g>
		<g id="XMLID_3317_">
			<path class="st0" d="M7.5,29c-0.1,0.2-0.2,0.4-0.3,0.6C7.1,29.8,7,30,6.8,30.2c-0.3,0.4-0.8,0.8-1.2,1.1h1.1
				c0.9-0.8,1.5-1.9,1.7-3.2H7.7C7.7,28.4,7.6,28.7,7.5,29z"/>
		</g>
		<g id="XMLID_3318_">
			<path class="st0" d="M3.5,26.5l0.5-0.3v-2.7c-0.2,0-0.4-0.1-0.7-0.1v3C3.3,26.5,3.4,26.5,3.5,26.5z"/>
		</g>
		<g id="XMLID_3319_">
			<path class="st0" d="M3.1,26.5c0.1,0,0.1,0,0.2,0l0,0v-3h0c-0.2,0-0.4,0-0.7,0.1v2.7L3.1,26.5z"/>
		</g>
		<g id="XMLID_3320_">
			<path class="st0" d="M3.9,23.6v-0.7c-0.2,0-0.4-0.1-0.7-0.1v0.7C3.5,23.5,3.7,23.5,3.9,23.6z"/>
		</g>
		<g id="XMLID_3321_">
			<path class="st0" d="M3.3,23.5L3.3,23.5l0-0.7c-0.2,0-0.4,0-0.7,0.1v0.7C2.8,23.5,3.1,23.5,3.3,23.5z"/>
		</g>
		<g id="XMLID_3322_">
			<path class="st0" d="M3.9,26.7C4,26.7,4,26.7,3.9,26.7l0.4,0l2.2-1.3c-0.1-0.2-0.2-0.4-0.4-0.5l-2.3,1.3V26.7z"/>
		</g>
		<g id="XMLID_3323_">
			<path class="st0" d="M5.7,26.7L6.9,26c-0.1-0.2-0.2-0.4-0.3-0.6l-2.2,1.3H5.7z"/>
		</g>
		<g id="XMLID_3324_">
			<path class="st0" d="M6.6,25.4l0.6-0.3c-0.1-0.2-0.2-0.4-0.4-0.5l-0.6,0.3C6.4,25.1,6.5,25.3,6.6,25.4z"/>
		</g>
		<g id="XMLID_3325_">
			<path class="st0" d="M6.9,26l0.6-0.3c-0.1-0.2-0.2-0.4-0.3-0.6l-0.6,0.3C6.7,25.6,6.8,25.8,6.9,26z"/>
		</g>
		<g id="XMLID_3326_">
			<path class="st0" d="M3.9,26.8C3.9,26.7,3.9,26.7,3.9,26.8l0-0.5l-0.5,0.3c0.1,0,0.2,0.1,0.2,0.1C3.8,26.7,3.8,26.7,3.9,26.8z"/>
		</g>
		<g id="XMLID_3327_">
			<path class="st0" d="M2.5,27.1c0-0.1,0-0.1,0.1-0.2L0,25.4c-0.1,0.2-0.2,0.4-0.3,0.6L2,27.4L2.5,27.1z"/>
		</g>
		<g id="XMLID_3328_">
			<path class="st0" d="M2.5,26.9c0-0.1,0.1-0.1,0.1-0.1v-0.6l-2.3-1.3c-0.1,0.2-0.3,0.3-0.4,0.5L2.5,26.9
				C2.5,26.9,2.5,26.9,2.5,26.9z"/>
		</g>
		<g id="XMLID_3329_">
			<path class="st0" d="M0.3,24.9l-0.6-0.3c-0.1,0.2-0.3,0.3-0.4,0.5L0,25.4C0.1,25.3,0.2,25.1,0.3,24.9z"/>
		</g>
		<g id="XMLID_3330_">
			<path class="st0" d="M0,25.4l-0.6-0.3c-0.1,0.2-0.2,0.4-0.3,0.6l0.6,0.3C-0.3,25.8-0.2,25.6,0,25.4z"/>
		</g>
		<g id="XMLID_3331_">
			<path class="st0" d="M3.1,26.5l-0.5-0.3v0.6c0.1-0.1,0.1-0.1,0.2-0.1C2.9,26.6,3,26.5,3.1,26.5z"/>
		</g>
		<g id="XMLID_3332_">
			<path class="st0" d="M2.6,27.9c0,0-0.1-0.1-0.1-0.1c0,0,0,0,0,0l-2.6,1.5c0.1,0.2,0.2,0.4,0.4,0.5l2.3-1.3V27.9z"/>
		</g>
		<g id="XMLID_3333_">
			<path class="st0" d="M2.5,27.6L2,27.4l-2.3,1.3c0.1,0.2,0.2,0.4,0.3,0.6l2.6-1.5C2.5,27.8,2.5,27.7,2.5,27.6z"/>
		</g>
		<g id="XMLID_3334_">
			<path class="st0" d="M-0.1,29.3l-0.6,0.3c0.1,0.2,0.2,0.4,0.4,0.5l0.6-0.3C0.2,29.7,0,29.5-0.1,29.3z"/>
		</g>
		<g id="XMLID_3335_">
			<path class="st0" d="M-0.3,28.7L-0.9,29c0.1,0.2,0.2,0.4,0.3,0.6l0.6-0.3C-0.2,29.1-0.3,28.9-0.3,28.7z"/>
		</g>
		<g id="XMLID_3336_">
			<path class="st0" d="M2.6,27.7l-0.2-0.1c0,0.1,0,0.1,0.1,0.2L2.6,27.7L2.6,27.7z"/>
		</g>
		<g id="XMLID_3337_">
			<path class="st0" d="M2.5,27.8C2.5,27.8,2.5,27.8,2.5,27.8c0,0.1,0.1,0.1,0.1,0.1v-0.2L2.5,27.8z"/>
		</g>
		<g id="XMLID_3338_">
			<path class="st0" d="M3.9,26.8c-0.1,0-0.1-0.1-0.2-0.1C3.7,26.7,3.8,26.7,3.9,26.8C3.8,26.8,3.9,26.8,3.9,26.8z"/>
		</g>
		<g id="XMLID_3339_">
			<path class="st0" d="M2.5,27.1L2,27.4l0.5,0.3c0-0.1,0-0.2,0-0.3C2.4,27.3,2.4,27.2,2.5,27.1z"/>
		</g>
		<g id="XMLID_3340_">
			<path class="st0" d="M2.6,27.7c-0.1-0.1-0.2-0.2-0.2-0.3c0,0.1,0,0.2,0,0.3L2.6,27.7L2.6,27.7z"/>
		</g>
		<g id="XMLID_3341_">
			<path class="st0" d="M2.6,28.5v2.7c0.1,0,0.3,0,0.4,0L2.6,28.5L2.6,28.5z"/>
		</g>
		<g id="XMLID_3342_">
			<path class="st0" d="M3,31.2c-0.1,0-0.3,0-0.4,0v0.7c0.1,0,0.3,0,0.4,0c0-0.1,0-0.1,0-0.2L3,31.2z"/>
		</g>
		<g id="XMLID_3343_">
			<path class="st0" d="M3.3,26.6l0.2-0.1c-0.1,0-0.1,0-0.2,0L3.3,26.6L3.3,26.6z"/>
		</g>
		<g id="XMLID_3344_">
			<path class="st0" d="M3.3,26.5L3.3,26.5c-0.1,0-0.1,0-0.2,0l0.2,0.1V26.5z"/>
		</g>
		<g id="XMLID_3345_">
			<path class="st0" d="M3.3,26.6c0.1,0,0.3,0,0.4,0c-0.1-0.1-0.2-0.1-0.2-0.1L3.3,26.6L3.3,26.6z"/>
		</g>
		<g id="XMLID_3346_">
			<polygon class="st0" points="3.3,26.6 3.3,26.6 3.3,26.6 			"/>
		</g>
		<g id="XMLID_3347_">
			<path class="st0" d="M3.3,26.6L3.3,26.6L3.3,26.6l-0.1-0.1c-0.1,0-0.2,0.1-0.2,0.1C3,26.6,3.1,26.6,3.3,26.6z"/>
		</g>
		<g id="XMLID_3348_">
			<path class="st0" d="M3.3,26.6L3.3,26.6C3.3,26.6,3.3,26.6,3.3,26.6L3.3,26.6z"/>
		</g>
		<g id="XMLID_3349_">
			<path class="st0" d="M3.3,26.6C3.3,26.6,3.3,26.6,3.3,26.6L3.3,26.6L3.3,26.6L3.3,26.6C3.3,26.6,3.3,26.6,3.3,26.6z"/>
		</g>
		<g id="XMLID_3350_">
			<path class="st0" d="M2.6,27.9C2.6,27.9,2.6,27.9,2.6,27.9l0,0.6l0,0l0-0.2C2.6,28.2,2.6,28.1,2.6,27.9z"/>
		</g>
		<g id="XMLID_3351_">
			<polygon class="st0" points="2.6,27.7 2.6,27.7 2.6,27.7 			"/>
		</g>
		<g id="XMLID_3352_">
			<path class="st0" d="M2.7,27.8C2.7,27.8,2.7,27.8,2.7,27.8L2.7,27.8L2.7,27.8l0,0.1c0,0,0,0,0,0C2.7,27.9,2.7,27.9,2.7,27.8z"/>
		</g>
		<g id="XMLID_3353_">
			<path class="st0" d="M3.4,26.7l0.2,0.1c0.1,0,0.1,0,0.2,0c0,0-0.1-0.1-0.1-0.1C3.6,26.6,3.4,26.6,3.4,26.7L3.4,26.7
				C3.4,26.7,3.4,26.7,3.4,26.7z"/>
		</g>
		<g id="XMLID_3354_">
			<path class="st0" d="M2.7,27.8C2.7,27.8,2.7,27.8,2.7,27.8C2.7,27.8,2.7,27.8,2.7,27.8L2.7,27.8z"/>
		</g>
		<g id="XMLID_3355_">
			<path class="st0" d="M2.7,27.7C2.7,27.7,2.6,27.7,2.7,27.7L2.7,27.7L2.7,27.7L2.7,27.7C2.7,27.7,2.7,27.7,2.7,27.7z"/>
		</g>
		<g id="XMLID_3356_">
			<path class="st0" d="M2.6,27.7L2.6,27.7C2.7,27.8,2.7,27.7,2.6,27.7L2.6,27.7z"/>
		</g>
		<g id="XMLID_3357_">
			<polygon class="st0" points="2.7,27.7 2.7,27.7 2.7,27.7 			"/>
		</g>
		<g id="XMLID_3358_">
			<path class="st0" d="M2.7,27.8C2.7,27.7,2.7,27.7,2.7,27.8L2.7,27.8C2.7,27.7,2.7,27.8,2.7,27.8L2.7,27.8
				C2.7,27.8,2.7,27.8,2.7,27.8z"/>
		</g>
		<g id="XMLID_3359_">
			<path class="st0" d="M3.4,26.7L3.4,26.7c-0.1,0-0.1,0-0.1,0C3.3,26.7,3.4,26.7,3.4,26.7z"/>
		</g>
		<g id="XMLID_3360_">
			<path class="st0" d="M4.4,28l2.2,1.3c0.1-0.2,0.2-0.4,0.3-0.6L5.7,28H4.4z"/>
		</g>
		<g id="XMLID_3361_">
			<path class="st0" d="M4,28l0.1,0.5l2.2,1.3c0.1-0.2,0.3-0.3,0.4-0.5L4.4,28H4z"/>
		</g>
		<g id="XMLID_3362_">
			<path class="st0" d="M6.3,29.8l0.6,0.3C7,30,7.1,29.8,7.2,29.6l-0.6-0.3C6.5,29.5,6.4,29.7,6.3,29.8z"/>
		</g>
		<g id="XMLID_3363_">
			<path class="st0" d="M6.6,29.3l0.6,0.3c0.1-0.2,0.2-0.4,0.3-0.6l-0.6-0.3C6.8,28.9,6.7,29.1,6.6,29.3z"/>
		</g>
		<g id="XMLID_3364_">
			<path class="st0" d="M2.6,27l-0.1-0.1c0,0.1,0,0.1-0.1,0.2L2.6,27L2.6,27z"/>
		</g>
		<g id="XMLID_3365_">
			<path class="st0" d="M2.6,26.8c0,0-0.1,0.1-0.1,0.1c0,0,0,0,0,0L2.6,27V26.8z"/>
		</g>
		<g id="XMLID_3366_">
			<path class="st0" d="M2.6,27L2.6,27c0.1-0.1,0.1-0.3,0.2-0.3c-0.1,0-0.2,0.1-0.2,0.1L2.6,27L2.6,27z"/>
		</g>
		<g id="XMLID_3367_">
			<polygon class="st0" points="2.6,27 2.6,27 2.6,27 			"/>
		</g>
		<g id="XMLID_3368_">
			<path class="st0" d="M2.6,27L2.6,27l-0.2,0.1c0,0.1,0,0.2,0,0.3C2.5,27.2,2.5,27.1,2.6,27z"/>
		</g>
		<g id="XMLID_3369_">
			<path class="st0" d="M2.7,27L2.7,27L2.7,27C2.7,27,2.7,27,2.7,27z"/>
		</g>
		<g id="XMLID_3370_">
			<path class="st0" d="M2.7,27L2.7,27L2.7,27L2.7,27C2.6,27,2.7,27,2.7,27C2.7,27,2.7,27,2.7,27z"/>
		</g>
		<g id="XMLID_3371_">
			<path class="st0" d="M2.6,27.1V27c-0.1,0.1-0.2,0.2-0.2,0.3c0,0.1,0.1,0.2,0.2,0.3v-0.1V27.1z"/>
		</g>
		<g id="XMLID_3372_">
			<path class="st0" d="M2.7,27C2.7,27,2.6,27,2.7,27l0,0.1C2.6,27.1,2.7,27.1,2.7,27z"/>
		</g>
		<g id="XMLID_3373_">
			<path class="st0" d="M3.2,26.7L3.2,26.7c0-0.1-0.2-0.1-0.3,0c-0.1,0.1-0.2,0.2-0.2,0.3L3.2,26.7C3.2,26.7,3.2,26.7,3.2,26.7z"/>
		</g>
		<g id="XMLID_3374_">
			<polygon class="st0" points="3.3,26.6 3.3,26.6 3.3,26.6 			"/>
		</g>
		<g id="XMLID_3375_">
			<path class="st0" d="M3.3,26.6L3.3,26.6C3.3,26.6,3.3,26.6,3.3,26.6l-0.1,0C3.2,26.7,3.2,26.7,3.3,26.6z"/>
		</g>
		<g id="XMLID_3376_">
			<rect x="3.4" y="26.7" transform="matrix(0.8661 0.4999 -0.4999 0.8661 13.8415 1.83)" class="st0" width="0.2" height="0"/>
		</g>
		<g id="XMLID_3377_">
			<path class="st0" d="M2.7,27C2.7,27,2.7,26.9,2.7,27l0.5-0.3c0,0,0,0,0,0L2.7,27C2.7,27,2.7,27,2.7,27L2.7,27z"/>
		</g>
		<g id="XMLID_3378_">
			<polygon class="st0" points="2.7,27 2.7,27 2.7,27 			"/>
		</g>
		<g id="XMLID_3379_">
			<path class="st0" d="M2.6,27.6v0.1c0,0,0,0,0,0C2.7,27.7,2.6,27.7,2.6,27.6z"/>
		</g>
		<g id="XMLID_3380_">
			<path class="st0" d="M3,27.2L2.7,27c0,0,0,0,0,0c0,0,0,0.1,0,0.1v0.5c0,0,0,0.1,0,0.1c0,0,0,0,0,0l0,0C2.8,27.5,2.9,27.3,3,27.2z
				"/>
		</g>
		<g id="XMLID_3381_">
			<path class="st0" d="M2.7,27.7C2.7,27.7,2.7,27.7,2.7,27.7C2.7,27.7,2.7,27.7,2.7,27.7L2.7,27.7z"/>
		</g>
		<g id="XMLID_3382_">
			<path class="st0" d="M3.6,26.8l-0.2-0.1c0,0-0.1,0-0.1,0c0,0,0,0,0,0V27C3.4,26.9,3.5,26.8,3.6,26.8z"/>
		</g>
		<g id="XMLID_3383_">
			<path class="st0" d="M3,27.2C3.1,27.1,3.2,27,3.3,27v-0.3c0,0-0.1,0-0.1,0l-0.4,0.2c0,0-0.1,0.1-0.1,0.1L3,27.2
				C3,27.2,3,27.2,3,27.2z"/>
		</g>
		<g id="XMLID_3385_">
			<path class="st0" d="M3.9,28.5v2.7c0.2,0,0.3-0.1,0.5-0.1l-0.3-2.5L3.9,28.5z"/>
		</g>
		<g id="XMLID_3386_">
			<path class="st0" d="M15.2,42.8h-4.7H5.8c-0.4,0-0.7-0.3-0.7-0.6L3.3,33c0-0.2,0-0.3,0.1-0.5c-0.1,0-0.1,0-0.2,0c0,0-0.1,0-0.1,0
				l1.3,9.7c0.1,0.7,0.7,1.2,1.4,1.2h9.4c0.7,0,1.3-0.5,1.4-1.2l1.2-9.1l-1.8,9C15.9,42.5,15.6,42.8,15.2,42.8z"/>
		</g>
		<g id="XMLID_3387_">
			<path class="st0" d="M18.1,27.2c-0.3-0.3-0.6-0.5-1-0.5H8.4c0,0.2,0.1,0.4,0.1,0.7s0,0.4-0.1,0.7h2.1l6.6,0.1l-0.4,3.2h0.2
				c0.4,0,0.7,0.3,0.7,0.7c0,0.2-0.1,0.3-0.2,0.4c0.2,0.1,0.4,0.4,0.4,0.6l0.6-4.7C18.4,27.9,18.3,27.5,18.1,27.2z"/>
		</g>
		<g id="XMLID_3388_">
			<path class="st0" d="M17.4,32.3c-0.1,0.1-0.3,0.2-0.5,0.2h-0.4l-1.2,9.5c0,0-0.1,0.1-0.1,0.1H5.8l-0.1-0.1l-1.2-9.5H3.7
				c-0.1,0-0.1,0-0.1,0c0,0-0.1,0-0.1,0c-0.1,0.1-0.2,0.3-0.1,0.5l1.8,9.1c0,0.4,0.3,0.6,0.7,0.6h4.7h4.7c0.4,0,0.7-0.3,0.7-0.6
				l1.8-9l0-0.2C17.8,32.7,17.7,32.5,17.4,32.3z"/>
		</g>
		<g id="XMLID_3389_">
			<path class="st0" d="M3.9,31.3h0.5l0-0.2C4.2,31.1,4.1,31.2,3.9,31.3L3.9,31.3z"/>
		</g>
		<g id="XMLID_3390_">
			<path class="st0" d="M3.5,32.5C3.5,32.5,3.5,32.5,3.5,32.5c-0.1-0.1-0.2-0.2-0.3-0.3l0,0.3c0,0,0.1,0,0.1,0
				C3.3,32.6,3.4,32.5,3.5,32.5z"/>
		</g>
		<g id="XMLID_3391_">
			<path class="st0" d="M7.2,27.4c0,0.2,0,0.4-0.1,0.7h0.7c0-0.2,0.1-0.4,0.1-0.6c0-0.2,0-0.4-0.1-0.7H7.1C7.1,27,7.2,27.2,7.2,27.4
				z"/>
		</g>
		<g id="XMLID_3392_">
			<path class="st0" d="M7.8,27.4c0,0.2,0,0.4-0.1,0.6h0.7c0-0.2,0.1-0.4,0.1-0.7s0-0.4-0.1-0.7H7.7C7.8,27,7.8,27.2,7.8,27.4z"/>
		</g>
		<g id="XMLID_3393_">
			<path class="st0" d="M3.5,32.5c0,0,0.1,0,0.1,0C3.5,32.5,3.5,32.5,3.5,32.5C3.5,32.5,3.5,32.5,3.5,32.5z"/>
		</g>
		<g id="XMLID_3394_">
			<path class="st0" d="M4.1,27.1l0.5,0.3l1.1-0.6H4.4l-0.3,0.2C4.1,27,4.1,27,4.1,27.1z"/>
		</g>
		<g id="XMLID_3395_">
			<path class="st0" d="M4.1,26.9C4.1,26.9,4.1,26.9,4.1,26.9l0.3-0.2H4c0,0,0,0-0.1,0v0C4,26.8,4,26.9,4.1,26.9z"/>
		</g>
		<g id="XMLID_3396_">
			<path class="st0" d="M3.9,26.8L3.9,26.8C3.9,26.7,3.9,26.7,3.9,26.8C3.9,26.8,3.9,26.8,3.9,26.8z"/>
		</g>
		<g id="XMLID_3397_">
			<path class="st0" d="M3.9,27l0.2,0.1c0-0.1,0-0.1-0.1-0.2L3.9,27L3.9,27z"/>
		</g>
		<g id="XMLID_3398_">
			<path class="st0" d="M4.1,26.9C4.1,26.9,4.1,26.9,4.1,26.9c0-0.1-0.1-0.1-0.1-0.1V27L4.1,26.9z"/>
		</g>
		<g id="XMLID_3399_">
			<polygon class="st0" points="3.9,27 3.9,27 3.9,27 			"/>
		</g>
		<g id="XMLID_3400_">
			<path class="st0" d="M3.9,27L3.9,27L3.9,27l0-0.2c0,0,0,0,0,0c0,0-0.1,0-0.1,0C3.8,26.8,3.9,26.9,3.9,27z"/>
		</g>
		<g id="XMLID_3401_">
			<path class="st0" d="M3.3,31.3v-3l0,0c-0.1,0-0.1,0-0.2,0l-0.4,0.3L3,31.2C3.1,31.2,3.2,31.3,3.3,31.3L3.3,31.3z"/>
		</g>
		<g id="XMLID_3402_">
			<path class="st0" d="M3.9,28.5l-0.5-0.3c-0.1,0-0.1,0-0.2,0v3c0.2,0,0.4,0,0.7-0.1V28.5z"/>
		</g>
		<g id="XMLID_3403_">
			<path class="st0" d="M3.3,31.3v0.2c0.1-0.1,0.3-0.2,0.4-0.2h0.2v-0.1C3.7,31.2,3.5,31.3,3.3,31.3z"/>
		</g>
		<g id="XMLID_3404_">
			<path class="st0" d="M3.3,31.3L3.3,31.3c-0.1,0-0.2,0-0.3,0l0.1,0.5c0-0.1,0.1-0.2,0.2-0.3V31.3z"/>
		</g>
		<g id="XMLID_3405_">
			<path class="st0" d="M3.1,28.2c0.1,0,0.1,0,0.2,0l0,0v-0.1L3.1,28.2z"/>
		</g>
		<g id="XMLID_3406_">
			<path class="st0" d="M3.3,28.1L3.3,28.1l0,0.1c0.1,0,0.1,0,0.2,0L3.3,28.1z"/>
		</g>
		<g id="XMLID_3407_">
			<path class="st0" d="M2.6,27.9c0,0.1,0,0.2,0,0.3l0,0.2l0.4-0.3c-0.1,0-0.2-0.1-0.3-0.1C2.8,28,2.7,28,2.6,27.9z"/>
		</g>
		<g id="XMLID_3408_">
			<polygon class="st0" points="3.3,28.1 3.3,28.1 3.3,28.1 			"/>
		</g>
		<g id="XMLID_3409_">
			<path class="st0" d="M3.3,28.1L3.3,28.1c-0.1,0-0.1,0-0.2,0c-0.1,0-0.2,0-0.2-0.1c0.1,0.1,0.2,0.1,0.3,0.1L3.3,28.1L3.3,28.1z"/>
		</g>
		<g id="XMLID_3410_">
			<path class="st0" d="M2.6,27.9C2.7,28,2.8,28,2.8,28.1c-0.1-0.1-0.1-0.2-0.2-0.3C2.7,27.9,2.7,27.9,2.6,27.9z"/>
		</g>
		<g id="XMLID_3411_">
			<path class="st0" d="M3.8,26.8c-0.1,0-0.1,0-0.2,0L3.9,27C3.9,26.9,3.8,26.8,3.8,26.8z"/>
		</g>
		<g id="XMLID_3412_">
			<path class="st0" d="M3.2,28.1l-0.5-0.3c0,0,0,0,0,0c0,0.1,0.1,0.2,0.2,0.3C2.9,28.1,3,28.1,3.2,28.1C3.1,28.1,3.2,28.1,3.2,28.1
				L3.2,28.1C3.2,28.1,3.2,28.1,3.2,28.1z"/>
		</g>
		<g id="XMLID_3413_">
			<path class="st0" d="M2.7,27.8C2.7,27.8,2.7,27.8,2.7,27.8l0.5,0.3c0,0,0,0,0,0L2.7,27.8C2.7,27.8,2.7,27.8,2.7,27.8z"/>
		</g>
		<g id="XMLID_3414_">
			<path class="st0" d="M4.1,27.8c0,0.1-0.1,0.1-0.1,0.1v0.6l0.1,0.1L4,28h0.4L4.1,27.8C4.1,27.8,4.1,27.8,4.1,27.8z"/>
		</g>
		<g id="XMLID_3415_">
			<path class="st0" d="M4.1,27.8L4.4,28h1.3l-1.2-0.7l-0.5,0.3C4.1,27.7,4.1,27.8,4.1,27.8z"/>
		</g>
		<g id="XMLID_3416_">
			<path class="st0" d="M4.1,27.4c0,0.1,0,0.2,0,0.3l0.5-0.3l-0.5-0.3C4.1,27.2,4.1,27.3,4.1,27.4z"/>
		</g>
		<g id="XMLID_3417_">
			<path class="st0" d="M3.9,27.7L3.9,27.7l0.1,0.1c0-0.1,0-0.1,0.1-0.2L3.9,27.7L3.9,27.7z"/>
		</g>
		<g id="XMLID_3418_">
			<path class="st0" d="M3.9,27.9c0,0,0.1-0.1,0.1-0.1c0,0,0,0,0,0l-0.1-0.1V27.9z"/>
		</g>
		<g id="XMLID_3419_">
			<path class="st0" d="M3.9,27.7l0.2-0.1c0-0.1,0-0.2,0-0.3C4.1,27.5,4,27.6,3.9,27.7L3.9,27.7z"/>
		</g>
		<g id="XMLID_3420_">
			<path class="st0" d="M3.9,27c0.1,0.1,0.2,0.2,0.2,0.3c0-0.1,0-0.2,0-0.3L3.9,27L3.9,27z"/>
		</g>
		<g id="XMLID_3421_">
			<path class="st0" d="M3.9,27L3.9,27C3.9,27,3.9,27,3.9,27L3.9,27z"/>
		</g>
		<g id="XMLID_3422_">
			<path class="st0" d="M3.9,27C3.9,27,3.9,27,3.9,27L3.9,27L3.9,27L3.9,27C3.9,27,3.9,27,3.9,27z"/>
		</g>
		<g id="XMLID_3423_">
			<path class="st0" d="M3.9,27.1v0.5v0.1c0.1-0.1,0.2-0.2,0.2-0.3c0-0.1-0.1-0.2-0.2-0.3V27.1z"/>
		</g>
		<g id="XMLID_3424_">
			<path class="st0" d="M3.9,27.1V27c0,0,0,0,0,0C3.9,27.1,3.9,27.1,3.9,27.1z"/>
		</g>
		<g id="XMLID_3425_">
			<path class="st0" d="M3.7,28.1c-0.1,0.1-0.2,0.1-0.3,0.1l0.5,0.3v-0.6C3.9,28,3.8,28,3.7,28.1z"/>
		</g>
		<g id="XMLID_3426_">
			<path class="st0" d="M3.5,28.1c-0.1,0-0.1,0-0.2,0l0,0L3.5,28.1c0.1,0.1,0.2,0,0.2-0.1C3.7,28.1,3.6,28.1,3.5,28.1z"/>
		</g>
		<g id="XMLID_3427_">
			<path class="st0" d="M3.9,27.7L3.9,27.7c-0.1,0.1-0.1,0.2-0.2,0.3c0.1,0,0.1-0.1,0.2-0.1V27.7L3.9,27.7z"/>
		</g>
		<g id="XMLID_3428_">
			<path class="st0" d="M3.4,28.1C3.4,28.1,3.4,28.1,3.4,28.1L3.4,28.1C3.4,28.1,3.4,28.1,3.4,28.1c0.2,0.1,0.2,0.1,0.3,0
				c0.1-0.1,0.1-0.2,0.2-0.3L3.4,28.1z"/>
		</g>
		<g id="XMLID_3429_">
			<path class="st0" d="M3.9,27.7L3.9,27.7L3.9,27.7C3.9,27.7,3.9,27.7,3.9,27.7L3.9,27.7z"/>
		</g>
		<g id="XMLID_3430_">
			<path class="st0" d="M3.9,27.8L3.9,27.8L3.9,27.8C3.9,27.7,3.9,27.8,3.9,27.8z"/>
		</g>
		<g id="XMLID_3431_">
			<path class="st0" d="M3.8,27.8l-0.4,0.2c0,0,0,0,0,0L3.8,27.8C3.9,27.8,3.9,27.7,3.8,27.8C3.9,27.8,3.9,27.8,3.8,27.8z"/>
		</g>
		<g id="XMLID_3432_">
			<path class="st0" d="M3.2,28.1L3.2,28.1L3.2,28.1C3.3,28.1,3.3,28.1,3.2,28.1z"/>
		</g>
		<g id="XMLID_3433_">
			<path class="st0" d="M3.3,28.1C3.3,28.1,3.3,28.1,3.3,28.1L3.3,28.1L3.3,28.1L3.3,28.1C3.3,28.1,3.3,28.1,3.3,28.1z"/>
		</g>
		<g id="XMLID_3434_">
			<polygon class="st0" points="3.3,28.1 3.3,28.1 3.3,28.1 			"/>
		</g>
		<g id="XMLID_3435_">
			<path class="st0" d="M3.8,26.9C3.9,26.9,3.9,27,3.8,26.9L3.8,26.9C3.9,27,3.9,27,3.8,26.9l-0.2-0.1h0L3.8,26.9z"/>
		</g>
		<g id="XMLID_3436_">
			<polygon class="st0" points="3.9,27 3.9,27 3.9,27 			"/>
		</g>
		<g id="XMLID_3437_">
			<path class="st0" d="M3.3,28.1c0,0-0.1,0-0.1,0L3.3,28.1C3.3,28.1,3.3,28.1,3.3,28.1L3.3,28.1z"/>
		</g>
		<g id="XMLID_3438_">
			<path class="st0" d="M3.3,28.1C3.3,28.1,3.3,28.1,3.3,28.1l0.1,0C3.4,28.1,3.3,28.1,3.3,28.1z"/>
		</g>
		<g id="XMLID_3439_">
			<path class="st0" d="M3.9,27.7v-0.1C3.9,27.7,3.9,27.7,3.9,27.7C3.9,27.7,3.9,27.7,3.9,27.7z"/>
		</g>
		<g id="XMLID_3440_">
			<path class="st0" d="M3.3,27C3.2,27,3.1,27.1,3,27.2c0,0,0,0,0,0l0.3,0.2l-0.2-0.1l0.2,0.1v-0.2V27z"/>
		</g>
		<g id="XMLID_3441_">
			<path class="st0" d="M2.7,27.7l0.6-0.3l-0.2,0.1l0.2-0.1v0L3,27.2C2.9,27.3,2.8,27.5,2.7,27.7z"/>
		</g>
		<g id="XMLID_3442_">
			<path class="st0" d="M3.8,26.9l-0.2-0.1c-0.1,0-0.2,0.1-0.3,0.1v0.2v0.2L3.8,26.9C3.9,27,3.9,26.9,3.8,26.9z"/>
		</g>
		<g id="XMLID_3443_">
			<path class="st0" d="M3.8,27.8C3.9,27.8,3.9,27.8,3.8,27.8l-0.5-0.4v0l0.2,0.1l-0.2-0.1v0.2v0.5c0,0,0,0,0,0c0,0,0.1,0,0.1,0
				L3.8,27.8z"/>
		</g>
		<g id="XMLID_3444_">
			<path class="st0" d="M3.9,27l-0.6,0.4l0.2-0.1l-0.2,0.1l0.6,0.4c0,0,0-0.1,0-0.1v-0.5C3.9,27.1,3.9,27.1,3.9,27
				C3.9,27,3.9,27,3.9,27z"/>
		</g>
		<g id="XMLID_3445_">
			<path class="st0" d="M3.3,27.4l-0.6,0.3c0,0,0,0,0,0c0,0,0,0,0.1,0.1l0.4,0.2c0,0,0.1,0,0.1,0v-0.5V27.4z"/>
		</g>
		<g id="XMLID_3446_">
			<path class="st0" d="M5.1,32.2h5.5h6l0.1-1h-10C6.2,31.7,5.7,32,5.1,32.2z"/>
		</g>
		<g id="XMLID_3447_">
			<path class="st0" d="M10.6,32.2H5.1c-0.2,0.1-0.4,0.1-0.5,0.2l0,0.2h12l0-0.3H10.6z"/>
		</g>
		<g id="XMLID_3448_">
			<path class="st0" d="M4.5,32.2h0.6c0.6-0.2,1.1-0.5,1.6-1H5.6c-0.3,0.2-0.7,0.4-1.1,0.5L4.5,32.2z"/>
		</g>
		<g id="XMLID_3449_">
			<path class="st0" d="M4.5,31.7c0.4-0.1,0.8-0.3,1.1-0.5H4.4L4.5,31.7z"/>
		</g>
		<g id="XMLID_3450_">
			<path class="st0" d="M3.1,31.9C3.1,31.9,3.1,31.9,3.1,31.9c0,0.1,0,0.3,0.1,0.4L3.1,31.9C3.1,31.9,3.1,31.9,3.1,31.9z"/>
		</g>
		<g id="XMLID_3451_">
			<path class="st0" d="M4.5,32.4c0.2,0,0.4-0.1,0.5-0.2H4.5L4.5,32.4z"/>
		</g>
		<g id="XMLID_3452_">
			<path class="st0" d="M3.1,31.7c0,0.1,0,0.1,0,0.2c0,0,0,0,0.1,0L3.1,31.7z"/>
		</g>
		<g id="XMLID_3453_">
			<path class="st0" d="M17.1,32.2c0.1,0,0.3,0,0.4,0.1c0.1-0.1,0.2-0.3,0.2-0.4c0-0.4-0.3-0.7-0.7-0.7h-0.2l-0.1,1H17.1z"/>
		</g>
		<g id="XMLID_3454_">
			<path class="st0" d="M3.6,32.5c0,0,0.1,0,0.1,0h0.9l0-0.2C4.2,32.5,3.9,32.5,3.6,32.5z"/>
		</g>
		<g id="XMLID_3455_">
			<path class="st0" d="M16.6,32.2l0,0.3h0.4c0.2,0,0.4-0.1,0.5-0.2c-0.1-0.1-0.2-0.1-0.4-0.1H16.6z"/>
		</g>
		<g id="XMLID_3456_">
			<path class="st0" d="M4.5,32.2l-0.1-0.5c-0.2,0-0.4,0.1-0.5,0.1c-0.2,0-0.4,0.1-0.7,0.1c-0.1,0-0.1,0-0.2,0l0,0.4
				c0.1,0.1,0.2,0.2,0.3,0.3c0.1-0.2,0.3-0.3,0.6-0.3H4.5z"/>
		</g>
		<g id="XMLID_3457_">
			<path class="st0" d="M3.9,31.3v0.6c0.2,0,0.4-0.1,0.5-0.1l-0.1-0.5H3.9z"/>
		</g>
		<g id="XMLID_3458_">
			<path class="st0" d="M4.5,32.2H4c-0.2,0-0.4,0.1-0.6,0.3c0,0,0.1,0,0.1,0c0.3,0,0.7-0.1,1-0.1L4.5,32.2z"/>
		</g>
		<g id="XMLID_3459_">
			<path class="st0" d="M3.7,31.3c-0.2,0-0.3,0.1-0.4,0.2v0.5c0.2,0,0.4,0,0.7-0.1v-0.6H3.7z"/>
		</g>
		<g id="XMLID_3460_">
			<path class="st0" d="M3.1,31.7l0,0.2c0.1,0,0.1,0,0.2,0v-0.5C3.2,31.5,3.1,31.6,3.1,31.7z"/>
		</g>
		<g id="XMLID_3461_">
			<circle class="st0" cx="13.8" cy="34.9" r="0.7"/>
		</g>
		<g id="XMLID_3462_">
			<circle class="st0" cx="11.8" cy="37.5" r="0.7"/>
		</g>
		<g id="XMLID_3463_">
			<circle class="st0" cx="13.8" cy="39.7" r="0.7"/>
		</g>
		<g id="XMLID_3464_">
			<circle class="st0" cx="6.4" cy="36.2" r="0.7"/>
		</g>
		<g id="XMLID_3465_">
			<circle class="st0" cx="8.6" cy="39.1" r="0.7"/>
		</g>
		<g id="XMLID_2460_">
			<path class="st0" d="M27,34.1c-1.2,0-2.3-0.6-2.9-1.7c-0.3-0.5-0.5-1.1-0.5-1.7c0-0.6,0.2-1.2,0.5-1.7c0.6-1,1.7-1.7,2.9-1.7
				c1.2,0,2.3,0.6,2.9,1.7l0,0c0.3,0.5,0.5,1.1,0.5,1.7c0,0.6-0.2,1.2-0.5,1.7C29.3,33.5,28.2,34.1,27,34.1z M27,28.7
				c-0.7,0-1.4,0.4-1.8,1c-0.2,0.3-0.3,0.7-0.3,1c0,0.4,0.1,0.7,0.3,1c0.4,0.6,1,1,1.8,1c0.7,0,1.4-0.4,1.8-1c0.2-0.3,0.3-0.7,0.3-1
				c0-0.4-0.1-0.7-0.3-1l0,0C28.4,29.1,27.8,28.7,27,28.7z"/>
		</g>
	</g>
</g>
</svg>
