<?xml version="1.0" encoding="utf-8"?>
<!-- Generator: Adobe Illustrator 19.0.0, SVG Export Plug-In . SVG Version: 6.00 Build 0)  -->
<svg version="1.1" id="Warstwa_1" xmlns="http://www.w3.org/2000/svg" xmlns:xlink="http://www.w3.org/1999/xlink" x="0px" y="0px"
	 viewBox="-398 279.3 44.5 38" style="enable-background:new -398 279.3 44.5 38;" xml:space="preserve">
<style type="text/css">
	.st0{fill:#838383;}
</style>
<g id="XMLID_4701_">
	<path id="XMLID_4708_" class="st0" d="M-360.6,298.1l-14.5-4.7v-3c2.4-0.3,4.3-2.4,4.3-4.9c0-2.7-2.2-5-5-5s-5,2.2-5,5
		c0,0.4,0.3,0.7,0.7,0.7s0.7-0.3,0.7-0.7c0-2,1.6-3.6,3.6-3.6s3.7,1.6,3.7,3.6s-1.6,3.7-3.7,3.7c-0.4,0-0.7,0.3-0.7,0.7c0,0,0,0,0,0
		c0,0,0,0,0,0v3.5l-14.5,4.7c-2.2,0.7-3.8,2.8-3.8,5.2v0.8v5.6c0,0.4,0.3,0.7,0.7,0.7h7.3v5.1c0,0.4,0.3,0.7,0.7,0.7h20.6
		c0.4,0,0.7-0.3,0.7-0.7v-5.1h7.3c0.4,0,0.7-0.3,0.7-0.7V304v-0.8C-356.8,300.9-358.4,298.8-360.6,298.1z M-393.3,303.3
		c0-1.8,1.1-3.4,2.9-3.9l14.7-4.8l14.7,4.8c1.7,0.6,2.9,2.1,2.9,3.9v0.1h-6.6v-3c0-0.4-0.3-0.7-0.7-0.7h-20.6
		c-0.4,0-0.7,0.3-0.7,0.7v3h-6.6V303.3z M-393.3,309v-4.3h6.6v4.3H-393.3z M-366.1,314.7h-19.3v-13.6h19.3V314.7z M-358.2,309h-6.6
		v-4.3h6.6V309z"/>
	<path id="XMLID_4714_" class="st0" d="M-375.7,302.6c-2.9,0-5.3,2.4-5.3,5.3c0,2.9,2.4,5.3,5.3,5.3c2.9,0,5.3-2.4,5.3-5.3
		C-370.5,305-372.8,302.6-375.7,302.6z M-375.7,311.8c-2.2,0-4-1.8-4-4c0-2.2,1.8-4,4-4c2.2,0,4,1.8,4,4
		C-371.8,310.1-373.6,311.8-375.7,311.8z"/>
</g>
</svg>
