<?xml version="1.0" encoding="utf-8"?>
<!-- Generator: Adobe Illustrator 19.0.0, SVG Export Plug-In . SVG Version: 6.00 Build 0)  -->
<svg version="1.1" id="Warstwa_1" xmlns="http://www.w3.org/2000/svg" xmlns:xlink="http://www.w3.org/1999/xlink" x="0px" y="0px"
	 viewBox="-398 279.3 44.5 38" style="enable-background:new -398 279.3 44.5 38;" xml:space="preserve">
<style type="text/css">
	.st0{fill:#838383;}
	.st1{fill:none;}
</style>
<g>
	<g id="XMLID_4766_">
		<path class="st0" d="M-356.4,304h-38.8c-0.4,0-0.6-0.3-0.6-0.7v-3.6c0-0.4,0.3-0.7,0.6-0.7h38.8c0.4,0,0.7,0.3,0.7,0.7v3.6
			C-355.7,303.7-356,304-356.4,304z M-394.5,302.7h37.5v-2.3h-37.5V302.7z"/>
	</g>
	<g id="XMLID_4765_">
		<path class="st0" d="M-381.9,299.9h-0.7c-2.6,0-4.7-2.1-4.7-4.7v-0.5c0-0.4,0.3-0.6,0.6-0.6h8.8c0.4,0,0.7,0.3,0.7,0.6v0.5
			C-377.2,297.8-379.3,299.9-381.9,299.9z M-385.9,295.3c0.1,1.8,1.6,3.3,3.4,3.3h0.7c1.8,0,3.3-1.5,3.4-3.3H-385.9z"/>
	</g>
	<g id="XMLID_4764_">
		<path class="st0" d="M-390,314.2h-2c-0.4,0-0.6-0.3-0.6-0.7v-9.9c0-0.4,0.3-0.7,0.6-0.7h2c0.4,0,0.6,0.3,0.6,0.7v9.9
			C-389.3,313.9-389.6,314.2-390,314.2z M-391.3,312.9h0.7v-8.6h-0.7V312.9z"/>
	</g>
	<g id="XMLID_4763_">
		<path class="st0" d="M-359.2,314.2h-2c-0.4,0-0.7-0.3-0.7-0.7v-9.9c0-0.4,0.3-0.7,0.7-0.7h2c0.4,0,0.7,0.3,0.7,0.7v9.9
			C-358.5,313.9-358.8,314.2-359.2,314.2z M-360.5,312.9h0.7v-8.6h-0.7V312.9z"/>
	</g>
	<path class="st0" d="M-359.9,286.6l-1-0.4l0.4-1c0.1-0.3,0-0.7-0.3-0.9c-0.3-0.1-0.7,0-0.8,0.4l-0.4,1l-1-0.4
		c-0.3-0.1-0.7,0-0.8,0.4c-0.1,0.3,0,0.7,0.3,0.9l1,0.4l-0.4,1c-0.1,0.3,0,0.7,0.3,0.9c0.1,0,0.2,0.1,0.2,0.1c0.3,0,0.5-0.2,0.6-0.4
		l0.4-1l1,0.4c0.1,0,0.2,0.1,0.2,0.1c0.3,0,0.5-0.2,0.6-0.4C-359.4,287.1-359.6,286.8-359.9,286.6z"/>
	<g id="XMLID_4759_">
		<path class="st0" d="M-379.3,286.9c-1.1,0-2-0.9-2-2s0.9-2,2-2s2,0.9,2,2S-378.2,286.9-379.3,286.9z M-379.3,284.2
			c-0.4,0-0.7,0.3-0.7,0.7s0.3,0.7,0.7,0.7s0.7-0.3,0.7-0.7S-379,284.2-379.3,284.2z"/>
	</g>
	<g id="XMLID_4758_">
		<circle class="st0" cx="-385.6" cy="290.6" r="0.7"/>
	</g>
	<g id="XMLID_4753_">
		<circle class="st0" cx="-359.5" cy="294.5" r="0.7"/>
	</g>
	<g id="XMLID_4752_">
		<circle class="st0" cx="-390" cy="283" r="0.7"/>
	</g>
	<g id="XMLID_4742_">
		<g id="XMLID_4751_">
			<path class="st1" d="M-370.4,292h-3.5c-0.2,0-0.4,0.2-0.4,0.4l1,6.7c0,0.2,0.2,0.3,0.4,0.3h2.5h2.5c0.2,0,0.4-0.1,0.4-0.3l1-6.7
				c0-0.2-0.2-0.4-0.4-0.4H-370.4z"/>
		</g>
		<g id="XMLID_4749_">
			<path class="st0" d="M-367.9,300.1h-5c-0.5,0-1-0.4-1-0.9l-1-9.3c0-0.3,0.1-0.6,0.3-0.8c0.2-0.2,0.5-0.3,0.8-0.3h7
				c0.3,0,0.6,0.1,0.8,0.3s0.3,0.5,0.3,0.8l-1,9.3C-366.9,299.7-367.4,300.1-367.9,300.1z M-372.7,298.8h4.6l0.9-8.8h-6.4
				L-372.7,298.8z"/>
		</g>
		<g id="XMLID_4748_">
			<path class="st0" d="M-366.7,292.5h-7.4c-0.4,0-0.7-0.3-0.7-0.6s0.3-0.6,0.7-0.6h7.4c0.4,0,0.7,0.3,0.7,0.6
				S-366.4,292.5-366.7,292.5z"/>
		</g>
		<g id="XMLID_4747_">
			<circle class="st0" cx="-369.7" cy="293.4" r="0.4"/>
		</g>
		<g id="XMLID_4746_">
			<circle class="st0" cx="-368.5" cy="296" r="0.4"/>
		</g>
		<g id="XMLID_4745_">
			<circle class="st0" cx="-370.4" cy="295.6" r="0.4"/>
		</g>
		<g id="XMLID_4744_">
			<circle class="st0" cx="-372.6" cy="294.1" r="0.4"/>
		</g>
		<g id="XMLID_4743_">
			<circle class="st0" cx="-371.5" cy="297.1" r="0.4"/>
		</g>
	</g>
</g>
</svg>
