<?xml version="1.0" encoding="utf-8"?>
<!-- Generator: Adobe Illustrator 19.0.0, SVG Export Plug-In . SVG Version: 6.00 Build 0)  -->
<svg version="1.1" id="Warstwa_1" xmlns="http://www.w3.org/2000/svg" xmlns:xlink="http://www.w3.org/1999/xlink" x="0px" y="0px"
	 viewBox="-398 279.3 44.5 38" style="enable-background:new -398 279.3 44.5 38;" xml:space="preserve">
<style type="text/css">
	.st0{fill:#838383;}
</style>
<g>
	<circle class="st0" cx="-373.2" cy="290.2" r="0.4"/>
	<circle class="st0" cx="-372.8" cy="292.3" r="0.4"/>
	<circle class="st0" cx="-371.5" cy="291.1" r="0.4"/>
	<path class="st0" d="M-364.8,283.4l1,0.4l-0.4,1c-0.1,0.3,0,0.7,0.3,0.9c0.1,0,0.2,0.1,0.2,0.1c0.3,0,0.5-0.2,0.6-0.4l0.4-1l1,0.4
		c0.1,0,0.2,0.1,0.2,0.1c0.3,0,0.5-0.2,0.6-0.4c0.1-0.3,0-0.7-0.3-0.9l-1-0.4l0.4-1c0.1-0.3,0-0.7-0.3-0.9c-0.3-0.1-0.7,0-0.8,0.4
		l-0.4,1l-1-0.4c-0.3-0.1-0.7,0-0.8,0.4C-365.3,282.9-365.2,283.3-364.8,283.4z"/>
	<path class="st0" d="M-379.3,288c1.1,0,2-0.9,2-2s-0.9-2-2-2s-2,0.9-2,2S-380.4,288-379.3,288z M-379.3,285.4
		c0.4,0,0.7,0.3,0.7,0.7s-0.3,0.7-0.7,0.7s-0.7-0.3-0.7-0.7S-379.7,285.4-379.3,285.4z"/>
	<circle class="st0" cx="-378" cy="294.1" r="0.7"/>
	<circle class="st0" cx="-357.7" cy="296.3" r="0.7"/>
	<circle class="st0" cx="-390" cy="284.2" r="0.7"/>
	<path class="st0" d="M-356.4,300.3h-6v-2.8l4.1-5.3c0.1-0.2,0.2-0.5,0.1-0.7c-0.1-0.2-0.3-0.4-0.6-0.4h-2.1
		c0.7-0.8,1.6-1.7,2.6-2.9c0.2-0.3,0.2-0.7,0-0.9c-0.3-0.2-0.7-0.2-0.9,0c-1,1.1-2.3,2.5-3.4,3.7h-4.5c-0.2,0-0.5,0.1-0.6,0.4
		c-0.1,0.2-0.1,0.5,0.1,0.7l4.1,5.3v2.8h-5.7c0,0-0.1-0.1-0.1-0.1l-2.2-1.2v-4.6c0.5-0.1,1-0.4,1.4-0.9c1-1.2,1.2-3.1,1.1-4.7
		c0,0,0,0,0,0c0,0,0,0,0-0.1c0-1.1-0.2-2.1-0.2-2.3c-0.1-0.3-0.3-0.5-0.6-0.5h-4.8c-0.3,0-0.6,0.2-0.6,0.5c-0.1,0.5-0.8,5.1,0.9,7.1
		c0.4,0.5,0.9,0.8,1.5,0.9v4.6l-2.2,1.2c0,0-0.1,0-0.1,0.1h-4v-0.4c0-0.9-0.5-1.7-1.3-2v-0.5c0-3.2-2.2-5.8-5.2-6.5
		c0.1-0.2,0.1-0.4,0.1-0.6c0-0.9-0.7-1.6-1.6-1.6s-1.6,0.7-1.6,1.6c0,0.2,0,0.4,0.1,0.6c-3,0.7-5.2,3.3-5.2,6.5v0.5
		c-0.7,0.4-1.3,1.1-1.3,2v0.4c-0.3,0.1-0.5,0.3-0.5,0.6v4.3c0,2,1.4,3.6,3.2,4v5.4c0,0.4,0.3,0.7,0.6,0.7h2c0.4,0,0.6-0.3,0.6-0.7
		v-6c0.1-0.1,0.2-0.1,0.3-0.2c1.5,1.2,3.8,1.2,5.3,0c1.5,1.2,3.8,1.2,5.3,0c1.5,1.2,3.8,1.2,5.3,0c1.5,1.2,3.8,1.2,5.3,0
		c1.5,1.2,3.8,1.2,5.3,0c0.2,0.2,0.5,0.3,0.7,0.5v5.8c0,0.4,0.3,0.7,0.7,0.7h2c0.4,0,0.7-0.3,0.7-0.7v-5.5c1.6-0.6,2.8-2.1,2.8-3.9
		v-4.3C-355.7,300.6-356,300.3-356.4,300.3z M-360.1,292.4l-2.9,3.8l-1.2-1.6c0.4-0.4,1.1-1.1,2.1-2.2H-360.1z M-363.9,292.4
		c-0.4,0.5-0.8,0.9-1.1,1.2l-0.9-1.2H-363.9z M-370.6,287.1c0,0.3,0.1,0.6,0.1,0.9h-3.8c0-0.3,0-0.7,0.1-0.9H-370.6z M-374.3,289.3
		h3.8c0,1.3-0.2,2.6-0.8,3.3c-0.3,0.3-0.6,0.5-1.1,0.5s-0.8-0.2-1.1-0.5C-374.1,291.9-374.3,290.6-374.3,289.3z M-394,299.9
		c0-0.5,0.4-1,1-1h11.5c0.5,0,1,0.4,1,1v0.4H-394V299.9z M-387.4,289.9c0.2,0,0.3,0.1,0.3,0.3s-0.1,0.3-0.3,0.3s-0.3-0.1-0.3-0.3
		S-387.5,289.9-387.4,289.9z M-392.8,297.4c0-3,2.4-5.4,5.4-5.4s5.4,2.4,5.4,5.4v0.3h-10.8V297.4z M-390.6,314.1h-0.7v-4.7
		c0.2,0,0.4-0.1,0.7-0.1V314.1z M-359.8,314.1h-0.7v-4.7c0.2,0,0.4,0.1,0.6,0.1c0,0,0,0,0,0V314.1z M-357,305.2
		c0,1.6-1.3,2.9-2.9,2.9c-0.8,0-1.6-0.4-2.2-1c-0.1-0.1-0.3-0.2-0.5-0.2c-0.2,0-0.4,0.1-0.5,0.2c-1.1,1.3-3.2,1.3-4.3,0
		c-0.1-0.1-0.3-0.2-0.5-0.2c-0.2,0-0.4,0.1-0.5,0.2c-1.1,1.3-3.2,1.3-4.3,0c-0.2-0.3-0.7-0.3-1,0c-1.1,1.3-3.2,1.3-4.3,0
		c-0.1-0.1-0.3-0.2-0.5-0.2c-0.2,0-0.4,0.1-0.5,0.2c-1.1,1.3-3.2,1.3-4.3,0c-0.1-0.1-0.3-0.2-0.5-0.2c0,0,0,0,0,0
		c-0.2,0-0.4,0.1-0.5,0.2c-1.1,1.3-3.2,1.3-4.3,0c-0.1-0.1-0.3-0.2-0.5-0.2c0,0,0,0,0,0c-0.2,0-0.4,0.1-0.5,0.2
		c-0.5,0.6-1.3,1-2.2,1c-1.6,0-2.9-1.3-2.9-2.9v-3.7h14.5h23V305.2z"/>
</g>
</svg>
