<?xml version="1.0" encoding="utf-8"?>
<!-- Generator: Adobe Illustrator 19.0.0, SVG Export Plug-In . SVG Version: 6.00 Build 0)  -->
<svg version="1.1" id="Warstwa_1" xmlns="http://www.w3.org/2000/svg" xmlns:xlink="http://www.w3.org/1999/xlink" x="0px" y="0px"
	 viewBox="-4 7 41 38" style="enable-background:new -4 7 41 38;" xml:space="preserve">
<style type="text/css">
	.st0{fill:none;stroke:#838383;stroke-width:1.3;stroke-linecap:round;stroke-linejoin:round;stroke-miterlimit:10;}
	
		.st1{clip-path:url(#XMLID_2_);fill:none;stroke:#838383;stroke-width:1.3;stroke-linecap:round;stroke-linejoin:round;stroke-miterlimit:10;}
	.st2{clip-path:url(#XMLID_3_);}
	.st3{fill:#838383;}
</style>
<g id="XMLID_2431_">
	<g id="XMLID_2449_">
		<path id="XMLID_2456_" class="st0" d="M-0.1,42.7c-0.2,0-0.3-0.1-0.4-0.2c-0.2-0.2-0.2-0.4-0.1-0.7L11,14.9
			c0.1-0.2,0.2-0.3,0.4-0.4c0.2,0,0.4,0,0.5,0.2L27.3,30c0.1,0.1,0.2,0.3,0.2,0.5c0,0.2-0.2,0.4-0.4,0.4L0.1,42.6
			C0.1,42.7,0,42.7-0.1,42.7L-0.1,42.7L-0.1,42.7z"/>
		<g id="XMLID_2450_">
			<defs>
				<path id="XMLID_2451_" d="M-0.1,42.7c-0.2,0-0.3-0.1-0.4-0.2c-0.2-0.2-0.2-0.4-0.1-0.7L11,14.9c0.1-0.2,0.2-0.3,0.4-0.4
					c0.2,0,0.4,0,0.5,0.2L27.3,30c0.1,0.1,0.2,0.3,0.2,0.5c0,0.2-0.2,0.4-0.4,0.4L0.1,42.6C0.1,42.7,0,42.7-0.1,42.7L-0.1,42.7
					L-0.1,42.7z"/>
			</defs>
			<clipPath id="XMLID_2_">
				<use xlink:href="#XMLID_2451_"  style="overflow:visible;"/>
			</clipPath>
			<line id="XMLID_2455_" class="st1" x1="8.2" y1="20.7" x2="21.1" y2="33.6"/>
			<line id="XMLID_2454_" class="st1" x1="4.9" y1="24" x2="17.8" y2="36.9"/>
			<line id="XMLID_2453_" class="st1" x1="1.6" y1="27.3" x2="14.5" y2="40.2"/>
			<line id="XMLID_2452_" class="st1" x1="-1.7" y1="30.6" x2="11.2" y2="43.5"/>
		</g>
	</g>
	<g id="XMLID_2446_">
		<line id="XMLID_2448_" class="st0" x1="23.8" y1="21" x2="27.1" y2="22.3"/>
		<line id="XMLID_2447_" class="st0" x1="26.2" y1="20" x2="24.8" y2="23.3"/>
	</g>
	<circle id="XMLID_2445_" class="st0" cx="21.5" cy="12.5" r="1.3"/>
	<path id="XMLID_2444_" class="st0" d="M33.7,25.6c0,0-4.8-1.4-7.2,3.2"/>
	<g id="XMLID_2437_">
		<defs>
			<polygon id="XMLID_2438_" points="8.2,20.7 21.1,33.6 6.6,39.8 2.4,34.7 			"/>
		</defs>
		<clipPath id="XMLID_3_">
			<use xlink:href="#XMLID_2438_"  style="overflow:visible;"/>
		</clipPath>
		<g id="XMLID_2439_" class="st2">
			<line id="XMLID_2443_" class="st0" x1="12.3" y1="20.7" x2="4.6" y2="37.2"/>
			<line id="XMLID_2442_" class="st0" x1="14.9" y1="23.3" x2="7.3" y2="39.8"/>
			<line id="XMLID_2441_" class="st0" x1="17.5" y1="25.9" x2="9.9" y2="42.5"/>
			<line id="XMLID_2440_" class="st0" x1="20.2" y1="28.6" x2="12.6" y2="45.1"/>
		</g>
	</g>
	<circle id="XMLID_2436_" class="st3" cx="31.6" cy="21.6" r="0.7"/>
	<circle id="XMLID_2435_" class="st3" cx="6.7" cy="13.1" r="0.7"/>
	<circle id="XMLID_2434_" class="st3" cx="18.2" cy="15.7" r="0.7"/>
	<path id="XMLID_2433_" class="st0" d="M24.8,9.3c0,0,3.5,7.3-1,8.5c-2.7,0.7-3.9,3.4-4.2,4.5"/>
	<path id="XMLID_2432_" class="st0" d="M15.2,11c0,0,0.9,3.7-1.3,5.7"/>
</g>
</svg>
