<?xml version="1.0" encoding="utf-8"?>
<!-- Generator: Adobe Illustrator 19.0.0, SVG Export Plug-In . SVG Version: 6.00 Build 0)  -->
<svg version="1.1" id="Warstwa_1" xmlns="http://www.w3.org/2000/svg" xmlns:xlink="http://www.w3.org/1999/xlink" x="0px" y="0px"
	 viewBox="0 7 47.2 38" style="enable-background:new 0 7 47.2 38;" xml:space="preserve">
<style type="text/css">
	.st0{fill:none;stroke:#838383;stroke-width:1.3;stroke-linecap:round;stroke-linejoin:round;stroke-miterlimit:10;}
	.st1{fill:#FFFFFF;stroke:#838383;stroke-width:1.3;stroke-linecap:round;stroke-linejoin:round;stroke-miterlimit:10;}
	.st2{fill:#838383;}
	.st3{fill:none;}
</style>
<g>
	<g id="XMLID_2726_">
		<path id="XMLID_2738_" class="st0" d="M11.6,23.2H4.5c-0.5,0-0.9,0-0.9,0l0,0.1l2,19.1c0,0.4,0.4,0.7,0.8,0.7h5.2h5.2
			c0.4,0,0.8-0.3,0.8-0.7l2-19.3c0,0-0.9,0-1.4,0H11.6z"/>
		<circle id="XMLID_2737_" class="st0" cx="11.6" cy="32.6" r="3.9"/>
		<line id="XMLID_2736_" class="st1" x1="4" y1="27" x2="19.3" y2="27"/>
		<line id="XMLID_2735_" class="st1" x1="5.2" y1="38.8" x2="17.7" y2="38.8"/>
		<path id="XMLID_2734_" class="st0" d="M21.6,23.2H3.5H1.7v-1c0-0.6,0.5-1.1,1.1-1.1h17.7c0.6,0,1.1,0.5,1.1,1.1V23.2z"/>
		<path id="XMLID_2733_" class="st0" d="M19.7,21H3.6v-1.3c0-0.6,0.5-1,1-1h14.1c0.6,0,1,0.5,1,1V21z"/>
		<g id="XMLID_2731_">
			<path id="XMLID_2732_" class="st2" d="M8.5,17.6c-0.1,0-0.3-0.1-0.4-0.2c-0.1-0.1-0.3-0.5-0.3-1c0-0.5,0.3-1,0.3-1l0,0
				c0,0,0.1-0.2,0.1-0.4c0-0.2-0.1-0.4-0.1-0.4C8,14.4,8,14.1,8.3,13.9c0.2-0.2,0.5-0.1,0.7,0.1c0,0,0.3,0.5,0.3,1
				c0,0.5-0.3,1-0.3,1l0,0c0,0-0.1,0.2-0.1,0.4c0,0.2,0.1,0.4,0.1,0.4c0.2,0.2,0.1,0.5-0.1,0.7C8.7,17.6,8.6,17.6,8.5,17.6z"/>
		</g>
		<g id="XMLID_2729_">
			<path id="XMLID_2730_" class="st2" d="M11.8,16.6c-0.1,0-0.3-0.1-0.4-0.2c-0.1-0.1-0.3-0.5-0.3-1c0-0.5,0.3-1,0.3-1l0,0
				c0,0,0.1-0.2,0.1-0.4c0-0.2-0.1-0.4-0.1-0.4c-0.2-0.2-0.1-0.5,0.1-0.7c0.2-0.2,0.5-0.1,0.7,0.1c0,0,0.3,0.5,0.3,1s-0.3,1-0.3,1
				l0,0c0,0-0.1,0.2-0.1,0.4c0,0.2,0.1,0.4,0.1,0.4c0.2,0.2,0.1,0.5-0.1,0.7C12,16.5,11.9,16.6,11.8,16.6z"/>
		</g>
		<g id="XMLID_2727_">
			<path id="XMLID_2728_" class="st2" d="M14.4,17.6c-0.1,0-0.3-0.1-0.4-0.2c-0.1-0.1-0.3-0.5-0.3-1c0-0.5,0.3-1,0.3-1l0,0
				c0,0,0.1-0.2,0.1-0.4c0-0.2-0.1-0.4-0.1-0.4c-0.2-0.2-0.1-0.5,0.1-0.7c0.2-0.2,0.5-0.1,0.7,0.1c0,0,0.3,0.5,0.3,1
				c0,0.5-0.3,1-0.3,1l0,0c0,0-0.1,0.2-0.1,0.4c0,0.2,0.1,0.4,0.1,0.4c0.2,0.2,0.1,0.5-0.1,0.7C14.6,17.6,14.5,17.6,14.4,17.6z"/>
		</g>
	</g>
	<g id="XMLID_2485_">
		<path id="XMLID_2633_" class="st3" d="M42,24.4H28v11.7H42V24.4z M35,35.3c-2.7,0-5-2.2-5-5s2.2-5,5-5s5,2.2,5,5
			S37.7,35.3,35,35.3z"/>
		<path id="XMLID_2634_" class="st3" d="M41.1,12.8H23.2l2.5,4.2h17.9l-2.6-4.2C41.1,12.8,41.1,12.8,41.1,12.8z"/>
		<path id="XMLID_2641_" class="st3" d="M25.1,42.5h16.6c1.4,0,2.6-1.2,2.6-2.6V18.2H26.1v21.6C26.1,40.9,25.7,41.8,25.1,42.5z
			 M26.7,23.8c0-0.4,0.3-0.6,0.7-0.6h15.2c0.4,0,0.7,0.3,0.7,0.6v13c0,0.4-0.3,0.6-0.7,0.6H27.4c-0.4,0-0.7-0.3-0.7-0.6V23.8z"/>
		<path id="XMLID_2642_" class="st3" d="M22.4,11.3C22.4,11.3,22.4,11.4,22.4,11.3l0.1,0.1h18c0,0,0-0.1,0-0.1c0,0,0,0,0,0v-0.9
			c0-0.5-0.4-0.9-0.9-0.9H22.2c0.1,0.2,0.2,0.5,0.2,0.8V11.3z"/>
		<path id="XMLID_2643_" class="st3" d="M21.1,11C21.1,11,21.1,11,21.1,11l0-0.7c0-0.4-0.4-0.8-0.8-0.8s-0.8,0.4-0.8,0.8v3.2
			L21.1,11C21.1,11,21.1,11,21.1,11z"/>
		<path id="XMLID_2644_" class="st3" d="M35,26.7c-2,0-3.7,1.6-3.7,3.7S33,34,35,34s3.7-1.6,3.7-3.7S37,26.7,35,26.7z"/>
		<path id="XMLID_2645_" class="st3" d="M24.8,39.9V17.8l-3.1-5h-0.1c0,0-0.1,0-0.1,0l-3.1,5v0.9h0.2c0.6,0,1,0.5,1,1V21h0.8
			c0.6,0,1.1,0.5,1.1,1.1v1h-1.9l-1.3,12v4.7c0,1.4,1.2,2.6,2.6,2.6h1.1C23.6,42.5,24.8,41.3,24.8,39.9z"/>
		<path id="XMLID_2646_" class="st2" d="M19.5,10.3c0-0.4,0.4-0.8,0.8-0.8c-0.4,0-0.7-0.3-0.7-0.6s0.3-0.6,0.7-0.6
			c-1.2,0-2.1,0.9-2.1,2.1v5.3l1.3-2.1V10.3z"/>
		<path id="XMLID_2647_" class="st2" d="M21.1,10.3v0.6c0,0,0,0,0.1-0.1c0,0,0.1-0.1,0.1-0.1c0,0,0,0,0,0c0,0,0.1,0,0.1,0
			c0,0,0.1,0,0.1,0c0,0,0.1,0,0.1,0c0,0,0.1,0,0.1,0c0,0,0.1,0,0.1,0c0,0,0.1,0,0.1,0c0,0,0,0,0,0c0,0,0.1,0.1,0.1,0.1
			c0,0,0.1,0.1,0.1,0.1c0,0,0,0,0,0l0.2,0.4c0,0,0,0,0,0v-1c0-0.3-0.1-0.6-0.2-0.8h-1.9C20.7,9.5,21.1,9.9,21.1,10.3z"/>
		<path id="XMLID_2649_" class="st2" d="M17.2,17.4c0,0,0-0.1,0-0.1C17.2,17.3,17.2,17.4,17.2,17.4z"/>
		<path id="XMLID_2650_" class="st2" d="M45.5,17.5c0,0.2-0.1,0.5-0.3,0.6c-0.1,0.1-0.2,0.1-0.3,0.1c-0.2,0-0.4-0.1-0.6-0.3l-0.6-1
			H25.8l0.2,0.3c0,0,0,0,0,0c0,0,0,0.1,0,0.1c0,0,0,0.1,0,0.1c0,0,0,0,0,0v0.6h18.2v21.6c0,1.4-1.2,2.6-2.6,2.6H25.1
			c-0.7,0.8-1.7,1.3-2.9,1.3h19.5c2.2,0,3.9-1.8,3.9-3.9L45.5,17.5C45.5,17.6,45.5,17.6,45.5,17.5z"/>
		<path id="XMLID_2651_" class="st2" d="M45.5,17.3c0,0,0,0.1,0,0.1C45.5,17.4,45.5,17.3,45.5,17.3z"/>
		<path id="XMLID_2652_" class="st2" d="M18.4,17.8l-0.1,0.2c-0.1,0.2-0.3,0.3-0.6,0.3c-0.1,0-0.2,0-0.3-0.1
			c-0.2-0.1-0.3-0.4-0.3-0.6c0,0,0,0,0,0v1.1h1.3V17.8z"/>
		<path id="XMLID_2653_" class="st2" d="M25.4,18.2c-0.1,0-0.2,0-0.3-0.1c0,0,0,0-0.1,0C25,18.1,25,18,24.9,18c0,0,0,0,0,0l-0.1-0.2
			v22.1c0,1.4-1.2,2.6-2.6,2.6h2.9c0.6-0.7,1-1.6,1-2.6V18.2H25.4L25.4,18.2z"/>
		<path id="XMLID_2654_" class="st2" d="M26,17.3c0,0,0,0.1,0,0.1C26,17.4,26,17.3,26,17.3z"/>
		<path id="XMLID_2655_" class="st2" d="M25.1,18.1C25,18.1,25,18,24.9,18C25,18,25,18.1,25.1,18.1z"/>
		<path id="XMLID_2656_" class="st2" d="M25.1,42.5h-2.9H21c-1.4,0-2.6-1.2-2.6-2.6c0-0.3-0.2-0.5-0.4-0.6l-0.3,2.6
			c0.7,1.1,1.9,1.9,3.3,1.9h1.1C23.3,43.8,24.3,43.3,25.1,42.5z"/>
		<path id="XMLID_2657_" class="st2" d="M25.8,18.1c-0.1,0.1-0.2,0.1-0.3,0.1h0.6v-0.6c0,0,0,0,0,0C26.1,17.8,26,18,25.8,18.1z"/>
		<path id="XMLID_2658_" class="st2" d="M25.4,18.2c-0.1,0-0.2,0-0.3-0.1C25.2,18.2,25.3,18.2,25.4,18.2L25.4,18.2z"/>
		<path id="XMLID_2725_" class="st2" d="M45.5,17.4c0,0,0,0.1,0,0.1C45.5,17.5,45.5,17.5,45.5,17.4z"/>
		<path id="XMLID_2878_" class="st2" d="M41.7,12.3c-0.1,0.2-0.3,0.4-0.5,0.4l2.6,4.2h0.8L41.7,12.3z"/>
		<path id="XMLID_2879_" class="st2" d="M40.4,11.5L40.4,11.5C40.4,11.4,40.4,11.4,40.4,11.5C40.4,11.4,40.4,11.4,40.4,11.5z"/>
		<path id="XMLID_2880_" class="st2" d="M41.6,11.7c0.1,0.1,0.1,0.2,0.1,0.4c0,0.1,0,0.1,0,0.2l2.8,4.6h0.4c0.3,0,0.5,0.1,0.6,0.4
			c0,0,0,0,0,0l-3.7-6.1v0.2C41.7,11.5,41.7,11.6,41.6,11.7z"/>
		<path id="XMLID_2881_" class="st2" d="M44.9,16.9h-0.4l0.4,0.7l-0.4-0.7h-0.8l0.6,1c0.1,0.2,0.3,0.3,0.6,0.3c0.1,0,0.2,0,0.3-0.1
			c0.2-0.1,0.3-0.4,0.3-0.6c0,0,0-0.1,0-0.1c0,0,0-0.1,0-0.1C45.4,17.1,45.1,16.9,44.9,16.9z"/>
		<path id="XMLID_2882_" class="st2" d="M24.8,17.8v-0.2c0,0,0,0,0,0c0-0.2,0.1-0.4,0.3-0.5l-2.6-4.3h-0.8L24.8,17.8z"/>
		<path id="XMLID_2883_" class="st2" d="M21.1,10.9C21.1,11,21.1,11,21.1,10.9C21.1,11,21.1,11,21.1,10.9L21.1,10.9z"/>
		<path id="XMLID_2884_" class="st2" d="M22.5,11.5l-0.1-0.1C22.4,11.4,22.4,11.4,22.5,11.5L22.5,11.5z"/>
		<path id="XMLID_2885_" class="st2" d="M22.5,12.8l2.6,4.3c0.1-0.1,0.2-0.1,0.3-0.1h0h0.4l-2.5-4.2H22.5z"/>
		<path id="XMLID_2886_" class="st2" d="M21.3,10.8C21.3,10.8,21.3,10.8,21.3,10.8C21.3,10.8,21.3,10.8,21.3,10.8
			C21.3,10.8,21.3,10.8,21.3,10.8z"/>
		<path id="XMLID_2887_" class="st2" d="M21.5,10.7c0,0,0.1,0,0.1,0C21.6,10.7,21.5,10.7,21.5,10.7z"/>
		<path id="XMLID_2888_" class="st2" d="M22,10.8C22,10.8,22,10.9,22,10.8C22,10.9,22,10.8,22,10.8z"/>
		<path id="XMLID_2955_" class="st2" d="M22.2,11.5h0.1c0,0,0-0.1,0-0.1L22.2,11c0,0,0,0,0,0C22.2,11.1,22.3,11.3,22.2,11.5z"/>
		<path id="XMLID_3005_" class="st2" d="M21.2,10.9C21.1,10.9,21.1,10.9,21.2,10.9L21.2,10.9C21.1,10.9,21.1,10.9,21.2,10.9z"/>
		<path id="XMLID_3021_" class="st2" d="M21.7,10.7c0,0,0.1,0,0.1,0C21.8,10.7,21.8,10.7,21.7,10.7z"/>
		<path id="XMLID_3023_" class="st2" d="M24.8,17.6C24.8,17.6,24.8,17.6,24.8,17.6L24.8,17.6c0-0.2,0.1-0.4,0.3-0.5l0,0
			C24.9,17.2,24.8,17.4,24.8,17.6z"/>
		<path id="XMLID_3024_" class="st2" d="M25.4,16.9L25.4,16.9c-0.1,0-0.2,0-0.3,0.1l0,0C25.2,17,25.3,16.9,25.4,16.9z"/>
		<path id="XMLID_3026_" class="st2" d="M26,17.3C26,17.3,26,17.3,26,17.3l-0.2-0.4h-0.4C25.7,16.9,25.9,17.1,26,17.3z"/>
		<path id="XMLID_3027_" class="st2" d="M26,17.4c0,0,0,0.1,0,0.1C26.1,17.5,26.1,17.5,26,17.4z"/>
		<path id="XMLID_3028_" class="st2" d="M24.9,17.9C24.9,17.9,24.9,17.9,24.9,17.9c0-0.1-0.1-0.2-0.1-0.3v0.2L24.9,17.9z"/>
		<path id="XMLID_3029_" class="st2" d="M25.1,18.1C25.1,18.1,25.1,18.2,25.1,18.1C25.1,18.2,25.1,18.1,25.1,18.1z"/>
		<path id="XMLID_3030_" class="st2" d="M25.4,16.9c-0.1,0-0.2,0-0.3,0.1l0.3,0.5L25.1,17c-0.2,0.1-0.3,0.3-0.3,0.5v0
			c0,0.1,0.1,0.3,0.1,0.4c0,0.1,0.1,0.1,0.2,0.2c0,0,0,0,0.1,0c0.1,0,0.2,0.1,0.3,0.1c0.1,0,0.2,0,0.3-0.1c0.2-0.1,0.3-0.4,0.3-0.6
			c0,0,0-0.1,0-0.1c0,0,0-0.1,0-0.1C25.9,17.1,25.7,16.9,25.4,16.9z"/>
		<path id="XMLID_3031_" class="st2" d="M21,12.3l-1.5,2.4v1.1c0,0.4-0.3,0.6-0.7,0.6c-0.1,0-0.2,0-0.3-0.1L18.1,17
			c0.2,0.1,0.3,0.3,0.3,0.5v0.2l3.1-5C21.3,12.7,21.1,12.6,21,12.3z"/>
		<path id="XMLID_3032_" class="st2" d="M17.1,17.5c0,0,0-0.1,0-0.1C17.2,17.5,17.1,17.5,17.1,17.5z"/>
		<path id="XMLID_3033_" class="st2" d="M21,12.1c0-0.1,0.1-0.3,0.1-0.4l0-0.1c-0.1-0.2-0.1-0.5,0-0.7c0,0,0,0,0,0l-1.6,2.5v1.2
			l1.5-2.4C21,12.3,21,12.2,21,12.1z"/>
		<path id="XMLID_3034_" class="st2" d="M17.8,16.9c0.1,0,0.2,0,0.3,0.1l0.4-0.7c-0.2-0.1-0.3-0.3-0.3-0.5v-0.2l-1,1.6c0,0,0,0,0,0
			C17.3,17.1,17.5,16.9,17.8,16.9z"/>
		<path id="XMLID_3035_" class="st2" d="M21.6,10.7c0,0,0.1,0,0.1,0C21.7,10.7,21.7,10.7,21.6,10.7z"/>
		<path id="XMLID_3036_" class="st2" d="M21.4,10.7c0,0,0.1,0,0.1,0C21.4,10.7,21.4,10.7,21.4,10.7z"/>
		<path id="XMLID_3037_" class="st2" d="M21.9,10.8C21.9,10.8,21.9,10.8,21.9,10.8C21.9,10.8,21.9,10.8,21.9,10.8
			C22,10.8,22,10.8,21.9,10.8z"/>
		<path id="XMLID_3038_" class="st2" d="M22.1,10.9C22.1,10.9,22.1,10.9,22.1,10.9C22.1,10.9,22.1,10.9,22.1,10.9z"/>
		<path id="XMLID_3039_" class="st2" d="M21.2,10.9C21.2,10.9,21.2,10.8,21.2,10.9C21.2,10.8,21.2,10.9,21.2,10.9z"/>
		<path id="XMLID_3040_" class="st2" d="M18.5,16.4l1-1.6v-1.2l-1.3,2.1v0.2C18.2,16.1,18.3,16.3,18.5,16.4z"/>
		<path id="XMLID_3041_" class="st2" d="M19.5,15.8v-1.1l-1,1.6c0.1,0.1,0.2,0.1,0.3,0.1C19.2,16.5,19.5,16.2,19.5,15.8z"/>
		<path id="XMLID_3042_" class="st2" d="M17.4,18.1c0.1,0.1,0.2,0.1,0.3,0.1c0.2,0,0.4-0.1,0.6-0.3l0.1-0.2v-0.2
			c0-0.2-0.1-0.4-0.3-0.5l-0.3,0.5l0.3-0.5c-0.1-0.1-0.2-0.1-0.3-0.1c-0.3,0-0.5,0.1-0.6,0.4c0,0,0,0.1,0,0.1c0,0,0,0.1,0,0.1
			C17.1,17.8,17.2,18,17.4,18.1z"/>
		<path id="XMLID_3043_" class="st2" d="M21.2,11.6c0-0.1-0.1-0.2-0.1-0.3V11c0,0,0,0,0,0c-0.1,0.2-0.2,0.5,0,0.7l0,0.1
			C21.1,11.7,21.1,11.7,21.2,11.6z"/>
		<path id="XMLID_3044_" class="st2" d="M21.7,11.5l-0.1-0.1l-0.1,0.2C21.5,11.5,21.6,11.5,21.7,11.5L21.7,11.5z"/>
		<path id="XMLID_3045_" class="st2" d="M21.1,11.3c0,0.1,0,0.2,0.1,0.3c0.1-0.1,0.2-0.1,0.3-0.1l0.1-0.2l0.1,0.1h0.5
			c0-0.2,0-0.3-0.1-0.5c0,0-0.1-0.1-0.1-0.1c0,0-0.1-0.1-0.1-0.1c0,0-0.1,0-0.1,0c0,0-0.1,0-0.1,0c0,0-0.1,0-0.1,0c0,0-0.1,0-0.1,0
			c0,0-0.1,0-0.1,0c0,0-0.1,0-0.1,0.1c0,0-0.1,0.1-0.1,0.1c0,0,0,0-0.1,0.1V11.3z"/>
		<path id="XMLID_3046_" class="st2" d="M22.2,9.5h17.3c0.5,0,0.9,0.4,0.9,0.9v0.9c0,0,0,0,0,0c0-0.2,0.1-0.5,0.3-0.6
			c0.3-0.2,0.7-0.1,0.9,0.2l0.1,0.2v-0.8c0-1.2-1-2.2-2.2-2.2H20.3C21.2,8.2,21.9,8.8,22.2,9.5z"/>
		<path id="XMLID_3047_" class="st2" d="M19.6,8.9c0,0.4,0.3,0.6,0.7,0.6h1.9c-0.3-0.8-1.1-1.3-1.9-1.3C19.9,8.2,19.6,8.5,19.6,8.9z
			"/>
		<path id="XMLID_3048_" class="st2" d="M40.7,10.8c-0.2,0.1-0.3,0.4-0.3,0.6c0,0,0,0.1,0,0.1h0.6c0,0,0.1,0,0.1,0l-0.1-0.2l0.1,0.2
			c0.2,0,0.3,0.1,0.4,0.2c0.1-0.1,0.1-0.2,0.1-0.4v-0.2L41.6,11C41.4,10.7,41,10.6,40.7,10.8z"/>
		<path id="XMLID_3198_" class="st2" d="M27.4,37.5h15.2c0.4,0,0.7-0.3,0.7-0.6v-13c0-0.4-0.3-0.6-0.7-0.6H27.4
			c-0.4,0-0.7,0.3-0.7,0.6v13C26.7,37.2,27,37.5,27.4,37.5z M28,24.4H42v11.7H28V24.4z"/>
		<path id="XMLID_3206_" class="st2" d="M21.5,12.8c0,0,0.1,0,0.1,0h0.1l-0.1-0.2L21.5,12.8z"/>
		<path id="XMLID_3253_" class="st2" d="M40.5,11.6c0,0,0-0.1,0-0.1c0,0,0,0,0,0h-18l0.8,1.3h17.8c0,0,0.1,0,0.1,0L40.5,11.6
			C40.5,11.7,40.5,11.6,40.5,11.6z"/>
		<path id="XMLID_3254_" class="st2" d="M41.4,11.9l0.3,0.4c0-0.1,0-0.1,0-0.2c0-0.2-0.1-0.3-0.1-0.4C41.5,11.8,41.5,11.8,41.4,11.9
			z"/>
		<path id="XMLID_3255_" class="st2" d="M41.1,12c-0.3,0-0.5-0.1-0.6-0.4c0,0,0,0,0,0l0.7,1.1c0.2,0,0.4-0.2,0.5-0.4l-0.3-0.4
			C41.3,11.9,41.2,12,41.1,12z"/>
		<path id="XMLID_3256_" class="st2" d="M40.5,11.5C40.5,11.5,40.5,11.5,40.5,11.5L40.5,11.5C40.4,11.5,40.5,11.5,40.5,11.5z"/>
		<path id="XMLID_3257_" class="st2" d="M22.4,11.5c0,0.2-0.2,0.4-0.4,0.5l0,0l0.5,0.8h0.8L22.4,11.5L22.4,11.5z"/>
		<polygon id="XMLID_3258_" class="st2" points="21.6,12.6 21.7,12.8 22.5,12.8 22,12 		"/>
		<path id="XMLID_3259_" class="st2" d="M22.2,11.7L22,11.9c0.2-0.1,0.3-0.3,0.4-0.5h-0.1C22.2,11.5,22.2,11.6,22.2,11.7z"/>
		<path id="XMLID_3260_" class="st2" d="M21.2,12L21,12.3c0.1,0.2,0.3,0.4,0.5,0.4l0.1-0.2L21.2,12z"/>
		<path id="XMLID_3261_" class="st2" d="M21.1,11.7C21,11.9,21,12,21,12.1c0,0.1,0,0.1,0,0.2l0.2-0.4L21.1,11.7z"/>
		<path id="XMLID_3262_" class="st2" d="M21.3,11.8c-0.1,0-0.1-0.1-0.1-0.2c0,0-0.1,0.1-0.1,0.1l0.1,0.2L21.3,11.8z"/>
		<path id="XMLID_3263_" class="st2" d="M22,12L22,12C22,11.9,22,11.9,22,12L22,12z"/>
		<path id="XMLID_3264_" class="st2" d="M21.7,12c-0.2,0-0.3-0.1-0.4-0.2L21.2,12l0.4,0.6L22,12l0,0C21.9,12,21.8,12,21.7,12z"/>
		<path id="XMLID_3265_" class="st2" d="M22,11.9l-0.3-0.5h-0.1c0,0-0.1,0-0.1,0l-0.2,0.3c0.1,0.1,0.3,0.2,0.4,0.2
			C21.8,12,21.9,12,22,11.9z"/>
		<path id="XMLID_3266_" class="st2" d="M21.2,11.6c0,0.1,0.1,0.1,0.1,0.2l0.2-0.3C21.4,11.5,21.3,11.6,21.2,11.6z"/>
		<path id="XMLID_3267_" class="st2" d="M22.2,11.5h-0.5l0.3,0.5c0,0,0,0,0,0l0.2-0.3C22.2,11.6,22.2,11.5,22.2,11.5z"/>
		<path id="XMLID_3268_" class="st2" d="M40.5,11.5c0,0,0,0.1,0,0.1C40.5,11.6,40.5,11.6,40.5,11.5z"/>
		<path id="XMLID_3269_" class="st2" d="M41.6,11.7c-0.1-0.1-0.2-0.2-0.4-0.2l0.2,0.4C41.5,11.8,41.5,11.8,41.6,11.7z"/>
		<path id="XMLID_3270_" class="st2" d="M40.5,11.6c0.1,0.2,0.3,0.4,0.6,0.4c0.1,0,0.2,0,0.3-0.1l-0.2-0.4c0,0-0.1,0-0.1,0h-0.6
			c0,0,0,0,0,0C40.5,11.6,40.5,11.6,40.5,11.6z"/>
		<path id="XMLID_3273_" class="st2" d="M35,25.4c-2.7,0-5,2.2-5,5s2.2,5,5,5s5-2.2,5-5S37.7,25.4,35,25.4z M35,34
			c-2,0-3.7-1.6-3.7-3.7s1.6-3.7,3.7-3.7s3.7,1.6,3.7,3.7S37,34,35,34z"/>
	</g>
</g>
</svg>
