<?xml version="1.0" encoding="utf-8"?>
<!-- Generator: Adobe Illustrator 19.0.0, SVG Export Plug-In . SVG Version: 6.00 Build 0)  -->
<svg version="1.1" id="Warstwa_1" xmlns="http://www.w3.org/2000/svg" xmlns:xlink="http://www.w3.org/1999/xlink" x="0px" y="0px"
	 viewBox="0 0 37.5 38" style="enable-background:new 0 0 37.5 38;" xml:space="preserve">
<style type="text/css">
	.st0{fill:#838383;}
</style>
<g id="XMLID_597_">
	<g id="XMLID_596_">
		<path id="XMLID_259_" class="st0" d="M28.4,20H9.3V10c0-5.3,4.3-9.5,9.5-9.5s9.5,4.3,9.5,9.5V20z M10.6,18.7h16.5V10
			c0-4.5-3.7-8.2-8.2-8.2s-8.2,3.7-8.2,8.2V18.7z"/>
	</g>
	<g id="XMLID_595_">
		<path id="XMLID_256_" class="st0" d="M28.8,25.7H8.7c-1.4,0-2.5-1.1-2.5-2.5v-0.7c0-2.1,1.7-3.7,3.7-3.7h17.5
			c2.1,0,3.7,1.7,3.7,3.7v0.7C31.2,24.6,30.1,25.7,28.8,25.7z M10,20c-1.3,0-2.4,1.1-2.4,2.4v0.7c0,0.6,0.5,1.2,1.2,1.2h20.1
			c0.6,0,1.2-0.5,1.2-1.2v-0.7c0-1.3-1.1-2.4-2.4-2.4H10z"/>
	</g>
	<g id="XMLID_594_">
		<path id="XMLID_255_" class="st0" d="M30.6,24.2c-0.4,0-0.7-0.3-0.7-0.7V12.7c0-0.4,0.3-0.6,0.7-0.6s0.7,0.3,0.7,0.6v10.8
			C31.2,23.9,30.9,24.2,30.6,24.2z"/>
	</g>
	<g id="XMLID_593_">
		<path id="XMLID_252_" class="st0" d="M34.3,14.7h-2.4c-1.1,0-2-0.9-2-2s0.9-2,2-2h2.4c1.1,0,2,0.9,2,2S35.4,14.7,34.3,14.7z
			 M31.9,12c-0.4,0-0.7,0.3-0.7,0.7s0.3,0.7,0.7,0.7h2.4c0.4,0,0.7-0.3,0.7-0.7S34.6,12,34.3,12H31.9z"/>
	</g>
	<g id="XMLID_592_">
		<path id="XMLID_251_" class="st0" d="M6.9,24.2c-0.4,0-0.6-0.3-0.6-0.7V12.7c0-0.4,0.3-0.6,0.6-0.6s0.6,0.3,0.6,0.6v10.8
			C7.6,23.9,7.3,24.2,6.9,24.2z"/>
	</g>
	<g id="XMLID_591_">
		<path id="XMLID_248_" class="st0" d="M5.6,14.7H3.2c-1.1,0-2-0.9-2-2s0.9-2,2-2h2.4c1.1,0,2,0.9,2,2S6.7,14.7,5.6,14.7z M3.2,12
			c-0.4,0-0.7,0.3-0.7,0.7s0.3,0.7,0.7,0.7h2.4c0.4,0,0.7-0.3,0.7-0.7S6,12,5.6,12H3.2z"/>
	</g>
	<g id="XMLID_590_">
		<path id="XMLID_247_" class="st0" d="M18.7,34.5C18.7,34.5,18.7,34.5,18.7,34.5c-0.4,0-0.7-0.3-0.7-0.7l0.1-8.8
			c0-0.4,0.3-0.7,0.7-0.6c0.4,0,0.6,0.3,0.6,0.7l-0.1,8.8C19.4,34.2,19.1,34.5,18.7,34.5z"/>
	</g>
	<g id="XMLID_589_">
		<path id="XMLID_244_" class="st0" d="M18.7,37.6c-1.2,0-2.2-1-2.2-2.2s1-2.2,2.2-2.2s2.2,1,2.2,2.2S20,37.6,18.7,37.6z M18.7,34.5
			c-0.5,0-0.9,0.4-0.9,0.9s0.4,0.9,0.9,0.9s0.9-0.4,0.9-0.9S19.2,34.5,18.7,34.5z"/>
	</g>
	<g id="XMLID_588_">
		<path id="XMLID_241_" class="st0" d="M27.7,37.6c-1.2,0-2.2-1-2.2-2.2s1-2.2,2.2-2.2s2.2,1,2.2,2.2S28.9,37.6,27.7,37.6z
			 M27.7,34.5c-0.5,0-0.9,0.4-0.9,0.9s0.4,0.9,0.9,0.9s0.9-0.4,0.9-0.9S28.2,34.5,27.7,34.5z"/>
	</g>
	<g id="XMLID_587_">
		<path id="XMLID_240_" class="st0" d="M27.7,34.5c-0.2,0-0.4-0.1-0.5-0.3l-2.8-4.1h-5.5c-0.4,0-0.7-0.3-0.7-0.7s0.3-0.7,0.7-0.7
			h5.9c0.2,0,0.4,0.1,0.5,0.3l3,4.4c0.2,0.3,0.1,0.7-0.2,0.9C28,34.4,27.8,34.5,27.7,34.5z"/>
	</g>
	<g id="XMLID_586_">
		<path id="XMLID_237_" class="st0" d="M9.9,37.6c-1.2,0-2.2-1-2.2-2.2s1-2.2,2.2-2.2s2.2,1,2.2,2.2S11.1,37.6,9.9,37.6z M9.9,34.5
			c-0.5,0-0.9,0.4-0.9,0.9s0.4,0.9,0.9,0.9s0.9-0.4,0.9-0.9S10.4,34.5,9.9,34.5z"/>
	</g>
	<g id="XMLID_579_">
		<path id="XMLID_236_" class="st0" d="M9.9,34.5c-0.1,0-0.3,0-0.4-0.1c-0.3-0.2-0.4-0.6-0.2-0.9l3-4.4c0.1-0.2,0.3-0.3,0.5-0.3h5.9
			c0.4,0,0.7,0.3,0.7,0.7s-0.3,0.7-0.7,0.7h-5.5l-2.8,4.1C10.3,34.4,10.1,34.5,9.9,34.5z"/>
	</g>
</g>
</svg>
