<?xml version="1.0" encoding="utf-8"?>
<!-- Generator: Adobe Illustrator 19.0.0, SVG Export Plug-In . SVG Version: 6.00 Build 0)  -->
<svg version="1.1" id="Warstwa_1" xmlns="http://www.w3.org/2000/svg" xmlns:xlink="http://www.w3.org/1999/xlink" x="0px" y="0px"
	 viewBox="0 7 49.2 38" style="enable-background:new 0 7 49.2 38;" xml:space="preserve">
<style type="text/css">
	.st0{fill:#838383;}
</style>
<g id="XMLID_2388_">
	<g id="XMLID_2402_">
		<path class="st0" d="M3,43.9c-0.1,0-0.3,0-0.4-0.1c-0.2-0.1-0.3-0.3-0.3-0.5V13.2c0-0.3,0.2-0.5,0.5-0.6l14.4-4.5
			c0.2-0.1,0.4,0,0.6,0.1C17.9,8.3,18,8.5,18,8.7v30.1c0,0.3-0.2,0.5-0.5,0.6L3.2,43.9C3.1,43.9,3,43.9,3,43.9z M3.6,13.7v28.7
			l13.1-4.1V9.6L3.6,13.7z"/>
	</g>
	<g id="XMLID_2401_">
		<path class="st0" d="M31.8,43.9c-0.1,0-0.3,0-0.4-0.1c-0.2-0.1-0.3-0.3-0.3-0.5v-30c0-0.3,0.2-0.5,0.5-0.6L46,8.2
			c0.2-0.1,0.4,0,0.6,0.1c0.2,0.1,0.3,0.3,0.3,0.5v30c0,0.3-0.2,0.5-0.5,0.6L32,43.9C31.9,43.9,31.9,43.9,31.8,43.9z M32.5,13.8
			v28.6l13.1-4.1V9.7L32.5,13.8z"/>
	</g>
	<g id="XMLID_2400_">
		<path class="st0" d="M31.8,43.9c-0.1,0-0.1,0-0.2,0l-14.4-4.5c-0.3-0.1-0.5-0.3-0.5-0.6V8.7c0-0.2,0.1-0.4,0.3-0.5
			c0.2-0.1,0.4-0.2,0.6-0.1L32,12.6c0.3,0.1,0.5,0.3,0.5,0.6v30.1c0,0.2-0.1,0.4-0.3,0.5C32.1,43.9,31.9,43.9,31.8,43.9z M18,38.3
			l13.1,4.1V13.7L18,9.6V38.3z"/>
	</g>
	<g id="XMLID_2399_">
		<path class="st0" d="M28.4,37.1c-0.1,0-0.1,0-0.2,0l-7.6-2.3c-0.3-0.1-0.5-0.3-0.5-0.6V15.7c0-0.2,0.1-0.4,0.3-0.5
			C20.6,15,20.8,15,21,15l7.6,2.3c0.3,0.1,0.5,0.3,0.5,0.6v18.4c0,0.2-0.1,0.4-0.3,0.5C28.7,37.1,28.5,37.1,28.4,37.1z M21.5,33.6
			l6.3,1.9V18.5l-6.3-1.9V33.6z"/>
	</g>
	<g id="XMLID_2398_">
		<path class="st0" d="M5.6,31.1c-0.3,0-0.5-0.2-0.6-0.5c-0.1-0.3,0.1-0.7,0.4-0.8l9.2-2.9c0.3-0.1,0.7,0.1,0.8,0.4
			c0.1,0.3-0.1,0.7-0.4,0.8l-9.2,2.9C5.7,31.1,5.6,31.1,5.6,31.1z"/>
	</g>
	<g id="XMLID_2397_">
		<path class="st0" d="M5.6,34C5.3,34,5,33.8,5,33.5c-0.1-0.3,0.1-0.7,0.4-0.8l9.2-2.9c0.3-0.1,0.7,0.1,0.8,0.4
			c0.1,0.3-0.1,0.7-0.4,0.8l-9.2,2.9C5.7,34,5.6,34,5.6,34z"/>
	</g>
	<g id="XMLID_2396_">
		<path class="st0" d="M5.6,20.2C5.3,20.2,5,20,5,19.7C4.8,19.4,5,19,5.4,18.9l9.2-2.9c0.3-0.1,0.7,0.1,0.8,0.4
			c0.1,0.3-0.1,0.7-0.4,0.8l-9.2,2.9C5.7,20.2,5.6,20.2,5.6,20.2z"/>
	</g>
	<g id="XMLID_2395_">
		<path class="st0" d="M5.6,37.1c-0.3,0-0.5-0.2-0.6-0.5c-0.1-0.3,0.1-0.7,0.4-0.8l9.2-2.9c0.3-0.1,0.7,0.1,0.8,0.4
			c0.1,0.3-0.1,0.7-0.4,0.8l-9.2,2.9C5.7,37.1,5.6,37.1,5.6,37.1z"/>
	</g>
	<g id="XMLID_2394_">
		<path class="st0" d="M34.4,23c-0.3,0-0.5-0.2-0.6-0.5c-0.1-0.3,0.1-0.7,0.4-0.8l9.2-2.9c0.3-0.1,0.7,0.1,0.8,0.4
			c0.1,0.3-0.1,0.7-0.4,0.8L34.6,23C34.5,23,34.5,23,34.4,23z"/>
	</g>
	<g id="XMLID_2393_">
		<path class="st0" d="M34.4,25.8c-0.3,0-0.5-0.2-0.6-0.5c-0.1-0.3,0.1-0.7,0.4-0.8l9.2-2.9c0.3-0.1,0.7,0.1,0.8,0.4
			c0.1,0.3-0.1,0.7-0.4,0.8l-9.2,2.9C34.5,25.8,34.5,25.8,34.4,25.8z"/>
	</g>
	<g id="XMLID_2392_">
		<path class="st0" d="M34.4,20.1c-0.3,0-0.5-0.2-0.6-0.5c-0.1-0.3,0.1-0.7,0.4-0.8l9.2-2.9c0.3-0.1,0.7,0.1,0.8,0.4
			c0.1,0.3-0.1,0.7-0.4,0.8l-9.2,2.9C34.5,20.1,34.5,20.1,34.4,20.1z"/>
	</g>
	<g id="XMLID_2391_">
		<path class="st0" d="M38.5,35.7c-0.3,0-0.5-0.2-0.6-0.4c-0.1-0.3,0.1-0.7,0.4-0.8l5.4-1.9c0.3-0.1,0.7,0.1,0.8,0.4
			c0.1,0.3-0.1,0.7-0.4,0.8l-5.4,1.9C38.7,35.6,38.6,35.7,38.5,35.7z"/>
	</g>
	<g id="XMLID_2390_">
		<path class="st0" d="M5.6,28.2c-0.1,0-0.3,0-0.4-0.1c-0.2-0.1-0.3-0.3-0.3-0.5L5,23.2c0-0.3,0.2-0.5,0.5-0.6l5.2-1.6
			c0.2-0.1,0.4,0,0.6,0.1c0.2,0.1,0.3,0.3,0.3,0.5l-0.1,4.3c0,0.3-0.2,0.5-0.5,0.6l-5.2,1.6C5.7,28.1,5.6,28.2,5.6,28.2z M6.3,23.7
			l-0.1,2.9l3.9-1.2l0.1-2.9L6.3,23.7z"/>
	</g>
	<g id="XMLID_2389_">
		<path class="st0" d="M36.7,32.6c-0.1,0-0.3,0-0.4-0.1C36.1,32.4,36,32.2,36,32l0.1-4.3c0-0.3,0.2-0.5,0.5-0.6l5.2-1.6
			c0.2-0.1,0.4,0,0.6,0.1c0.2,0.1,0.3,0.3,0.3,0.5l-0.1,4.3c0,0.3-0.2,0.5-0.5,0.6l-5.2,1.6C36.8,32.6,36.8,32.6,36.7,32.6z
			 M37.4,28.2l-0.1,2.9l3.9-1.2l0.1-2.9L37.4,28.2z"/>
	</g>
</g>
</svg>
