<?xml version="1.0" encoding="utf-8"?>
<!-- Generator: Adobe Illustrator 19.0.0, SVG Export Plug-In . SVG Version: 6.00 Build 0)  -->
<svg version="1.1" id="Warstwa_1" xmlns="http://www.w3.org/2000/svg" xmlns:xlink="http://www.w3.org/1999/xlink" x="0px" y="0px"
	 viewBox="-8 7 31.6 38" style="enable-background:new -8 7 31.6 38;" xml:space="preserve">
<style type="text/css">
	.st0{fill:#838383;}
</style>
<g id="XMLID_2697_">
	<g id="XMLID_2711_">
		<path class="st0" d="M6.8,12.6c-0.3,0-0.5-0.2-0.6-0.4c-0.1-0.3,0-0.7,0.4-0.8l1.9-0.7c-0.5-0.6-0.9-1-1.2-1.3l-1,1.9
			c-0.2,0.3-0.6,0.4-0.9,0.3c-0.3-0.2-0.4-0.6-0.3-0.9l1.5-2.7c0.1-0.2,0.3-0.3,0.6-0.3c0.3,0,0.5,0.1,0.6,0.3c0,0,1.4,1.6,2.4,2.6
			c0.1,0.2,0.2,0.4,0.1,0.6s-0.2,0.4-0.4,0.5l-2.8,1C6.9,12.6,6.9,12.6,6.8,12.6z"/>
	</g>
	<g id="XMLID_2710_">
		<path class="st0" d="M1.1,12.6c-0.1,0-0.2,0-0.2,0l-2.8-1c-0.2-0.1-0.4-0.2-0.4-0.5c-0.1-0.2,0-0.4,0.1-0.6c0.9-1,2.3-2.6,2.4-2.7
			c0.1-0.2,0.3-0.3,0.5-0.3c0.2,0,0.4,0.2,0.5,0.4l1.5,2.7c0.2,0.3,0.1,0.7-0.3,0.9c-0.3,0.2-0.7,0.1-0.9-0.3L0.7,9.3
			C0.4,9.6,0,10-0.5,10.6l1.9,0.7c0.3,0.1,0.5,0.5,0.4,0.8C1.7,12.4,1.4,12.6,1.1,12.6z"/>
	</g>
	<g id="XMLID_2470_">
		<path class="st0" d="M0.9,13.7c-0.1,0-0.1,0-0.2,0c-0.3-0.1-0.5-0.5-0.4-0.8c0.6-1.5,2.1-2.6,3.7-2.6c1.6,0,3.1,1,3.7,2.5
			c0.1,0.3,0,0.7-0.4,0.8c-0.3,0.1-0.7,0-0.8-0.4c-0.4-1-1.4-1.7-2.5-1.7c-1.1,0-2.1,0.7-2.5,1.7C1.4,13.6,1.2,13.7,0.9,13.7z"/>
	</g>
	<g id="XMLID_2708_">
		<path class="st0" d="M17.6,44.5H-2c-2.8,0-5.1-2.3-5.1-5.1V20.9c0-0.4,0.3-0.6,0.6-0.6h28.6c0.4,0,0.7,0.3,0.7,0.6v18.5
			C22.7,42.2,20.4,44.5,17.6,44.5z M-5.8,21.6v17.8c0,2.1,1.7,3.8,3.8,3.8h19.7c2.1,0,3.8-1.7,3.8-3.8V21.6H-5.8z"/>
	</g>
	<g id="XMLID_2704_">
		<g id="XMLID_2707_">
			<path class="st0" d="M8.3,35.8c-4.7,0-8.4-3.8-8.4-8.4c0-0.4,0.3-0.6,0.6-0.6s0.6,0.3,0.6,0.6c0,3.9,3.2,7.1,7.1,7.1
				s7.1-3.2,7.1-7.1c0-0.4,0.3-0.6,0.7-0.6c0.4,0,0.7,0.3,0.7,0.6C16.8,32,13,35.8,8.3,35.8z"/>
		</g>
		<g id="XMLID_2706_">
			<path class="st0" d="M2.6,28h-4.2c-0.4,0-0.6-0.3-0.6-0.7c0-0.4,0.3-0.6,0.6-0.6h4.2c0.4,0,0.6,0.3,0.6,0.6C3.3,27.7,3,28,2.6,28
				z"/>
		</g>
		<g id="XMLID_2705_">
			<path class="st0" d="M18.2,28H14c-0.4,0-0.7-0.3-0.7-0.7c0-0.4,0.3-0.6,0.7-0.6h4.2c0.4,0,0.7,0.3,0.7,0.6
				C18.8,27.7,18.6,28,18.2,28z"/>
		</g>
	</g>
	<g id="XMLID_2701_">
		<g id="XMLID_2703_">
			<path class="st0" d="M20.7,21.6h-7.2c-0.4,0-0.7-0.3-0.7-0.6v-9.7c0-0.4,0.3-0.6,0.7-0.6h7.2c0.4,0,0.7,0.3,0.7,0.6v9.7
				C21.4,21.3,21.1,21.6,20.7,21.6z M14.2,20.3h5.9v-8.4h-5.9V20.3z"/>
		</g>
		<g id="XMLID_2702_">
			<path class="st0" d="M21.1,12h-8.1c-0.4,0-0.7-0.3-0.7-0.6v-3c0-0.4,0.3-0.6,0.7-0.6h8.1c0.4,0,0.7,0.3,0.7,0.6v3
				C21.8,11.7,21.5,12,21.1,12z M13.7,10.7h6.8V9h-6.8V10.7z"/>
		</g>
	</g>
	<g id="XMLID_2700_">
		<path class="st0" d="M11.3,21.6H-4.6c-0.4,0-0.6-0.3-0.6-0.6v-7.7c0-0.4,0.3-0.6,0.6-0.6h15.9c0.4,0,0.7,0.3,0.7,0.6v7.7
			C11.9,21.3,11.6,21.6,11.3,21.6z M-3.9,20.3h14.6v-6.4H-3.9V20.3z"/>
	</g>
	<g id="XMLID_2699_">
		<path class="st0" d="M4,19.2c-0.2,0-0.4-0.1-0.5-0.3L2,16.7l-1.5,1.1c-0.2,0.1-0.5,0.2-0.7,0c-0.2-0.1-0.3-0.3-0.3-0.6v-4
			c0-0.4,0.3-0.6,0.6-0.6s0.6,0.3,0.6,0.6V16l1.1-0.7c0.1-0.1,0.3-0.1,0.5-0.1c0.2,0,0.3,0.1,0.4,0.3l0.6,0.9v-3.2
			c0-0.4,0.3-0.6,0.6-0.6s0.6,0.3,0.6,0.6v5.3c0,0.3-0.2,0.5-0.5,0.6C4.1,19.2,4.1,19.2,4,19.2z"/>
	</g>
	<g id="XMLID_2698_">
		<path class="st0" d="M17.1,18.3c-1.4,0-2.6-1.1-2.6-2.6s1.1-2.6,2.6-2.6s2.6,1.1,2.6,2.6S18.5,18.3,17.1,18.3z M17.1,14.5
			c-0.7,0-1.3,0.6-1.3,1.3s0.6,1.3,1.3,1.3s1.3-0.6,1.3-1.3S17.8,14.5,17.1,14.5z"/>
	</g>
</g>
</svg>
