<?xml version="1.0" encoding="utf-8"?>
<!-- Generator: Adobe Illustrator 19.0.0, SVG Export Plug-In . SVG Version: 6.00 Build 0)  -->
<svg version="1.1" id="Warstwa_1" xmlns="http://www.w3.org/2000/svg" xmlns:xlink="http://www.w3.org/1999/xlink" x="0px" y="0px"
	 viewBox="1 7 52.6 38" style="enable-background:new 1 7 52.6 38;" xml:space="preserve">
<style type="text/css">
	.st0{fill:#838383;}
	.st1{fill:#FFFFFF;}
	.st2{fill:none;}
</style>
<g>
	<g id="XMLID_2681_">
		<g id="XMLID_2682_">
			<g id="XMLID_2472_">
				<path class="st0" d="M20.7,26.5c-0.3,0-0.6-0.3-0.6-0.6c-0.3-4-3-7.1-6.3-7.1c-3.3,0-6,3.1-6.3,7.1c0,0.4-0.3,0.6-0.7,0.6
					c-0.4,0-0.6-0.3-0.6-0.7c0.4-4.7,3.6-8.3,7.6-8.3c4,0,7.2,3.6,7.6,8.3C21.4,26.1,21.1,26.4,20.7,26.5
					C20.7,26.5,20.7,26.5,20.7,26.5z"/>
			</g>
			<g id="XMLID_2687_">
				<path class="st0" d="M21.7,45H5.8c-2.4,0-4.3-1.9-4.3-4.3V25.8c0-0.4,0.3-0.7,0.6-0.7h23.1c0.4,0,0.6,0.3,0.6,0.7v14.9
					C26,43.1,24.1,45,21.7,45z M2.8,26.5v14.3c0,1.6,1.3,3,3,3h15.9c1.6,0,3-1.3,3-3V26.5H2.8z"/>
			</g>
			<g id="XMLID_2686_">
				<path class="st0" d="M8.8,31.6c-1.2,0-2.2-1-2.2-2.2s1-2.2,2.2-2.2s2.2,1,2.2,2.2S10,31.6,8.8,31.6z M8.8,28.6
					c-0.5,0-0.9,0.4-0.9,0.9s0.4,0.9,0.9,0.9s0.9-0.4,0.9-0.9S9.2,28.6,8.8,28.6z"/>
			</g>
			<g id="XMLID_2685_">
				<path class="st0" d="M19.2,31.6c-1.2,0-2.2-1-2.2-2.2s1-2.2,2.2-2.2s2.2,1,2.2,2.2S20.4,31.6,19.2,31.6z M19.2,28.6
					c-0.5,0-0.9,0.4-0.9,0.9s0.4,0.9,0.9,0.9s0.9-0.4,0.9-0.9S19.7,28.6,19.2,28.6z"/>
			</g>
			<g id="XMLID_2684_">
				<line class="st1" x1="2.2" y1="33.6" x2="25.3" y2="33.6"/>
				<path class="st0" d="M25.3,34.3H2.2c-0.4,0-0.6-0.3-0.6-0.7S1.8,33,2.2,33h23.1c0.4,0,0.6,0.3,0.6,0.7S25.7,34.3,25.3,34.3z"/>
			</g>
			<g id="XMLID_2683_">
				<line class="st1" x1="2.2" y1="37.8" x2="25.3" y2="37.8"/>
				<path class="st0" d="M25.3,38.5H2.2c-0.4,0-0.6-0.3-0.6-0.7s0.3-0.7,0.6-0.7h23.1c0.4,0,0.6,0.3,0.6,0.7S25.7,38.5,25.3,38.5z"
					/>
			</g>
		</g>
	</g>
	<g id="XMLID_2616_">
		<g id="XMLID_2619_">
			<path class="st2" d="M45.9,19.1C45.9,19.1,45.9,19.1,45.9,19.1l-19.5,0c0,0,0,0,0,0c0,0,0,0,0,0h-5.7v6.5h4.6v3.1h26.4v-9.6
				L45.9,19.1C46,19.1,46,19.1,45.9,19.1C46,19.1,46,19.1,45.9,19.1z M29.2,26.3c-1.5,0-2.8-1.2-2.8-2.8s1.2-2.8,2.8-2.8
				S32,22,32,23.5S30.8,26.3,29.2,26.3z M43.9,26.3c-1.5,0-2.8-1.2-2.8-2.8s1.2-2.8,2.8-2.8s2.8,1.2,2.8,2.8S45.4,26.3,43.9,26.3z"
				/>
		</g>
		<g id="XMLID_2621_">
			<rect x="25.3" y="30" class="st2" width="26.4" height="4.6"/>
		</g>
		<g id="XMLID_2622_">
			<path class="st2" d="M25.3,40.5c0,1.2-0.6,2.3-1.6,3c0.4,0.1,0.9,0.2,1.3,0.2h22.3c2.4,0,4.4-2,4.4-4.4v-3.5H25.3V40.5z"/>
		</g>
		<g id="XMLID_2623_">
			<path class="st2" d="M36.2,8.3c-4.5,0-8.3,4-9,9.5h18C44.5,12.3,40.7,8.3,36.2,8.3z"/>
		</g>
		<g id="XMLID_2624_">
			<circle class="st2" cx="29.2" cy="23.5" r="1.5"/>
		</g>
		<g id="XMLID_2688_">
			<circle class="st2" cx="43.9" cy="23.5" r="1.5"/>
		</g>
		<g id="XMLID_2696_">
			<path class="st0" d="M45.9,19.1C46,19.1,46,19.1,45.9,19.1C46,19.1,46,19.1,45.9,19.1L45.9,19.1C45.9,19.1,45.9,19.1,45.9,19.1z"
				/>
		</g>
		<g id="XMLID_2709_">
			<polygon class="st0" points="26.5,19.1 26.4,19.1 26.4,19.1 			"/>
		</g>
		<g id="XMLID_2739_">
			<path class="st0" d="M36.2,8.3c4.5,0,8.3,4,9,9.5h1.3C45.8,11.6,41.4,7,36.2,7s-9.6,4.6-10.3,10.8h1.3
				C27.9,12.3,31.7,8.3,36.2,8.3z"/>
		</g>
		<g id="XMLID_3468_">
			<path class="st0" d="M52.4,17.8h-5.9c0,0.2,0.1,0.4,0.1,0.6c0,0.4-0.2,0.7-0.6,0.7h5.7v9.6h0.7c0.4,0,0.7,0.3,0.7,0.7V18.4
				C53.1,18,52.8,17.8,52.4,17.8z"/>
		</g>
		<g id="XMLID_3469_">
			<path class="st0" d="M45.3,18.5c0-0.2-0.1-0.5-0.1-0.7h-18c0,0.2-0.1,0.5-0.1,0.7c0,0.4-0.3,0.6-0.7,0.6h19.5
				C45.6,19,45.3,18.8,45.3,18.5z"/>
		</g>
		<g id="XMLID_3470_">
			<path class="st0" d="M52.4,35.8h-0.7v3.5c0,2.4-2,4.4-4.4,4.4H25.1c-0.5,0-0.9-0.1-1.3-0.2c-0.5,0.3-1.1,0.6-1.8,0.6
				c0.9,0.6,2,0.9,3.1,0.9h22.3c3.1,0,5.7-2.6,5.7-5.7v-4.1C53.1,35.6,52.8,35.8,52.4,35.8z"/>
		</g>
		<g id="XMLID_3471_">
			<path class="st0" d="M52.4,30h-0.7v4.6h0.7c0.4,0,0.7,0.3,0.7,0.7v-5.9C53.1,29.7,52.8,30,52.4,30z"/>
		</g>
		<g id="XMLID_3472_">
			<path class="st0" d="M20.7,19.1h5.7c-0.4,0-0.6-0.3-0.6-0.7c0-0.2,0-0.4,0.1-0.6H20c-0.4,0-0.7,0.3-0.7,0.7v7.2h1.3V19.1z"/>
		</g>
		<g id="XMLID_3473_">
			<path class="st0" d="M45.3,18.5c0,0.3,0.3,0.6,0.6,0.6H46c0.4,0,0.6-0.3,0.6-0.7c0-0.2,0-0.4-0.1-0.6h-1.3
				C45.2,18,45.3,18.2,45.3,18.5z"/>
		</g>
		<g id="XMLID_3481_">
			<path class="st0" d="M26.4,19.1L26.4,19.1c0.4,0,0.7-0.2,0.7-0.6c0-0.2,0.1-0.5,0.1-0.7h-1.3c0,0.2-0.1,0.4-0.1,0.6
				C25.8,18.7,26.1,19,26.4,19.1z"/>
		</g>
		<g id="XMLID_3484_">
			<path class="st0" d="M29.2,20.8c-1.5,0-2.8,1.2-2.8,2.8s1.2,2.8,2.8,2.8s2.8-1.2,2.8-2.8S30.8,20.8,29.2,20.8z M29.2,25
				c-0.8,0-1.5-0.7-1.5-1.5s0.7-1.5,1.5-1.5s1.5,0.7,1.5,1.5S30,25,29.2,25z"/>
		</g>
		<g id="XMLID_3487_">
			<path class="st0" d="M43.9,20.8c-1.5,0-2.8,1.2-2.8,2.8s1.2,2.8,2.8,2.8s2.8-1.2,2.8-2.8S45.4,20.8,43.9,20.8z M43.9,25
				c-0.8,0-1.5-0.7-1.5-1.5s0.7-1.5,1.5-1.5s1.5,0.7,1.5,1.5S44.7,25,43.9,25z"/>
		</g>
		<g id="XMLID_3488_">
			<rect x="25.3" y="28.7" class="st0" width="26.4" height="0.7"/>
		</g>
		<g id="XMLID_3489_">
			<rect x="25.3" y="29.3" class="st0" width="26.4" height="0.7"/>
		</g>
		<g id="XMLID_3490_">
			<path class="st0" d="M52.4,28.7h-0.7v0.7h0.7h-0.7V30h0.7c0.4,0,0.7-0.3,0.7-0.7S52.8,28.7,52.4,28.7z"/>
		</g>
		<g id="XMLID_3491_">
			<rect x="25.3" y="35.2" class="st0" width="26.4" height="0.7"/>
		</g>
		<g id="XMLID_3492_">
			<rect x="25.3" y="34.5" class="st0" width="26.4" height="0.7"/>
		</g>
		<g id="XMLID_3493_">
			<path class="st0" d="M52.4,34.5h-0.7v0.7h0.7h-0.7v0.7h0.7c0.4,0,0.7-0.3,0.7-0.7S52.8,34.5,52.4,34.5z"/>
		</g>
	</g>
</g>
</svg>
