<?xml version="1.0" encoding="utf-8"?>
<!-- Generator: Adobe Illustrator 25.2.3, SVG Export Plug-In . SVG Version: 6.00 Build 0)  -->
<svg version="1.1" id="Warstwa_1" xmlns="http://www.w3.org/2000/svg" xmlns:xlink="http://www.w3.org/1999/xlink" x="0px" y="0px"
	 viewBox="0 0 49.2 38" style="enable-background:new 0 0 49.2 38;" xml:space="preserve">
<style type="text/css">
	.st0{fill:#838383;}
</style>
<g>
	<path class="st0" d="M42.5,6.5H31.6c-0.2-2-1.9-3.6-3.9-3.6h-6.2c-2,0-3.7,1.6-3.9,3.6H6.7c-1.3,0-2.4,1.1-2.4,2.4v23.7
		c0,1.3,1.1,2.4,2.4,2.4h35.7c1.3,0,2.4-1.1,2.4-2.4V8.9C44.8,7.6,43.8,6.5,42.5,6.5z M21.5,4.6h6.2c1.2,0,2.1,0.9,2.3,2H19.2
		C19.4,5.4,20.3,4.6,21.5,4.6z M5.9,8.9c0-0.4,0.4-0.8,0.8-0.8h35.7c0.4,0,0.8,0.4,0.8,0.8v10.3c0,2.2-1.8,4-4,4h-2.7v-8.7
		c0-2.2-1.8-4-4-4h-16c-2.2,0-4,1.8-4,4v8.7H9.9c-2.2,0-4-1.8-4-4L5.9,8.9z M27,24.7v0.8c0,0.4-0.4,0.8-0.8,0.8H23
		c-0.4,0-0.8-0.4-0.8-0.8v-0.8H27z M22.4,23.2c0.3-0.9,1.2-1.6,2.2-1.6c1,0,1.9,0.7,2.2,1.6H22.4z M23,27.9h3.2
		c1.3,0,2.4-1.1,2.4-2.4v-0.8H35v8.7H14.2v-8.7h6.4v0.8C20.6,26.8,21.7,27.9,23,27.9z M28.5,23.2c-0.4-1.8-2-3.2-3.9-3.2
		s-3.5,1.4-3.9,3.2h-6.5v-8.7c0-1.3,1.1-2.4,2.4-2.4h16c1.3,0,2.4,1.1,2.4,2.4v8.7H28.5z M5.9,32.6v-9.6c1,1,2.4,1.7,4,1.7h2.7v8.7
		H6.7C6.3,33.4,5.9,33.1,5.9,32.6z M43.3,32.6c0,0.4-0.4,0.8-0.8,0.8h-5.9v-8.7h2.7c1.5,0,2.9-0.6,4-1.7V32.6z"/>
</g>
</svg>
