<?xml version="1.0" encoding="utf-8"?>
<!-- Generator: Adobe Illustrator 19.0.0, SVG Export Plug-In . SVG Version: 6.00 Build 0)  -->
<svg version="1.1" id="Layer_1" xmlns="http://www.w3.org/2000/svg" xmlns:xlink="http://www.w3.org/1999/xlink" x="0px" y="0px"
	 viewBox="-378.6 279.2 53 41.7" style="enable-background:new -378.6 279.2 53 41.7;" xml:space="preserve">
<style type="text/css">
	.st0{fill:#FBE79C;}
	.st1{fill:#EC394E;}
	.st2{fill:#FFFFFF;}
</style>
<g id="XMLID_754_">
	<g id="XMLID_783_">
		<polyline class="st0" points="-334.6,283.2 -326.3,283.2 -326.3,314.7 -368.4,314.7 -368.4,283.2 -334.1,283.2 		"/>
	</g>
	<g id="XMLID_782_">
		<path class="st1" d="M-328.6,315.6H-376v-33.1c0-1.8,1.5-3.2,3.2-3.2h40.9c1.8,0,3.2,1.5,3.2,3.2V315.6z M-374.6,314.2h44.6v-31.7
			c0-1-0.8-1.8-1.8-1.8h-40.9c-1,0-1.8,0.8-1.8,1.8V314.2z"/>
	</g>
	<g id="XMLID_781_">
		<path class="st1" d="M-332.8,315.6h-39v-31h39V315.6z M-370.4,314.2h36.2V286h-36.2V314.2z"/>
	</g>
	<g id="XMLID_780_">
		<path class="st0" d="M-364.8,320.2h-10.3c-1.5,0-2.8-1.2-2.8-2.8v-2.5h51.6v2.5c0,1.5-1.2,2.8-2.8,2.8H-364.8"/>
		<path class="st1" d="M-329,320.9h-46.1c-1.9,0-3.5-1.6-3.5-3.5v-3.2h53v3.2C-325.6,319.3-327.1,320.9-329,320.9z M-377.2,315.6
			v1.8c0,1.1,0.9,2.1,2.1,2.1h46.1c1.1,0,2.1-0.9,2.1-2.1v-1.8H-377.2z"/>
	</g>
	<g id="XMLID_779_">
		<path class="st2" d="M-346.1,317.7h-11.7c-0.8,0-1.5-0.7-1.5-1.5v-1h14.8v1C-344.6,317-345.2,317.7-346.1,317.7z"/>
		<path class="st1" d="M-346.1,318.4h-11.7c-1.2,0-2.2-1-2.2-2.2v-1.7h16.2v1.7C-343.9,317.4-344.9,318.4-346.1,318.4z
			 M-358.7,315.8v0.3c0,0.5,0.4,0.8,0.8,0.8h11.7c0.5,0,0.8-0.4,0.8-0.8v-0.3H-358.7z"/>
	</g>
	<g id="XMLID_756_">
		<g id="XMLID_776_">
			<g id="XMLID_778_">
				<polygon class="st2" points="-362.2,306.4 -359.5,311 -356.7,310.1 -358.4,305.1 				"/>
			</g>
			<g id="XMLID_777_">
				<path class="st2" d="M-359.7,298.6l-0.3-1l0.6,1.8l-0.6-1.8l-6,2.1l2.4,6.9l5.9-2.1l0.1,0.3l0.3,0c0.1,0.6-0.2,0-0.7,0.3
					c0.1,0.2,0.5,2,0.5,2.3c0.8-0.4,1.9-1.4,1.8-2.3l-1.8-0.3L-359.7,298.6z"/>
			</g>
		</g>
		<g id="XMLID_771_">
			<g id="XMLID_775_">
				<path class="st1" d="M-348.3,302.7l-0.3-1c-0.5-1.6-1.9-5.6-2.8-7.9l-0.4-1l1,0c2.1,0.1,4,1.4,4.7,3.5c0.7,2,0.1,4.2-1.5,5.6
					L-348.3,302.7z M-349.7,294.5c0.6,1.8,1.4,4,2,5.6c0.6-1,0.7-2.1,0.4-3.2C-347.8,295.7-348.6,294.8-349.7,294.5z"/>
			</g>
			<g id="XMLID_774_">
				<path class="st1" d="M-359.8,311.9l-3.4-5.9l5.2-1.8l2.2,6.3L-359.8,311.9z M-361.1,306.8l2,3.4l1.6-0.5l-1.3-3.7L-361.1,306.8z
					"/>
			</g>
			<g id="XMLID_773_">
				<polygon class="st2" points="-352.2,290.9 -360,297.5 -357.5,304.8 -347.2,305.3 -352.2,290.9 				"/>
				<path class="st1" d="M-346.2,306.1l-11.9-0.6l-2.8-8.1l8.9-7.6L-346.2,306.1z M-357,304.1l8.8,0.5l-4.4-12.5l-6.6,5.7
					L-357,304.1z"/>
			</g>
			<g id="XMLID_772_">
				<path class="st1" d="M-364,307.5l-2.9-8.3l7.3-2.5l2.9,8.3L-364,307.5z M-365.1,300l2,5.6l4.6-1.6l-2-5.6L-365.1,300z"/>
			</g>
		</g>
		<g id="XMLID_770_">
			<circle class="st1" cx="-343.2" cy="288.3" r="0.7"/>
		</g>
		<g id="XMLID_769_">
			<circle class="st1" cx="-338.3" cy="300.2" r="0.7"/>
		</g>
		<polygon class="st2" points="-336.9,292.4 -337.9,291.4 -339,292.4 -340,291.4 -341,292.4 -340,293.4 -341,294.5 -340,295.5 
			-339,294.4 -337.9,295.5 -336.9,294.5 -338,293.4 		"/>
		<polygon class="st1" points="-337.4,304.9 -338.4,303.9 -339.5,304.9 -340.6,303.9 -341.6,304.9 -340.5,305.9 -341.6,307 
			-340.6,308 -339.5,306.9 -338.4,308 -337.4,307 -338.5,305.9 		"/>
		<g id="XMLID_757_">
			<g id="XMLID_761_">
				
					<rect x="-346.6" y="291.9" transform="matrix(0.8972 0.4416 -0.4416 0.8972 93.6888 182.826)" class="st1" width="1.4" height="1.5"/>
			</g>
			<g id="XMLID_759_">
				
					<rect x="-344.3" y="294.5" transform="matrix(0.3781 0.9258 -0.9258 0.3781 59.6529 501.7155)" class="st1" width="1.4" height="1.5"/>
			</g>
			<g id="XMLID_758_">
				
					<rect x="-344.4" y="298" transform="matrix(0.8915 0.453 -0.453 0.8915 98.0376 188.0612)" class="st1" width="1.5" height="1.4"/>
			</g>
		</g>
	</g>
</g>
<g id="XMLID_752_">
	<line class="st2" x1="-353.8" y1="282.5" x2="-349.6" y2="282.5"/>
	<rect x="-353.8" y="281.8" class="st1" width="4.2" height="1.4"/>
</g>
<g id="XMLID_750_">
	<line class="st2" x1="-346.6" y1="282.5" x2="-333.4" y2="282.5"/>
	<rect x="-346.6" y="281.8" class="st1" width="13.2" height="1.4"/>
</g>
<g id="XMLID_278_">
	<path class="st1" d="M-357.2,308v-1.4c0.7,0,1.2-0.5,1.2-1.2h1.4C-354.6,306.9-355.8,308-357.2,308z"/>
</g>
</svg>
