<?xml version="1.0" encoding="utf-8"?>
<!-- Generator: Adobe Illustrator 25.2.3, SVG Export Plug-In . SVG Version: 6.00 Build 0)  -->
<svg version="1.1" id="Warstwa_1" xmlns="http://www.w3.org/2000/svg" xmlns:xlink="http://www.w3.org/1999/xlink" x="0px" y="0px"
	 viewBox="0 0 49.2 38" style="enable-background:new 0 0 49.2 38;" xml:space="preserve">
<style type="text/css">
	.st0{fill:#838383;}
</style>
<g id="Sell_ticket">
	<path class="st0" d="M40.2,32.9h-0.6v-5.8h0.6c1,0,1.7-0.8,1.7-1.7s-0.8-1.7-1.7-1.7h-0.6V3.4c0-1-0.8-1.7-1.7-1.7H11.3
		c-1,0-1.7,0.8-1.7,1.7v20.3H9c-1,0-1.7,0.8-1.7,1.7S8,27.1,9,27.1h0.6v5.8H9c-1,0-1.7,0.8-1.7,1.7S8,36.4,9,36.4h31.3
		c1,0,1.7-0.8,1.7-1.7S41.2,32.9,40.2,32.9z M10.7,3.4c0-0.3,0.3-0.6,0.6-0.6h26.7c0.3,0,0.6,0.3,0.6,0.6v20.3h-2.3v-2.9
		c0-1.7-1-3.2-2.6-3.8c0.7-0.7,1-1.8,0.7-2.8c0.1-0.1,0.1-0.2,0.1-0.3v-1.2c0-1-0.8-1.7-1.7-1.7h-2.3c-1,0-1.7,0.8-1.7,1.7v1.2
		c0,0.1,0,0.2,0.1,0.3c-0.3,1,0,2.1,0.7,2.8c-1.5,0.6-2.6,2.1-2.6,3.8v2.9h-1.7v-6.4H24v6.4h-1.7v-2.9c0-1.7-1-3.2-2.6-3.8
		c0.7-0.7,1-1.8,0.7-2.8c0.1-0.1,0.1-0.2,0.1-0.3v-1.2c0-1-0.8-1.7-1.7-1.7h-2.3c-1,0-1.7,0.8-1.7,1.7v1.2c0,0.1,0,0.2,0.1,0.3
		c-0.3,1,0,2.1,0.7,2.8C14,17.6,13,19.1,13,20.7v2.9h-2.3V3.4z M33.3,13.2h-3.5v-0.6c0-0.3,0.3-0.6,0.6-0.6h2.3
		c0.3,0,0.6,0.3,0.6,0.6V13.2z M29.9,14.4h3.2c0.1,0.2,0.1,0.4,0.1,0.6c0,1-0.8,1.7-1.7,1.7c-1,0-1.7-0.8-1.7-1.7
		C29.8,14.7,29.9,14.5,29.9,14.4z M31,17.8v4.1h1.2v-4.1c1.6,0,2.9,1.3,2.9,2.9v2.9h-7v-2.9C28.1,19.1,29.4,17.8,31,17.8z
		 M19.4,13.2h-3.5v-0.6c0-0.3,0.3-0.6,0.6-0.6h2.3c0.3,0,0.6,0.3,0.6,0.6V13.2z M16,14.4h3.2c0.1,0.2,0.1,0.4,0.1,0.6
		c0,1-0.8,1.7-1.7,1.7c-1,0-1.7-0.8-1.7-1.7C15.9,14.7,16,14.5,16,14.4z M17.1,17.8v4.1h1.2v-4.1c1.6,0,2.9,1.3,2.9,2.9v2.9h-7v-2.9
		C14.2,19.1,15.5,17.8,17.1,17.8z M8.4,25.4c0-0.3,0.3-0.6,0.6-0.6h31.3c0.3,0,0.6,0.3,0.6,0.6S40.6,26,40.2,26H9
		C8.6,26,8.4,25.7,8.4,25.4z M10.7,27.1h27.8v5.8H10.7V27.1z M40.2,35.2H9c-0.3,0-0.6-0.3-0.6-0.6s0.3-0.6,0.6-0.6h31.3
		c0.3,0,0.6,0.3,0.6,0.6S40.6,35.2,40.2,35.2z"/>
	<path class="st0" d="M36.8,9.7c0.3,0,0.6-0.3,0.6-0.6V4.5c0-0.3-0.3-0.6-0.6-0.6H12.4c-0.3,0-0.6,0.3-0.6,0.6v4.6
		c0,0.3,0.3,0.6,0.6,0.6H36.8z M13,5.1h23.2v3.5H13V5.1z"/>
</g>
</svg>
