<?xml version="1.0" encoding="utf-8"?>
<!-- Generator: Adobe Illustrator 19.0.0, SVG Export Plug-In . SVG Version: 6.00 Build 0)  -->
<svg version="1.1" id="Warstwa_1" xmlns="http://www.w3.org/2000/svg" xmlns:xlink="http://www.w3.org/1999/xlink" x="0px" y="0px"
	 viewBox="0 0 39 38" style="enable-background:new 0 0 39 38;" xml:space="preserve">
<style type="text/css">
	.st0{fill:#838383;}
	.st1{clip-path:url(#XMLID_238_);}
</style>
<g id="XMLID_1800_">
	<g id="XMLID_1799_">
		<path id="XMLID_210_" class="st0" d="M30.8,19.1c-0.7,0-1.4-0.2-1.9-0.6c-1.1,0.8-2.7,0.8-3.8,0c-1.1,0.8-2.7,0.8-3.8,0
			c-1.1,0.8-2.7,0.8-3.8,0c-1.1,0.8-2.7,0.8-3.8,0c-1.1,0.8-2.7,0.8-3.8,0c-0.5,0.4-1.2,0.6-1.9,0.6c-1.8,0-3.2-1.4-3.2-3.2
			c0-0.4,0.3-0.6,0.6-0.6S6,15.6,6,15.9c0,1,0.8,1.9,1.9,1.9c0.5,0,1.1-0.2,1.4-0.6c0.2-0.3,0.7-0.3,1,0c0.7,0.8,2.1,0.8,2.8,0
			c0.1-0.1,0.3-0.2,0.5-0.2c0,0,0,0,0,0c0.2,0,0.4,0.1,0.5,0.2c0.7,0.8,2.1,0.8,2.8,0c0.1-0.1,0.3-0.2,0.5-0.2l0,0
			c0.2,0,0.4,0.1,0.5,0.2c0.7,0.8,2.1,0.8,2.8,0c0.2-0.3,0.7-0.3,1,0c0.7,0.8,2.1,0.8,2.8,0c0.2-0.3,0.7-0.3,1,0
			c0.7,0.8,2.1,0.8,2.8,0c0.2-0.3,0.7-0.3,1,0c0.4,0.4,0.9,0.6,1.4,0.6c1,0,1.9-0.8,1.9-1.9c0-0.4,0.3-0.6,0.7-0.6s0.7,0.3,0.7,0.6
			C33.9,17.7,32.5,19.1,30.8,19.1z"/>
	</g>
	<g id="XMLID_1798_">
		<path id="XMLID_209_" class="st0" d="M33.2,15.2H5.6c-0.4,0-0.6-0.3-0.6-0.6s0.3-0.6,0.6-0.6h27.6c0.4,0,0.7,0.3,0.7,0.6
			S33.6,15.2,33.2,15.2z"/>
	</g>
	<g id="XMLID_1797_">
		<path id="XMLID_208_" class="st0" d="M19.4,15.2c-0.4,0-0.7-0.3-0.7-0.6V2.3c0-0.4,0.3-0.6,0.7-0.6s0.7,0.3,0.7,0.6v12.3
			C20.1,14.9,19.8,15.2,19.4,15.2z"/>
	</g>
	<g id="XMLID_1786_">
		<defs>
			<path id="XMLID_236_" d="M33.4,16.2c0-7.7-6.2-14-14-14s-14,6.2-14,14"/>
		</defs>
		<clipPath id="XMLID_238_">
			<use xlink:href="#XMLID_236_"  style="overflow:visible;"/>
		</clipPath>
		<g id="XMLID_1788_" class="st1">
			<g id="XMLID_1796_">
				<path id="XMLID_207_" class="st0" d="M22,15.2c-0.4,0-0.7-0.3-0.7-0.6V2.3c0-0.4,0.3-0.6,0.7-0.6s0.7,0.3,0.7,0.6v12.3
					C22.7,14.9,22.4,15.2,22,15.2z"/>
			</g>
			<g id="XMLID_1795_">
				<path id="XMLID_206_" class="st0" d="M24.7,15.2c-0.4,0-0.7-0.3-0.7-0.6V2.3c0-0.4,0.3-0.6,0.7-0.6s0.7,0.3,0.7,0.6v12.3
					C25.3,14.9,25,15.2,24.7,15.2z"/>
			</g>
			<g id="XMLID_1794_">
				<path id="XMLID_205_" class="st0" d="M27.3,15.2c-0.4,0-0.7-0.3-0.7-0.6V2.3c0-0.4,0.3-0.6,0.7-0.6s0.7,0.3,0.7,0.6v12.3
					C27.9,14.9,27.7,15.2,27.3,15.2z"/>
			</g>
			<g id="XMLID_1793_">
				<path id="XMLID_204_" class="st0" d="M29.9,15.2c-0.4,0-0.7-0.3-0.7-0.6V2.3c0-0.4,0.3-0.6,0.7-0.6s0.7,0.3,0.7,0.6v12.3
					C30.6,14.9,30.3,15.2,29.9,15.2z"/>
			</g>
			<g id="XMLID_1792_">
				<path id="XMLID_203_" class="st0" d="M8.9,15.2c-0.4,0-0.6-0.3-0.6-0.6V2.3c0-0.4,0.3-0.6,0.6-0.6s0.6,0.3,0.6,0.6v12.3
					C9.6,14.9,9.3,15.2,8.9,15.2z"/>
			</g>
			<g id="XMLID_1791_">
				<path id="XMLID_202_" class="st0" d="M11.5,15.2c-0.4,0-0.6-0.3-0.6-0.6V2.3c0-0.4,0.3-0.6,0.6-0.6s0.6,0.3,0.6,0.6v12.3
					C12.2,14.9,11.9,15.2,11.5,15.2z"/>
			</g>
			<g id="XMLID_1790_">
				<path id="XMLID_201_" class="st0" d="M14.2,15.2c-0.4,0-0.6-0.3-0.6-0.6V2.3c0-0.4,0.3-0.6,0.6-0.6s0.6,0.3,0.6,0.6v12.3
					C14.8,14.9,14.5,15.2,14.2,15.2z"/>
			</g>
			<g id="XMLID_1789_">
				<path id="XMLID_200_" class="st0" d="M16.8,15.2c-0.4,0-0.7-0.3-0.7-0.6V2.3c0-0.4,0.3-0.6,0.7-0.6s0.7,0.3,0.7,0.6v12.3
					C17.4,14.9,17.2,15.2,16.8,15.2z"/>
			</g>
		</g>
	</g>
	<g id="XMLID_1785_">
		<path id="XMLID_199_" class="st0" d="M33.3,16.8c-0.4,0-0.7-0.3-0.7-0.6c0-7.3-6-13.3-13.3-13.3C12,2.9,6,8.9,6,16.2
			c0,0.4-0.3,0.6-0.6,0.6s-0.6-0.3-0.6-0.6c0-8.1,6.6-14.6,14.6-14.6c8.1,0,14.6,6.6,14.6,14.6C33.9,16.6,33.6,16.8,33.3,16.8z"/>
	</g>
	<g id="XMLID_1784_">
		<path id="XMLID_198_" class="st0" d="M31,36.4H7.7c-0.4,0-0.6-0.3-0.6-0.7V18.5c0-0.4,0.3-0.6,0.6-0.6c0.4,0,0.6,0.3,0.6,0.6v16.6
			h22V18.9c0-0.4,0.3-0.6,0.7-0.6s0.7,0.3,0.7,0.6v16.9C31.6,36.1,31.4,36.4,31,36.4z"/>
	</g>
	<g id="XMLID_1783_">
		<path id="XMLID_197_" class="st0" d="M19.4,36.4c-0.4,0-0.7-0.3-0.7-0.7V21.4c0-0.4,0.3-0.7,0.7-0.7s0.7,0.3,0.7,0.7v14.4
			C20.1,36.1,19.8,36.4,19.4,36.4z"/>
	</g>
	<g id="XMLID_1782_">
		<path id="XMLID_194_" class="st0" d="M26.7,36.4H12.1c-0.4,0-0.6-0.3-0.6-0.7V21.4c0-0.4,0.3-0.7,0.6-0.7h14.6
			c0.4,0,0.7,0.3,0.7,0.7v14.4C27.4,36.1,27.1,36.4,26.7,36.4z M12.8,35.1h13.3V22H12.8V35.1z"/>
	</g>
	<g id="XMLID_1781_">
		<path id="XMLID_191_" class="st0" d="M35.3,24.7c-1.5,0-2.7-1.2-2.7-2.7c0-1.5,1.2-2.7,2.7-2.7c1.5,0,2.7,1.2,2.7,2.7
			C38,23.4,36.8,24.7,35.3,24.7z M35.3,20.5c-0.8,0-1.4,0.6-1.4,1.4s0.6,1.4,1.4,1.4c0.8,0,1.4-0.6,1.4-1.4S36,20.5,35.3,20.5z"/>
	</g>
	<g id="XMLID_1778_">
		<g id="XMLID_1780_">
			<path id="XMLID_190_" class="st0" d="M19.4,29.9v-1.3c5.5,0,10.8-1.4,15.5-4.2l0.7,1.1C30.7,28.4,25.1,29.9,19.4,29.9z"/>
		</g>
		<g id="XMLID_1779_">
			<path id="XMLID_152_" class="st0" d="M19.6,29.9c-5.7,0-11.3-1.5-16.2-4.4l0.7-1.1c4.7,2.7,10,4.2,15.5,4.2V29.9z"/>
		</g>
	</g>
	<g id="XMLID_1777_">
		<path id="XMLID_151_" class="st0" d="M35.3,36.4c-0.4,0-0.7-0.3-0.7-0.7V24c0-0.4,0.3-0.7,0.7-0.7s0.7,0.3,0.7,0.7v11.8
			C35.9,36.1,35.6,36.4,35.3,36.4z"/>
	</g>
	<g id="XMLID_1776_">
		<path id="XMLID_148_" class="st0" d="M3.7,24.7c-1.5,0-2.7-1.2-2.7-2.7c0-1.5,1.2-2.7,2.7-2.7s2.7,1.2,2.7,2.7
			C6.5,23.4,5.2,24.7,3.7,24.7z M3.7,20.5c-0.8,0-1.4,0.6-1.4,1.4s0.6,1.4,1.4,1.4s1.4-0.6,1.4-1.4S4.5,20.5,3.7,20.5z"/>
	</g>
	<g id="XMLID_1773_">
		<path id="XMLID_147_" class="st0" d="M3.7,36.4c-0.4,0-0.6-0.3-0.6-0.7V24c0-0.4,0.3-0.7,0.6-0.7s0.6,0.3,0.6,0.7v11.8
			C4.4,36.1,4.1,36.4,3.7,36.4z"/>
	</g>
</g>
</svg>
