<?xml version="1.0" encoding="utf-8"?>
<!-- Generator: Adobe Illustrator 19.0.0, SVG Export Plug-In . SVG Version: 6.00 Build 0)  -->
<svg version="1.1" id="Warstwa_1" xmlns="http://www.w3.org/2000/svg" xmlns:xlink="http://www.w3.org/1999/xlink" x="0px" y="0px"
	 viewBox="-398 279.3 44.5 38" style="enable-background:new -398 279.3 44.5 38;" xml:space="preserve">
<style type="text/css">
	.st0{fill:#838383;}
	.st1{fill:#FFFFFF;stroke:#838383;stroke-width:1.3;stroke-linecap:round;stroke-linejoin:round;stroke-miterlimit:10;}
	.st2{fill:#FFFFFF;}
	.st3{fill:none;stroke:#838383;stroke-width:1.3;stroke-linecap:round;stroke-linejoin:round;stroke-miterlimit:10;}
</style>
<g>
	<g id="XMLID_4767_">
		<path class="st0" d="M-370.4,297.4c-1.2,0-2.3-0.4-3.3-1.1c-0.3-0.2-0.3-0.6-0.1-0.9c0.2-0.3,0.6-0.3,0.9-0.1
			c0.7,0.5,1.6,0.8,2.5,0.8c2.3,0,4.1-1.8,4.1-4.1c0-1.8-1.1-3.3-2.8-3.9c-0.2-0.1-0.3-0.2-0.4-0.3c-0.1-0.2-0.1-0.3,0-0.5
			c0.2-0.5,0.3-0.9,0.3-1.4c0-2.3-1.8-4.1-4.1-4.1c-0.9,0-1.7,0.3-2.4,0.8c-0.2,0.2-0.5,0.2-0.8,0c-0.7-0.5-1.6-0.8-2.4-0.8
			c-2.3,0-4.1,1.8-4.1,4.1c0,0.5,0.1,1,0.3,1.4c0.1,0.2,0.1,0.3,0,0.5c-0.1,0.2-0.2,0.3-0.4,0.3c-1.7,0.6-2.8,2.1-2.8,3.9
			c0,2.3,1.8,4.1,4.1,4.1c1,0,2-0.4,2.8-1.1c0.3-0.2,0.7-0.2,0.9,0c0.2,0.3,0.2,0.7,0,0.9c-1,0.9-2.3,1.5-3.7,1.5
			c-3,0-5.4-2.4-5.4-5.4c0-2.1,1.2-4,3.1-4.9c-0.1-0.4-0.2-0.8-0.2-1.3c0-3,2.4-5.4,5.4-5.4c1,0,2,0.3,2.8,0.8
			c0.9-0.5,1.8-0.8,2.8-0.8c3,0,5.4,2.4,5.4,5.4c0,0.4-0.1,0.9-0.2,1.3c1.9,0.9,3.1,2.8,3.1,4.9C-365,295-367.4,297.4-370.4,297.4z"
			/>
	</g>
	<g id="XMLID_4789_">
		<path class="st0" d="M-371.6,287.6v3.9c0,2.2-1.8,4-4,4c-2.2,0-4-1.8-4-4v-3.9H-371.6 M-370.3,286.3h-10.5v5.2
			c0,2.9,2.4,5.3,5.3,5.3h0c2.9,0,5.3-2.4,5.3-5.3V286.3L-370.3,286.3z"/>
	</g>
	<g id="XMLID_4788_">
		<path class="st0" d="M-370.9,287.6h-9.4c-0.3,0-0.6-0.2-0.6-0.5l-0.4-2.5c-0.1-0.3,0.2-0.7,0.5-0.7l5.2-1.2c0.1,0,0.2,0,0.3,0
			l5.2,1.2c0.2,0,0.3,0.1,0.4,0.3s0.1,0.3,0.1,0.5l-0.6,2.5C-370.4,287.4-370.6,287.6-370.9,287.6z M-379.8,286.3h8.4l0.3-1.3
			l-4.4-1l-4.5,1L-379.8,286.3z"/>
	</g>
	<g id="XMLID_4787_">
		<path class="st0" d="M-363.1,316h-25.2c-0.4,0-0.6-0.3-0.6-0.7v-3.1c0-0.4,0.3-0.7,0.6-0.7h25.2c0.4,0,0.7,0.3,0.7,0.7v3.1
			C-362.5,315.7-362.8,316-363.1,316z M-387.7,314.7h23.9V313h-23.9V314.7z"/>
	</g>
	<g id="XMLID_4786_">
		<path class="st1" d="M-367.5,295.8"/>
	</g>
	<g id="XMLID_4785_">
		<line class="st2" x1="-373.2" y1="296.2" x2="-363.6" y2="312.3"/>
		<path class="st0" d="M-363.6,313c-0.2,0-0.4-0.1-0.6-0.3l-9.5-16.1c-0.2-0.3-0.1-0.7,0.2-0.9s0.7-0.1,0.9,0.2l9.5,16.1
			c0.2,0.3,0.1,0.7-0.2,0.9C-363.4,312.9-363.5,313-363.6,313z"/>
	</g>
	<g id="XMLID_4784_">
		<line class="st2" x1="-381" y1="299.6" x2="-378.4" y2="296"/>
		<path class="st0" d="M-381,300.2c-0.1,0-0.3,0-0.4-0.1c-0.3-0.2-0.4-0.6-0.1-0.9l2.6-3.6c0.2-0.3,0.6-0.4,0.9-0.1
			c0.3,0.2,0.4,0.6,0.1,0.9l-2.6,3.6C-380.6,300.1-380.8,300.2-381,300.2z"/>
	</g>
	<g id="XMLID_4782_">
		<line class="st2" x1="-388" y1="312.2" x2="-386.6" y2="309.6"/>
		<path class="st0" d="M-388,312.8c-0.1,0-0.2,0-0.3-0.1c-0.3-0.2-0.4-0.6-0.3-0.9l1.4-2.6c0.2-0.3,0.6-0.4,0.9-0.3
			c0.3,0.2,0.4,0.6,0.3,0.9l-1.4,2.6C-387.6,312.7-387.8,312.8-388,312.8z"/>
	</g>
	<g id="XMLID_4772_">
		<g id="XMLID_4774_">
			<g id="XMLID_4780_">
				<path class="st0" d="M-376.3,313h-10.3c-0.4,0-0.6-0.3-0.6-0.7v-12.5c0-0.4,0.3-0.6,0.6-0.6h10.3c0.4,0,0.7,0.3,0.7,0.6v12.5
					C-375.6,312.7-375.9,313-376.3,313z M-386,311.7h9v-11.2h-9V311.7z"/>
			</g>
			<g id="XMLID_4777_">
				<path class="st0" d="M-381.4,306.5c-1.6,0-2.8-1.3-2.8-2.8c0-1.6,1.3-2.8,2.8-2.8s2.8,1.3,2.8,2.8
					C-378.6,305.3-379.9,306.5-381.4,306.5z M-381.4,302.1c-0.9,0-1.5,0.7-1.5,1.5c0,0.9,0.7,1.5,1.5,1.5s1.5-0.7,1.5-1.5
					C-379.9,302.8-380.6,302.1-381.4,302.1z"/>
			</g>
			<g id="XMLID_4776_">
				<path class="st0" d="M-378.4,308.3h-6c-0.4,0-0.6-0.3-0.6-0.7s0.3-0.7,0.6-0.7h6c0.4,0,0.6,0.3,0.6,0.7
					S-378.1,308.3-378.4,308.3z"/>
			</g>
			<g id="XMLID_4775_">
				<path class="st0" d="M-378.4,310.1h-6c-0.4,0-0.6-0.3-0.6-0.7s0.3-0.7,0.6-0.7h6c0.4,0,0.6,0.3,0.6,0.7
					S-378.1,310.1-378.4,310.1z"/>
			</g>
		</g>
		<g id="XMLID_4773_">
			<path class="st0" d="M-367.8,312.8h-4.7c-0.4,0-0.7-0.3-0.7-0.7V307c0-0.4,0.3-0.7,0.7-0.7h4.7c0.4,0,0.7,0.3,0.7,0.7v5.2
				C-367.1,312.5-367.4,312.8-367.8,312.8z M-371.8,311.5h3.4v-3.9h-3.4V311.5z"/>
		</g>
	</g>
	<g id="XMLID_4771_">
		<path class="st0" d="M-366.2,312.1c-0.4,0-0.6-0.3-0.6-0.6c0-0.1-0.2-7.3-0.2-10.2c0-1.8-3.3-3-4.6-3.3c-0.4-0.1-0.6-0.4-0.5-0.8
			c0.1-0.4,0.4-0.6,0.8-0.5c0.2,0.1,5.6,1.3,5.6,4.5c0,2.9,0.2,10.1,0.2,10.2C-365.5,311.8-365.8,312.1-366.2,312.1
			C-366.1,312.1-366.2,312.1-366.2,312.1z"/>
	</g>
	<g id="XMLID_4770_">
		<path class="st3" d="M-384.9,311.4"/>
	</g>
	<g id="XMLID_4769_">
		<path class="st0" d="M-384,300.2c-0.2,0-0.3-0.1-0.4-0.2c-0.3-0.2-0.3-0.7,0-0.9c1.5-1.7,4.3-2.3,4.4-2.3c0.3-0.1,0.7,0.1,0.8,0.5
			s-0.1,0.7-0.5,0.8c0,0-2.4,0.5-3.7,1.9C-383.7,300.1-383.9,300.2-384,300.2z"/>
	</g>
	<g id="XMLID_4768_">
		<path class="st0" d="M-375.6,290.1c-3.7,0-4.9-2-5-2.1c-0.2-0.3-0.1-0.7,0.2-0.9c0.3-0.2,0.7-0.1,0.9,0.2c0,0.1,0.9,1.4,3.9,1.4
			c2.9,0,3.5-1.3,3.5-1.3c0.2-0.3,0.5-0.5,0.9-0.3c0.3,0.1,0.5,0.5,0.3,0.8C-370.9,288.1-371.8,290.1-375.6,290.1z"/>
	</g>
	<g id="XMLID_4778_">
		<path class="st0" d="M-375.6,299.5c-2.9,0-4.6-1.7-4.7-1.7c-0.3-0.3-0.3-0.7,0-0.9s0.7-0.3,0.9,0l0,0c0,0,1.4,1.3,3.7,1.3
			c2.2,0,3.1-1.1,3.2-1.2c0.2-0.3,0.6-0.3,0.9-0.1c0.3,0.2,0.3,0.6,0.1,0.9C-371.4,297.9-372.7,299.5-375.6,299.5z"/>
	</g>
</g>
</svg>
