<?xml version="1.0" encoding="utf-8"?>
<!-- Generator: Adobe Illustrator 25.2.3, SVG Export Plug-In . SVG Version: 6.00 Build 0)  -->
<svg version="1.1" id="Warstwa_1" xmlns="http://www.w3.org/2000/svg" xmlns:xlink="http://www.w3.org/1999/xlink" x="0px" y="0px"
	 viewBox="0 0 49.2 38" style="enable-background:new 0 0 49.2 38;" xml:space="preserve">
<style type="text/css">
	.st0{fill:#838383;}
</style>
<g>
	<path class="st0" d="M42.1,10.8V5L24.6,1.5L7.1,5v5.9h1.4v23.7H7.1v2.1h35.1v-2.1h-1.4V10.8L42.1,10.8z M12.6,34.5l-2,0V14.9h2
		V34.5z M12.6,12.9h-2v-2.1h2V12.9z M34.5,34.5H14.7V10.8h19.9V34.5z M38.6,34.5l-2.1,0V14.9h2.1V34.5z M38.6,12.9h-2.1v-2.1h2.1
		V12.9z M40.1,8.8h-31V6.7l15.5-3.1l15.5,3.1V8.8z"/>
	<path class="st0" d="M32.5,14.7H16.7l0,16.2h15.7L32.5,14.7z M30.4,28.8H18.8l0-2.1l2.7-1.5l2,1.4l3.5-2.2l3.4,2.2L30.4,28.8z
		 M30.4,24.1l-3.3-2.2l-3.5,2.2l-2-1.3l-2.8,1.6l0-7.6h11.6L30.4,24.1z"/>
	<path class="st0" d="M20.8,18.8h2.1v2.1h-2.1V18.8z"/>
</g>
</svg>
