<?xml version="1.0" encoding="utf-8"?>
<!-- Generator: Adobe Illustrator 19.0.0, SVG Export Plug-In . SVG Version: 6.00 Build 0)  -->
<svg version="1.1" id="Warstwa_1" xmlns="http://www.w3.org/2000/svg" xmlns:xlink="http://www.w3.org/1999/xlink" x="0px" y="0px"
	 viewBox="-2 7 44.5 38" style="enable-background:new -2 7 44.5 38;" xml:space="preserve">
<style type="text/css">
	.st0{clip-path:url(#XMLID_2_);}
	.st1{fill:none;}
	.st2{fill:#838383;}
	.st3{fill:#FFFFFF;}
	.st4{clip-path:url(#XMLID_3_);}
</style>
<g>
	<g id="XMLID_2577_">
		<defs>
			<rect id="XMLID_4042_" x="6.3" y="9.2" width="33.5" height="33.5"/>
		</defs>
		<clipPath id="XMLID_2_">
			<use xlink:href="#XMLID_4042_"  style="overflow:visible;"/>
		</clipPath>
		<g id="XMLID_368_" class="st0">
			<g id="XMLID_2473_">
				<polygon id="XMLID_4039_" class="st1" points="36.4,13.6 36.4,25.2 39.3,25.2 39.3,21 39.3,9.4 36.4,9.4 36.4,12.3 				"/>
			</g>
			<g id="XMLID_3636_">
				<polygon id="XMLID_4037_" class="st1" points="35.1,13.6 32.2,13.6 32.2,29.4 35.1,29.4 35.1,26.5 35.1,25.2 				"/>
			</g>
			<g id="XMLID_3637_">
				<path id="XMLID_4035_" class="st1" d="M21.7,19.8c0.1,0.3,0.2,0.6,0.3,0.9c0,0,0,0,0,0C21.9,20.4,21.8,20.1,21.7,19.8z"/>
			</g>
			<g id="XMLID_3638_">
				<polygon id="XMLID_4033_" class="st1" points="22.1,20.8 22.1,20.8 22.1,20.8 				"/>
			</g>
			<g id="XMLID_3639_">
				<polygon id="XMLID_4031_" class="st1" points="30.9,17.8 28,17.8 28,20.8 28,22 28,33.6 30.9,33.6 30.9,30.7 30.9,29.4 				"/>
			</g>
			<g id="XMLID_3640_">
				<polygon id="XMLID_4029_" class="st1" points="26.6,22.1 23.7,22.1 23.7,37.8 26.6,37.8 26.6,34.9 26.6,33.6 				"/>
			</g>
			<g id="XMLID_3641_">
				<path id="XMLID_4027_" class="st1" d="M18.1,32.7c-0.9,0.7-1.9,1.2-2.9,1.6v12h2.9v-2.9V42V32.7z"/>
			</g>
			<g id="XMLID_3642_">
				<path id="XMLID_4025_" class="st1" d="M22.3,26.3L22.3,26.3c-0.4,2-1.4,3.8-2.8,5.3V42h2.9v-4.2L22.3,26.3L22.3,26.3z"/>
			</g>
			<g id="XMLID_3643_">
				<polygon id="XMLID_4023_" class="st1" points="28,34.9 28,37.8 40.7,37.8 43.7,37.8 43.7,34.9 32.2,34.9 30.9,34.9 				"/>
			</g>
			<g id="XMLID_3644_">
				<polygon id="XMLID_4021_" class="st1" points="23.6,39.1 23.6,42 36.5,42 39.4,42 39.4,39.1 28,39.1 26.6,39.1 				"/>
			</g>
			<g id="XMLID_3645_">
				<polygon id="XMLID_4019_" class="st1" points="36.4,26.5 36.4,29.4 49.2,29.4 52.1,29.4 52.1,26.5 40.6,26.5 39.3,26.5 				"/>
			</g>
			<g id="XMLID_3646_">
				<polygon id="XMLID_4017_" class="st1" points="19.4,43.3 19.4,46.2 32.3,46.2 35.2,46.2 35.2,43.3 23.6,43.3 22.3,43.3 				"/>
			</g>
			<g id="XMLID_3647_">
				<path id="XMLID_4015_" class="st1" d="M13.9,47.5v-1.3V34.7h-0.4c-0.6,0.1-1.3,0.2-1.9,0.2c-0.2,0-0.4,0-0.6,0v2.8v12.8h2.9
					V47.5z"/>
			</g>
			<g id="XMLID_3648_">
				<polygon id="XMLID_4013_" class="st1" points="32.2,30.7 32.2,33.6 45,33.6 47.9,33.6 47.9,30.7 36.4,30.7 35.1,30.7 				"/>
			</g>
			<g id="XMLID_3649_">
				<polygon id="XMLID_4011_" class="st1" points="11,51.7 11,54.6 26.7,54.6 26.7,51.7 15.2,51.7 13.9,51.7 				"/>
			</g>
			<g id="XMLID_3650_">
				<polygon id="XMLID_4009_" class="st1" points="15.2,50.4 28,50.4 31,50.4 31,47.5 18.1,47.5 15.2,47.5 				"/>
			</g>
			<g id="XMLID_3651_">
				<polygon id="XMLID_4007_" class="st1" points="9.7,38.9 6.8,38.9 6.8,54.6 9.7,54.6 9.7,51.7 9.7,50.4 				"/>
			</g>
			<g id="XMLID_3652_">
				<polygon id="XMLID_4005_" class="st1" points="53.4,25.2 56.3,25.2 56.3,22.3 40.6,22.3 40.6,25.2 				"/>
			</g>
			<g id="XMLID_3653_">
				<polygon id="XMLID_4003_" class="st2" points="6.8,54.6 6.8,38.9 9.7,38.9 9.7,37.6 5.5,37.6 5.5,55.9 9.7,55.9 9.7,54.6 				
					"/>
			</g>
			<g id="XMLID_3654_">
				<polygon id="XMLID_4001_" class="st2" points="26.7,54.6 11,54.6 11,55.9 28,55.9 28,51.7 26.7,51.7 				"/>
			</g>
			<g id="XMLID_3655_">
				<polygon id="XMLID_3999_" class="st2" points="11,51.7 9.7,51.7 9.7,54.6 9.7,55.9 11,55.9 11,54.6 				"/>
			</g>
			<g id="XMLID_3656_">
				<path id="XMLID_3997_" class="st2" d="M13.9,34.6c-0.1,0-0.3,0.1-0.4,0.1L13.9,34.6L13.9,34.6z"/>
			</g>
			<g id="XMLID_3657_">
				<path id="XMLID_3995_" class="st2" d="M11,34.8c-0.4,0-0.9-0.1-1.3-0.1v2.9H11V34.8z"/>
			</g>
			<g id="XMLID_3658_">
				<polygon id="XMLID_3993_" class="st2" points="9.7,50.4 11,50.4 11,37.6 9.7,37.6 9.7,38.9 				"/>
			</g>
			<g id="XMLID_3659_">
				<rect id="XMLID_3991_" x="11" y="50.4" class="st2" width="2.9" height="1.3"/>
			</g>
			<g id="XMLID_3660_">
				<rect id="XMLID_3989_" x="9.7" y="50.4" class="st2" width="1.3" height="1.3"/>
			</g>
			<g id="XMLID_3661_">
				<rect id="XMLID_3987_" x="15.2" y="47.5" class="st2" width="2.9" height="0"/>
			</g>
			<g id="XMLID_3662_">
				<polygon id="XMLID_3985_" class="st2" points="31,50.4 28,50.4 28,51.7 32.3,51.7 32.3,47.5 31,47.5 				"/>
			</g>
			<g id="XMLID_3663_">
				<polygon id="XMLID_3983_" class="st2" points="15.2,50.4 15.2,51.7 26.7,51.7 28,51.7 28,50.4 				"/>
			</g>
			<g id="XMLID_3664_">
				<polygon id="XMLID_3981_" class="st2" points="15.2,47.5 13.9,47.5 13.9,50.4 15.2,50.4 15.2,47.5 				"/>
			</g>
			<g id="XMLID_3665_">
				<rect id="XMLID_3979_" x="13.9" y="50.4" class="st2" width="1.3" height="1.3"/>
			</g>
			<g id="XMLID_3666_">
				<path id="XMLID_3977_" class="st2" d="M13.9,46.2h1.3v-12c-0.4,0.1-0.9,0.3-1.3,0.4v0.1V46.2z"/>
			</g>
			<g id="XMLID_3667_">
				<rect id="XMLID_3975_" x="15.2" y="46.2" class="st2" width="2.9" height="1.3"/>
			</g>
			<g id="XMLID_3668_">
				<rect id="XMLID_3973_" x="13.9" y="46.2" class="st2" width="1.3" height="1.3"/>
			</g>
			<g id="XMLID_3669_">
				<polygon id="XMLID_3971_" class="st2" points="35.2,46.2 32.3,46.2 32.3,47.5 36.5,47.5 36.5,43.3 35.2,43.3 				"/>
			</g>
			<g id="XMLID_3670_">
				<polygon id="XMLID_3969_" class="st2" points="19.4,46.2 19.4,47.5 18.1,47.5 18.1,47.5 31,47.5 32.3,47.5 32.3,46.2 				"/>
			</g>
			<g id="XMLID_3671_">
				<rect id="XMLID_3967_" x="18.1" y="43.3" class="st2" width="1.3" height="2.9"/>
			</g>
			<g id="XMLID_3672_">
				<rect id="XMLID_3965_" x="18.1" y="46.2" class="st2" width="1.3" height="1.3"/>
			</g>
			<g id="XMLID_3673_">
				<polygon id="XMLID_3963_" class="st2" points="22.3,26.3 22.3,26.3 22.3,26.3 				"/>
			</g>
			<g id="XMLID_3674_">
				<rect id="XMLID_3961_" x="22.3" y="26.3" class="st2" width="0.1" height="11.5"/>
			</g>
			<g id="XMLID_3675_">
				<path id="XMLID_3959_" class="st2" d="M19.4,42V31.5c-0.4,0.4-0.8,0.8-1.3,1.1V42H19.4z"/>
			</g>
			<g id="XMLID_3676_">
				<rect id="XMLID_3957_" x="19.4" y="42" class="st2" width="2.9" height="1.3"/>
			</g>
			<g id="XMLID_3677_">
				<rect id="XMLID_3955_" x="18.1" y="42" class="st2" width="1.3" height="1.3"/>
			</g>
			<g id="XMLID_3678_">
				<polygon id="XMLID_3953_" class="st2" points="39.4,42 36.5,42 36.5,43.3 40.7,43.3 40.7,39.1 39.4,39.1 				"/>
			</g>
			<g id="XMLID_3679_">
				<polygon id="XMLID_3951_" class="st2" points="23.6,42 23.6,43.3 35.2,43.3 36.5,43.3 36.5,42 				"/>
			</g>
			<g id="XMLID_3680_">
				<polygon id="XMLID_3949_" class="st2" points="22.4,39.1 22.4,37.8 22.3,37.8 22.3,42 23.6,42 23.6,39.1 				"/>
			</g>
			<g id="XMLID_3681_">
				<rect id="XMLID_3947_" x="22.3" y="42" class="st2" width="1.3" height="1.3"/>
			</g>
			<g id="XMLID_3682_">
				<path id="XMLID_3945_" class="st2" d="M22.5,22.9c0,0.3,0.1,0.7,0.1,1c0,0,0,0,0,0c0,0,0,0,0,0C22.5,23.6,22.5,23.3,22.5,22.9z"
					/>
			</g>
			<g id="XMLID_3683_">
				<polygon id="XMLID_3943_" class="st2" points="23.6,22 23.6,25 23.6,26.3 23.6,37.8 23.7,37.8 23.7,22.1 26.6,22.1 26.6,22 				
					"/>
			</g>
			<g id="XMLID_3684_">
				<rect id="XMLID_3941_" x="22.4" y="26.3" class="st2" width="1.2" height="11.5"/>
			</g>
			<g id="XMLID_3685_">
				<polygon id="XMLID_3939_" class="st2" points="23.6,37.8 23.6,39.1 26.6,39.1 26.6,37.8 23.7,37.8 				"/>
			</g>
			<g id="XMLID_3686_">
				<rect id="XMLID_3937_" x="22.4" y="37.8" class="st2" width="1.2" height="1.3"/>
			</g>
			<g id="XMLID_3687_">
				<polygon id="XMLID_3935_" class="st2" points="43.7,37.8 40.7,37.8 40.7,39.1 45,39.1 45,34.9 43.7,34.9 				"/>
			</g>
			<g id="XMLID_3688_">
				<polygon id="XMLID_3933_" class="st2" points="28,37.8 28,39.1 39.4,39.1 40.7,39.1 40.7,37.8 				"/>
			</g>
			<g id="XMLID_3689_">
				<rect id="XMLID_3931_" x="26.6" y="34.9" class="st2" width="1.3" height="2.9"/>
			</g>
			<g id="XMLID_3690_">
				<rect id="XMLID_3929_" x="26.6" y="37.8" class="st2" width="1.3" height="1.3"/>
			</g>
			<g id="XMLID_3691_">
				<polygon id="XMLID_3927_" class="st2" points="28,17.8 28,17.8 30.9,17.8 30.9,29.4 30.9,29.4 30.9,17.8 				"/>
			</g>
			<g id="XMLID_3692_">
				<polygon id="XMLID_3925_" class="st2" points="26.6,22.1 26.6,33.6 28,33.6 28,22 26.6,22 				"/>
			</g>
			<g id="XMLID_3693_">
				<rect id="XMLID_3923_" x="28" y="33.6" class="st2" width="2.9" height="1.3"/>
			</g>
			<g id="XMLID_3694_">
				<rect id="XMLID_3921_" x="26.6" y="33.6" class="st2" width="1.3" height="1.3"/>
			</g>
			<g id="XMLID_3695_">
				<polygon id="XMLID_3919_" class="st2" points="47.9,33.6 45,33.6 45,34.9 49.2,34.9 49.2,30.7 47.9,30.7 				"/>
			</g>
			<g id="XMLID_3696_">
				<polygon id="XMLID_3917_" class="st2" points="32.2,33.6 32.2,34.9 43.7,34.9 45,34.9 45,33.6 				"/>
			</g>
			<g id="XMLID_3697_">
				<rect id="XMLID_3915_" x="30.9" y="30.7" class="st2" width="1.3" height="2.9"/>
			</g>
			<g id="XMLID_3698_">
				<polygon id="XMLID_3913_" class="st2" points="30.9,29.4 30.9,30.7 30.9,29.4 				"/>
			</g>
			<g id="XMLID_3699_">
				<rect id="XMLID_3911_" x="30.9" y="33.6" class="st2" width="1.3" height="1.3"/>
			</g>
			<g id="XMLID_3700_">
				<polygon id="XMLID_3909_" class="st2" points="32.2,13.6 32.2,16.5 32.2,17.8 32.2,29.4 32.2,13.6 35.1,13.6 35.1,13.6 				"/>
			</g>
			<g id="XMLID_3701_">
				<rect id="XMLID_3907_" x="30.9" y="17.8" class="st2" width="1.3" height="11.6"/>
			</g>
			<g id="XMLID_3702_">
				<rect id="XMLID_3905_" x="32.2" y="29.4" class="st2" width="2.9" height="1.3"/>
			</g>
			<g id="XMLID_3703_">
				<rect id="XMLID_3903_" x="30.9" y="29.4" class="st2" width="1.3" height="1.3"/>
			</g>
			<g id="XMLID_3704_">
				<polygon id="XMLID_3901_" class="st2" points="52.1,29.4 49.2,29.4 49.2,30.7 53.4,30.7 53.4,26.5 52.1,26.5 				"/>
			</g>
			<g id="XMLID_3705_">
				<polygon id="XMLID_3899_" class="st2" points="36.4,29.4 36.4,30.7 47.9,30.7 49.2,30.7 49.2,29.4 				"/>
			</g>
			<g id="XMLID_3706_">
				<rect id="XMLID_3897_" x="35.1" y="26.5" class="st2" width="1.3" height="2.9"/>
			</g>
			<g id="XMLID_3707_">
				<rect id="XMLID_3895_" x="35.1" y="29.4" class="st2" width="1.3" height="1.3"/>
			</g>
			<g id="XMLID_3708_">
				<polygon id="XMLID_3893_" class="st2" points="36.4,9.4 39.3,9.4 39.3,21 40.6,21 40.6,9.4 36.4,9.4 				"/>
			</g>
			<g id="XMLID_3709_">
				<polygon id="XMLID_3891_" class="st2" points="35.1,13.6 35.1,25.2 36.4,25.2 36.4,13.6 35.1,13.6 				"/>
			</g>
			<g id="XMLID_3710_">
				<rect id="XMLID_3889_" x="36.4" y="25.2" class="st2" width="2.9" height="1.3"/>
			</g>
			<g id="XMLID_3711_">
				<rect id="XMLID_3887_" x="35.1" y="25.2" class="st2" width="1.3" height="1.3"/>
			</g>
			<g id="XMLID_3712_">
				<polygon id="XMLID_3885_" class="st2" points="40.6,21 40.6,22.3 56.3,22.3 56.3,25.2 53.4,25.2 53.4,26.5 57.6,26.5 57.6,21 
									"/>
			</g>
			<g id="XMLID_3713_">
				<polygon id="XMLID_3883_" class="st2" points="40.6,25.2 40.6,26.5 52.1,26.5 53.4,26.5 53.4,25.2 				"/>
			</g>
			<g id="XMLID_3714_">
				<polygon id="XMLID_3881_" class="st2" points="39.3,25.2 40.6,25.2 40.6,22.3 40.6,21 39.3,21 				"/>
			</g>
			<g id="XMLID_3715_">
				<rect id="XMLID_3879_" x="39.3" y="25.2" class="st2" width="1.3" height="1.3"/>
			</g>
			<g id="XMLID_3716_">
				<polygon id="XMLID_3877_" class="st1" points="18,9.4 18,8.1 18,-3.5 15.1,-3.5 15.1,-0.6 15.1,12.3 18,12.3 				"/>
			</g>
			<g id="XMLID_3717_">
				<polygon id="XMLID_3875_" class="st1" points="22.2,3.9 22.2,-7.7 19.3,-7.7 19.3,-4.8 19.3,8.1 22.2,8.1 				"/>
			</g>
			<g id="XMLID_3718_">
				<path id="XMLID_3873_" class="st1" d="M13.8,13.2v-1V0.7h-2.9v2.9v9.4c0.2,0,0.5,0,0.7,0C12.4,13,13.1,13.1,13.8,13.2z"/>
			</g>
			<g id="XMLID_3719_">
				<polygon id="XMLID_3871_" class="st1" points="39.3,8.1 39.3,5.2 23.5,5.2 23.5,8.1 36.4,8.1 				"/>
			</g>
			<g id="XMLID_3720_">
				<path id="XMLID_3869_" class="st1" d="M28,16.5h2.9v-2.9H19.3H18h-2.9v0c0.4,0.1,0.8,0.3,1.2,0.5c0,0,0,0,0.1,0
					c1.2,0.6,2.3,1.4,3.2,2.3H28z"/>
			</g>
			<g id="XMLID_3721_">
				<path id="XMLID_3867_" class="st1" d="M26.6,20.7v-2.9h-6c0.1,0.1,0.1,0.2,0.2,0.3c0.1,0.2,0.2,0.3,0.3,0.5
					c0.1,0.1,0.1,0.2,0.2,0.4c0.1,0.2,0.2,0.4,0.3,0.5c0,0.1,0.1,0.2,0.1,0.3c0.1,0.3,0.2,0.6,0.3,0.9H26.6z"/>
			</g>
			<g id="XMLID_3722_">
				<path id="XMLID_3865_" class="st1" d="M9.6,5H6.7v9.2c0.9-0.5,1.9-0.8,2.9-1V5z"/>
			</g>
			<g id="XMLID_3723_">
				<polygon id="XMLID_3863_" class="st1" points="32.2,12.3 35.1,12.3 35.1,9.4 23.5,9.4 22.2,9.4 19.3,9.4 19.3,12.3 				"/>
			</g>
			<g id="XMLID_3724_">
				<polygon id="XMLID_3861_" class="st1" points="-10.2,21.9 -10.2,37.6 -7.3,37.6 -7.3,34.7 -7.3,33.4 -7.3,21.9 				"/>
			</g>
			<g id="XMLID_3725_">
				<path id="XMLID_3859_" class="st1" d="M0.8,25.3c-0.1-0.5-0.1-0.9-0.1-1.4v0v0c0,0,0,0,0,0c0-0.5,0-0.9,0.1-1.4
					c0-0.1,0-0.1,0-0.2C0.9,21.9,1,21.4,1.1,21v-7.6h-2.9v2.9v12.8h2.9v-2.3C1,26.4,0.9,26,0.8,25.6C0.8,25.5,0.8,25.4,0.8,25.3z"/>
			</g>
			<g id="XMLID_3726_">
				<polygon id="XMLID_3857_" class="st1" points="-6,17.6 -6,20.6 -6,33.4 -3.1,33.4 -3.1,30.5 -3.1,29.2 -3.1,17.6 				"/>
			</g>
			<g id="XMLID_3727_">
				<path id="XMLID_3855_" class="st1" d="M5.3,9.2H2.4v2.9v5.9c0.6-0.9,1.3-1.7,2.1-2.4c0,0,0,0,0,0C4.7,15.5,5,15.2,5.3,15V9.2z"
					/>
			</g>
			<g id="XMLID_3728_">
				<polygon id="XMLID_3853_" class="st2" points="-10.2,37.6 -10.2,21.9 -7.3,21.9 -7.3,20.6 -11.5,20.6 -11.5,38.9 -7.3,38.9 
					-7.3,37.6 				"/>
			</g>
			<g id="XMLID_3729_">
				<polygon id="XMLID_3851_" class="st2" points="-7.3,37.6 -7.3,38.9 -6,38.9 -6,37.6 -6,34.7 -7.3,34.7 				"/>
			</g>
			<g id="XMLID_3730_">
				<polygon id="XMLID_3849_" class="st2" points="-6,17.6 -3.1,17.6 -3.1,16.3 -7.3,16.3 -7.3,20.6 -6,20.6 				"/>
			</g>
			<g id="XMLID_3731_">
				<polygon id="XMLID_3847_" class="st2" points="-7.3,33.4 -6,33.4 -6,20.6 -7.3,20.6 -7.3,21.9 				"/>
			</g>
			<g id="XMLID_3732_">
				<rect id="XMLID_3845_" x="-6" y="33.4" class="st2" width="2.9" height="1.3"/>
			</g>
			<g id="XMLID_3733_">
				<rect id="XMLID_3843_" x="-7.3" y="33.4" class="st2" width="1.3" height="1.3"/>
			</g>
			<g id="XMLID_3734_">
				<rect id="XMLID_3841_" x="-3.1" y="30.5" class="st2" width="1.3" height="2.9"/>
			</g>
			<g id="XMLID_3735_">
				<rect id="XMLID_3839_" x="-3.1" y="33.4" class="st2" width="1.3" height="1.3"/>
			</g>
			<g id="XMLID_3736_">
				<polygon id="XMLID_3837_" class="st2" points="-1.8,13.4 1.1,13.4 1.1,12.1 -3.1,12.1 -3.1,16.3 -1.8,16.3 				"/>
			</g>
			<g id="XMLID_3737_">
				<polygon id="XMLID_3835_" class="st2" points="-3.1,29.2 -1.8,29.2 -1.8,16.3 -3.1,16.3 -3.1,17.6 				"/>
			</g>
			<g id="XMLID_3738_">
				<rect id="XMLID_3833_" x="-1.8" y="29.2" class="st2" width="2.9" height="1.3"/>
			</g>
			<g id="XMLID_3739_">
				<rect id="XMLID_3831_" x="-3.1" y="29.2" class="st2" width="1.3" height="1.3"/>
			</g>
			<g id="XMLID_3740_">
				<path id="XMLID_3829_" class="st2" d="M2.4,9.2h2.9V15c0,0,0.1-0.1,0.1-0.1v-7H1.1v4.2h1.3V9.2z"/>
			</g>
			<g id="XMLID_3741_">
				<path id="XMLID_3827_" class="st2" d="M1.1,21c0.1-0.5,0.3-0.9,0.5-1.4c0,0,0-0.1,0-0.1c0.2-0.5,0.5-1,0.8-1.4v-5.9H1.1v1.3V21z
					"/>
			</g>
			<g id="XMLID_3742_">
				<path id="XMLID_3794_" class="st2" d="M22.4,22L22.4,22C22.3,22,22.3,22,22.4,22c-0.1,0.2,0,0.4,0,0.7V22z"/>
			</g>
			<g id="XMLID_3743_">
				<path id="XMLID_3792_" class="st2" d="M22.3,26.3L22.3,26.3l0.1-1C22.4,25.6,22.3,25.9,22.3,26.3C22.3,26.3,22.3,26.3,22.3,26.3
					L22.3,26.3z"/>
			</g>
			<g id="XMLID_3744_">
				<path id="XMLID_3790_" class="st2" d="M23.6,25v-3h-1.2v0.7c0,0.1,0,0.2,0,0.3c0,0.3,0.1,0.7,0.1,1c0,0,0,0,0,0
					c0,0.3,0,0.7-0.1,1H23.6z"/>
			</g>
			<g id="XMLID_3745_">
				<path id="XMLID_3786_" class="st2" d="M22.4,26.3h1.2V25h-1.2c0,0.1,0,0.1,0,0.2c0,0,0,0,0,0c0,0,0,0.1,0,0.1V26.3z"/>
			</g>
			<g id="XMLID_3746_">
				<path id="XMLID_3634_" class="st2" d="M6.6,14.2c0,0,0.1,0,0.1,0V5h2.9V3.7H5.4v4.3h1.2V14.2z"/>
			</g>
			<g id="XMLID_3747_">
				<path id="XMLID_3632_" class="st2" d="M6.6,14.2V7.9H5.4v7C5.8,14.7,6.2,14.5,6.6,14.2z"/>
			</g>
			<g id="XMLID_3748_">
				<path id="XMLID_3630_" class="st2" d="M22.4,20.8h1.2h3v-0.1H22c0,0,0,0,0,0c0,0,0,0,0,0.1c0,0,0,0,0,0H22.4z"/>
			</g>
			<g id="XMLID_3749_">
				<rect id="XMLID_3628_" x="23.6" y="20.8" class="st2" width="3" height="1.2"/>
			</g>
			<g id="XMLID_3750_">
				<polygon id="XMLID_3626_" class="st2" points="28,17.8 28,17.8 26.6,17.8 26.6,20.7 26.6,20.8 28,20.8 				"/>
			</g>
			<g id="XMLID_3751_">
				<rect id="XMLID_3624_" x="26.6" y="20.8" class="st2" width="1.3" height="1.2"/>
			</g>
			<g id="XMLID_3752_">
				<path id="XMLID_3622_" class="st2" d="M22.4,22v-1.2h-0.4c0,0,0,0,0,0C22.2,21.2,22.3,21.6,22.4,22C22.3,22,22.3,22,22.4,22
					L22.4,22z"/>
			</g>
			<g id="XMLID_3753_">
				<rect id="XMLID_3620_" x="22.4" y="20.8" class="st2" width="1.2" height="1.2"/>
			</g>
			<g id="XMLID_3754_">
				<polygon id="XMLID_3618_" class="st2" points="10.9,0.7 13.8,0.7 13.8,-0.6 9.6,-0.6 9.6,3.7 10.9,3.7 				"/>
			</g>
			<g id="XMLID_3755_">
				<path id="XMLID_3616_" class="st2" d="M9.6,13.2c0.4-0.1,0.9-0.1,1.3-0.2V3.7H9.6V5V13.2z"/>
			</g>
			<g id="XMLID_3756_">
				<polygon id="XMLID_3614_" class="st2" points="30.9,16.5 30.9,13.6 30.9,13.6 30.9,16.5 28,16.5 28,16.5 				"/>
			</g>
			<g id="XMLID_3757_">
				<rect id="XMLID_3612_" x="28" y="16.5" class="st2" width="2.9" height="1.2"/>
			</g>
			<g id="XMLID_3758_">
				<rect id="XMLID_3610_" x="30.9" y="13.6" class="st2" width="1.3" height="3"/>
			</g>
			<g id="XMLID_3759_">
				<rect id="XMLID_3608_" x="30.9" y="16.5" class="st2" width="1.3" height="1.2"/>
			</g>
			<g id="XMLID_3760_">
				<path id="XMLID_3606_" class="st2" d="M28,16.5L28,16.5l-8.4-0.1c0.4,0.4,0.7,0.8,1.1,1.3h6v-1.2H28z"/>
			</g>
			<g id="XMLID_3761_">
				<rect id="XMLID_3604_" x="26.6" y="16.5" class="st2" width="1.3" height="1.2"/>
			</g>
			<g id="XMLID_3762_">
				<path id="XMLID_3602_" class="st2" d="M15.1,13.6L15.1,13.6l-0.1,0C15,13.6,15.1,13.6,15.1,13.6z"/>
			</g>
			<g id="XMLID_3763_">
				<polygon id="XMLID_3600_" class="st2" points="15.1,-3.5 18,-3.5 18,-4.8 13.8,-4.8 13.8,-0.6 15.1,-0.6 				"/>
			</g>
			<g id="XMLID_3764_">
				<polygon id="XMLID_3598_" class="st2" points="13.8,12.3 15.1,12.3 15.1,-0.6 13.8,-0.6 13.8,0.7 				"/>
			</g>
			<g id="XMLID_3765_">
				<rect id="XMLID_3596_" x="15.1" y="12.3" class="st2" width="2.9" height="1.3"/>
			</g>
			<g id="XMLID_3766_">
				<path id="XMLID_3594_" class="st2" d="M15,13.6h0.1v-1.3h-1.3v1C14.2,13.3,14.6,13.4,15,13.6z"/>
			</g>
			<g id="XMLID_3767_">
				<rect id="XMLID_3592_" x="32.2" y="12.3" class="st2" width="2.9" height="0.1"/>
			</g>
			<g id="XMLID_3768_">
				<rect id="XMLID_3590_" x="32.2" y="12.3" class="st2" width="2.9" height="1.2"/>
			</g>
			<g id="XMLID_3769_">
				<polygon id="XMLID_3588_" class="st2" points="35.1,12.3 35.1,12.3 36.4,12.3 36.4,9.4 36.4,9.4 35.1,9.4 				"/>
			</g>
			<g id="XMLID_3770_">
				<rect id="XMLID_3586_" x="35.1" y="12.3" class="st2" width="1.3" height="1.2"/>
			</g>
			<g id="XMLID_3771_">
				<polygon id="XMLID_3584_" class="st2" points="30.9,12.3 32.2,12.3 32.2,12.3 19.3,12.3 19.3,13.6 30.9,13.6 30.9,13.6 				"/>
			</g>
			<g id="XMLID_3772_">
				<rect id="XMLID_3582_" x="30.9" y="12.3" class="st2" width="1.3" height="1.2"/>
			</g>
			<g id="XMLID_3773_">
				<rect id="XMLID_3580_" x="18" y="9.4" class="st2" width="1.3" height="2.9"/>
			</g>
			<g id="XMLID_3774_">
				<rect id="XMLID_3578_" x="18" y="12.3" class="st2" width="1.3" height="1.3"/>
			</g>
			<g id="XMLID_3775_">
				<polygon id="XMLID_3576_" class="st2" points="19.3,-7.7 22.2,-7.7 22.2,3.9 23.5,3.9 23.5,-9 18,-9 18,-4.8 19.3,-4.8 				"/>
			</g>
			<g id="XMLID_3776_">
				<polygon id="XMLID_3574_" class="st2" points="18,8.1 19.3,8.1 19.3,-4.8 18,-4.8 18,-3.5 				"/>
			</g>
			<g id="XMLID_3777_">
				<rect id="XMLID_3572_" x="19.3" y="8.1" class="st2" width="2.9" height="1.3"/>
			</g>
			<g id="XMLID_3778_">
				<rect id="XMLID_3567_" x="18" y="8.1" class="st2" width="1.3" height="1.3"/>
			</g>
			<g id="XMLID_3779_">
				<polygon id="XMLID_3565_" class="st2" points="39.3,5.2 39.3,8.1 36.4,8.1 36.4,8.1 40.6,8.1 40.6,3.9 23.5,3.9 23.5,5.2 				
					"/>
			</g>
			<g id="XMLID_3780_">
				<rect id="XMLID_3563_" x="36.4" y="8.1" class="st2" width="4.2" height="1.2"/>
			</g>
			<g id="XMLID_3781_">
				<polygon id="XMLID_3561_" class="st2" points="35.1,9.4 35.1,8.1 36.4,8.1 36.4,8.1 23.5,8.1 23.5,9.4 				"/>
			</g>
			<g id="XMLID_3782_">
				<rect id="XMLID_3559_" x="35.1" y="8.1" class="st2" width="1.3" height="1.2"/>
			</g>
			<g id="XMLID_3783_">
				<polygon id="XMLID_3557_" class="st2" points="22.2,8.1 23.5,8.1 23.5,5.2 23.5,3.9 22.2,3.9 				"/>
			</g>
			<g id="XMLID_3784_">
				<rect id="XMLID_3555_" x="22.2" y="8.1" class="st2" width="1.3" height="1.3"/>
			</g>
			<g id="XMLID_3785_">
				<path id="XMLID_3553_" class="st3" d="M13.5,34.7H11v0.1c0.2,0,0.4,0,0.6,0C12.3,34.9,12.9,34.8,13.5,34.7z"/>
			</g>
			<g id="XMLID_3788_">
				<polygon id="XMLID_3551_" class="st3" points="22.3,22 22.3,22 22.3,22 				"/>
			</g>
			<g id="XMLID_3789_">
				<polygon id="XMLID_3549_" class="st3" points="22.3,22 22.3,22 22.3,22 				"/>
			</g>
			<g id="XMLID_3796_">
				<path id="XMLID_3547_" class="st3" d="M22.5,24C22.5,23.9,22.5,23.9,22.5,24c0-0.4,0-0.7,0-1c0-0.1,0-0.2,0-0.2V25h0
					C22.5,24.6,22.5,24.3,22.5,24z"/>
			</g>
			<g id="XMLID_3797_">
				<path id="XMLID_3545_" class="st3" d="M22.5,25.2C22.5,25.1,22.5,25.1,22.5,25.2c0-0.1,0-0.1,0-0.2h0L22.5,25.2
					C22.4,25.2,22.5,25.2,22.5,25.2z"/>
			</g>
			<g id="XMLID_3798_">
				<path id="XMLID_3543_" class="st3" d="M11.6,13c-0.2,0-0.5,0-0.7,0v0C11.1,13,11.4,13,11.6,13c0.8,0,1.5,0.1,2.2,0.2v0
					C13.1,13.1,12.4,13,11.6,13z"/>
			</g>
			<g id="XMLID_3799_">
				<path id="XMLID_3541_" class="st3" d="M15.1,13.6c0.4,0.1,0.8,0.3,1.2,0.5C15.9,13.9,15.5,13.8,15.1,13.6L15.1,13.6z"/>
			</g>
			<g id="XMLID_3800_">
				<path id="XMLID_3539_" class="st3" d="M16.4,14.1c1.2,0.6,2.3,1.4,3.2,2.3h0C18.7,15.5,17.6,14.7,16.4,14.1z"/>
			</g>
			<g id="XMLID_3801_">
				<path id="XMLID_3537_" class="st3" d="M20.6,17.8c0.1,0.1,0.1,0.2,0.2,0.3C20.8,18,20.7,17.9,20.6,17.8L20.6,17.8z"/>
			</g>
			<g id="XMLID_3802_">
				<path id="XMLID_3535_" class="st3" d="M6.7,14.2L6.7,14.2c0.9-0.5,1.9-0.8,2.9-1v0C8.6,13.4,7.6,13.7,6.7,14.2z"/>
			</g>
			<g id="XMLID_3803_">
				<path id="XMLID_3533_" class="st3" d="M0.8,25.6C0.9,26,1,26.4,1.1,26.9v0C1,26.4,0.9,26,0.8,25.6z"/>
			</g>
			<g id="XMLID_3804_">
				<path id="XMLID_3531_" class="st3" d="M0.8,22.3C0.9,21.9,1,21.4,1.1,21v0C1,21.4,0.9,21.9,0.8,22.3z"/>
			</g>
			<g id="XMLID_3805_">
				<polygon id="XMLID_3529_" class="st3" points="0.7,23.9 0.7,23.9 0.7,23.9 				"/>
			</g>
			<g id="XMLID_3806_">
				<path id="XMLID_3527_" class="st3" d="M0.8,25.3c-0.1-0.5-0.1-0.9-0.1-1.4v0C0.7,24.4,0.7,24.9,0.8,25.3z"/>
			</g>
			<g id="XMLID_3807_">
				<path id="XMLID_3525_" class="st3" d="M0.8,22.5c-0.1,0.5-0.1,0.9-0.1,1.4C0.7,23.5,0.7,23,0.8,22.5z"/>
			</g>
			<g id="XMLID_3808_">
				<path id="XMLID_3523_" class="st3" d="M2.4,18.1c0.6-0.9,1.3-1.7,2.1-2.4C3.7,16.4,3,17.2,2.4,18.1L2.4,18.1z"/>
			</g>
			<g id="XMLID_3809_">
				<path id="XMLID_3521_" class="st3" d="M4.5,15.7C4.7,15.5,5,15.2,5.3,15v0C5,15.2,4.7,15.5,4.5,15.7z"/>
			</g>
			<g id="XMLID_3810_">
				<path id="XMLID_3519_" class="st3" d="M5.3,15L5.3,15c0,0,0.1-0.1,0.1-0.1v0C5.4,15,5.3,15,5.3,15z"/>
			</g>
			<g id="XMLID_3811_">
				<path id="XMLID_3517_" class="st3" d="M1.6,19.5c0.2-0.5,0.5-1,0.8-1.4v0C2.1,18.5,1.9,19,1.6,19.5z"/>
			</g>
			<g id="XMLID_3812_">
				<path id="XMLID_3515_" class="st3" d="M1.1,21c0.1-0.5,0.3-0.9,0.5-1.4C1.4,20.1,1.2,20.5,1.1,21L1.1,21z"/>
			</g>
			<g id="XMLID_3813_">
				<path id="XMLID_3513_" class="st3" d="M1.6,19.5c0,0,0,0.1,0,0.1C1.6,19.6,1.6,19.5,1.6,19.5z"/>
			</g>
			<g id="XMLID_3814_">
				<path id="XMLID_3511_" class="st3" d="M22.3,22c0,0.2,0.1,0.5,0.1,0.7v-0.1C22.4,22.4,22.4,22.2,22.3,22z"/>
			</g>
			<g id="XMLID_3815_">
				<path id="XMLID_3509_" class="st3" d="M22.4,25.2c0,0.3-0.1,0.7-0.2,1C22.3,25.9,22.4,25.6,22.4,25.2L22.4,25.2z"/>
			</g>
			<g id="XMLID_3816_">
				<path id="XMLID_3507_" class="st3" d="M22.5,24c0,0.3,0,0.7-0.1,1h0C22.5,24.6,22.5,24.3,22.5,24z"/>
			</g>
			<g id="XMLID_3817_">
				<path id="XMLID_3505_" class="st3" d="M22.4,22.6L22.4,22.6c0,0.1,0,0.2,0,0.3C22.5,22.8,22.5,22.7,22.4,22.6z"/>
			</g>
			<g id="XMLID_3818_">
				<path id="XMLID_3503_" class="st3" d="M22.5,25c0,0.1,0,0.1,0,0.2C22.5,25.1,22.5,25,22.5,25L22.5,25z"/>
			</g>
			<g id="XMLID_3819_">
				<path id="XMLID_3501_" class="st3" d="M22.5,25.2C22.5,25.2,22.4,25.2,22.5,25.2L22.5,25.2C22.4,25.2,22.5,25.2,22.5,25.2z"/>
			</g>
			<g id="XMLID_3820_">
				<path id="XMLID_3499_" class="st3" d="M6.6,14.2L6.6,14.2c0,0,0.1,0,0.1,0v0C6.7,14.2,6.6,14.2,6.6,14.2z"/>
			</g>
			<g id="XMLID_3821_">
				<path id="XMLID_3497_" class="st3" d="M5.4,15L5.4,15c0.4-0.3,0.8-0.5,1.2-0.7v0C6.2,14.5,5.8,14.7,5.4,15z"/>
			</g>
			<g id="XMLID_3822_">
				<path id="XMLID_3495_" class="st3" d="M9.6,13.2L9.6,13.2c0.4-0.1,0.9-0.1,1.3-0.2v0C10.5,13.1,10,13.1,9.6,13.2z"/>
			</g>
			<g id="XMLID_3823_">
				<path id="XMLID_2695_" class="st3" d="M19.6,16.5L19.6,16.5c0.4,0.4,0.7,0.8,1.1,1.3h0C20.3,17.3,19.9,16.9,19.6,16.5z"/>
			</g>
			<g id="XMLID_3824_">
				<path id="XMLID_2693_" class="st3" d="M15,13.6L15,13.6c0,0,0.1,0,0.1,0v0C15.1,13.6,15,13.6,15,13.6z"/>
			</g>
			<g id="XMLID_3825_">
				<path id="XMLID_2691_" class="st3" d="M13.8,13.2L13.8,13.2c0.4,0.1,0.8,0.2,1.2,0.3h0C14.6,13.4,14.2,13.3,13.8,13.2z"/>
			</g>
			<g id="XMLID_3826_">
				<path id="XMLID_2689_" class="st3" d="M13.8,13.6H15c-0.4-0.1-0.8-0.2-1.2-0.3V13.6z"/>
			</g>
		</g>
	</g>
	<g id="XMLID_2576_">
		<path id="XMLID_2580_" class="st2" d="M11.6,35.5C5.2,35.5,0,30.3,0,23.9s5.2-11.6,11.6-11.6s11.6,5.2,11.6,11.6
			S18,35.5,11.6,35.5z M11.6,13.7c-5.7,0-10.3,4.6-10.3,10.3s4.6,10.3,10.3,10.3s10.3-4.6,10.3-10.3S17.3,13.7,11.6,13.7z"/>
	</g>
	<g id="XMLID_2573_">
		<path id="XMLID_2479_" class="st2" d="M11.9,32.4c-0.3,0-0.6-0.3-0.6-0.6c0-0.4,0.3-0.7,0.6-0.7c0.3,0,0.6,0,0.9-0.1
			c0.4-0.1,0.7,0.2,0.8,0.5s-0.2,0.7-0.5,0.8l-0.1-0.6l0.1,0.6C12.7,32.3,12.3,32.4,11.9,32.4C11.9,32.4,11.9,32.4,11.9,32.4z
			 M8.9,31.9c-0.1,0-0.2,0-0.2,0c-0.3-0.1-0.7-0.3-1-0.5c-0.3-0.2-0.4-0.6-0.3-0.9c0.2-0.3,0.6-0.4,0.9-0.3c0.3,0.1,0.6,0.3,0.9,0.4
			c0.3,0.1,0.5,0.5,0.4,0.8C9.4,31.8,9.2,31.9,8.9,31.9z M15.8,31.2c-0.2,0-0.4-0.1-0.6-0.3c-0.2-0.3-0.1-0.7,0.2-0.9
			c0.3-0.2,0.5-0.3,0.8-0.5c0.3-0.2,0.7-0.2,0.9,0.1c0.2,0.3,0.2,0.7-0.1,0.9c-0.3,0.2-0.6,0.5-0.9,0.6C16,31.2,15.9,31.2,15.8,31.2
			z M5.6,29.6c-0.2,0-0.4-0.1-0.5-0.2c-0.2-0.3-0.5-0.6-0.6-0.9c-0.2-0.3-0.1-0.7,0.2-0.9c0.3-0.2,0.7-0.1,0.9,0.2
			c0.2,0.3,0.4,0.5,0.5,0.8c0.2,0.3,0.2,0.7-0.1,0.9C5.9,29.5,5.8,29.6,5.6,29.6z M18.5,28.2c-0.1,0-0.2,0-0.3-0.1
			c-0.3-0.2-0.4-0.6-0.3-0.9c0.1-0.3,0.3-0.6,0.4-0.9c0.1-0.3,0.5-0.5,0.8-0.4c0.3,0.1,0.5,0.5,0.4,0.8c-0.1,0.3-0.3,0.7-0.5,1
			C19,28.1,18.7,28.2,18.5,28.2z M3.9,25.9c-0.3,0-0.6-0.2-0.6-0.5c0,0,0-0.1,0-0.1c-0.1-0.3-0.1-0.7-0.1-1c0-0.4,0.3-0.7,0.6-0.7
			c0,0,0,0,0,0c0.3,0,0.6,0.3,0.6,0.6c0,0.3,0,0.6,0.1,0.9c0.1,0.4-0.2,0.7-0.5,0.8C4,25.9,3.9,25.9,3.9,25.9z M19.4,24.3
			c-0.3,0-0.6-0.3-0.6-0.6c0-0.3,0-0.6-0.1-0.9c-0.1-0.4,0.2-0.7,0.5-0.8c0.4-0.1,0.7,0.1,0.8,0.5c0,0,0,0,0,0
			c0.1,0.4,0.1,0.8,0.1,1.1C20.1,24,19.8,24.3,19.4,24.3C19.4,24.3,19.4,24.3,19.4,24.3z M4.3,21.9c-0.1,0-0.2,0-0.2,0
			c-0.3-0.1-0.5-0.5-0.4-0.8c0.1-0.3,0.3-0.7,0.4-1c0.2-0.3,0.6-0.4,0.9-0.3c0.3,0.2,0.4,0.6,0.3,0.9c-0.1,0.3-0.3,0.6-0.4,0.9
			C4.8,21.7,4.5,21.9,4.3,21.9z M18.2,20.4c-0.2,0-0.4-0.1-0.5-0.3c-0.2-0.3-0.3-0.5-0.6-0.8c-0.2-0.3-0.2-0.7,0.1-0.9
			c0.3-0.2,0.7-0.2,0.9,0.1c0.2,0.3,0.5,0.6,0.7,0.9c0.2,0.3,0.1,0.7-0.2,0.9C18.4,20.4,18.3,20.4,18.2,20.4z M6.6,18.6
			c-0.2,0-0.4-0.1-0.5-0.2c-0.2-0.3-0.2-0.7,0.1-0.9c0.3-0.2,0.6-0.5,0.9-0.7C7.4,16.6,7.8,16.7,8,17c0.2,0.3,0.1,0.7-0.2,0.9
			c-0.3,0.2-0.5,0.3-0.8,0.5C6.9,18.5,6.8,18.6,6.6,18.6z M15.2,17.7c-0.1,0-0.2,0-0.3-0.1c-0.3-0.1-0.6-0.3-0.9-0.4
			c-0.3-0.1-0.5-0.5-0.4-0.8c0.1-0.3,0.5-0.5,0.8-0.4c0.3,0.1,0.7,0.3,1,0.4c0.3,0.2,0.4,0.6,0.3,0.9C15.7,17.5,15.5,17.7,15.2,17.7
			z M10.3,16.9c-0.3,0-0.6-0.2-0.7-0.5c-0.1-0.3,0.1-0.7,0.5-0.8c0,0,0.1,0,0.1,0c0.3-0.1,0.7-0.1,1-0.1c0.3,0,0.7,0.3,0.7,0.6
			c0,0.4-0.3,0.7-0.6,0.7c-0.3,0-0.6,0-0.9,0.1C10.4,16.9,10.3,16.9,10.3,16.9z"/>
	</g>
	<g id="XMLID_2570_">
		<defs>
			<circle id="XMLID_2590_" cx="11.6" cy="23.9" r="10.3"/>
		</defs>
		<clipPath id="XMLID_3_">
			<use xlink:href="#XMLID_2590_"  style="overflow:visible;"/>
		</clipPath>
		<g id="XMLID_2572_" class="st4">
			<path id="XMLID_2475_" class="st2" d="M22.3,25.8c-5.5,0-9.9-4.5-9.9-9.9c0-5.5,4.5-9.9,9.9-9.9s9.9,4.5,9.9,9.9
				C32.2,21.4,27.8,25.8,22.3,25.8z M22.3,7.3c-4.8,0-8.6,3.9-8.6,8.6c0,4.8,3.9,8.6,8.6,8.6s8.6-3.9,8.6-8.6
				C30.9,11.2,27,7.3,22.3,7.3z"/>
		</g>
	</g>
	<g id="XMLID_3568_">
		<g id="XMLID_3569_">
			<path id="XMLID_2587_" class="st1" d="M22.5,23.9c0,6-4.9,10.9-10.9,10.9c-1.7,0-3.3-0.4-4.7-1.1v8.3h32.2V9.9H6.9v4.2
				c1.4-0.7,3-1.1,4.7-1.1C17.6,13,22.5,17.9,22.5,23.9z"/>
		</g>
		<g id="XMLID_3570_">
			<path id="XMLID_2585_" class="st2" d="M5.6,8.6v6.2c0.4-0.3,0.9-0.5,1.3-0.7V9.9h32.2v32.2H6.9v-8.3c-0.5-0.2-0.9-0.5-1.3-0.7
				v10.4h34.8V8.6H5.6z"/>
		</g>
	</g>
</g>
</svg>
