<?xml version="1.0" encoding="utf-8"?>
<!-- Generator: Adobe Illustrator 25.2.3, SVG Export Plug-In . SVG Version: 6.00 Build 0)  -->
<svg version="1.1" id="Warstwa_1" xmlns="http://www.w3.org/2000/svg" xmlns:xlink="http://www.w3.org/1999/xlink" x="0px" y="0px"
	 viewBox="0 0 49.2 38" style="enable-background:new 0 0 49.2 38;" xml:space="preserve">
<style type="text/css">
	.st0{fill:#838383;}
</style>
<path class="st0" d="M42.4,4.7h-5.9V3.5c0-0.3-0.3-0.6-0.6-0.6h-4l-1.4-0.8C26.8,0,22.4,0,18.7,2.1l-1.4,0.8h-4
	c-0.3,0-0.6,0.3-0.6,0.6v1.2H6.8C6.4,4.7,6.2,5,6.2,5.3v6.5c0,0.3,0.3,0.6,0.6,0.6h1.8v22c0,0.3,0.3,0.6,0.6,0.6h1.8v1.8
	c0,0.3,0.3,0.6,0.6,0.6h2.4c0.3,0,0.6-0.3,0.6-0.6v-1.8h20.2v1.8c0,0.3,0.3,0.6,0.6,0.6h2.4c0.3,0,0.6-0.3,0.6-0.6v-1.8h1.8
	c0.3,0,0.6-0.3,0.6-0.6v-22h1.8c0.3,0,0.6-0.3,0.6-0.6V5.3C43,5,42.8,4.7,42.4,4.7z M10.9,12.5v12.5H9.7V12.5H10.9z M26.4,24.9v-6.5
	c0-0.3-0.3-0.6-0.6-0.6H13.9c-0.3,0-0.6,0.3-0.6,0.6v6.5h-1.2V12.5h25v12.5H26.4z M9.7,26.1H20L9.7,33.3V26.1z M20.4,24.9v-1.2h4.8
	v1.2H20.4z M25.2,22.6h-4.8v-1.2h4.8V22.6z M25.2,20.2h-4.8V19h4.8V20.2z M19.2,20.2h-4.8V19h4.8V20.2z M14.5,21.4h4.8v1.2h-4.8
	V21.4z M14.5,23.8h4.8v1.2h-4.8V23.8z M22.1,26.1h5.1l-11,7.7H11L22.1,26.1z M29.2,26.1h3.3l-11,7.7h-3.3L29.2,26.1z M13.3,36.3
	h-1.2v-1.2h1.2V36.3z M37.1,36.3h-1.2v-1.2h1.2V36.3z M23.5,33.9l11-7.7h4.9v7.7H23.5z M39.5,24.9h-1.2V12.5h1.2V24.9z M41.9,11.3
	H7.3V5.9h5.9c0.3,0,0.6-0.3,0.6-0.6V4.1h3.6c0.1,0,0.2,0,0.3-0.1l1.6-0.9c3.3-1.8,7.3-1.8,10.5,0L31.4,4c0.1,0.1,0.2,0.1,0.3,0.1
	h3.6v1.2c0,0.3,0.3,0.6,0.6,0.6h5.9V11.3z"/>
</svg>
