<?xml version="1.0" encoding="utf-8"?>
<!-- Generator: Adobe Illustrator 19.0.0, SVG Export Plug-In . SVG Version: 6.00 Build 0)  -->
<svg version="1.1" id="Warstwa_1" xmlns="http://www.w3.org/2000/svg" xmlns:xlink="http://www.w3.org/1999/xlink" x="0px" y="0px"
	 viewBox="-397 279.3 47 38" style="enable-background:new -397 279.3 47 38;" xml:space="preserve">
<style type="text/css">
	.st0{fill:#838383;}
</style>
<g id="XMLID_4971_">
	<path id="XMLID_4996_" class="st0" d="M-355.6,297.2l2.1-1.9c0.2-0.2,0.5-0.4,0.5-9.1c0,0,0,0,0,0c0,0,0,0,0,0c0-0.5,0-1,0-1.5
		c0-0.3,0-0.7-0.3-1s-0.5-0.5-0.9-0.5c0,0-0.1,0-0.2,0l-3.9,0c-0.5,0-0.9,0.2-1.1,0.6l-6.3,9.3l-4.4,0l2.2-4c0.2-0.4,0.2-0.9,0-1.3
		c-0.2-0.4-0.7-0.6-1.1-0.7l-2.6,0c-0.2,0-0.6,0.1-0.8,0.3l-7.6,5.6l-4.5,0c0,0,0,0-0.1,0c-4.3,0-8.1,2.7-9.5,6.8
		c0,0.1-0.1,0.3-0.1,0.4c0,1.5,1.2,2.6,2.6,2.6l13.5,0.1l5.6,3.8c0.2,0.1,0.5,0.2,0.7,0.2l2.6,0c0,0,0,0,0,0c0.7,0,1.3-0.6,1.3-1.3
		c0-0.3-0.1-0.6-0.3-0.9l-1.7-1.9c3.2-0.3,6.2-1.1,9.1-2.5l1.3-0.6l4.4,1.9c0.7,0.3,1.4,0,1.7-0.7c0.2-0.5,0.1-1.1-0.3-1.4
		L-355.6,297.2z M-354.3,284.4l0,0.1c0,0.3,0,0.6,0,1c-1.1,0-3.2,0-4.6,0l0.7-1.1L-354.3,284.4z M-371.5,288.3l2.7,0l-1,1.7
		c-0.6,0-2.5,0-4.1,0L-371.5,288.3z M-392.7,300.1c0.8-2.4,2.6-4.3,4.9-5.2c0.7,1.1,2.4,4.3,0,6.6l-3.5,0
		C-392.1,301.4-392.7,300.8-392.7,300.1z M-359.1,298.2c-0.2-0.1-0.4-0.1-0.5,0l-1.6,0.8c-3.1,1.5-6.4,2.4-9.9,2.5
		c-0.3,0-0.5,0.2-0.6,0.4c-0.1,0.2-0.1,0.5,0.1,0.7l2.6,2.9l-2.6,0l-5.8-3.9c-0.1-0.1-0.2-0.1-0.4-0.1l-8.5,0c1.6-2.4,0.7-5.2-0.4-7
		c0.7-0.2,1.4-0.3,2.1-0.3c0,0,0,0,0.1,0l4.7,0c0,0,0,0,0,0c0.1,0,0.3,0,0.4-0.1l3.7-2.7c0.5,0,1.3,0,2.2,0c1,0,2.1,0,2.9,0
		l-1.1,1.9c-0.1,0.2-0.1,0.4,0,0.6c0.1,0.2,0.3,0.3,0.6,0.3l5.9,0c0.2,0,0.4-0.1,0.5-0.3l4.9-7.2c0,0,0,0,0,0c0.5,0,1.4,0,2.3,0
		c1.2,0,2.4,0,3.2,0c0,3.5-0.1,6.9-0.2,7.7l-2.5,2.3c-0.1,0.1-0.2,0.3-0.2,0.5c0,0.2,0.1,0.3,0.2,0.5l2.6,2.6L-359.1,298.2z"/>
	<path id="XMLID_5002_" class="st0" d="M-354.9,291.2c0-1.8-1.5-3.3-3.3-3.3s-3.3,1.5-3.3,3.3c0,1.8,1.5,3.3,3.3,3.3
		S-354.9,293-354.9,291.2z M-358.2,293.2c-1.1,0-2-0.9-2-2c0-1.1,0.9-2,2-2s2,0.9,2,2C-356.2,292.3-357.1,293.2-358.2,293.2z"/>
	<path id="XMLID_5003_" class="st0" d="M-382.5,296.6h-1.3c-0.2,0-0.4,0.2-0.4,0.4v0.9c0,0.2,0.2,0.4,0.4,0.4h1.3
		c0.2,0,0.4-0.2,0.4-0.4V297C-382.1,296.8-382.3,296.6-382.5,296.6z"/>
	<path id="XMLID_5004_" class="st0" d="M-379.9,296.6h-1.3c-0.2,0-0.4,0.2-0.4,0.4v0.9c0,0.2,0.2,0.4,0.4,0.4h1.3
		c0.2,0,0.4-0.2,0.4-0.4V297C-379.5,296.8-379.7,296.6-379.9,296.6z"/>
	<path id="XMLID_5005_" class="st0" d="M-377.2,296.6h-1.3c-0.2,0-0.4,0.2-0.4,0.4v0.9c0,0.2,0.2,0.4,0.4,0.4h1.3
		c0.2,0,0.4-0.2,0.4-0.4V297C-376.9,296.8-377,296.6-377.2,296.6z"/>
	<path id="XMLID_5006_" class="st0" d="M-374.6,296.6h-1.3c-0.2,0-0.4,0.2-0.4,0.4v0.9c0,0.2,0.2,0.4,0.4,0.4h1.3
		c0.2,0,0.4-0.2,0.4-0.4V297C-374.2,296.8-374.4,296.6-374.6,296.6z"/>
	<path id="XMLID_5007_" class="st0" d="M-372,296.6h-1.3c-0.2,0-0.4,0.2-0.4,0.4v0.9c0,0.2,0.2,0.4,0.4,0.4h1.3
		c0.2,0,0.4-0.2,0.4-0.4V297C-371.6,296.8-371.8,296.6-372,296.6z"/>
	<path id="XMLID_5008_" class="st0" d="M-369.4,296.6h-1.3c-0.2,0-0.4,0.2-0.4,0.4v0.9c0,0.2,0.2,0.4,0.4,0.4h1.3
		c0.2,0,0.4-0.2,0.4-0.4V297C-369,296.8-369.2,296.6-369.4,296.6z"/>
	<path id="XMLID_5011_" class="st0" d="M-356.6,308.8l-0.3-0.1l0-0.3c0,0,0-0.1,0-0.2c0-2.1-1.7-3.7-3.8-3.7c-1.4,0-2.6,0.7-3.3,1.9
		l-0.1,0.2l-0.3-0.1c-0.2,0-0.3,0-0.5,0c-1.2,0-2.2,0.7-2.6,1.8l-0.1,0.3l-0.3,0c0,0-0.1,0-0.1,0c0,0-0.1,0-0.1,0
		c-1.5,0-2.7,1.3-2.7,2.7c0,1.5,1.2,2.7,2.7,2.7h10.4c1.5,0,2.7-1.2,2.7-2.7C-354.7,310.2-355.5,309.2-356.6,308.8z M-357.5,312.8
		h-10.4c-0.8,0-1.4-0.6-1.4-1.4c0-0.8,0.6-1.4,1.4-1.4c0,0,0.1,0,0.1,0l0.8,0.1c0.3,0,0.6-0.2,0.7-0.4l0.3-0.8c0.2-0.6,0.7-1,1.3-1
		c0.1,0,0.1,0,0.2,0l0.7,0.1c0.3,0.1,0.5-0.1,0.7-0.3l0.4-0.6c0.4-0.8,1.3-1.3,2.2-1.3c1.4,0,2.5,1.1,2.5,2.4c0,0.1,0,0.2,0,0.3
		l0,0.8c0,0.3,0.2,0.5,0.4,0.6l0.7,0.3c0.6,0.2,1,0.7,1,1.3C-356,312.2-356.7,312.8-357.5,312.8z"/>
	<path id="XMLID_5014_" class="st0" d="M-389.3,290h7.9c1.2,0,2.2-1,2.2-2.2c0-1.2-1-2.2-2.2-2.2c0,0,0,0,0,0c0,0-0.1,0-0.2,0
		l-0.1,0l0-0.1c-0.3-0.9-1.2-1.5-2.1-1.5c-0.1,0-0.2,0-0.4,0l-0.1,0l0-0.1c-0.5-1-1.5-1.5-2.6-1.5c-1.7,0-3,1.3-3,3c0,0,0,0.1,0,0.2
		l0,0.1l-0.1,0c-0.9,0.3-1.5,1.1-1.5,2.1C-391.5,289-390.5,290-389.3,290z M-389.6,286.9l0.6-0.2c0.3-0.1,0.4-0.4,0.4-0.6l0-0.6
		c0-0.1,0-0.1,0-0.1c0,0,0,0,0,0c0-0.9,0.8-1.7,1.7-1.7c0.6,0,1.2,0.3,1.5,0.9l0.3,0.5c0.1,0.2,0.4,0.4,0.7,0.3l0.6-0.1
		c0.1,0,0.1,0,0.2,0c0.4,0,0.7,0.2,0.9,0.6l0.2,0.6c0.1,0.3,0.4,0.5,0.7,0.4l0.6,0c0,0,0.1,0,0.1,0c0.5,0,0.9,0.4,0.9,0.9
		c0,0.5-0.4,0.9-0.9,0.9h-7.9c-0.5,0-0.9-0.4-0.9-0.9C-390.2,287.4-390,287.1-389.6,286.9z"/>
</g>
</svg>
