<?xml version="1.0" encoding="utf-8"?>
<!-- Generator: Adobe Illustrator 25.2.3, SVG Export Plug-In . SVG Version: 6.00 Build 0)  -->
<svg version="1.1" id="Layer_1" xmlns="http://www.w3.org/2000/svg" xmlns:xlink="http://www.w3.org/1999/xlink" x="0px" y="0px"
	 viewBox="0 0 508 347.3" style="enable-background:new 0 0 508 347.3;" xml:space="preserve">
<style type="text/css">
	.st0{display:none;fill:#838383;}
	.st1{fill:#838383;}
</style>
<path class="st0" d="M309.3,274.1c6.2,0,12.2,0,18.2,0c5.2,0,7,1.8,7,7c0,6.7,0,13.4,0,20.2c0,0.9,0,1.8,0,3c1.6,0,3,0,4.5,0
	c13.4,0,26.9,0,40.3,0c4.7,0,6.7,1.9,6.7,6.7c0,9.3,0,18.6,0,27.8c0,4.4-2,6.4-6.3,6.4c-22.7,0-45.4,0-68.2,0c-8,0-16,0-24,0
	c-16.5,0-33.1,0-49.6,0c-19.8,0-39.6,0-59.4,0c-16.6,0-33.2,0-49.8,0c-4.7,0-6.7-2-6.7-6.7c0-9.4,0-18.7,0-28.1c0-4,2.1-6.2,6.1-6.2
	c14.3,0,28.5,0,42.8,0c0.7,0,1.5,0,2.5,0c0-0.9,0-1.7,0-2.4c0-7.2,0-14.4,0-21.6c0-3.9,2.1-6,6-6c5.6,0,11.2,0,16.8,0
	c0.8,0,1.5,0,2.3,0c0.4-2.3,0.7-4.4,1.2-6.5c3.2-13.3,10.8-23.2,23-29.4c1.5-0.8,2-1.6,2-3.3c-0.1-11.9,0-23.8,0-35.7
	c0-1.2-0.1-2-1.4-2.6c-14-6.2-25-16-33.8-28.3c-0.8-1.1-1.6-1.5-2.9-1.5c-11.9-0.3-23.6-1.7-35-5.1c-29.9-9-49.4-28.5-58.5-58.3
	c-5.5-17.9-6.4-36.3-4.8-54.9c0.6-6.2,1.7-12.3,2.7-18.5c0.6-3.9,2.5-5.4,6.6-5.4c18.8,0,37.5,0,56.3,0c0.8,0,1.6,0,2.6,0
	c0.2-4.1,0.3-8,0.5-11.9c0.1-1.6,0.1-3.2,0.2-4.8c0.3-3.7,2.4-5.6,6.1-5.6c11.7,0,23.4,0,35.1,0c20.4,0,40.9,0,61.3,0
	c28,0,56,0,83.9,0c4.9,0,6.7,1.7,7,6.7c0.3,5.1,0.5,10.2,0.7,15.6c0.6,0,1.3,0.1,2,0.1c19,0,38,0,56.9,0c3.9,0,5.8,1.4,6.6,5.2
	c4.3,21.9,5,43.9,0,65.8c-3.3,14.3-8.9,27.6-18.3,39c-10.9,13.2-24.8,21.8-41.1,26.8c-11.8,3.6-23.9,5.2-36.2,5.5
	c-1.5,0-2.2,0.7-3,1.8c-8.8,12.2-19.8,21.9-33.7,28.2c-0.6,0.3-1.3,1.3-1.3,2c-0.1,12.4,0,24.8-0.1,37.2c0,1.4,0.7,1.8,1.7,2.3
	c13.8,6.8,21.4,18.1,24,33C309,272.1,309.1,272.9,309.3,274.1z M167.6,13.1c0,2.6,0,5.1,0,7.5c-0.4,25.7,1,51.2,5.8,76.5
	c3.3,17.4,8.1,34.4,16.1,50.2c6.9,13.5,15.7,25.4,28.5,34c11.1,7.4,23.4,11.5,36.6,11.2c18.1-0.3,33.6-7.5,46.4-20.3
	c11.6-11.6,18.9-25.8,24.5-41c6.9-19,10.6-38.7,12.8-58.7c2-17.9,2.5-35.9,2.1-53.9c0-1.8-0.2-3.5-0.3-5.4
	C282.6,13.1,225.3,13.1,167.6,13.1z M326.5,155.6c0.5,0.1,0.7,0.1,0.9,0.1c11.1-0.8,22-2.7,32.4-6.7c14.6-5.6,26.6-14.5,35.1-27.7
	c5.1-7.9,8.5-16.6,10.8-25.7c3.6-14.4,4.3-29,3.2-43.7c-0.4-5.4-1.2-10.8-1.8-16.3c-18.8,0-37.3,0-55.8,0c0,0.7-0.1,1.1-0.1,1.6
	c-0.2,18.4-1.6,36.8-4.7,55c-3.2,19.2-8.1,37.9-16.3,55.6C329.2,150.3,327.9,152.8,326.5,155.6z M156.6,35.5
	c-0.7-0.1-1.2-0.2-1.7-0.2c-17.3,0-34.6,0-51.9,0c-1.5,0-2.1,0.4-2.2,1.9c-0.6,6.4-1.5,12.8-1.9,19.2c-0.9,17.2,0.8,34,7,50.2
	c5.3,14,13.9,25.6,26.4,34.1c10.6,7.2,22.5,11.2,35,13.3c4.6,0.8,9.3,1.2,14.5,1.9c-10.2-18.8-15.8-38.5-19.5-58.8
	C158.4,76.8,156.8,56.3,156.6,35.5z M375.1,315.1c-80.8,0-161.4,0-242.1,0c0,6.5,0,12.8,0,19.1c80.8,0,161.4,0,242.1,0
	C375.1,327.8,375.1,321.6,375.1,315.1z M184.3,304.1c46.6,0,92.9,0,139.2,0c0-6.4,0-12.7,0-19c-46.5,0-92.8,0-139.2,0
	C184.3,291.5,184.3,297.7,184.3,304.1z M209.7,274c29.6,0,59,0,88.9,0c-0.8-2.9-1.3-5.5-2.2-8c-2.2-6.5-6.3-11.6-11.9-15.6
	c-4.2-3-8.7-4.3-13.9-4.1c-11.6,0.3-23.2,0.3-34.9,0.1c-4.6-0.1-8.4,1.2-11.9,3.8c-2.3,1.7-4.5,3.5-6.3,5.6
	C212.9,261,210.5,267.1,209.7,274z M272.2,235.5c0-11.6,0-23,0-34.7c-12.2,3.4-24.3,3.2-36.4,0.1c0,11.8,0,23.2,0,34.7
	C248,235.5,260,235.5,272.2,235.5z"/>
<g>
	<g>
		<path class="st1" d="M296.5,347c-1.2,0-2.4-0.1-3.6-0.2c-8.7-1.1-14.7-5.9-17.5-13.9c-1.2-3.4-1.8-7.1-1.8-11.6l0-24
			c0-13,0-25.9,0-38.9c-6.5,18.5-12.9,37-19.4,55.5c-0.7,1.9-1.3,3.8-2,5.8c-1.7,4.8-3.4,9.8-5.1,14.6c-2,6.2-7.1,13.3-19.6,12.6
			c-6.9-0.4-12.9-3.8-16.6-9.3c-3.7-5.5-4.5-12.5-2.1-19.2c4.9-14,9.6-28.3,14.1-42.1c2.1-6.3,4.2-12.7,6.3-19
			c2.9-8.6,6.6-19.9,10.5-31.1c0-0.1-0.1-0.3-0.2-0.5c-3.4-7.9-6.8-15.8-10.2-23.7l-4.2-9.7c-0.5-1.2-1.1-2.4-1.6-3.6
			c-1.2-2.7-2.4-5.5-3.5-8.3c-2.5-6.5-4.9-15.1-1.1-24.5c1.8-4.6,4.9-8.5,9.2-11.5c7.5-5.2,14.9-10.4,22.4-15.6
			c4.5-3.1,8.9-6.2,13.4-9.3c6.5-4.5,13-9,19.5-13.6c7.5-5.2,14.9-10.4,22.4-15.6c2.6-1.8,5.2-3.5,7.7-5.3c0.1,0,0.1-0.1,0.2-0.1
			c-4.6-1.9-9.1-3.7-13.7-5.6c-12.6-5.1-25.2-10.3-37.8-15.5c-17.7-7.3-35.4-14.6-53.1-21.9L193,35.2c-0.3,0.7-0.6,1.5-0.9,2.2
			c-1,2.5-2,5.2-3.1,7.8c-3.4,8-9.9,12.5-18.4,12.5c0,0-0.1,0-0.1,0c-9.5,0-17.5-5.4-20.5-13.8c-2.5-7-2.3-13.3,0.6-19.3
			c1.8-3.7,3.5-7.7,5.1-11.5c0.7-1.6,1.4-3.2,2.1-4.9c2.6-6,8.2-8.4,14.2-6c9.2,3.7,18.4,7.4,27.6,11.1c11.4,4.6,22.9,9.2,34.3,13.8
			c10.5,4.2,21.1,8.5,31.7,12.7c8.3,3.3,16.6,6.7,24.9,10l4,1.6c16.2,6.5,32.4,13,48.6,19.5c9.9,4,15.5,14,13.3,23.8
			c-0.9,4-3,7.4-6.6,10.7c-5.9,5.3-12.4,9.8-18.6,14.1c-2.2,1.5-4.6,3.1-6.8,4.7c-11.7,8.4-23.7,16.7-35.3,24.8l-5.7,4
			c4.7,11.3,9.3,22.4,12.8,30.8c2.7,6.6,5.4,13.3,8.2,19.9c2.2,5.3,4.4,10.7,6.6,16c1.8,4.4,3.7,9,5.6,13.5c1.3,3.1,2,6.4,2,9.7
			c0,8.5,0,17.1,0,25.6c0,17.9,0,35.8,0,53.7c0,4.4-0.5,10.9-4.8,16.5C309.4,344.2,303.5,347,296.5,347z M275.5,222.9l5.4,9.8
			c1.9,3.4,2.8,6.8,2.8,10.2c0,18.1,0,36.2,0,54.3l0,24c0,3.3,0.4,6,1.2,8.3c1.5,4.3,4.5,6.6,9.3,7.3c5.1,0.7,8.7-0.7,11.5-4.3
			c1.9-2.4,2.7-5.6,2.7-10.4c0-17.9,0-35.8,0-53.7c0-8.5,0-17.1,0-25.6c0-2-0.4-3.9-1.2-5.8c-1.9-4.6-3.8-9.2-5.7-13.6
			c-2.2-5.3-4.4-10.7-6.6-16c-2.7-6.6-5.4-13.3-8.2-19.9c-3.7-8.9-8.5-20.7-13.5-32.7c-1.5-3.5-0.5-6.8,2.7-9l7.3-5.1
			c11.6-8.1,23.5-16.4,35.2-24.7c2.3-1.6,4.7-3.3,6.9-4.8c6.3-4.3,12.2-8.4,17.6-13.3c2-1.8,3.1-3.5,3.5-5.4c1.1-5-2-10.2-7.3-12.4
			c-16.2-6.5-32.4-13-48.5-19.5l-4-1.6c-8.3-3.3-16.6-6.7-24.9-10c-10.6-4.2-21.1-8.5-31.7-12.7c-11.4-4.6-22.9-9.2-34.3-13.8
			c-9.2-3.7-18.4-7.4-27.6-11.1c-0.4-0.2-0.7-0.2-0.8-0.2c-0.1,0.1-0.3,0.4-0.5,0.9c-0.7,1.6-1.4,3.2-2,4.8c-1.7,3.9-3.4,8-5.3,12
			c-1.7,3.5-1.8,7.2-0.2,11.5c1.6,4.4,5.9,7.2,11.1,7.2c4.4,0,7.4-2.1,9.2-6.4c1-2.5,2-5,3-7.5c0.5-1.3,1-2.5,1.5-3.8
			c0.9-2.2,1.7-4.3,4.2-5.4c2.5-1,4.6-0.2,6.7,0.7l17.7,7.3c17.7,7.3,35.4,14.6,53.1,21.9c12.6,5.2,25.2,10.3,37.8,15.5
			c6.6,2.7,13.3,5.4,19.9,8.1l0.1,0c3.3,1,4.3,3.2,4.6,4.8c0.2,1.2,0.3,4.3-3.4,6.3l0,0c-1.9,1.3-3.8,2.6-5.7,3.9
			c-2.6,1.7-5.1,3.5-7.7,5.3c-7.5,5.2-14.9,10.4-22.4,15.6c-6.5,4.5-13,9.1-19.5,13.6c-4.5,3.1-9,6.2-13.4,9.3
			c-7.5,5.2-14.9,10.3-22.4,15.5c-2.7,1.9-4.6,4.2-5.7,7c-1.9,4.9-1.6,10,1.2,17.2c1,2.6,2.1,5.1,3.3,7.8c0.6,1.2,1.1,2.5,1.6,3.7
			l4.2,9.7c3.4,7.9,6.8,15.8,10.2,23.7c0.5,1.2,1.8,4.1,0.6,7.5c-3.9,11.3-7.6,22.6-10.5,31.2c-2.1,6.3-4.2,12.7-6.3,19
			c-4.6,13.9-9.3,28.3-14.2,42.3c-1.3,3.7-0.9,7.4,1,10.4c1.9,2.9,5.1,4.6,8.9,4.8c5.4,0.3,8-1.2,9.5-5.8c1.6-5,3.4-10,5.1-14.8
			c0.7-1.9,1.3-3.8,2-5.7c7.1-20.4,14.3-40.8,21.4-61.2c1.2-3.6,2.5-7.1,3.8-10.7L275.5,222.9z M325.1,89.2
			C325.1,89.2,325.1,89.2,325.1,89.2C325.1,89.2,325.1,89.2,325.1,89.2z"/>
	</g>
	<g>
		<path class="st1" d="M204.3,154.1c-0.4,0-0.8,0-1.2,0c-21.9-0.6-40.3-19.5-40.2-41.3c0.1-11.4,4.5-22,12.6-29.9
			c8-7.8,18.6-12,29.9-11.9c21.5,0.3,40.1,19,40.7,40.8l0,0.1l0,0.1c-0.2,11.8-4.9,22.6-13.2,30.6C225.1,150,215,154.1,204.3,154.1z
			 M204.8,81c-8.4,0-16.3,3.2-22.2,9c-6.1,6-9.5,14.1-9.6,22.8c-0.1,16.4,13.8,30.7,30.4,31.2c8.4,0.2,16.5-2.8,22.6-8.7
			c6.4-6.1,10-14.4,10.1-23.4c-0.5-16.2-14.9-30.7-30.8-30.9C205.1,81,204.9,81,204.8,81z"/>
	</g>
</g>
</svg>
