<?xml version="1.0" encoding="utf-8"?>
<!-- Generator: Adobe Illustrator 19.0.0, SVG Export Plug-In . SVG Version: 6.00 Build 0)  -->
<svg version="1.1" id="Warstwa_1" xmlns="http://www.w3.org/2000/svg" xmlns:xlink="http://www.w3.org/1999/xlink" x="0px" y="0px"
	 viewBox="-7.6 7 58.2 38" style="enable-background:new -7.6 7 58.2 38;" xml:space="preserve">
<style type="text/css">
	.st0{fill:#848484;}
</style>
<g>
	<g>
		<path class="st0" d="M47,41.2H-3.9c-1.4,0-2.5-1.1-2.5-2.5V13.2c0-1.4,1.1-2.5,2.5-2.5H47c1.4,0,2.5,1.1,2.5,2.5v25.5
			C49.5,40.1,48.4,41.2,47,41.2z M-3.9,12c-0.7,0-1.2,0.6-1.2,1.2v25.5c0,0.7,0.6,1.2,1.2,1.2H47c0.7,0,1.2-0.6,1.2-1.2V13.2
			c0-0.7-0.6-1.2-1.2-1.2H-3.9z"/>
	</g>
	<g>
		<path class="st0" d="M44.9,38H-1.8c-0.3,0-0.6-0.3-0.6-0.6V14.3c0-0.3,0.3-0.6,0.6-0.6h46.8c0.3,0,0.6,0.3,0.6,0.6v23.1
			C45.6,37.7,45.3,38,44.9,38z M-1.2,36.8h45.5V14.9H-1.2V36.8z"/>
	</g>
	<g>
		<path class="st0" d="M27.1,43.9H16c-0.3,0-0.6-0.3-0.6-0.6c0-0.3,0.3-0.6,0.6-0.6h11c0.3,0,0.6,0.3,0.6,0.6
			C27.7,43.6,27.4,43.9,27.1,43.9z"/>
	</g>
	<g>
		<path class="st0" d="M27.1,9.4H16c-0.3,0-0.6-0.3-0.6-0.6c0-0.3,0.3-0.6,0.6-0.6h11c0.3,0,0.6,0.3,0.6,0.6
			C27.7,9.1,27.4,9.4,27.1,9.4z"/>
	</g>
	<g>
		<path class="st0" d="M6.1,22H2.4c-0.3,0-0.6-0.3-0.6-0.6s0.3-0.6,0.6-0.6h3.7c0.3,0,0.6,0.3,0.6,0.6S6.4,22,6.1,22z"/>
	</g>
	<g>
		<path class="st0" d="M2.4,25.3c-0.3,0-0.6-0.3-0.6-0.6v-6.6c0-0.3,0.3-0.6,0.6-0.6S3,17.7,3,18.1v6.6C3,25,2.7,25.3,2.4,25.3z"/>
	</g>
	<g>
		<path class="st0" d="M6.1,25.3c-0.3,0-0.6-0.3-0.6-0.6v-6.6c0-0.3,0.3-0.6,0.6-0.6s0.6,0.3,0.6,0.6v6.6C6.7,25,6.4,25.3,6.1,25.3z
			"/>
	</g>
	<g>
		<path class="st0" d="M8.8,25.3c-0.3,0-0.6-0.3-0.6-0.6v-6.6c0-0.3,0.3-0.6,0.6-0.6c2.5,0,4.3,1.6,4.3,3.9S11.3,25.3,8.8,25.3z
			 M9.4,18.7V24c1.5-0.2,2.4-1.2,2.4-2.6S10.9,18.9,9.4,18.7z"/>
	</g>
</g>
</svg>
