<?xml version="1.0" encoding="utf-8"?>
<!-- Generator: Adobe Illustrator 19.0.0, SVG Export Plug-In . SVG Version: 6.00 Build 0)  -->
<svg version="1.1" id="Warstwa_1" xmlns="http://www.w3.org/2000/svg" xmlns:xlink="http://www.w3.org/1999/xlink" x="0px" y="0px"
	 viewBox="-8 7 31.5 38" style="enable-background:new -8 7 31.5 38;" xml:space="preserve">
<style type="text/css">
	.st0{fill:none;}
	.st1{fill:#838383;}
</style>
<g id="XMLID_2474_">
	<path id="XMLID_2598_" class="st0" d="M2.8,13.9l0.3,2.2h7.5c0-0.2,0-0.4,0-0.6c0-1.1-0.3-2.1-0.8-3l-0.5-0.1L2.8,13.9z"/>
	<path id="XMLID_2599_" class="st0" d="M11.9,16.1h3.5l0.5-2.2l-4.4-1c0.3,0.8,0.5,1.7,0.5,2.6C12,15.7,12,15.9,11.9,16.1z"/>
	<path id="XMLID_2600_" class="st0" d="M8.9,19.7c0.6-0.6,1.1-1.4,1.4-2.2H4.7C5.4,18.2,6.8,19.1,8.9,19.7z"/>
	<path id="XMLID_2603_" class="st0" d="M3.8,28.3c-1.1-1.3-1.8-3-1.8-4.9v-6.7l-0.5-3.1c-0.1-0.3,0.2-0.7,0.5-0.7l7-1.6
		c-1.1-1.1-2.6-1.7-4.2-1.7c-3.3,0-6,2.7-6,6c0,0.7,0.1,1.4,0.4,2.1c0.1,0.2,0.1,0.3,0,0.5c-0.1,0.2-0.2,0.3-0.4,0.3
		c-2.5,0.8-4.1,3.1-4.1,5.7c0,3,2.2,5.4,5,5.9C0.7,29.1,2.1,28.5,3.8,28.3C3.8,28.3,3.8,28.3,3.8,28.3z"/>
	<path id="XMLID_2604_" class="st0" d="M9.3,30.8c-1.5,0-2.8-0.4-4-1.2c-0.1,0.1-0.2,0.2-0.4,0.3c0.3,2.2,2.2,3.9,4.4,3.9
		c2.4,0,4.3-1.9,4.5-4.2h-0.4C12.3,30.3,10.9,30.8,9.3,30.8z"/>
	<path id="XMLID_2605_" class="st0" d="M6.1,22c-0.1-0.2-0.1-0.4,0-0.5c0.1-0.2,0.2-0.3,0.4-0.3c0.4-0.1,0.7-0.3,1.1-0.5
		c-2.5-0.9-3.8-2.1-4.4-2.7v5.4c0,1.8,0.8,3.4,2,4.5c0.8-1,1.3-2.3,1.3-3.7C6.5,23.4,6.4,22.7,6.1,22z"/>
	<path id="XMLID_2608_" class="st0" d="M9.4,35.1c-2.7,0-5-1.9-5.6-4.4c-1,0.5-2.1,0.8-3.3,0.8c-0.2,0-0.4,0-0.6,0
		c-1.4,1.3-2.2,3.1-2.2,5.1v6H21v-6c0-3.4-2.5-6.3-5.8-6.9C15,32.7,12.5,35.1,9.4,35.1z M15.9,36.9h3.2c0.4,0,0.7,0.3,0.7,0.6
		s-0.3,0.6-0.7,0.6h-3.2c-0.4,0-0.7-0.3-0.7-0.6S15.6,36.9,15.9,36.9z"/>
	<path id="XMLID_2609_" class="st0" d="M9.2,21.2c-0.5,0.4-1.1,0.7-1.7,1c0.2,0.6,0.3,1.3,0.3,1.9c0,1.4-0.4,2.7-1.1,3.9h6.6
		c1.3-1.1,2.1-2.8,2.1-4.6v-1.6c-0.2,0-0.4,0-0.6,0C12.6,21.9,10.8,21.6,9.2,21.2z"/>
	<path id="XMLID_2610_" class="st0" d="M10.3,20.1c1.4,0.3,3.1,0.5,5.1,0.4v-3h-3.7C11.4,18.5,10.9,19.4,10.3,20.1z"/>
	<path id="XMLID_2612_" class="st1" d="M13.9,29.5c0-0.1,0-0.2,0-0.2h-0.1c-0.1,0.1-0.2,0.2-0.3,0.2H13.9z"/>
	<path id="XMLID_2613_" class="st1" d="M15.1,28.3c0.1,0.1,0.1,0.2,0.1,0.3v0.6c0,0.1,0,0.2,0,0.4c3.3,0.5,5.8,3.4,5.8,6.9v6H-2.3
		v-6c0-2,0.9-3.8,2.2-5.1c-0.5,0-1-0.1-1.5-0.3c-1.2,1.4-2,3.3-2,5.4v7.3h25.9v-7.3C22.3,32.3,19.1,28.8,15.1,28.3z"/>
	<path id="XMLID_2615_" class="st1" d="M15.9,38.2h3.2c0.4,0,0.7-0.3,0.7-0.6s-0.3-0.6-0.7-0.6h-3.2c-0.4,0-0.7,0.3-0.7,0.6
		S15.6,38.2,15.9,38.2z"/>
	<path id="XMLID_2690_" class="st1" d="M3.7,28.3C3.8,28.3,3.8,28.3,3.7,28.3C3.8,28.3,3.8,28.3,3.7,28.3
		C3.8,28.3,3.8,28.3,3.7,28.3z"/>
	<path id="XMLID_2691_" class="st1" d="M13.9,29.5c-0.1,2.4-2.1,4.2-4.5,4.2c-2.3,0-4.1-1.7-4.4-3.9c-0.4,0.3-0.8,0.5-1.2,0.8
		c0.6,2.5,2.9,4.4,5.6,4.4c3.1,0,5.6-2.4,5.8-5.4c-0.4-0.1-0.8-0.1-1.1-0.1H13.9z"/>
	<path id="XMLID_2692_" class="st1" d="M15.1,28.3c0,0-0.1-0.1-0.1-0.1c0,0-0.1,0.1-0.1,0.1C14.9,28.3,15,28.3,15.1,28.3z"/>
	<path id="XMLID_2693_" class="st1" d="M13.8,29.3h0.1c0,0.1,0,0.2,0,0.2H14c0.4,0,0.8,0,1.1,0.1c0-0.1,0-0.2,0-0.4v-0.6
		c0-0.1,0-0.2-0.1-0.3c-0.1,0-0.1,0-0.2,0C14.5,28.7,14.2,29,13.8,29.3z"/>
	<path id="XMLID_2807_" class="st1" d="M-0.5,30.1c-2.8-0.5-5-3-5-5.9c0-2.6,1.7-4.9,4.1-5.7c0.2-0.1,0.3-0.2,0.4-0.3
		c0.1-0.2,0.1-0.3,0-0.5c-0.3-0.7-0.4-1.4-0.4-2.1c0-3.3,2.7-6,6-6c1.6,0,3.1,0.7,4.2,1.7l0.4-0.1c0.1,0,0.2,0,0.3,0l1.2,0.3
		c-1.3-1.9-3.5-3.2-6-3.2c-4,0-7.3,3.3-7.3,7.3c0,0.7,0.1,1.3,0.3,1.9c-2.7,1.1-4.4,3.8-4.4,6.7c0,3.3,2.2,6.1,5.2,7
		C-1.3,30.7-0.9,30.4-0.5,30.1z"/>
	<path id="XMLID_2811_" class="st1" d="M5.2,29.5H4.9c0,0.1,0,0.3,0,0.4c0.1-0.1,0.2-0.2,0.4-0.3C5.3,29.6,5.2,29.6,5.2,29.5z"/>
	<path id="XMLID_2816_" class="st1" d="M3.8,30.7c-0.1-0.3-0.1-0.7-0.2-1c-1.4,0.2-2.7,0.9-3.7,1.8c0.2,0,0.4,0,0.6,0
		C1.7,31.5,2.8,31.2,3.8,30.7z"/>
	<path id="XMLID_2817_" class="st1" d="M4.9,29.3c0,0.1,0,0.1,0,0.2h0.3C5.1,29.5,5,29.4,4.9,29.3z"/>
	<path id="XMLID_2818_" class="st1" d="M3.6,29.6c0-0.1,0-0.2,0-0.3v0c-0.9,0.5-2,0.9-3.1,0.9c-0.4,0-0.7,0-1-0.1
		c-0.4,0.3-0.8,0.7-1.1,1.1c0.5,0.2,1,0.2,1.5,0.3C0.9,30.5,2.2,29.8,3.6,29.6z"/>
	<path id="XMLID_2820_" class="st1" d="M5,29.9c0-0.1,0-0.2,0-0.4H4.6c-0.3,0-0.7,0-1,0.1c0,0.4,0.1,0.7,0.2,1
		C4.2,30.5,4.6,30.2,5,29.9z"/>
	<path id="XMLID_3494_" class="st1" d="M4.9,29.5c0-0.1,0-0.1,0-0.2c-0.2-0.2-0.4-0.3-0.6-0.5c-0.2,0.2-0.4,0.3-0.7,0.5v0
		c0,0.1,0,0.2,0,0.3c0.3,0,0.7-0.1,1-0.1H4.9z"/>
	<path id="XMLID_3496_" class="st1" d="M4.3,28h0.8c0,0,0.1-0.1,0.1-0.1c-1.2-1.1-2-2.7-2-4.5V18c-0.2-0.2-0.3-0.4-0.3-0.4H2.6
		C2.3,17.6,2,17.3,2,17l-0.1-0.4v6.7c0,1.9,0.7,3.6,1.8,4.9C3.9,28.1,4.1,28,4.3,28z"/>
	<path id="XMLID_3497_" class="st1" d="M15.9,17.6h-0.5v3c0.2,0,0.3,0,0.5,0c0,0,0,0,0,0c0.3,0,0.6,0.3,0.6,0.6
		c0,0.4-0.3,0.7-0.6,0.7c-0.2,0-0.3,0-0.5,0v1.6c0,1.8-0.8,3.5-2.1,4.6h1.2c0.2,0,0.3,0.1,0.4,0.2c1.1-1.3,1.8-3,1.8-4.8v-7.1
		l-0.2,0.8C16.5,17.4,16.2,17.6,15.9,17.6z"/>
	<path id="XMLID_3498_" class="st1" d="M10.6,16.3c0-0.1,0-0.1,0-0.2H3.1l0,0.2H10.6z"/>
	<path id="XMLID_3499_" class="st1" d="M11.9,16.3h3.5l0-0.2h-3.5C11.9,16.1,11.9,16.2,11.9,16.3z"/>
	<path id="XMLID_3500_" class="st1" d="M9.3,30.8c1.5,0,2.9-0.5,4.1-1.3h-8c0,0-0.1,0.1-0.1,0.1C6.5,30.4,7.9,30.8,9.3,30.8z"/>
	<path id="XMLID_3501_" class="st1" d="M9.3,29.5c-0.5,0-1-0.1-1.5-0.2H5.7c-0.1,0.1-0.2,0.2-0.3,0.2h8c0.1-0.1,0.2-0.2,0.3-0.2h-3
		C10.3,29.4,9.8,29.5,9.3,29.5z"/>
	<path id="XMLID_3502_" class="st1" d="M4.9,28.2C5,28.2,5,28.1,5.1,28H4.3c-0.2,0-0.4,0.1-0.5,0.3c0,0,0,0,0,0c0.3,0,0.6,0,0.9,0
		H4.9z"/>
	<path id="XMLID_3503_" class="st1" d="M13.3,28c-0.1,0.1-0.2,0.2-0.3,0.2h1c0.3,0,0.6,0,0.9,0c0,0,0.1-0.1,0.1-0.1
		c-0.1-0.1-0.3-0.2-0.4-0.2H13.3z"/>
	<path id="XMLID_3504_" class="st1" d="M13.8,29.3c0.4-0.3,0.8-0.6,1.1-1c-0.3,0-0.6,0-0.9,0h-1c-0.6,0.5-1.4,0.9-2.2,1.1H13.8z"/>
	<path id="XMLID_3505_" class="st1" d="M4.9,28.2H4.6c-0.3,0-0.6,0-0.9,0c0.2,0.2,0.3,0.4,0.5,0.5C4.5,28.6,4.7,28.5,4.9,28.2z"/>
	<path id="XMLID_3506_" class="st1" d="M5.7,29.3h2.2c-0.6-0.1-1.1-0.4-1.6-0.6C6.1,28.9,5.9,29.1,5.7,29.3z"/>
	<path id="XMLID_3507_" class="st1" d="M5.3,29.6C5.4,29.6,5.4,29.6,5.3,29.6l-0.1-0.1C5.2,29.6,5.3,29.6,5.3,29.6z"/>
	<path id="XMLID_3508_" class="st1" d="M10.6,16.1c0,0.1,0,0.1,0,0.2h1.3c0-0.1,0-0.1,0-0.2H10.6z"/>
	<path id="XMLID_3509_" class="st1" d="M5.2,27.9c0,0-0.1,0.1-0.1,0.1h0.2C5.3,28,5.3,27.9,5.2,27.9z"/>
	<path id="XMLID_3510_" class="st1" d="M5.4,29.5c0.1-0.1,0.2-0.2,0.3-0.2H4.9c0,0,0,0,0,0c0.1,0.1,0.2,0.1,0.3,0.2H5.4z"/>
	<path id="XMLID_3511_" class="st1" d="M5.1,28C5,28.1,5,28.2,4.9,28.2h0.7c-0.1-0.1-0.2-0.2-0.3-0.2H5.1z"/>
	<path id="XMLID_3512_" class="st1" d="M5.7,29.3c0.2-0.2,0.4-0.4,0.6-0.6c-0.2-0.1-0.4-0.3-0.6-0.4H4.9c-0.2,0.2-0.4,0.4-0.6,0.6
		c0.2,0.2,0.4,0.4,0.6,0.5c0,0,0,0,0,0H5.7z"/>
	<path id="XMLID_3513_" class="st1" d="M10.3,20.1c-0.3,0.4-0.7,0.8-1.1,1.1c1.5,0.4,3.4,0.6,5.7,0.6c0.2,0,0.4,0,0.6,0v-1.3
		C13.4,20.6,11.7,20.4,10.3,20.1z"/>
	<path id="XMLID_3514_" class="st1" d="M7.6,20.7c0.5-0.3,0.9-0.6,1.3-1c-2.1-0.6-3.5-1.5-4.2-2.2H3.2V18
		C3.8,18.6,5.2,19.8,7.6,20.7z"/>
	<path id="XMLID_3515_" class="st1" d="M7.6,20.7c0.5,0.2,1,0.3,1.6,0.5c0.4-0.3,0.8-0.7,1.1-1.1c-0.5-0.1-1-0.2-1.4-0.4
		C8.5,20.1,8.1,20.4,7.6,20.7z"/>
	<path id="XMLID_3516_" class="st1" d="M2.9,17.6c0,0.1,0.2,0.2,0.3,0.4v-0.4H2.9z"/>
	<path id="XMLID_3517_" class="st1" d="M15.9,21.8c0.4,0,0.6-0.3,0.6-0.7c0-0.4-0.3-0.6-0.6-0.6c0,0,0,0,0,0c-0.2,0-0.3,0-0.5,0v1.3
		C15.6,21.8,15.8,21.8,15.9,21.8z"/>
	<path id="XMLID_3518_" class="st1" d="M4.7,17.6h5.6c0-0.1,0.1-0.1,0.1-0.2H4.5C4.5,17.4,4.6,17.5,4.7,17.6z"/>
	<path id="XMLID_3519_" class="st1" d="M1.4,13.5l0.5,3.1v-0.6h1.2l-0.3-2.2l6.6-1.5l0.5,0.1c-0.3-0.5-0.6-0.9-1-1.3l-7,1.6
		C1.6,12.9,1.4,13.2,1.4,13.5z"/>
	<path id="XMLID_3520_" class="st1" d="M16,13.9l-0.5,2.2h1.3v0.2l0.6-2.7c0-0.2,0-0.3-0.1-0.5s-0.2-0.3-0.4-0.3l-6.1-1.4
		c0.3,0.5,0.6,1,0.8,1.5L16,13.9z"/>
	<path id="XMLID_3521_" class="st1" d="M15.4,17.6v-0.2h-3.7c0,0.1,0,0.1,0,0.2H15.4z"/>
	<path id="XMLID_3522_" class="st1" d="M10.3,17.6h1.4c0-0.1,0-0.1,0-0.2h-1.3C10.4,17.4,10.3,17.5,10.3,17.6z"/>
	<path id="XMLID_3523_" class="st1" d="M9.3,11.1l-0.4,0.1c0.4,0.4,0.7,0.8,1,1.3l1.6,0.4c-0.2-0.5-0.5-1-0.8-1.5l-1.2-0.3
		C9.5,11.1,9.4,11.1,9.3,11.1z"/>
	<path id="XMLID_3524_" class="st1" d="M15.4,16.1l0,0.2h-3.5c0,0.4-0.1,0.7-0.2,1.1h3.7v0.2h0.5c0.3,0,0.6-0.2,0.6-0.5l0.2-0.8
		v-0.2H15.4z"/>
	<path id="XMLID_3525_" class="st1" d="M2.6,17.6h0.3c0,0,0,0,0,0c-0.2-0.3-0.1-0.7,0.2-0.9c0.3-0.2,0.7-0.1,0.9,0.2
		c0,0,0.2,0.2,0.5,0.6h5.9c0.1-0.4,0.2-0.7,0.2-1.1H3.2l0-0.2H1.9v0.6L2,17C2,17.3,2.3,17.6,2.6,17.6z"/>
	<path id="XMLID_3526_" class="st1" d="M10.4,17.4h1.3c0.1-0.4,0.2-0.7,0.2-1.1h-1.3C10.6,16.6,10.5,17,10.4,17.4z"/>
	<path id="XMLID_3527_" class="st1" d="M3.2,17.6h1.5c-0.1-0.1-0.2-0.1-0.2-0.2H3.2V17.6z"/>
	<path id="XMLID_3528_" class="st1" d="M3.2,17.4h1.2c-0.4-0.3-0.5-0.6-0.5-0.6c-0.2-0.3-0.6-0.4-0.9-0.2c-0.3,0.2-0.4,0.6-0.2,0.9
		c0,0,0,0,0,0h0.3V17.4z"/>
</g>
</svg>
