<?xml version="1.0" encoding="utf-8"?>
<!-- Generator: Adobe Illustrator 24.1.0, SVG Export Plug-In . SVG Version: 6.00 Build 0)  -->
<svg version="1.1" id="Layer_1" xmlns="http://www.w3.org/2000/svg" xmlns:xlink="http://www.w3.org/1999/xlink" x="0px" y="0px"
	 viewBox="0 0 174 147.1" style="enable-background:new 0 0 174 147.1;" xml:space="preserve">
<style type="text/css">
	.st0{fill:#EAEAEA;}
	.st1{fill:#FFFFFF;}
	.st2{fill:#E22649;stroke:#1D1D1A;stroke-width:0.6174;stroke-linecap:round;stroke-linejoin:round;stroke-miterlimit:10;}
	.st3{fill:#B21E44;}
	.st4{fill:none;stroke:#1D1D1A;stroke-width:0.6174;stroke-linecap:round;stroke-linejoin:round;stroke-miterlimit:10;}
	.st5{fill:#41A792;}
	.st6{fill:#137E6C;}
	.st7{fill:#EE5481;}
	.st8{fill-rule:evenodd;clip-rule:evenodd;fill:#FEED58;}
	.st9{fill:none;stroke:#FFFFFF;stroke-width:2;stroke-linecap:round;stroke-linejoin:round;stroke-miterlimit:10;}
	.st10{fill:none;stroke:#1D1D1A;stroke-width:0.4183;stroke-linecap:round;stroke-linejoin:round;stroke-miterlimit:10;}
	.st11{fill:#F89521;stroke:#1D1D1A;stroke-width:0.4183;stroke-linecap:round;stroke-linejoin:round;stroke-miterlimit:10;}
	.st12{fill:#FCE07F;}
	.st13{fill:#EE4F9C;}
	.st14{fill:#F15E62;}
	.st15{fill:url(#SVGID_3_);}
	.st16{fill:url(#SVGID_4_);}
	.st17{fill:#ED1C2E;}
	.st18{fill:none;stroke:#ED1C2E;stroke-miterlimit:10;}
	.st19{fill:none;stroke:#ED1C2E;stroke-width:1.1349;stroke-miterlimit:10;}
	.st20{fill:none;stroke:#ED1C2E;stroke-width:0.9994;stroke-miterlimit:10;}
	.st21{fill:#414042;}
	.st22{fill:#808083;}
	.st23{fill:#D1E7F6;}
	.st24{clip-path:url(#SVGID_6_);}
	.st25{fill:#96CBED;}
	.st26{fill:none;stroke:#1D1D1A;stroke-width:0.9695;stroke-miterlimit:10;}
	.st27{clip-path:url(#XMLID_9_);}
	.st28{fill:none;stroke:#1D1E1C;stroke-width:0.6683;stroke-miterlimit:10;}
	.st29{clip-path:url(#XMLID_10_);}
	.st30{fill:none;stroke:#1D1E1C;stroke-width:0.7287;stroke-miterlimit:10;}
	.st31{fill:#818285;}
	.st32{fill:#FBDE4B;stroke:#010101;stroke-width:0.3984;stroke-miterlimit:10;}
	.st33{fill:#E7B122;}
	.st34{fill:#F9E9AD;}
	.st35{fill:none;stroke:#010101;stroke-width:0.3984;stroke-miterlimit:10;}
	.st36{fill:#F69320;stroke:#1D1D1A;stroke-width:0.901;stroke-linecap:round;stroke-linejoin:round;stroke-miterlimit:10;}
	.st37{fill:#FBDF7F;stroke:#1D1D1A;stroke-width:0.901;stroke-linecap:round;stroke-linejoin:round;stroke-miterlimit:10;}
	.st38{fill:none;stroke:#1D1D1A;stroke-width:0.901;stroke-linecap:round;stroke-linejoin:round;stroke-miterlimit:10;}
	.st39{fill:#F69320;stroke:#1D1D1A;stroke-width:0.7813;stroke-linecap:round;stroke-linejoin:round;stroke-miterlimit:10;}
	.st40{fill:#FBDF7F;stroke:#1D1D1A;stroke-width:0.7813;stroke-linecap:round;stroke-linejoin:round;stroke-miterlimit:10;}
	.st41{fill:none;stroke:#1D1D1A;stroke-width:0.7813;stroke-linecap:round;stroke-linejoin:round;stroke-miterlimit:10;}
	.st42{clip-path:url(#SVGID_8_);}
	.st43{fill:none;stroke:#1D1D1A;stroke-width:1.0086;stroke-miterlimit:10;}
	.st44{clip-path:url(#SVGID_10_);}
	.st45{fill:none;stroke:#1D1D1A;stroke-width:1.2296;stroke-miterlimit:10;}
	.st46{fill:#FBDE4B;stroke:#010101;stroke-width:0.5245;stroke-miterlimit:10;}
	.st47{fill:none;stroke:#010101;stroke-width:0.5245;stroke-miterlimit:10;}
	.st48{opacity:0.8;}
	.st49{clip-path:url(#SVGID_12_);}
	.st50{fill:none;stroke:#1D1D1A;stroke-width:1.4149;stroke-miterlimit:10;}
	.st51{fill:#701C26;stroke:#1D1D1A;stroke-width:0.4323;stroke-miterlimit:10;}
	.st52{fill:#791123;}
	.st53{fill:#7D1C2C;}
	.st54{fill:#D41F3C;}
	.st55{fill:#84C77F;}
	.st56{fill:#1D1D1A;}
	.st57{fill:#F393B2;}
	.st58{fill:#F1F1F1;}
	.st59{fill:#A41D36;}
	.st60{fill:#701C26;stroke:#1D1D1A;stroke-width:0.6751;stroke-miterlimit:10;}
	.st61{fill:#0F6D61;}
	.st62{fill:#16B199;}
	.st63{fill:#2CA694;}
	.st64{fill:#F5BFD8;stroke:#1D1D1A;stroke-width:0.5647;stroke-miterlimit:10;}
	.st65{fill:#ED74A4;}
	.st66{fill:#F5BFD8;}
	.st67{fill:none;stroke:#1D1D1A;stroke-width:0.5647;stroke-miterlimit:10;}
	.st68{clip-path:url(#SVGID_14_);fill:#ED74A4;}
	.st69{clip-path:url(#SVGID_16_);fill:#ED74A4;}
	.st70{clip-path:url(#SVGID_18_);fill:#ED74A4;}
	.st71{fill:#E22649;stroke:#1D1D1A;stroke-width:0.8046;stroke-linecap:round;stroke-linejoin:round;stroke-miterlimit:10;}
	.st72{fill:none;stroke:#1D1D1A;stroke-width:0.8046;stroke-linecap:round;stroke-linejoin:round;stroke-miterlimit:10;}
	.st73{fill:#AA203C;stroke:#1D1D1A;stroke-width:0.7689;stroke-linecap:round;stroke-linejoin:round;stroke-miterlimit:10;}
	.st74{fill:#E22649;stroke:#1D1D1A;stroke-width:0.7689;stroke-linecap:round;stroke-linejoin:round;stroke-miterlimit:10;}
	.st75{fill:none;stroke:#1D1D1A;stroke-width:0.7689;stroke-linecap:round;stroke-linejoin:round;stroke-miterlimit:10;}
	.st76{fill:#CFDDE8;stroke:#010101;stroke-width:0.3659;stroke-miterlimit:10;}
	.st77{fill:#ACCFE4;}
	.st78{fill:#132B47;}
	.st79{fill:#314E73;}
	.st80{fill:none;stroke:#010101;stroke-width:0.3659;stroke-miterlimit:10;}
	.st81{fill:#701C26;stroke:#1D1D1A;stroke-width:0.4575;stroke-miterlimit:10;}
	.st82{fill:#0B5C50;}
	.st83{fill:#FFFBF3;stroke:#010101;stroke-width:0.3398;stroke-miterlimit:10;}
	.st84{fill:#CA3130;}
	.st85{fill:#D7D6D6;}
	.st86{fill:#262322;}
	.st87{fill:#010101;}
	.st88{fill:#F69320;stroke:#1D1D1A;stroke-width:0.6843;stroke-linecap:round;stroke-linejoin:round;stroke-miterlimit:10;}
	.st89{fill:#FBDF7F;stroke:#1D1D1A;stroke-width:0.6843;stroke-linecap:round;stroke-linejoin:round;stroke-miterlimit:10;}
	.st90{fill:none;stroke:#1D1D1A;stroke-width:0.6843;stroke-linecap:round;stroke-linejoin:round;stroke-miterlimit:10;}
	.st91{fill:#E22649;stroke:#1D1D1A;stroke-width:0.9466;stroke-linecap:round;stroke-linejoin:round;stroke-miterlimit:10;}
	.st92{fill:none;stroke:#1D1D1A;stroke-width:0.9466;stroke-linecap:round;stroke-linejoin:round;stroke-miterlimit:10;}
	.st93{fill:none;stroke:#FFFFFF;stroke-width:3.0665;stroke-linecap:round;stroke-linejoin:round;stroke-miterlimit:10;}
	.st94{clip-path:url(#XMLID_11_);}
	.st95{fill:none;stroke:#1D1E1C;stroke-width:1.0246;stroke-miterlimit:10;}
	.st96{fill:#701C26;stroke:#1D1D1A;stroke-width:0.7014;stroke-miterlimit:10;}
	.st97{fill:#F69320;stroke:#1D1D1A;stroke-width:1.0493;stroke-linecap:round;stroke-linejoin:round;stroke-miterlimit:10;}
	.st98{fill:#FBDF7F;stroke:#1D1D1A;stroke-width:1.0493;stroke-linecap:round;stroke-linejoin:round;stroke-miterlimit:10;}
	.st99{fill:none;stroke:#1D1D1A;stroke-width:1.0493;stroke-linecap:round;stroke-linejoin:round;stroke-miterlimit:10;}
	.st100{fill:none;stroke:#1D1D1A;stroke-width:0.9564;stroke-miterlimit:10;}
	.st101{fill:#F69320;stroke:#1D1D1A;stroke-width:0.9564;stroke-linecap:round;stroke-linejoin:round;stroke-miterlimit:10;}
	.st102{fill:#F69320;stroke:#1D1D1A;stroke-width:0.9564;stroke-miterlimit:10;}
	.st103{fill:none;stroke:#1D1D1A;stroke-width:0.9564;stroke-linecap:round;stroke-linejoin:round;stroke-miterlimit:10;}
	.st104{fill:#FFFFFF;stroke:#1D1D1A;stroke-width:0.9564;stroke-miterlimit:10;}
	.st105{fill:#FBDF7F;stroke:#1D1D1A;stroke-width:0.9564;stroke-miterlimit:10;}
	.st106{clip-path:url(#SVGID_22_);}
	.st107{fill:#EBEBEB;}
	.st108{fill:#F4F4F4;}
	.st109{fill:none;stroke:#1D1D1A;stroke-width:0.9129;stroke-miterlimit:10;}
	.st110{fill:#FFFFFF;stroke:#1D1D1A;stroke-width:0.9129;stroke-miterlimit:10;}
	.st111{fill:#1D1D1A;stroke:#FFFFFF;stroke-width:0.9129;stroke-miterlimit:10;}
	.st112{fill:none;}
	.st113{clip-path:url(#SVGID_24_);}
	.st114{fill:none;stroke:#1D1D1A;stroke-width:1.2485;stroke-miterlimit:10;}
	.st115{clip-path:url(#SVGID_26_);}
	.st116{fill:none;stroke:#1D1D1A;stroke-width:0.6231;stroke-miterlimit:10;}
	.st117{clip-path:url(#SVGID_28_);}
	.st118{fill:none;stroke:#1D1D1A;stroke-width:0.7843;stroke-miterlimit:10;}
	.st119{clip-path:url(#SVGID_30_);}
	.st120{fill:none;stroke:#1D1D1A;stroke-width:0.7764;stroke-miterlimit:10;}
	.st121{clip-path:url(#SVGID_32_);}
	.st122{fill:none;stroke:#1D1D1A;stroke-width:1.4864;stroke-miterlimit:10;}
	.st123{clip-path:url(#XMLID_12_);}
	.st124{fill:none;stroke:#1D1E1C;stroke-width:1.1173;stroke-miterlimit:10;}
</style>
<g>
	<g>
		<g>
			<g>
				<g>
					<path class="st17" d="M143,70.4C143,70.4,143,70.4,143,70.4c-5.2,0.1-9.5-4-9.7-9.2c0-1.1-0.9-1.9-1.9-1.9c0,0,0,0,0,0h-4.6
						L87.1,19.4c-0.8-0.8-2-0.8-2.7,0c0,0,0,0,0,0c-3.8,3.6-9.8,3.5-13.4-0.3c-0.8-0.8-2-0.8-2.7,0c0,0,0,0,0,0L43,44.4
						c-0.8,0.8-0.8,2,0,2.7c0,0,0,0,0,0c3.3,3.2,3.8,8.4,1.2,12.2h-1.7c-1.1,0-1.9,0.9-1.9,1.9c0,0,0,0,0,0
						c-0.1,5.2-4.4,9.3-9.7,9.2c-1.1,0-1.9,0.9-1.9,1.9c0,0,0,0,0,0V108c0,1.1,0.9,1.9,1.9,1.9c0,0,0,0,0,0c5.2-0.1,9.5,4,9.7,9.2
						c0,1.1,0.9,1.9,1.9,1.9c0,0,0,0,0,0h88.9c1.1,0,1.9-0.9,1.9-1.9c0,0,0,0,0,0c0-0.6,0.1-1.2,0.2-1.8c0.8-3.6,3.6-6.3,7.2-7.1
						c0.8-0.2,1.5-0.3,2.3-0.3c1.1,0,1.9-0.9,1.9-1.9c0,0,0,0,0,0V72.4C145,71.3,144.1,70.4,143,70.4z M69.7,23.2
						c4.7,3.6,11.1,3.7,15.9,0.3l35.8,35.8h-12.6C105.1,53,98.6,48.8,91.4,48c-1.6-0.2-3.3-0.2-5,0c-7.3,0.8-13.8,5-17.5,11.3H48.7
						c1.9-4.5,1.2-9.6-1.7-13.5L69.7,23.2z M104.1,59.3H93.1l-1.8-3.9c-0.6-1.3-2.2-1.9-3.5-1.3c-0.6,0.3-1,0.7-1.3,1.3l-1.8,3.9
						H73.6c3.2-4.2,8-6.9,13.3-7.5c1.4-0.2,2.7-0.2,4.1,0C96.2,52.4,100.9,55.1,104.1,59.3z M141.1,106.2c-0.4,0.1-0.8,0.1-1.3,0.2
						c-5,1.1-8.9,5.1-10.1,10.1c0,0.2-0.1,0.5-0.1,0.7H44.3c-1-5.8-5.6-10.3-11.4-11v-32c5.8-0.8,10.5-5.2,11.4-11h85.3
						c1,5.8,5.6,10.3,11.4,11L141.1,106.2L141.1,106.2z"/>
				</g>
			</g>
		</g>
		<g>
			<g>
				<g>
					<path class="st21" d="M44.5,84.4c-4.3,0-7.7,3.5-7.7,7.7s3.5,7.7,7.7,7.7s7.7-3.5,7.7-7.7C52.2,87.9,48.7,84.4,44.5,84.4z
						 M44.5,96c-2.1,0-3.9-1.7-3.9-3.9c0-2.1,1.7-3.9,3.9-3.9s3.9,1.7,3.9,3.9C48.3,94.3,46.6,96,44.5,96z"/>
				</g>
			</g>
		</g>
		<g>
			<g>
				<g>
					<path class="st21" d="M110,87.8c-1.2-10.8-9.7-19.3-20.5-20.5l0,0c-1.6-0.2-3.3-0.2-4.9,0C71.9,68.7,62.7,80,64,92.7
						c1.2,10.8,9.7,19.3,20.5,20.5c0.8,0.1,1.7,0.1,2.5,0.1c0.8,0,1.6,0,2.5-0.1C102.1,111.9,111.3,100.5,110,87.8z M106.1,92.3
						c-1,9-8.1,16.1-17.1,17.1l0,0c-1.4,0.2-2.7,0.1-4.1,0c-10.6-1.1-18.2-10.6-17.1-21.2c1-9,8.1-16.1,17.1-17.1
						c0.7-0.1,1.4-0.1,2-0.1c0.7,0,1.4,0,2.1,0.1C99.6,72.3,107.3,81.8,106.1,92.3z"/>
				</g>
			</g>
		</g>
		<g>
			<g>
				<g>
					<path class="st21" d="M101.7,83.8c-0.4-0.4-0.9-0.6-1.4-0.7l-7.5-1.2l-3.4-7.2c-0.6-1.3-2.2-1.9-3.5-1.3
						c-0.6,0.3-1,0.7-1.3,1.3l-3.4,7.2l-7.5,1.2c-1.4,0.2-2.4,1.6-2.2,3c0.1,0.5,0.3,1.1,0.7,1.4l5.5,5.7l-1.3,8
						c-0.2,1.4,0.7,2.8,2.2,3c0.6,0.1,1.2,0,1.7-0.3l6.7-3.7l6.7,3.7c1.3,0.7,2.9,0.2,3.6-1c0.3-0.5,0.4-1.1,0.3-1.7l-1.3-8l5.5-5.7
						C102.8,86.5,102.8,84.8,101.7,83.8z M93.1,91c-0.6,0.6-0.8,1.4-0.7,2.3l1,6.1l-5.1-2.8c-0.8-0.4-1.8-0.4-2.6,0l-5.1,2.8l1-6.1
						c0.1-0.8-0.1-1.7-0.7-2.3l-4.3-4.4l5.8-0.9c0.9-0.1,1.6-0.7,2-1.5l2.5-5.4l2.5,5.4c0.4,0.8,1.1,1.4,2,1.5l5.9,0.9L93.1,91z"/>
				</g>
			</g>
		</g>
		<g>
			<g>
				<g>
					<path class="st21" d="M119.3,65.6c-0.6-0.5-1.4-0.7-2.1-0.4c-0.2,0.1-0.5,0.2-0.6,0.4c-0.7,0.8-0.7,2,0,2.7
						c0.2,0.2,0.4,0.3,0.6,0.4c0.2,0.1,0.5,0.2,0.7,0.2c1.1,0,1.9-0.9,1.9-1.9C119.9,66.5,119.7,66,119.3,65.6z"/>
				</g>
			</g>
		</g>
		<g>
			<g>
				<g>
					<path class="st21" d="M119.7,74c-0.1-0.2-0.2-0.4-0.4-0.6c-0.6-0.5-1.4-0.7-2.1-0.4c-0.2,0.1-0.5,0.2-0.6,0.4
						c-0.2,0.2-0.3,0.4-0.4,0.6c-0.2,0.5-0.2,1,0,1.5c0.1,0.2,0.2,0.5,0.4,0.6c0.8,0.7,2,0.7,2.7,0c0.2-0.2,0.3-0.4,0.4-0.6
						C119.9,75,119.9,74.5,119.7,74z"/>
				</g>
			</g>
		</g>
		<g>
			<g>
				<g>
					<path class="st21" d="M119.3,81.1c-0.6-0.5-1.4-0.7-2.1-0.4c-0.2,0.1-0.5,0.2-0.6,0.4c-0.7,0.8-0.7,2,0,2.7
						c0.2,0.2,0.4,0.3,0.6,0.4c0.2,0.1,0.5,0.2,0.7,0.2c1.1,0,1.9-0.9,1.9-1.9C119.9,81.9,119.7,81.5,119.3,81.1z"/>
				</g>
			</g>
		</g>
		<g>
			<g>
				<g>
					<path class="st21" d="M119.7,89.5c-0.1-0.2-0.2-0.4-0.4-0.6c-0.6-0.5-1.4-0.7-2.1-0.4c-0.2,0.1-0.5,0.2-0.6,0.4
						c-0.2,0.2-0.3,0.4-0.4,0.6c-0.2,0.5-0.2,1,0,1.5c0.1,0.2,0.2,0.5,0.4,0.6c0.8,0.7,2,0.7,2.7,0c0.2-0.2,0.3-0.4,0.4-0.6
						C119.9,90.5,119.9,89.9,119.7,89.5z"/>
				</g>
			</g>
		</g>
		<g>
			<g>
				<g>
					<path class="st21" d="M119.3,96.6c-0.6-0.5-1.4-0.7-2.1-0.4c-0.2,0.1-0.5,0.2-0.6,0.4c-0.7,0.8-0.7,2,0,2.7
						c0.2,0.2,0.4,0.3,0.6,0.4c0.2,0.1,0.5,0.2,0.7,0.2c1.1,0,1.9-0.9,1.9-1.9C119.9,97.4,119.7,96.9,119.3,96.6z"/>
				</g>
			</g>
		</g>
		<g>
			<g>
				<g>
					<path class="st21" d="M65.2,36.3c-4.3,0-7.7,3.5-7.7,7.7c0,2,0.8,4,2.3,5.5c1.4,1.5,3.4,2.3,5.5,2.3c4.3,0,7.7-3.5,7.7-7.7
						C72.9,39.8,69.4,36.3,65.2,36.3z M67.9,46.8c-1.5,1.5-4,1.5-5.5,0c-0.7-0.7-1.1-1.7-1.1-2.7c0-1,0.4-2,1.1-2.7h0
						c1.5-1.5,4-1.5,5.5,0C69.4,42.8,69.4,45.3,67.9,46.8z"/>
				</g>
			</g>
		</g>
	</g>
	<g>
		<g>
			<g>
				<g>
					<path class="st21" d="M121.4,59.3h-12.6C105.1,53,98.6,48.8,91.4,48c-1.6-0.2-3.3-0.2-5,0c-7.3,0.8-13.8,5-17.5,11.3
						 M104.1,59.3H93.1l-1.8-3.9c-0.6-1.3-2.2-1.9-3.5-1.3c-0.6,0.3-1,0.7-1.3,1.3l-1.8,3.9H73.6c3.2-4.2,8-6.9,13.3-7.5
						c1.4-0.2,2.7-0.2,4.1,0C96.2,52.4,100.9,55.1,104.1,59.3z"/>
				</g>
			</g>
		</g>
	</g>
</g>
</svg>
