<?xml version="1.0" encoding="utf-8"?>
<!-- Generator: Adobe Illustrator 25.2.3, SVG Export Plug-In . SVG Version: 6.00 Build 0)  -->
<svg version="1.1" id="Warstwa_1" xmlns="http://www.w3.org/2000/svg" xmlns:xlink="http://www.w3.org/1999/xlink" x="0px" y="0px"
	 viewBox="0 0 49.2 38" style="enable-background:new 0 0 49.2 38;" xml:space="preserve">
<style type="text/css">
	.st0{fill:#838383;}
</style>
<g id="Seat">
	<path class="st0" d="M20.7,28.5h-5.8c-0.3,0-0.5,0.2-0.5,0.5l-0.5,3.2c0,0.3,0.2,0.6,0.4,0.6c0,0,0,0,0.1,0h6.8
		c0.3,0,0.5-0.2,0.5-0.5c0,0,0,0,0-0.1L21.2,29C21.1,28.7,20.9,28.5,20.7,28.5z M15,31.7l0.3-2.1h4.9l0.3,2.1H15z"/>
	<path class="st0" d="M14,14.8h7.4c0.3,0,0.5-0.2,0.5-0.5v-2.1c0-0.3-0.2-0.5-0.5-0.5H14c-0.3,0-0.5,0.2-0.5,0.5v2.1
		C13.5,14.5,13.7,14.8,14,14.8z M14.6,12.7h6.3v1.1h-6.3V12.7z"/>
	<path class="st0" d="M14,19h7.4c0.3,0,0.5-0.2,0.5-0.5v-2.1c0-0.3-0.2-0.5-0.5-0.5H14c-0.3,0-0.5,0.2-0.5,0.5v2.1
		C13.5,18.8,13.7,19,14,19z M14.6,16.9h6.3v1.1h-6.3V16.9z"/>
	<path class="st0" d="M38.3,20.1h-0.5v-9c0-0.9-0.7-1.6-1.6-1.6h-0.5V8.3c0.6-0.2,1.1-0.8,1.1-1.5V4.7c0-0.9-0.7-1.6-1.6-1.6h-7.4
		c-0.9,0-1.6,0.7-1.6,1.6v2.1c0,0.7,0.4,1.3,1.1,1.5v1.2h-0.5c-0.9,0-1.6,0.7-1.6,1.6v9h-1.1v-9c0-0.9-0.7-1.6-1.6-1.6H22V8.3
		C22.6,8.1,23,7.5,23,6.8V4.7c0-0.9-0.7-1.6-1.6-1.6H14c-0.9,0-1.6,0.7-1.6,1.6v2.1c0,0.7,0.4,1.3,1.1,1.5v1.2H13
		c-0.9,0-1.6,0.7-1.6,1.6v9h-0.5c-0.3,0-0.5,0.2-0.5,0.5v6.3c0,0.3,0.2,0.5,0.5,0.5h1.5L11.6,33c-0.1,0.9,0.5,1.7,1.3,1.8
		c0.1,0,0.1,0,0.2,0h9.2c0.9,0,1.6-0.7,1.6-1.6c0-0.1,0-0.1,0-0.2l-0.8-5.6h3L25.3,33c-0.1,0.9,0.5,1.7,1.3,1.8c0.1,0,0.1,0,0.2,0
		h9.2c0.9,0,1.6-0.7,1.6-1.6c0-0.1,0-0.1,0-0.2l-0.8-5.6h1.5c0.3,0,0.5-0.2,0.5-0.5v-6.3C38.9,20.3,38.6,20.1,38.3,20.1z M33.6,9.5
		V8.4h1.1v1.1H33.6z M32.5,8.4v1.1h-2.1V8.4H32.5z M27.2,4.7c0-0.3,0.2-0.5,0.5-0.5h7.4c0.3,0,0.5,0.2,0.5,0.5v2.1
		c0,0.3-0.2,0.5-0.5,0.5h-7.4c-0.3,0-0.5-0.2-0.5-0.5V4.7z M28.3,8.4h1.1v1.1h-1.1V8.4z M26.2,11.1c0-0.3,0.2-0.5,0.5-0.5h9.5
		c0.3,0,0.5,0.2,0.5,0.5v9h-0.5c-0.3,0-0.5,0.2-0.5,0.5v2.6h-8.5v-2.6c0-0.3-0.2-0.5-0.5-0.5h-0.5V11.1z M27.2,26.4v-2.1h8.5v2.1
		H27.2z M25.1,21.1h1.1v5.3h-1.1V21.1z M24.1,26.4H23v-5.3h1.1V26.4z M19.8,9.5V8.4h1.1v1.1H19.8z M18.8,8.4v1.1h-2.1V8.4H18.8z
		 M13.5,4.7c0-0.3,0.2-0.5,0.5-0.5h7.4c0.3,0,0.5,0.2,0.5,0.5v2.1c0,0.3-0.2,0.5-0.5,0.5H14c-0.3,0-0.5-0.2-0.5-0.5V4.7z M14.6,8.4
		h1.1v1.1h-1.1V8.4z M12.4,11.1c0-0.3,0.2-0.5,0.5-0.5h9.5c0.3,0,0.5,0.2,0.5,0.5v9h-0.5c-0.3,0-0.5,0.2-0.5,0.5v2.6h-8.5v-2.6
		c0-0.3-0.2-0.5-0.5-0.5h-0.5V11.1z M13.5,26.4v-2.1H22v2.1H13.5z M11.4,21.1h1.1v5.3h-1.1V21.1z M22.7,33.6
		c-0.1,0.1-0.2,0.2-0.4,0.2h-9.2c-0.3,0-0.5-0.2-0.5-0.5c0,0,0,0,0-0.1l0.8-5.7H22l0.8,5.7C22.9,33.3,22.8,33.5,22.7,33.6z
		 M36.5,33.6c-0.1,0.1-0.2,0.2-0.4,0.2h-9.2c-0.3,0-0.5-0.2-0.5-0.5c0,0,0,0,0-0.1l0.8-5.7h8.6l0.8,5.7
		C36.6,33.3,36.6,33.5,36.5,33.6z M37.8,26.4h-1.1v-5.3h1.1V26.4z"/>
	<path class="st0" d="M34.4,28.5h-5.8c-0.3,0-0.5,0.2-0.5,0.5l-0.5,3.2c0,0.3,0.2,0.6,0.4,0.6c0,0,0,0,0.1,0h6.8
		c0.3,0,0.5-0.2,0.5-0.5c0,0,0,0,0-0.1L34.9,29C34.9,28.7,34.7,28.5,34.4,28.5z M28.7,31.7l0.3-2.1h4.9l0.3,2.1H28.7z"/>
	<path class="st0" d="M27.8,14.8h7.4c0.3,0,0.5-0.2,0.5-0.5v-2.1c0-0.3-0.2-0.5-0.5-0.5h-7.4c-0.3,0-0.5,0.2-0.5,0.5v2.1
		C27.2,14.5,27.5,14.8,27.8,14.8z M28.3,12.7h6.3v1.1h-6.3V12.7z"/>
	<path class="st0" d="M27.8,19h7.4c0.3,0,0.5-0.2,0.5-0.5v-2.1c0-0.3-0.2-0.5-0.5-0.5h-7.4c-0.3,0-0.5,0.2-0.5,0.5v2.1
		C27.2,18.8,27.5,19,27.8,19z M28.3,16.9h6.3v1.1h-6.3V16.9z"/>
</g>
</svg>
