<?xml version="1.0" encoding="utf-8"?>
<!-- Generator: Adobe Illustrator 25.2.3, SVG Export Plug-In . SVG Version: 6.00 Build 0)  -->
<svg version="1.1" id="Warstwa_1" xmlns="http://www.w3.org/2000/svg" xmlns:xlink="http://www.w3.org/1999/xlink" x="0px" y="0px"
	 viewBox="0 0 49.2 38" style="enable-background:new 0 0 49.2 38;" xml:space="preserve">
<style type="text/css">
	.st0{fill:#838383;}
</style>
<g>
	<path class="st0" d="M7.6,35.7c0-8.4,0-16.9,0-25.3c0.1-0.4,0.1-0.7,0.2-1.1c0.8-3.7,3.1-6.1,6.7-7.1C15,2.1,15.5,2.1,16,2
		c5.7,0,11.4,0,17.1,0c0.6,0.1,1.3,0.2,1.9,0.4c3.7,1.1,6.6,4.5,6.6,8.8c0,8.1,0,16.1,0,24.2c0,0.5-0.1,0.6-0.6,0.6
		c-10.9,0-21.8,0-32.7,0C8,36,7.8,35.9,7.6,35.7z M15.3,3c-0.2,0-0.4,0.1-0.6,0.1C11.2,4,8.4,7.2,8.5,11.2c0,7.9,0,15.8,0,23.6
		c0,0.1,0,0.2,0,0.3c10.8,0,21.5,0,32.3,0c0-0.1,0-0.2,0-0.3c0-7.9,0-15.8,0-23.7c0-3.1-1.4-5.5-4.1-7.2c-0.8-0.5-1.8-0.8-2.8-1
		c0,0.1,0,0.3,0,0.4c0,1.4,0,2.8,0,4.2c0,0.5-0.1,0.7-0.6,0.7c-5.8,0-11.5,0-17.3,0c-0.5,0-0.6-0.1-0.6-0.6c0-1.4,0-2.8,0-4.2
		C15.3,3.3,15.3,3.1,15.3,3z M16.2,7.4c5.6,0,11.2,0,16.8,0c0-1.5,0-3,0-4.5c-5.6,0-11.2,0-16.8,0C16.2,4.4,16.2,5.9,16.2,7.4z"/>
	<path class="st0" d="M24.6,12.3c3.6,0,7.3,0,10.9,0c1.5,0,2.3,0.8,2.3,2.3c0,4.7,0,9.4,0,14.2c0,1.4-0.8,2.3-2.3,2.3
		c-7.3,0-14.6,0-21.8,0c-1.3,0-2.3-0.9-2.3-2.3c0-4.7,0-9.5,0-14.2c0-1.1,0.6-1.9,1.6-2.2c0.2-0.1,0.5-0.1,0.8-0.1
		C17.4,12.3,21,12.3,24.6,12.3C24.6,12.3,24.6,12.3,24.6,12.3z M24.6,30.2c0.3,0,0.6,0,0.8,0c3.4,0,6.7,0,10.1,0
		c0.3,0,0.7-0.1,0.9-0.2c0.4-0.2,0.5-0.7,0.5-1.1c0-4.7,0-9.4,0-14.2c0-1-0.4-1.5-1.5-1.5c-7.2,0-14.5,0-21.7,0
		c-1,0-1.5,0.5-1.5,1.5c0,4.7,0,9.4,0,14.1c0,1,0.4,1.5,1.5,1.5C17.3,30.2,21,30.2,24.6,30.2z"/>
	<path class="st0" d="M24.6,29.3c-3.4,0-6.8,0-10.2,0c-0.9,0-1.2-0.3-1.2-1.2c0-4.3,0-8.5,0-12.8c0-0.9,0.3-1.2,1.2-1.2
		c6.8,0,13.7,0,20.5,0c0.7,0,1.1,0.4,1.1,1.1c0,4.3,0,8.7,0,13c0,0.7-0.4,1.1-1.1,1.1C31.5,29.3,28.1,29.3,24.6,29.3
		C24.6,29.3,24.6,29.3,24.6,29.3z M24.6,28.4c3.4,0,6.8,0,10.2,0c0.3,0,0.4-0.1,0.4-0.4c0-4.2,0-8.5,0-12.7c0-0.3-0.1-0.4-0.4-0.4
		c-6.8,0-13.6,0-20.4,0c-0.3,0-0.4,0.1-0.4,0.4c0,4.2,0,8.5,0,12.7c0,0.3,0.1,0.4,0.4,0.4C17.8,28.4,21.2,28.4,24.6,28.4z"/>
	<path class="st0" d="M26.2,21.2c0.5,0.5,0.9,0.9,1.3,1.3c0.1,0.1,0.2,0.1,0.3,0.1c0.1,0,0.3,0,0.4-0.1c0.7-0.2,1.2,0.1,1.6,0.6
		c0.2,0.3,0.2,0.6-0.1,0.8c-0.5,0.3-1,0.5-1.4,0.8c-0.1,0.1-0.3,0.2-0.4,0.4c-0.3,0.4-0.5,0.9-0.8,1.4c-0.3,0.4-0.5,0.5-0.9,0.1
		c-0.1-0.1-0.1-0.1-0.2-0.2c-0.3-0.3-0.5-0.6-0.4-1c0.2-0.6,0-1.1-0.5-1.5c-0.3-0.2-0.5-0.5-0.8-0.8c-0.1,0.1-0.2,0.2-0.2,0.3
		c-0.7,1-1.4,2-2,3.1c-0.3,0.4-0.5,0.5-0.9,0.1c-0.8-0.8-0.8-0.6-0.5-1.7c0.3-1.3,0.7-2.7,1-4c0.1-0.2,0-0.4-0.2-0.5
		c-0.5-0.5-1.1-1-1.6-1.6c-0.6-0.6-0.6-1.3-0.1-1.9c0.5-0.5,1.3-0.6,1.8-0.1c0.6,0.5,1.2,1.1,1.7,1.7c0.2,0.2,0.3,0.2,0.5,0.1
		c1.5-0.4,3-0.7,4.4-1.1c0.4-0.1,0.7-0.1,0.9,0.2c0.1,0.1,0.3,0.3,0.4,0.4c0.3,0.3,0.3,0.5-0.1,0.8c-0.5,0.3-1,0.7-1.5,1
		C27.5,20.3,26.9,20.7,26.2,21.2z M28.9,23.4c0,0,0-0.1-0.1-0.1c-0.3,0-0.6,0.1-0.9,0.1c-0.3,0.1-0.6,0-0.8-0.3
		c-0.5-0.5-1.1-1.1-1.6-1.6c-0.4-0.4-0.3-0.6,0.1-0.9c1-0.7,2-1.3,3-2c0.1-0.1,0.2-0.1,0.3-0.2c0,0,0-0.1,0-0.1c-0.1,0-0.2,0-0.3,0
		c-1.5,0.4-3,0.8-4.6,1.2c-0.3,0.1-0.6,0-0.8-0.2c-0.5-0.6-1.1-1.1-1.7-1.7c-0.1-0.1-0.2-0.2-0.2-0.2c-0.2-0.1-0.4-0.2-0.6,0
		c-0.2,0.2-0.2,0.4,0,0.6c0.1,0.1,0.1,0.2,0.2,0.2c0.5,0.5,1.1,1.1,1.6,1.6c0.3,0.3,0.4,0.6,0.3,1c-0.4,1.5-0.8,2.9-1.1,4.4
		c0,0.1,0,0.3,0,0.4c0,0,0.1,0,0.1,0c0.1-0.1,0.1-0.2,0.2-0.3c0.7-1,1.4-2,2-3.1c0.3-0.4,0.5-0.4,0.9-0.1c0.5,0.5,1.1,1.1,1.6,1.6
		c0.2,0.2,0.4,0.5,0.3,0.8c-0.1,0.3-0.1,0.6-0.1,1c0,0,0.1,0,0.1,0.1C27,24.5,27.8,23.8,28.9,23.4z"/>
	<path class="st0" d="M30.5,26.6c-0.4,0-0.6-0.3-0.5-0.6c0-0.1,0.1-0.2,0.2-0.2c0.8-0.8,1.6-1.6,2.4-2.4c0,0,0.1-0.1,0.1-0.1
		c0.2-0.1,0.4-0.2,0.6,0c0.2,0.2,0.2,0.4,0,0.6c-0.1,0.2-0.3,0.3-0.5,0.5c-0.7,0.7-1.4,1.4-2.1,2.1C30.7,26.4,30.6,26.5,30.5,26.6z"
		/>
	<path class="st0" d="M34,25.6c-0.1,0.1-0.1,0.3-0.2,0.4c-0.3,0.4-0.7,0.7-1.1,1.1c-0.2,0.2-0.4,0.2-0.6,0c-0.2-0.2-0.2-0.4,0-0.6
		c0.3-0.4,0.7-0.7,1.1-1c0.1-0.1,0.3-0.1,0.5-0.1C33.8,25.3,33.9,25.5,34,25.6z"/>
</g>
</svg>
