<?xml version="1.0" encoding="utf-8"?>
<!-- Generator: Adobe Illustrator 25.2.3, SVG Export Plug-In . SVG Version: 6.00 Build 0)  -->
<svg version="1.1" id="Warstwa_1" xmlns="http://www.w3.org/2000/svg" xmlns:xlink="http://www.w3.org/1999/xlink" x="0px" y="0px"
	 viewBox="0 0 49.2 38" style="enable-background:new 0 0 49.2 38;" xml:space="preserve">
<style type="text/css">
	.st0{fill:#838383;}
</style>
<g>
	<g>
		<g>
			<path class="st0" d="M43.9,6.6h-8.8c-0.9,0-1.7,0.4-2.2,1c-0.5-0.6-1.3-1-2.2-1H11.5c-0.4,0-0.7,0.3-0.7,0.7S11.1,8,11.5,8h19.3
				c0.8,0,1.5,0.7,1.5,1.5c0,0.1,0,2.2,0,2.2c0,0.4,0.3,0.7,0.7,0.7c0.4,0,0.7-0.3,0.7-0.7v0h11.8v14.7H33.7v-0.1
				c0-0.4-0.3-0.7-0.7-0.7c-0.4,0-0.7,0.3-0.7,0.7v2.2c0,0.8-0.7,1.5-1.5,1.5H5.3c-0.8,0-1.5-0.7-1.5-1.5v-19C3.8,8.7,4.4,8,5.3,8
				h3.3c0.4,0,0.7-0.3,0.7-0.7c0-0.4-0.3-0.7-0.7-0.7H5.3c-1.6,0-2.9,1.3-2.9,2.9v19c0,1.6,1.3,2.9,2.9,2.9h25.5
				c0.9,0,1.7-0.4,2.2-1c0.5,0.6,1.3,1,2.2,1h8.8c1.6,0,2.9-1.3,2.9-2.9v-19C46.8,7.9,45.5,6.6,43.9,6.6z M45.4,28.5
				c0,0.8-0.7,1.5-1.5,1.5h-8.8c-0.8,0-1.5-0.7-1.5-1.5v-0.7h11.8V28.5z M45.4,10.3H33.7c0,0,0-0.7,0-0.8c0-0.8,0.7-1.5,1.5-1.5h8.8
				c0.8,0,1.5,0.7,1.5,1.5L45.4,10.3L45.4,10.3z"/>
		</g>
	</g>
	<g>
		<g>
			<path class="st0" d="M43.2,15.4h-7.3c-0.4,0-0.7,0.3-0.7,0.7c0,0.4,0.3,0.7,0.7,0.7h7.3c0.4,0,0.7-0.3,0.7-0.7
				C43.9,15.7,43.6,15.4,43.2,15.4z"/>
		</g>
	</g>
	<g>
		<g>
			<path class="st0" d="M43.2,18.7h-7.3c-0.4,0-0.7,0.3-0.7,0.7c0,0.4,0.3,0.7,0.7,0.7h7.3c0.4,0,0.7-0.3,0.7-0.7
				C43.9,19,43.6,18.7,43.2,18.7z"/>
		</g>
	</g>
	<g>
		<g>
			<path class="st0" d="M43.2,22h-7.3c-0.4,0-0.7,0.3-0.7,0.7c0,0.4,0.3,0.7,0.7,0.7h7.3c0.4,0,0.7-0.3,0.7-0.7
				C43.9,22.3,43.6,22,43.2,22z"/>
		</g>
	</g>
	<g>
		<g>
			<path class="st0" d="M26.8,16.9h-2.3l-5.6-4.9c-0.2-0.2-0.6-0.2-0.9,0c-0.2,0.2-0.3,0.5-0.2,0.8l1.5,4.2h-4l-0.6-2.4
				c-0.1-0.3-0.3-0.5-0.7-0.5h-1.1c-0.4,0-0.7,0.3-0.7,0.7v8.8c0,0.4,0.3,0.7,0.7,0.7H14c0.3,0,0.6-0.2,0.7-0.5l0.6-2.4h4l-1.5,4.2
				c-0.1,0.3,0,0.6,0.2,0.8c0.3,0.2,0.6,0.2,0.9,0l5.6-4.9h2.3c1.2,0,2.1-1,2.1-2.1C28.9,17.8,28,16.9,26.8,16.9z M22.4,16.9h-1.7
				l-0.8-2.2L22.4,16.9z M13.6,15.8l0.3,1.1h-0.3V15.8z M13.6,22.2v-1.1h0.3L13.6,22.2z M19.9,23.3l0.8-2.2h1.7L19.9,23.3z
				 M26.8,19.8H13.6v-1.5h13.2c0.4,0,0.8,0.3,0.8,0.8C27.6,19.4,27.2,19.8,26.8,19.8z"/>
		</g>
	</g>
	<g>
		<g>
			<path class="st0" d="M30.4,10.3h-4.4c-0.4,0-0.7,0.3-0.7,0.7c0,0.4,0.3,0.7,0.7,0.7h4.4c0.4,0,0.7-0.3,0.7-0.7
				S30.8,10.3,30.4,10.3z"/>
		</g>
	</g>
	<g>
		<g>
			<path class="st0" d="M30.4,13.2h-4.4c-0.4,0-0.7,0.3-0.7,0.7c0,0.4,0.3,0.7,0.7,0.7h4.4c0.4,0,0.7-0.3,0.7-0.7
				C31.1,13.5,30.8,13.2,30.4,13.2z"/>
		</g>
	</g>
	<g>
		<g>
			<path class="st0" d="M10,23.4H5.6c-0.4,0-0.7,0.3-0.7,0.7c0,0.4,0.3,0.7,0.7,0.7H10c0.4,0,0.7-0.3,0.7-0.7
				C10.7,23.7,10.4,23.4,10,23.4z"/>
		</g>
	</g>
	<g>
		<g>
			<path class="st0" d="M10,26.3H5.6C5.3,26.3,5,26.6,5,27c0,0.4,0.3,0.7,0.7,0.7H10c0.4,0,0.7-0.3,0.7-0.7
				C10.7,26.6,10.4,26.3,10,26.3z"/>
		</g>
	</g>
	<g>
		<g>
			<path class="st0" d="M14.4,10.3H5.6C5.3,10.3,5,10.6,5,11c0,0.4,0.3,0.7,0.7,0.7h8.8c0.4,0,0.7-0.3,0.7-0.7
				C15.1,10.6,14.8,10.3,14.4,10.3z"/>
		</g>
	</g>
	<g>
		<g>
			<path class="st0" d="M30.4,26.3h-8.8c-0.4,0-0.7,0.3-0.7,0.7c0,0.4,0.3,0.7,0.7,0.7h8.8c0.4,0,0.7-0.3,0.7-0.7
				C31.1,26.6,30.8,26.3,30.4,26.3z"/>
		</g>
	</g>
	<g>
		<g>
			<path class="st0" d="M33,17.2c-0.4,0-0.7,0.3-0.7,0.7v2.2c0,0.4,0.3,0.7,0.7,0.7c0.4,0,0.7-0.3,0.7-0.7v-2.2
				C33.7,17.5,33.4,17.2,33,17.2z"/>
		</g>
	</g>
	<g>
		<g>
			<path class="st0" d="M33,13.6c-0.4,0-0.7,0.3-0.7,0.7v1.1c0,0.4,0.3,0.7,0.7,0.7c0.4,0,0.7-0.3,0.7-0.7v-1.1
				C33.7,13.9,33.4,13.6,33,13.6z"/>
		</g>
	</g>
	<g>
		<g>
			<path class="st0" d="M33,22c-0.4,0-0.7,0.3-0.7,0.7v1.1c0,0.4,0.3,0.7,0.7,0.7c0.4,0,0.7-0.3,0.7-0.7v-1.1
				C33.7,22.3,33.4,22,33,22z"/>
		</g>
	</g>
</g>
</svg>
