<?xml version="1.0" encoding="utf-8"?>
<!-- Generator: Adobe Illustrator 19.0.0, SVG Export Plug-In . SVG Version: 6.00 Build 0)  -->
<svg version="1.1" id="Warstwa_1" xmlns="http://www.w3.org/2000/svg" xmlns:xlink="http://www.w3.org/1999/xlink" x="0px" y="0px"
	 viewBox="0 7 49.2 38" style="enable-background:new 0 7 49.2 38;" xml:space="preserve">
<style type="text/css">
	.st0{fill:none;}
	.st1{fill:#838383;}
</style>
<g id="XMLID_1377_">
	<path id="XMLID_3911_" class="st0" d="M14.9,37.9l0.1-0.1L12.6,37c-0.2-0.1-0.4-0.2-0.4-0.4c-0.1-0.2,0-0.4,0.1-0.6l0.6-0.7
		c0.3-0.3,0.4-0.7,0.4-1.1v-2.4c0-1-0.8-1.8-1.8-1.8s-1.8,0.8-1.8,1.8v2.4c0,0.4,0.2,0.8,0.4,1.1l0.6,0.7c0.1,0.2,0.2,0.4,0.1,0.6
		c-0.1,0.2-0.2,0.4-0.4,0.4l-2.4,0.8c0,0,0.1,0.1,0.1,0.1C10.2,39.3,12.9,39.2,14.9,37.9z"/>
	<path id="XMLID_3928_" class="st0" d="M30.6,36.2h-8.1c-0.4,0-0.7-0.3-0.7-0.7s0.3-0.7,0.7-0.7h7.3c-0.1-0.2-0.2-0.4-0.3-0.5
		c-0.2-0.5-0.4-1-0.5-1.6h-6.4c-0.4,0-0.7-0.3-0.7-0.7c0-0.4,0.3-0.7,0.7-0.7h6.3c-0.1-2.8,1-5.9,2.1-9l0.1-0.2
		c0.3-0.8,0.6-1.7,0.9-2.5h-7.2v2.3c0,0.4-0.3,0.7-0.7,0.7h-9.1c-0.4,0-0.7-0.3-0.7-0.7v-2.3H5.7c-1.9,0-3.5,1.6-3.5,3.5V40
		c0,1.9,1.6,3.5,3.5,3.5h27.4c1.9,0,3.5-1.6,3.5-3.5v-0.6C34.2,39.1,32.1,38,30.6,36.2z M12.7,40.1c0,0-0.1,0-0.1,0
		c-0.3,0-0.7,0.1-1,0.1c-0.3,0-0.7,0-1-0.1c0,0-0.1,0-0.1,0c-3.7-0.6-6.5-3.7-6.5-7.6c0-4.2,3.4-7.7,7.7-7.7s7.7,3.4,7.7,7.7
		C19.2,36.4,16.4,39.6,12.7,40.1z M25.1,40.2h-2.6c-0.4,0-0.7-0.3-0.7-0.7s0.3-0.7,0.7-0.7h2.6c0.4,0,0.7,0.3,0.7,0.7
		S25.4,40.2,25.1,40.2z M32.6,39.6c0,0.4-0.3,0.7-0.7,0.7h-3.9c-0.4,0-0.7-0.3-0.7-0.7s0.3-0.7,0.7-0.7h3.9
		C32.3,38.9,32.6,39.2,32.6,39.6z"/>
	<path id="XMLID_3931_" class="st0" d="M32.5,14.2c-1.2-2.1-3.8-2.5-5.9-2c-1.8,0.4-3.7,1.7-4.4,4H24c0.4,0,0.7,0.3,0.7,0.7v1.6h7.6
		C32.8,16.7,33,15.2,32.5,14.2z"/>
	<path id="XMLID_3932_" class="st0" d="M34,32.2c0.5,1.1,1.6,1.7,2.6,1.9V23.2c0-0.4-0.1-0.7-0.2-1.1c-0.2,0.7-0.5,1.4-0.7,2.1
		C34.5,27.3,33.3,30.6,34,32.2z"/>
	<path id="XMLID_3933_" class="st0" d="M8.5,34.1v-2.4c0-1.7,1.4-3.1,3.1-3.1s3.1,1.4,3.1,3.1v2.4c0,0.7-0.2,1.4-0.7,1.9l2.3,0.8
		c1-1.1,1.7-2.6,1.7-4.3c0-3.5-2.9-6.4-6.4-6.4s-6.4,2.9-6.4,6.4c0,1.7,0.6,3.2,1.7,4.3l2.3-0.8C8.7,35.5,8.5,34.8,8.5,34.1z"/>
	<path id="XMLID_3934_" class="st1" d="M36.6,39.4V40c0,1.9-1.6,3.5-3.5,3.5H5.7c-1.9,0-3.5-1.6-3.5-3.5V23.2c0-1.9,1.6-3.5,3.5-3.5
		h8.5v-1.3H5.7c-2.6,0-4.8,2.1-4.8,4.8V40c0,2.6,2.1,4.8,4.8,4.8h27.4c2.6,0,4.8-2.1,4.8-4.8v-0.5c0,0-0.1,0-0.1,0
		C37.4,39.5,37,39.5,36.6,39.4z"/>
	<path id="XMLID_3935_" class="st1" d="M36.6,23.2v10.9c0.5,0.1,0.9,0.2,1.3,0.2V23.2c0-1-0.4-2-0.9-2.8c-0.2,0.6-0.4,1.1-0.6,1.7
		C36.5,22.5,36.6,22.9,36.6,23.2z"/>
	<path id="XMLID_3936_" class="st1" d="M24.6,18.5v1.3h7.2c0.1-0.4,0.3-0.9,0.4-1.3H24.6z"/>
	<path id="XMLID_3937_" class="st1" d="M11.6,24.9c-4.2,0-7.7,3.4-7.7,7.7c0,3.8,2.8,7,6.5,7.6c-1-0.2-2-0.5-2.9-1.1c0,0,0,0,0,0
		c-0.1-0.1-0.2-0.1-0.2-0.2l0.3-0.6l-0.4,0.5c-0.1-0.1-0.2-0.1-0.3-0.2c0,0-0.1-0.1-0.1-0.1c-0.2-0.1-0.3-0.3-0.5-0.4
		c-0.2-0.2-0.2-0.4-0.2-0.6c0.1-0.2,0.2-0.4,0.4-0.5l0.3-0.1c-1-1.1-1.7-2.6-1.7-4.3c0-3.5,2.9-6.4,6.4-6.4s6.4,2.9,6.4,6.4
		c0,1.7-0.6,3.2-1.7,4.3l0.3,0.1c0.2,0.1,0.4,0.2,0.4,0.5c0.1,0.2,0,0.5-0.2,0.6c-0.1,0.1-0.3,0.3-0.5,0.4c0,0-0.1,0.1-0.1,0.1
		c-0.1,0.1-0.2,0.2-0.3,0.2c-0.1,0.1-0.2,0.1-0.3,0.2c-0.9,0.6-1.9,1-2.9,1.2c3.7-0.6,6.5-3.7,6.5-7.6
		C19.2,28.3,15.8,24.9,11.6,24.9z"/>
	<path id="XMLID_3938_" class="st1" d="M12.6,40.2c-0.3,0-0.7,0.1-1,0.1C11.9,40.2,12.2,40.2,12.6,40.2z"/>
	<path id="XMLID_3939_" class="st1" d="M11.6,40.2c-0.3,0-0.7,0-1-0.1C10.9,40.2,11.2,40.2,11.6,40.2z"/>
	<path id="XMLID_3942_" class="st1" d="M11.6,38.9c1.9,0,3.5-0.8,4.7-2.1l-2.3-0.8c0.5-0.6,0.7-1.2,0.7-1.9v-2.4
		c0-1.7-1.4-3.1-3.1-3.1S8.5,30,8.5,31.7v2.4c0,0.7,0.2,1.4,0.7,1.9l-2.3,0.8C8,38.1,9.7,38.9,11.6,38.9z M10.5,37
		c0.2-0.1,0.4-0.2,0.4-0.4c0.1-0.2,0-0.4-0.1-0.6l-0.6-0.7c-0.3-0.3-0.4-0.7-0.4-1.1v-2.4c0-1,0.8-1.8,1.8-1.8s1.8,0.8,1.8,1.8v2.4
		c0,0.4-0.2,0.8-0.4,1.1L12.3,36c-0.1,0.2-0.2,0.4-0.1,0.6c0.1,0.2,0.2,0.4,0.4,0.4l2.4,0.8l-0.1,0.1c-2,1.3-4.7,1.3-6.7,0
		c0,0-0.1-0.1-0.1-0.1L10.5,37z"/>
	<path id="XMLID_3943_" class="st1" d="M10.6,40.2c0,0-0.1,0-0.1,0C10.5,40.1,10.5,40.1,10.6,40.2z"/>
	<path id="XMLID_3944_" class="st1" d="M12.7,40.1c0,0-0.1,0-0.1,0C12.6,40.1,12.7,40.1,12.7,40.1z"/>
	<path id="XMLID_3945_" class="st1" d="M15.9,38.8c0.1-0.1,0.2-0.2,0.3-0.2c0,0,0.1-0.1,0.1-0.1c0.2-0.1,0.3-0.3,0.5-0.4
		c0.2-0.2,0.2-0.4,0.2-0.6c-0.1-0.2-0.2-0.4-0.4-0.5l-0.3-0.1c-1.2,1.3-2.8,2.1-4.7,2.1c-1.9,0-3.5-0.8-4.7-2.1l-0.3,0.1
		c-0.2,0.1-0.4,0.2-0.4,0.5c-0.1,0.2,0,0.4,0.2,0.6c0.1,0.2,0.3,0.3,0.5,0.4c0,0,0.1,0.1,0.1,0.1c0.1,0.1,0.2,0.1,0.3,0.2l0.4-0.5
		l-0.3,0.6c0.1,0.1,0.1,0.1,0.2,0.2c0,0,0,0,0,0c0.9,0.6,1.9,1,2.9,1.1c0,0,0.1,0,0.1,0c0.3,0,0.7,0.1,1,0.1c0.3,0,0.7,0,1-0.1
		c0,0,0.1,0,0.1,0c1-0.2,2-0.6,2.9-1.2C15.7,38.9,15.8,38.9,15.9,38.8z"/>
	<path id="XMLID_3946_" class="st1" d="M14.9,16.9h2c0-0.2,0-0.4,0.1-0.7h-2.1c-0.4,0-0.7,0.3-0.7,0.7v1.6h0.7V16.9z"/>
	<path id="XMLID_3947_" class="st1" d="M24,18.5h0.7v-1.6c0-0.4-0.3-0.7-0.7-0.7h-1.8c-0.1,0.2-0.1,0.4-0.2,0.7h2V18.5z"/>
	<path id="XMLID_3948_" class="st1" d="M14.9,22.7H24c0.4,0,0.7-0.3,0.7-0.7v-2.3H24v2.3h-9.1v-2.3h-0.7v2.3
		C14.2,22.4,14.5,22.7,14.9,22.7z"/>
	<rect id="XMLID_3949_" x="24" y="18.5" class="st1" width="0.7" height="1.3"/>
	<rect id="XMLID_3950_" x="14.2" y="18.5" class="st1" width="0.7" height="1.3"/>
	<path id="XMLID_3951_" class="st1" d="M22.5,32.2h6.3c0-0.2,0-0.4-0.1-0.7h-6.3c-0.4,0-0.7,0.3-0.7,0.7c0,0.4,0.3,0.7,0.7,0.7h6.4
		c0-0.2-0.1-0.4-0.1-0.7H22.5z"/>
	<path id="XMLID_3952_" class="st1" d="M22.5,35.6h7.6c-0.1-0.2-0.3-0.4-0.4-0.7h-7.3c-0.4,0-0.7,0.3-0.7,0.7s0.3,0.7,0.7,0.7h8.1
		c-0.2-0.2-0.3-0.4-0.5-0.7H22.5z"/>
	<path id="XMLID_3955_" class="st1" d="M25.1,38.9h-2.6c-0.4,0-0.7,0.3-0.7,0.7s0.3,0.7,0.7,0.7h2.6c0.4,0,0.7-0.3,0.7-0.7
		S25.4,38.9,25.1,38.9z M22.5,39.6h2.6H22.5z"/>
	<path id="XMLID_3958_" class="st1" d="M27.4,39.6c0,0.4,0.3,0.7,0.7,0.7h3.9c0.4,0,0.7-0.3,0.7-0.7s-0.3-0.7-0.7-0.7h-3.9
		C27.7,38.9,27.4,39.2,27.4,39.6z M28.1,39.6h3.9H28.1z"/>
	<path id="XMLID_3959_" class="st1" d="M30,34.1c-0.2-0.4-0.3-0.8-0.4-1.3h-0.7c0.1,0.5,0.3,1.1,0.5,1.6c0.1,0.2,0.2,0.4,0.3,0.5
		h0.7C30.3,34.7,30.2,34.4,30,34.1z"/>
	<path id="XMLID_3960_" class="st1" d="M33.4,32.5c0.6,1.3,1.8,2,3.2,2.3v-0.7c-1-0.2-2-0.8-2.6-1.9c-0.7-1.6,0.5-5,1.6-8
		c0.3-0.7,0.5-1.4,0.7-2.1c-0.1-0.3-0.2-0.6-0.4-0.8c-0.3,0.9-0.7,1.8-1,2.8C33.8,27.3,32.6,30.7,33.4,32.5z"/>
	<path id="XMLID_3961_" class="st1" d="M26.5,12.3c2.1-0.5,4.7-0.1,5.9,2c0.5,0.9,0.3,2.5-0.2,4.2H33c0.5-1.8,0.7-3.5,0.1-4.5
		c-2.3-4.1-10-3.1-11.5,2.3h0.7C22.9,14,24.7,12.7,26.5,12.3z"/>
	<path id="XMLID_3962_" class="st1" d="M31.5,22.8c0.4-1,0.7-2,1.1-3h-0.7c-0.3,0.8-0.6,1.7-0.9,2.5l-0.1,0.2c-1.1,3-2.3,6.1-2.1,9
		h0.7C29.3,28.8,30.4,25.7,31.5,22.8z"/>
	<path id="XMLID_3963_" class="st1" d="M30.6,36.2c1.5,1.8,3.6,2.9,6,3.2v-0.7c-2-0.3-3.8-1.2-5.1-2.6H30.6z"/>
	<path id="XMLID_3964_" class="st1" d="M36.3,12.2c1.2,2.3,0.9,4.9,0.1,7.7c0.2,0.2,0.3,0.4,0.5,0.6c0.9-3,1.3-6,0-8.6
		c-2-3.7-7.2-5.5-12.1-4.2c-4.4,1.1-7.3,4.3-7.8,8.6h0.7C19,6.3,32.8,5.7,36.3,12.2z"/>
	<path id="XMLID_3965_" class="st1" d="M47.8,21.8l-0.1-0.5l-5,0l0.1,0.8c0,0.1,1.2,7.7-1.4,11c-0.6,0.8-1.5,1.3-2.5,1.3
		c-0.3,0-0.6,0-1.1,0V35c0.4,0,0.7,0,1.1,0c6.4-0.5,4.4-13,4.4-13l3.7,0c0,0,3.4,16.8-9.3,16.9v0.7c3.3,0,5.9-1.1,7.6-3.3
		C49.6,31.2,47.9,22.2,47.8,21.8z"/>
	<path id="XMLID_3966_" class="st1" d="M37.8,38.8c-0.4,0-0.8,0-1.2-0.1v0.7c0.4,0,0.8,0.1,1.2,0.1c0,0,0.1,0,0.1,0v-0.7
		C37.8,38.8,37.8,38.8,37.8,38.8z"/>
	<path id="XMLID_3967_" class="st1" d="M36.5,19.8c-0.1,0.5-0.3,1-0.5,1.5c0.2,0.3,0.3,0.5,0.4,0.8c0.2-0.6,0.4-1.1,0.6-1.7
		C36.8,20.2,36.6,20,36.5,19.8z"/>
	<path id="XMLID_3968_" class="st1" d="M33,18.5h-0.7c-0.1,0.4-0.3,0.9-0.4,1.3h0.7C32.7,19.3,32.8,18.9,33,18.5z"/>
	<path id="XMLID_3969_" class="st1" d="M36.6,34.8c0.4,0.1,0.9,0.1,1.3,0.2v-0.6c-0.4,0-0.9-0.1-1.3-0.2V34.8z"/>
	<path id="XMLID_3970_" class="st1" d="M21.5,16.2c-0.1,0.2-0.1,0.4-0.2,0.7H22c0-0.2,0.1-0.4,0.2-0.7H21.5z"/>
	<path id="XMLID_3971_" class="st1" d="M17.6,16.9c0-0.2,0.1-0.4,0.1-0.7H17c0,0.2-0.1,0.4-0.1,0.7H17.6z"/>
	<path id="XMLID_3972_" class="st1" d="M29.5,32.2h-0.7c0,0.2,0.1,0.4,0.1,0.7h0.7C29.5,32.6,29.5,32.4,29.5,32.2z"/>
	<path id="XMLID_3973_" class="st1" d="M29.5,32.2c0-0.2-0.1-0.4-0.1-0.7h-0.7c0,0.2,0,0.4,0.1,0.7H29.5z"/>
	<path id="XMLID_3974_" class="st1" d="M30.9,35.6h-0.8c0.2,0.2,0.3,0.4,0.5,0.7h0.9C31.3,36,31.1,35.8,30.9,35.6z"/>
	<path id="XMLID_3975_" class="st1" d="M30.9,35.6c-0.2-0.2-0.3-0.4-0.5-0.7h-0.7c0.1,0.2,0.2,0.4,0.4,0.7H30.9z"/>
	<polygon id="XMLID_3985_" class="st1" points="24,22.1 24,19.8 23.3,19.8 23.3,21.4 15.5,21.4 15.5,19.8 14.9,19.8 14.9,22.1 	"/>
	<path id="XMLID_3986_" class="st1" d="M18.2,17.2c1.3,0,1.7,0,2.4,0c0-0.3,0.1-0.7,0.2-1h-2.5C18.3,16.5,18.2,16.9,18.2,17.2z"/>
	<path id="XMLID_3987_" class="st1" d="M23.3,18.5H24v-1.6h-2c0,0.2-0.1,0.4-0.1,0.7h1.4V18.5z"/>
	<path id="XMLID_3988_" class="st1" d="M15.5,17.5h1.4c0-0.2,0-0.4,0-0.7h-2v1.6h0.7V17.5z"/>
	<rect id="XMLID_3989_" x="14.9" y="18.5" class="st1" width="0.7" height="1.3"/>
	<rect id="XMLID_3990_" x="23.3" y="18.5" class="st1" width="0.7" height="1.3"/>
	<path id="XMLID_3993_" class="st1" d="M32.6,19.8c-0.3,1-0.7,2-1.1,3c-1.1,3-2.2,6-2.1,8.7h0.7c-0.2-2.6,1-5.6,2-8.5l0.1-0.2
		c0.4-1,0.7-2,1.1-3c0,0-0.1,0-0.1,0H32.6z"/>
	<path id="XMLID_3994_" class="st1" d="M30,34.1c0.1,0.3,0.3,0.6,0.5,0.8h0.8c-0.2-0.3-0.5-0.7-0.6-1.1c-0.2-0.3-0.3-0.7-0.4-1h-0.7
		C29.7,33.3,29.8,33.7,30,34.1z"/>
	<path id="XMLID_3995_" class="st1" d="M39,35.6c1.4-0.1,2.5-0.7,3.4-1.8c2.4-3.1,2-9.1,1.7-11.2l2.5,0c0.3,1.9,1.1,8.9-2.1,12.8
		c-1.5,1.8-3.7,2.8-6.6,2.8v0.7C50.5,38.7,47.2,22,47.2,22l-3.7,0c0,0,2,12.5-4.4,13c-0.4,0-0.7,0-1.1,0v0.7
		C38.3,35.7,38.6,35.6,39,35.6z"/>
	<path id="XMLID_3996_" class="st1" d="M32.3,36.1c-0.1,0.1-0.2,0.1-0.4,0.1h-0.4c1.3,1.4,3.1,2.3,5.1,2.6v-0.7
		C34.9,37.9,33.4,37.2,32.3,36.1z"/>
	<path id="XMLID_3997_" class="st1" d="M33,13.9c0.6,1.1,0.4,2.7-0.1,4.5h0.2c0.2,0,0.3,0,0.5,0c0.5-1.9,0.7-3.7,0-4.9
		c-1-1.8-3.1-2.9-5.4-2.9c-0.6,0-1.3,0.1-2,0.2c-2.8,0.7-4.8,2.7-5.4,5.2h0.7C23,10.8,30.7,9.8,33,13.9z"/>
	<path id="XMLID_3998_" class="st1" d="M25.1,8.9c4.4-1.1,9,0.4,10.6,3.6c1.1,2,0.8,4.4,0.1,6.9c0.2,0.1,0.4,0.3,0.5,0.5
		c0.8-2.7,1.1-5.4-0.1-7.7c-3.5-6.5-17.3-5.9-18.7,4h0.7C18.9,12.5,21.3,9.9,25.1,8.9z"/>
	<path id="XMLID_3999_" class="st1" d="M35.5,20.7c-0.3,1-0.7,2.1-1.1,3.1c-1.2,3.4-2.5,6.9-1.6,8.9c0.7,1.4,2,2.4,3.7,2.7v-0.7
		c-1.4-0.3-2.6-1-3.2-2.3c-0.9-1.8,0.4-5.2,1.6-8.4c0.3-0.9,0.7-1.8,1-2.8C35.8,21.1,35.7,20.9,35.5,20.7z"/>
	<path id="XMLID_4001_" class="st1" d="M36.6,35.5c0.4,0.1,0.8,0.1,1.3,0.2V35c-0.4,0-0.9-0.1-1.3-0.2V35.5z"/>
	<path id="XMLID_4002_" class="st1" d="M33.1,18.5H33c-0.1,0.4-0.3,0.9-0.4,1.3h0.6c0,0,0.1,0,0.1,0c0.1-0.4,0.3-0.8,0.4-1.3
		C33.4,18.5,33.3,18.5,33.1,18.5z"/>
	<path id="XMLID_4003_" class="st1" d="M37.8,38.2c-0.4,0-0.8,0-1.2-0.1v0.7c0.4,0.1,0.8,0.1,1.2,0.1c0,0,0.1,0,0.1,0v-0.7
		C37.8,38.2,37.8,38.2,37.8,38.2z"/>
	<path id="XMLID_4005_" class="st1" d="M35.5,20.7c0.2,0.2,0.4,0.4,0.5,0.6c0.2-0.5,0.3-1,0.5-1.5c-0.2-0.2-0.4-0.3-0.5-0.5
		C35.8,19.8,35.6,20.3,35.5,20.7z"/>
	<path id="XMLID_4006_" class="st1" d="M21.9,17.5c0-0.2,0-0.4,0.1-0.7h-0.7c0-0.2,0.1-0.4,0.2-0.7h-0.7c-0.1,0.3-0.2,0.7-0.2,1
		c-0.8,0-1.1,0-2.4,0c0-0.3,0.1-0.7,0.1-1h-0.7c0,0.2-0.1,0.4-0.1,0.7h-0.7c0,0.2,0,0.4,0,0.7H21.9z"/>
	<path id="XMLID_4007_" class="st1" d="M29.5,32.2c0,0.2,0.1,0.4,0.1,0.7h0.7c-0.1-0.2-0.1-0.4-0.1-0.7H29.5z"/>
	<path id="XMLID_4008_" class="st1" d="M29.5,32.2h0.7c0-0.2-0.1-0.4-0.1-0.7h-0.7C29.4,31.7,29.4,31.9,29.5,32.2z"/>
	<path id="XMLID_4009_" class="st1" d="M31.8,35.6h-0.8c0.2,0.2,0.3,0.4,0.5,0.7h0.4c0.1,0,0.3-0.1,0.4-0.1
		C32.1,35.9,31.9,35.8,31.8,35.6z"/>
	<path id="XMLID_4010_" class="st1" d="M30.9,35.6h0.8c-0.2-0.2-0.3-0.4-0.5-0.7h-0.8C30.6,35.1,30.8,35.4,30.9,35.6z"/>
</g>
</svg>
