<?xml version="1.0" encoding="utf-8"?>
<!-- Generator: Adobe Illustrator 19.0.0, SVG Export Plug-In . SVG Version: 6.00 Build 0)  -->
<svg version="1.1" id="Warstwa_1" xmlns="http://www.w3.org/2000/svg" xmlns:xlink="http://www.w3.org/1999/xlink" x="0px" y="0px"
	 viewBox="0 0 37.9 38" style="enable-background:new 0 0 37.9 38;" xml:space="preserve">
<style type="text/css">
	.st0{fill:#838383;}
	.st1{clip-path:url(#XMLID_107_);}
	.st2{fill:#FFFFFF;}
</style>
<g id="XMLID_1569_">
	<g id="XMLID_1568_">
		<path id="XMLID_36_" class="st0" d="M18.9,36.1C9.5,36.1,1.8,28.4,1.8,19S9.5,1.9,18.9,1.9c9.4,0,17.1,7.7,17.1,17.1
			S28.4,36.1,18.9,36.1z M18.9,3.2C10.2,3.2,3.1,10.3,3.1,19s7.1,15.8,15.8,15.8h0c8.7,0,15.8-7.1,15.8-15.8S27.7,3.2,18.9,3.2z"/>
	</g>
	<g id="XMLID_1567_">
		<path id="XMLID_35_" class="st0" d="M18.9,36.1c-0.1,0-0.2,0-0.3-0.1c-6.1-3.5-9.8-10-9.8-17s3.8-13.5,9.8-17
			c0.3-0.2,0.7-0.1,0.9,0.2c0.2,0.3,0.1,0.7-0.2,0.9c-5.7,3.3-9.2,9.4-9.2,15.9s3.5,12.6,9.2,15.9c0.3,0.2,0.4,0.6,0.2,0.9
			C19.4,36,19.2,36.1,18.9,36.1z"/>
	</g>
	<g id="XMLID_1565_">
		<path id="XMLID_33_" class="st0" d="M18.9,36.1c-0.4,0-0.7-0.3-0.7-0.7V2.5c0-0.4,0.3-0.6,0.7-0.6s0.7,0.3,0.7,0.6v32.9
			C19.6,35.8,19.3,36.1,18.9,36.1z"/>
	</g>
	<g id="XMLID_1564_">
		<path id="XMLID_32_" class="st0" d="M18.9,36.1c-0.2,0-0.4-0.1-0.6-0.3c-0.2-0.3-0.1-0.7,0.2-0.9c5.7-3.3,9.2-9.4,9.2-15.9
			S24.3,6.5,18.6,3.2c-0.3-0.2-0.4-0.6-0.2-0.9C18.6,2,19,1.9,19.3,2c6.1,3.5,9.8,10,9.8,17s-3.8,13.5-9.8,17
			C19.2,36.1,19,36.1,18.9,36.1z"/>
	</g>
	<g id="XMLID_1556_">
		<defs>
			<path id="XMLID_24_" d="M18.9,35.5L18.9,35.5C9.9,35.5,2.5,28,2.5,19v0c0-9.1,7.4-16.5,16.5-16.5h0C28,2.5,35.4,9.9,35.4,19v0
				C35.4,28,28,35.5,18.9,35.5z"/>
		</defs>
		<clipPath id="XMLID_107_">
			<use xlink:href="#XMLID_24_"  style="overflow:visible;"/>
		</clipPath>
		<g id="XMLID_1558_" class="st1">
			<g id="XMLID_1563_">
				<path id="XMLID_31_" class="st0" d="M34.1,7.8H3.3c-0.4,0-0.6-0.3-0.6-0.7s0.3-0.7,0.6-0.7h30.8c0.4,0,0.7,0.3,0.7,0.7
					S34.4,7.8,34.1,7.8z"/>
			</g>
			<g id="XMLID_1562_">
				<path id="XMLID_30_" class="st0" d="M34.6,13.9H3.3c-0.4,0-0.6-0.3-0.6-0.7s0.3-0.7,0.6-0.7h31.3c0.4,0,0.7,0.3,0.7,0.7
					S34.9,13.9,34.6,13.9z"/>
			</g>
			<g id="XMLID_1561_">
				<path id="XMLID_29_" class="st0" d="M34.6,19.9H3.3c-0.4,0-0.6-0.3-0.6-0.7s0.3-0.7,0.6-0.7h31.3c0.4,0,0.7,0.3,0.7,0.7
					S34.9,19.9,34.6,19.9z"/>
			</g>
			<g id="XMLID_1560_">
				<path id="XMLID_26_" class="st0" d="M34.6,25.9H3.3c-0.4,0-0.6-0.3-0.6-0.7s0.3-0.7,0.6-0.7h31.3c0.4,0,0.7,0.3,0.7,0.7
					S34.9,25.9,34.6,25.9z"/>
			</g>
			<g id="XMLID_1559_">
				<path id="XMLID_25_" class="st0" d="M34.6,32H3.3c-0.4,0-0.6-0.3-0.6-0.7s0.3-0.7,0.6-0.7h31.3c0.4,0,0.7,0.3,0.7,0.7
					S34.9,32,34.6,32z"/>
			</g>
		</g>
	</g>
	<g id="XMLID_1555_">
		<circle id="XMLID_15_" class="st2" cx="10.4" cy="13.2" r="2.8"/>
		<path id="XMLID_21_" class="st0" d="M10.4,16.7c-1.9,0-3.5-1.6-3.5-3.5c0-1.9,1.6-3.5,3.5-3.5s3.5,1.6,3.5,3.5
			C13.8,15.1,12.3,16.7,10.4,16.7z M10.4,11c-1.2,0-2.2,1-2.2,2.2c0,1.2,1,2.2,2.2,2.2s2.2-1,2.2-2.2C12.5,12,11.5,11,10.4,11z"/>
	</g>
	<g id="XMLID_1554_">
		<circle id="XMLID_7_" class="st2" cx="18.9" cy="25.3" r="2.8"/>
		<path id="XMLID_8_" class="st0" d="M18.9,28.7c-1.9,0-3.5-1.6-3.5-3.5s1.6-3.5,3.5-3.5c1.9,0,3.5,1.6,3.5,3.5S20.8,28.7,18.9,28.7
			z M18.9,23.1c-1.2,0-2.2,1-2.2,2.2s1,2.2,2.2,2.2c1.2,0,2.2-1,2.2-2.2S20.1,23.1,18.9,23.1z"/>
	</g>
	<g id="XMLID_1553_">
		<circle id="XMLID_1_" class="st2" cx="28.4" cy="19" r="2.8"/>
		<path id="XMLID_2_" class="st0" d="M28.4,22.5c-1.9,0-3.5-1.6-3.5-3.5c0-1.9,1.6-3.5,3.5-3.5c1.9,0,3.5,1.6,3.5,3.5
			C31.9,20.9,30.3,22.5,28.4,22.5z M28.4,16.9c-1.2,0-2.2,1-2.2,2.2c0,1.2,1,2.2,2.2,2.2c1.2,0,2.2-1,2.2-2.2
			C30.6,17.9,29.6,16.9,28.4,16.9z"/>
	</g>
</g>
</svg>
