<?xml version="1.0" encoding="utf-8"?>
<!-- Generator: Adobe Illustrator 25.2.3, SVG Export Plug-In . SVG Version: 6.00 Build 0)  -->
<svg version="1.1" id="Warstwa_1" xmlns="http://www.w3.org/2000/svg" xmlns:xlink="http://www.w3.org/1999/xlink" x="0px" y="0px"
	 viewBox="0 0 49.2 38" style="enable-background:new 0 0 49.2 38;" xml:space="preserve">
<style type="text/css">
	.st0{fill:#838383;}
</style>
<g>
	<path class="st0" d="M47.4,23.4l-3.6-1.8L42,19c-0.3-0.5-0.8-0.7-1.4-0.7H10.7c-0.5,0-0.9,0.2-1.2,0.7l-1.8,2.6l-5.2,0.9
		c0,0-0.1,0-0.1,0c-0.9,0.3-1.5,1.1-1.5,2.1v3.6c0,0.8,0.6,1.4,1.4,1.4h4.1c0.5,1.3,1.7,2.2,3.2,2.2c1.4,0,2.7-0.9,3.2-2.2h23.9
		c0.5,1.3,1.7,2.2,3.2,2.2c1.4,0,2.7-0.9,3.2-2.2h3.8c0.8,0,1.4-0.6,1.4-1.4v-3.2C48.3,24.3,48,23.7,47.4,23.4z M9.6,30.3
		c-1.1,0-2-0.9-2-2s0.9-2,2-2s2,0.9,2,2S10.7,30.3,9.6,30.3z M39.9,30.3c-1.1,0-2-0.9-2-2s0.9-2,2-2c1.1,0,2,0.9,2,2
		S41,30.3,39.9,30.3z M46.9,28.1h-3.6c-0.1-1.8-1.6-3.2-3.4-3.2c-1.8,0-3.3,1.4-3.4,3.2H13c-0.1-1.8-1.6-3.2-3.4-3.2
		c-1.8,0-3.3,1.4-3.4,3.2H2.3c0,0,0,0,0,0v-1.2h2.1c0.2,0,0.3-0.1,0.3-0.3v-1.1c0-0.2-0.1-0.3-0.3-0.3H2.3v-0.8
		c0-0.3,0.2-0.6,0.5-0.7l5.4-1c0.2,0,0.3-0.1,0.5-0.3l2-2.9c0,0,0,0,0,0c0,0,0,0,0,0h29.9c0.1,0,0.2,0,0.2,0.1c0,0,0,0,0,0l2,2.8
		c0.1,0.1,0.2,0.2,0.3,0.2l3.7,1.8c0.1,0,0.1,0.1,0.1,0.2v0.4H46c-0.2,0-0.3,0.1-0.3,0.3v1.1c0,0.2,0.1,0.3,0.3,0.3h0.9L46.9,28.1
		C46.9,28.1,46.9,28.1,46.9,28.1z"/>
	<path class="st0" d="M39.3,20.5c-0.2-0.3-0.5-0.4-0.8-0.4H11.7c-0.4,0-0.7,0.2-0.9,0.5l-1,1.6c-0.2,0.3-0.2,0.7,0,1
		c0.2,0.3,0.5,0.5,0.9,0.5h28.8c0.4,0,0.7-0.2,0.9-0.6c0.2-0.3,0.2-0.8-0.1-1.1L39.3,20.5z M25.8,21.5h6.9v0.9h-6.9V21.5z
		 M24.4,22.3h-6.9v-0.9h6.9V22.3z M11.9,21.5h4.2v0.9h-4.8L11.9,21.5z M34.2,22.3v-0.9h4.1l0.6,0.9H34.2z"/>
	<path class="st0" d="M10.5,28.3c0,0.5-0.4,0.9-0.9,0.9c-0.5,0-0.9-0.4-0.9-0.9s0.4-0.9,0.9-0.9C10.1,27.5,10.5,27.8,10.5,28.3z"/>
	<path class="st0" d="M40.7,28.3c0,0.5-0.4,0.9-0.9,0.9c-0.5,0-0.9-0.4-0.9-0.9s0.4-0.9,0.9-0.9C40.4,27.5,40.7,27.8,40.7,28.3z"/>
	<path class="st0" d="M16.1,24.4h-1.5c-0.4,0-0.7,0.3-0.7,0.7c0,0.4,0.3,0.7,0.7,0.7h1.5c0.4,0,0.7-0.3,0.7-0.7
		C16.8,24.7,16.5,24.4,16.1,24.4z"/>
	<path class="st0" d="M36.3,13.1c0,0,0.1,0,0.1,0.1c1,0.4,1.6,1.1,1.8,2l0.2,0.7c0.1,0.4,0.4,0.6,0.8,0.6h0c0.4,0,0.7-0.3,0.8-0.6
		l0.2-0.7c0.2-0.9,0.8-1.6,1.8-2c0,0,0.1,0,0.1-0.1c0.2-0.2,0.4-0.4,0.4-0.7c0-0.3-0.1-0.6-0.4-0.7c0,0-0.1,0-0.1-0.1
		c-1-0.4-1.6-1.1-1.8-2L40,8.9c-0.1-0.4-0.4-0.6-0.8-0.6c0,0,0,0,0,0c-0.4,0-0.7,0.3-0.8,0.6l-0.2,0.7c-0.2,0.9-0.8,1.6-1.8,2
		c0,0-0.1,0-0.1,0.1c-0.2,0.2-0.4,0.4-0.4,0.7S36,12.9,36.3,13.1z M39.2,10.9c0.3,0.6,0.8,1.1,1.3,1.5c-0.6,0.4-1,0.9-1.3,1.5
		c-0.3-0.6-0.8-1.1-1.3-1.5C38.4,12,38.8,11.5,39.2,10.9z"/>
	<path class="st0" d="M45.8,16.5c0,0.5-0.4,0.9-0.9,0.9c-0.5,0-0.9-0.4-0.9-0.9c0-0.5,0.4-0.9,0.9-0.9C45.4,15.6,45.8,16,45.8,16.5z
		"/>
	<path class="st0" d="M32.1,9.8c0,0.5-0.4,0.9-0.9,0.9c-0.5,0-0.9-0.4-0.9-0.9c0-0.5,0.4-0.9,0.9-0.9C31.7,8.9,32.1,9.3,32.1,9.8z"
		/>
</g>
</svg>
