<svg id="Layer_1" data-name="Layer 1" xmlns="http://www.w3.org/2000/svg" viewBox="0 0 1366 768"><defs><style>.cls-1{fill:#838383;}.cls-2{fill:#f3f3f3;}.cls-3{fill:#fefefe;}</style></defs><title>limousine</title><path class="cls-1" d="M1305.43,484.5c-9.07,0-18.13.14-27.19-.06-3.35-.08-5.07.87-6.2,4.22-8.68,25.85-26.07,42.57-53,48.2-22.08,4.63-41.81-.76-59.25-15.43-10.68-9-17.45-20.16-21.46-33.16-1.18-3.81-3.35-3.81-6.37-3.8q-47.44.07-94.9,0l-248.6,0H351.32c-22.24,0-44.47,0-66.71-.12-4,0-5.85,1.1-7.28,5.24-8.94,26-27.09,43-54,47.67-26.37,4.6-49.4-3.63-66.86-25-5.54-6.78-9.93-14.07-12.16-22.53-1-4-3.14-5.36-7.32-5.31-20.06.21-40.12-.09-60.18.16-19,.23-26.49-7.05-32.7-23.82-2.11-5.71-4.39-11.4-5-17.59-.25-2.61-1.84-3.89-4.75-3.79-5.58.2-11.18.15-16.78,0-6.2-.13-9.57-3.66-9.57-9.75s3.37-9.69,9.49-9.86a99.94,99.94,0,0,1,12.72.07c4.83.49,5.56-1.6,5.72-5.9.24-6.28-2.43-12.33-.38-18.84,2.72-8.65,7.31-13.84,16.25-14.5,4.25-.31,5.37-2.15,6.39-5.63,3.13-10.6,6.47-21.14,9.93-31.63,3.75-11.38,10.47-16.18,22.14-16.19,10,0,20.06-.07,30.09,0a11.07,11.07,0,0,0,6.58-1.64C144.3,313.69,161.51,301.61,179,290s35.41-22.06,55-29.6a121.82,121.82,0,0,1,43.68-8.3c52.45-.16,104.91-.06,157.37-.05q223,0,446,.08c37.8,0,75.6.23,113.39-.19,24.07-.27,45.32,8,65.8,19.39,22.28,12.37,42.54,27.84,63.76,41.83a30,30,0,0,0,16.12,5c16.44.66,32.84,2.33,49.28,3.18,7.28.37,14.55.62,21.82,1.21,21.18,1.73,42.37,3.46,63.59,4.47,8.24.39,16.44,1.33,24.71,1.42,34.63.4,56.32,19.49,61.44,54.28,4.08,27.74-.82,54.45-10.06,80.57-1.46,4.14-3.17,8.2-4.52,12.37-2.2,6.8-7.35,8.87-13.79,8.91C1323.56,484.54,1314.5,484.5,1305.43,484.5Z"/><path class="cls-2" d="M422.23,247c.26.5.66.94.68,1.39,0,1-.76,1.15-1.47.94-.36-.11-.58-.71-.87-1.08Z"/><path class="cls-3" d="M1335.54,367.66c-16.18,0-31.39,0-46.61,0-6.15,0-11.2,4.42-11.23,9.77,0,6.09,4.08,9.9,10.91,9.91,16,0,32,.14,48-.1,4.67-.07,5.83,1.66,6,6.07.69,22.9-3.44,44.92-11.23,66.39-1.14,3.17-2.7,4.09-5.83,4.07q-22.85-.16-45.71,0c-3,0-4.17-.62-4.61-4-3.25-25.11-15.92-44.12-38.4-55.86-25.55-13.36-58.34-9-79.46,11.52a71.67,71.67,0,0,0-21.81,43.72c-.58,4.55-2.41,4.63-5.8,4.62q-44.54-.11-89.09,0H288.46c-7.91,0-7.27-.11-8.59-7.8C275.41,430,261.35,411,236.61,401.37c-23.17-9.05-45.6-6.68-66.1,7.88-17.33,12.32-27.29,29.21-29.33,50.48-.28,2.87-.88,4.07-4,4q-33.27-.13-66.54,0c-2.62,0-4.53-.89-5.75-3.07-3.22-5.76-4.36-12.22-5.85-18.52-.7-3,1.8-2.78,3.73-2.78,8.3,0,16.59,0,24.88,0a10.42,10.42,0,0,0,10.55-9.92c.12-4.84-4.77-9.64-10.26-9.71-9.25-.11-18.51-.13-27.77,0-3.25.06-5-.53-4.85-4.37S54.09,407.92,54.2,404c.09-3,1.11-3.86,4.06-4,12.94-.6,13.91-1.2,16.79-14.06,1.38-6.16,4-8.44,10.49-8,10,.62,20,.2,30.07.15,6.14,0,10.46-4.16,10.43-9.83,0-4.83-4.94-9.72-10.22-9.79q-13.59-.21-27.19,0c-3.68.06-4.65-.72-3.43-4.65,1.59-5.12,3.83-7.53,9.7-7.13,8.83.61,17.74,0,26.6.24a24.88,24.88,0,0,0,15.19-4.43c17.15-11.61,34-23.7,51.43-34.87,21.13-13.54,42.29-27.26,67.26-33.05a58,58,0,0,1,13-1.86q144.36.06,288.72,0,225.35,0,450.67.27c14.07,0,26.5,7.11,38.7,13.58,23.79,12.62,45.31,28.8,67.41,44,6.09,4.19,12.5,6.82,19.63,6.89,14.61.16,29.13,1.67,43.68,2.54,21,1.25,42,3.21,63.08,4.35q11.22.6,22.43,1.39c16.25,1.11,32.59,1.61,48.71,3.77C1321.74,350.84,1330.28,356.58,1335.54,367.66Z"/><path class="cls-3" d="M1205.23,518.15c-26.84,1.86-51.58-24.19-50.44-52.66,1-25.46,23.08-50.18,51.76-49.38,25.5.71,50.12,23.33,49.33,53.08C1255.22,493.9,1232.8,519.81,1205.23,518.15Z"/><path class="cls-3" d="M211.08,518.18c-29.31,1.28-51.45-24.61-51.06-51.08a51.21,51.21,0,0,1,48.09-50.88c31.06-1.75,53,24.45,53.27,50.17C261.73,495,238.51,519.35,211.08,518.18Z"/><path class="cls-1" d="M644.57,354.93c-73.69,0-147.37-.13-221.06.17-9.47,0-12.65-5.5-12.67-12.54,0-14.47-.09-28.93.06-43.4.11-10.54,3.45-13.67,14-13.67h441c10.93,0,13.68,2.74,13.68,13.55q0,22,0,44c0,9-2.93,11.91-12.16,11.91Z"/><path class="cls-1" d="M709.89,439.56H318.11c-2.12,0-4.24,0-6.36-.05-6-.15-9.47-3.08-9.78-8.14-.38-6.43,3.1-10.82,9.29-11.57a37.45,37.45,0,0,1,4.62-.05H1105.8c7.31,0,12.38,3.26,13.27,8.51,1.07,6.34-2.94,11.13-9.88,11.2-14.66.16-29.32.1-44,.1Z"/><path class="cls-1" d="M999.31,354.93H916.62c-8.92,0-11.71-2.75-11.73-11.58,0-15.42-.07-30.84,0-46.26,0-8.38,3.17-11.56,11.48-11.58,18.69-.06,37.41-.56,56.08.14,18.18.68,35.27,6.47,51.61,14.27,22.37,10.68,43,24.46,64.56,36.57,4.86,2.73,5.94,6.88,4.63,11.77s-5,6.73-10.07,6.72C1055.21,354.89,1027.26,354.93,999.31,354.93Z"/><path class="cls-1" d="M298.12,354.93c-25.45,0-50.91-.06-76.36.06-5.16,0-9.21-1.35-10.77-6.62-1.6-5.42.85-9.23,5.4-12.08,20.14-12.59,39.26-26.87,60.56-37.53a118.14,118.14,0,0,1,41-12.25c19-2,38.08-.51,57.12-1,8-.19,11.35,3.29,11.37,11.08q0,23.72,0,47.44c0,7.65-3.22,10.85-10.83,10.86Q336.89,355,298.12,354.93Z"/><path class="cls-1" d="M1171.2,467.57c-1.5-19.43,16.16-34.89,33.56-35.06,19-.19,34.28,15.3,34.85,34.09.55,18-14.58,35.69-35.1,35.52C1187.73,502,1169.31,485.72,1171.2,467.57Z"/><path class="cls-1" d="M176.87,467.27c-.8-19,15.08-35,34.52-34.65,18.14.35,33.94,14,33.91,35.45,0,18.19-15.9,34.75-35.89,34C191.33,501.38,175.75,485.32,176.87,467.27Z"/><path class="cls-3" d="M645.24,335.26q-103.56,0-207.14.08c-5.26,0-8.33-.37-7.44-7.07.78-5.86,0-11.92-.08-17.89,0-3.6,1.18-6,5.4-5.23a13.69,13.69,0,0,0,2.31,0q207.13,0,414.28-.13c5.66,0,8,1.08,7.41,7.22a101.42,101.42,0,0,0,0,17.34c.33,4.67-1.34,5.77-5.83,5.75-39.54-.16-79.08-.09-118.61-.09Z"/><path class="cls-3" d="M1045,335.26h-25.27c-29.7,0-59.41-.11-89.11.11-4.84,0-6.36-1.29-6.07-6.11.41-6.73.12-13.5.1-20.25,0-2.05,0-3.94,2.89-3.83,21.26.8,42.79-2.61,63.7,3.56C1010.52,314.42,1028.09,323.84,1045,335.26Z"/><path class="cls-3" d="M256.83,335.26c17.56-12.73,35.38-24.31,56.86-28.33,16.62-3.11,33.39-1.27,50.09-1.75,2.75-.08,3,1.68,3,3.82,0,7.52-.17,15,.05,22.56.13,4.49-2.84,3.69-5.42,3.69q-35.58,0-71.16,0Z"/><path class="cls-3" d="M1190.88,467.69c0-8.49,6-15,13.89-15.16s15.1,6.91,15,14.83-6.83,14.81-14.46,14.89A14.7,14.7,0,0,1,1190.88,467.69Z"/><path class="cls-3" d="M225.57,467.86a15,15,0,0,1-14.85,14.39c-7.79-.14-14-6.92-14.1-15.12-.07-7.25,4.71-14.16,15.08-14.58C218.82,452.26,225.67,460.14,225.57,467.86Z"/></svg>