<?xml version="1.0" encoding="utf-8"?>
<!-- Generator: Adobe Illustrator 19.0.0, SVG Export Plug-In . SVG Version: 6.00 Build 0)  -->
<svg version="1.1" id="Warstwa_1" xmlns="http://www.w3.org/2000/svg" xmlns:xlink="http://www.w3.org/1999/xlink" x="0px" y="0px"
	 viewBox="-2 7 44.5 38" style="enable-background:new -2 7 44.5 38;" xml:space="preserve">
<style type="text/css">
	.st0{fill:#848484;}
</style>
<g transform="translate(-1)">
	<path class="st0" d="M-0.4,33.8c0.2,0.1,0.5,0.1,0.7-0.1c0.6-0.4,1.4-0.6,2.2-0.6c0.8,0,1.6,0.3,2.2,0.7c0,0.1,0.1,0.1,0.1,0.2
		c0.3,0.4,6.8,9,12.4,9c0.3,0,0.5,0,0.8-0.1c2.2-0.3,4.5-1.3,7-2.4c3.9-1.7,8.4-3.6,13-3.1l4.7,0.8c0.3,0.1,0.7-0.1,0.8-0.4
		c0.1-0.3,0.1-0.7-0.2-0.9L35,30.1c-0.2-1.5-1.3-10-7.3-15.1c-2.7-2.3-6-3.6-9.6-3.7c-0.6-1.5-2.2-2.5-3.8-2.3s-3,1.4-3.3,3
		c-0.2,0.1-0.4,0.1-0.6,0.2c0,0,0,0,0,0c-2.9,0.9-5.5,2.6-7.4,5c-5.1,6.5-3.7,15.7-3.6,16.1C-0.8,33.5-0.6,33.7-0.4,33.8z M38.2,36
		c-5-0.5-9.7,1.5-13.8,3.2c-2.4,1-4.7,2-6.7,2.3c-3.8,0.5-8.9-4.8-11.2-7.7c4.5-1.3,9.1-2.2,13.7-2.8c4.5-0.4,9-0.4,13.5,0l6.4,5.3
		L38.2,36z M9.3,17.5c0.2-1.5,0.8-2.9,1.7-4c1.3-0.4,2.6-0.6,3.9-0.7c3.3-0.4,6.6,0.2,9.5,1.8c0,0,0,0,0,0c0.2,0.3,0.4,0.6,0.6,1
		c2.1,3.7,3.9,12.9,4,13.4c0,0,0,0.1,0,0.1l0,0.3c-3-0.1-5.9,0-8.9,0.3c-3.4,0.4-6.8,1-10.1,1.8C9.7,29.7,8.6,21.4,9.3,17.5z
		 M33.4,29.5c-0.7-0.1-1.7-0.1-2.9-0.2l-0.1-0.7c0,0,0,0,0-0.1c-0.2-0.9-1.5-7.8-3.3-12.1C31.7,20.7,33,27.2,33.4,29.5z M14.6,10.4
		c0.7,0,1.3,0.3,1.7,0.8c-0.5,0-1.1,0-1.6,0.1c-0.7,0.1-1.4,0.2-2.1,0.3C13,10.8,13.8,10.4,14.6,10.4L14.6,10.4z M4,18
		c1.3-1.6,2.9-2.9,4.7-3.7c-0.4,0.9-0.7,1.9-0.9,2.9c-0.7,4.3,0.5,13,0.7,14.6c-1.4,0.4-2.5,0.6-3,0.8c-0.9-0.6-2-0.9-3.1-1
		c-0.7,0-1.3,0.1-2,0.3C0.3,29.5,0.2,22.8,4,18z"/>
	<path class="st0" d="M25,21.4c-0.3-2.6-2.3-4.6-5.4-4.3s-4.5,2.7-4.2,5.3s2.1,4.6,5.2,4.3C23.7,26.4,25.3,24.1,25,21.4z M16.9,22.3
		c-0.2-1.8,0.6-3.4,2.9-3.7c2.2-0.2,3.5,1.1,3.7,3s-0.8,3.4-3,3.7S17.1,24.1,16.9,22.3z"/>
</g>
</svg>
