<?xml version="1.0" encoding="utf-8"?>
<!-- Generator: Adobe Illustrator 25.2.3, SVG Export Plug-In . SVG Version: 6.00 Build 0)  -->
<svg version="1.1" id="Warstwa_1" xmlns="http://www.w3.org/2000/svg" xmlns:xlink="http://www.w3.org/1999/xlink" x="0px" y="0px"
	 viewBox="0 0 49.2 38" style="enable-background:new 0 0 49.2 38;" xml:space="preserve">
<style type="text/css">
	.st0{fill:#838383;}
</style>
<g>
	<path class="st0" d="M42.2,32.8l-6.3-5.2V10.7h1.8c0.3,0,0.6-0.3,0.6-0.6V7.7c0-0.3-0.3-0.6-0.6-0.6h-0.6v-3c0-0.2-0.1-0.4-0.3-0.5
		c-0.2-0.1-5-2.4-12.1-2.4S12.7,3.5,12.5,3.6c-0.2,0.1-0.3,0.3-0.3,0.5v3h-0.6c-0.3,0-0.6,0.3-0.6,0.6v2.4c0,0.3,0.3,0.6,0.6,0.6
		h1.8v16.9L7,32.8c-0.1,0.1-0.2,0.3-0.2,0.5v3c0,0.3,0.3,0.6,0.6,0.6h34.4c0.3,0,0.6-0.3,0.6-0.6v-3C42.4,33.1,42.3,32.9,42.2,32.8z
		 M33.1,3.6h-17C21.7,2,27.5,2,33.1,3.6z M13.3,4.8h22.5v2.4H13.3V4.8z M12.1,8.3h24.9v1.2H12.1V8.3z M34.7,10.7v16.6h-2.4v-7.2
		c0.9-0.3,1.4-1.3,1.1-2.3c-0.3-0.9-1.3-1.4-2.3-1.1c-0.9,0.3-1.4,1.3-1.1,2.3c0.1,0.2,0.2,0.3,0.3,0.5c-0.5,0.4-1,0.8-1.6,1.1v-8.2
		c0-0.3-0.3-0.6-0.6-0.6H21c-0.3,0-0.6,0.3-0.6,0.6v8.3c-0.6-0.4-1.1-0.8-1.6-1.2c0.6-0.7,0.5-1.9-0.2-2.5c-0.7-0.6-1.9-0.5-2.5,0.2
		c-0.6,0.7-0.5,1.9,0.2,2.5c0.2,0.1,0.4,0.2,0.6,0.3v7.2h-2.4V10.7H34.7z M17.5,19c-0.3,0-0.6-0.3-0.6-0.6c0-0.3,0.3-0.6,0.6-0.6
		c0.3,0,0.6,0.3,0.6,0.6C18.1,18.7,17.8,19,17.5,19z M18.1,20.5c0.7,0.6,1.5,1.2,2.4,1.7v5.2h-2.4V20.5z M21.6,22.6
		c0.8,0.3,1.6,0.4,2.4,0.5v4.2h-2.4V22.6z M27.6,21.3c-0.8,0.3-1.6,0.6-2.4,0.7v-8.9h2.4V21.3z M24,21.9c-0.4,0-0.7-0.1-1-0.1
		c-0.5-0.1-0.9-0.2-1.3-0.4v-8.3H24V21.9z M25.2,23.1c0.8-0.1,1.6-0.3,2.4-0.6v4.7h-2.4V23.1z M28.8,22c0.8-0.5,1.6-1,2.4-1.7v6.9
		h-2.4V22z M31.7,19c-0.3,0-0.6-0.3-0.6-0.6c0-0.3,0.3-0.6,0.6-0.6c0.3,0,0.6,0.3,0.6,0.6C32.3,18.7,32,19,31.7,19z M8,33.5l6.1-5
		h1.7L8,34.9V33.5z M9.1,35.6l7.8-6.5v0.5c0,0.3,0.3,0.6,0.6,0.6c0.3,0,0.6-0.3,0.6-0.6v-1.2h13v1.2c0,0.3,0.3,0.6,0.6,0.6
		c0.3,0,0.6-0.3,0.6-0.6v-0.5l7.8,6.5H9.1z M41.2,34.9l-7.8-6.5h1.7l6.1,5V34.9z"/>
</g>
</svg>
