<?xml version="1.0" encoding="utf-8"?>
<!-- Generator: Adobe Illustrator 17.0.0, SVG Export Plug-In . SVG Version: 6.00 Build 0)  -->
<!DOCTYPE svg PUBLIC "-//W3C//DTD SVG 1.1//EN" "http://www.w3.org/Graphics/SVG/1.1/DTD/svg11.dtd">
<svg version="1.1" id="Layer_1" xmlns="http://www.w3.org/2000/svg" xmlns:xlink="http://www.w3.org/1999/xlink" x="0px" y="0px"
	 width="591.492px" height="571.587px" viewBox="0 0 591.492 571.587" enable-background="new 0 0 591.492 571.587"
	 xml:space="preserve">
<g>
	<path fill="#838383" d="M85.144,239.357c-34.3,0-62.204-27.905-62.204-62.205s27.904-62.204,62.204-62.204
		s62.205,27.904,62.205,62.204S119.443,239.357,85.144,239.357z M85.144,137.948c-21.617,0-39.204,17.587-39.204,39.204
		c0,21.618,17.587,39.205,39.204,39.205c21.618,0,39.205-17.587,39.205-39.205C124.349,155.535,106.762,137.948,85.144,137.948z"/>
</g>
<g>
	<path fill="#838383" d="M197.83,571.587h-54.072c-3.205,0-6.265-1.338-8.441-3.689c-2.177-2.353-3.272-5.507-3.024-8.702
		l6.643-85.396H24.712c-6.352,0-11.5-5.148-11.5-11.5v-1.688L3.245,403.88c-0.197-1.122-0.227-2.267-0.088-3.397l20.282-164.476
		c0.71-5.764,5.606-10.093,11.413-10.093h95.926c5.771,0,10.647,4.276,11.401,9.997l10.09,76.523h77.884
		c3.171,0,6.201,1.31,8.374,3.618s3.297,5.412,3.104,8.577l-3.803,62.744c-0.367,6.061-5.382,10.791-11.453,10.805l-14.996,0.033
		c4.829,10.008,5.556,21.581,5.556,32.726c0,22.869-7.323,125.606-7.635,129.969C208.871,566.925,203.863,571.587,197.83,571.587z
		 M156.186,548.587h30.923c1.915-27.502,6.826-99.803,6.826-117.649c0-23.943-3.888-32.444-25.729-32.444H85.169
		c-0.009,0-0.018,0-0.026,0c-6.339,0-11.485-5.132-11.499-11.475c0-0.017,0-0.033,0-0.051v-66.836c0-6.352,5.148-11.5,11.5-11.5
		s11.5,5.148,11.5,11.5v55.336l118.882-0.265l2.41-39.769h-75.749c-5.771,0-10.647-4.276-11.401-9.997l-10.09-76.523H45.021
		L26.195,401.592l8.646,49.208h116.522c3.205,0,6.265,1.338,8.441,3.689c2.177,2.353,3.272,5.507,3.024,8.702L156.186,548.587z"/>
</g>
<g>
	<path fill="#838383" d="M43.823,571.587c-6.352,0-11.5-5.148-11.5-11.5V474.14c0-6.352,5.148-11.5,11.5-11.5s11.5,5.148,11.5,11.5
		v85.947C55.323,566.439,50.175,571.587,43.823,571.587z"/>
</g>
<g>
	<path fill="#838383" d="M72.343,571.587H11.5c-6.352,0-11.5-5.148-11.5-11.5s5.148-11.5,11.5-11.5h60.843
		c6.352,0,11.5,5.148,11.5,11.5S78.694,571.587,72.343,571.587z"/>
</g>
<g>
	<path fill="#838383" d="M296.354,571.587c-6.352,0-11.5-5.148-11.5-11.5V430.938c0-6.352,5.148-11.5,11.5-11.5
		s11.5,5.148,11.5,11.5v129.149C307.854,566.439,302.706,571.587,296.354,571.587z"/>
</g>
<g>
	<path fill="#838383" d="M324.874,571.587h-60.843c-6.352,0-11.5-5.148-11.5-11.5s5.148-11.5,11.5-11.5h60.843
		c6.352,0,11.5,5.148,11.5,11.5S331.226,571.587,324.874,571.587z"/>
</g>
<g>
	<path fill="#838383" d="M506.349,239.357c-34.3,0-62.204-27.905-62.204-62.205s27.904-62.204,62.204-62.204
		s62.205,27.904,62.205,62.204S540.648,239.357,506.349,239.357z M506.349,137.948c-21.617,0-39.204,17.587-39.204,39.204
		c0,21.618,17.587,39.205,39.204,39.205c21.618,0,39.205-17.587,39.205-39.205C545.554,155.535,527.967,137.948,506.349,137.948z"/>
</g>
<g>
	<path fill="#838383" d="M296.354,239.357c-34.3,0-62.205-27.905-62.205-62.205s27.905-62.204,62.205-62.204
		s62.204,27.904,62.204,62.204S330.654,239.357,296.354,239.357z M296.354,137.948c-21.618,0-39.205,17.587-39.205,39.204
		c0,21.618,17.587,39.205,39.205,39.205c21.617,0,39.204-17.587,39.204-39.205C335.559,155.535,317.972,137.948,296.354,137.948z"/>
</g>
<g>
	<path fill="#838383" d="M447.735,571.587h-54.073c-6.033,0-11.041-4.662-11.471-10.681c-0.312-4.362-7.635-107.1-7.635-129.969
		c0-11.145,0.727-22.718,5.556-32.726l-14.995-0.033c-6.071-0.014-11.086-4.744-11.453-10.805l-3.803-62.744
		c-0.192-3.165,0.932-6.269,3.104-8.577s5.203-3.618,8.374-3.618h77.883l10.091-76.524c0.755-5.72,5.631-9.996,11.401-9.996h95.925
		c5.807,0,10.703,4.329,11.413,10.093l20.282,164.476c0.14,1.131,0.11,2.275-0.087,3.397l-9.968,56.731v1.688
		c0,6.352-5.148,11.5-11.5,11.5H452.559l6.643,85.396c0.248,3.195-0.848,6.35-3.024,8.701
		C454,570.249,450.94,571.587,447.735,571.587z M404.383,548.587h30.923l-6.643-85.396c-0.248-3.195,0.848-6.35,3.024-8.702
		c2.177-2.352,5.236-3.689,8.441-3.689h116.522l8.646-49.208l-18.827-152.678h-75.673l-10.091,76.524
		c-0.755,5.72-5.631,9.996-11.401,9.996h-75.748l2.41,39.769l118.881,0.265v-55.336c0-6.352,5.148-11.5,11.5-11.5
		c6.352,0,11.5,5.148,11.5,11.5v66.861c0,5.416-3.744,9.958-8.785,11.178c-0.001,0-0.001,0-0.001,0
		c-0.007,0.002-0.011,0.007-0.02,0.005c-0.007,0.001-0.011,0-0.02,0.005c-0.005,0.002-0.011,0.005-0.019,0.004
		c-0.007,0.002-0.015,0.003-0.02,0.005c-0.007,0-0.014,0.004-0.021,0.005c-0.001,0-0.001,0-0.002,0
		c-0.006,0.002-0.012,0.003-0.017,0.004h-0.001c-0.834,0.193-1.703,0.295-2.596,0.295c-0.01,0-0.018,0-0.026,0h-83.037
		c-21.842,0-25.729,8.501-25.729,32.444C397.557,448.784,402.468,521.085,404.383,548.587z"/>
</g>
<g>
	<path fill="#838383" d="M547.67,571.587c-6.352,0-11.5-5.148-11.5-11.5V474.14c0-6.352,5.148-11.5,11.5-11.5s11.5,5.148,11.5,11.5
		v85.947C559.17,566.439,554.021,571.587,547.67,571.587z"/>
</g>
<g>
	<path fill="#838383" d="M579.992,571.587H519.15c-6.352,0-11.5-5.148-11.5-11.5s5.148-11.5,11.5-11.5h60.842
		c6.352,0,11.5,5.148,11.5,11.5S586.344,571.587,579.992,571.587z"/>
</g>
<g>
	<path fill="#838383" d="M380.986,442.438H206.651c-5.97,0-10.946-4.567-11.458-10.515l-3.803-44.206
		c-0.275-3.209,0.807-6.388,2.985-8.761c2.178-2.373,5.251-3.725,8.473-3.725h183.208c3.278,0,6.4,1.399,8.583,3.846
		c2.182,2.446,3.216,5.708,2.842,8.965l-5.07,44.206C391.745,438.054,386.831,442.438,380.986,442.438z M217.204,419.438h153.525
		l2.433-21.206H215.381L217.204,419.438z"/>
</g>
<g>
	<path fill="#838383" d="M387.906,335.437c-5.613,0-10.526-4.116-11.364-9.835l-11.234-76.688H233.068l-11.235,76.688
		c-0.92,6.285-6.767,10.628-13.046,9.712c-6.284-0.921-10.632-6.762-9.712-13.046l12.677-86.521
		c0.828-5.647,5.672-9.833,11.379-9.833h152.114c5.707,0,10.551,4.186,11.379,9.833l12.676,86.521
		c0.92,6.284-3.428,12.125-9.712,13.046C389.022,335.396,388.461,335.437,387.906,335.437z"/>
</g>
<g>
	<path fill="#838383" d="M294.453,315.676c-4.297,0-8.235-2.396-10.212-6.211l-30.422-58.733c-2.921-5.64-0.717-12.579,4.923-15.501
		c5.64-2.918,12.58-0.718,15.501,4.923l20.21,39.019l20.209-39.019c2.922-5.641,9.863-7.841,15.501-4.923
		c5.64,2.922,7.844,9.861,4.923,15.501l-30.421,58.733C302.688,313.28,298.75,315.676,294.453,315.676z"/>
</g>
<g>
	<path fill="#838383" d="M296.354,357.315c-6.352,0-11.5-5.148-11.5-11.5v-7.8c0-6.352,5.148-11.5,11.5-11.5s11.5,5.148,11.5,11.5
		v7.8C307.854,352.167,302.706,357.315,296.354,357.315z"/>
</g>
<g>
	<path fill="#838383" d="M161.522,97.098c-1.449,0-2.906-0.273-4.293-0.832c-3.767-1.516-6.454-4.905-7.072-8.919l-2.4-15.598
		h-20.357c-6.352,0-11.5-5.148-11.5-11.5V11.5c0-6.352,5.148-11.5,11.5-11.5h148.195c6.352,0,11.5,5.148,11.5,11.5v48.749
		c0,6.352-5.148,11.5-11.5,11.5h-77.029l-30.057,22.984C166.471,96.291,164.009,97.098,161.522,97.098z M138.899,48.749h18.723
		c5.676,0,10.503,4.141,11.366,9.751l0.952,6.185l17.747-13.57c2.006-1.534,4.46-2.365,6.985-2.365h69.422V23H138.899V48.749z"/>
</g>
<g>
	<path fill="#838383" d="M364.515,46.399h-7.456c-6.352,0-11.5-5.148-11.5-11.5s5.148-11.5,11.5-11.5h7.456
		c6.352,0,11.5,5.148,11.5,11.5S370.866,46.399,364.515,46.399z"/>
</g>
<g>
	<path fill="#838383" d="M413.264,46.399h-7.456c-6.352,0-11.5-5.148-11.5-11.5s5.148-11.5,11.5-11.5h7.456
		c6.352,0,11.5,5.148,11.5,11.5S419.615,46.399,413.264,46.399z"/>
</g>
<g>
	<path fill="#838383" d="M462.012,46.399h-7.456c-6.352,0-11.5-5.148-11.5-11.5s5.148-11.5,11.5-11.5h7.456
		c6.352,0,11.5,5.148,11.5,11.5S468.363,46.399,462.012,46.399z"/>
</g>
</svg>
