<?xml version="1.0" encoding="utf-8"?>
<!-- Generator: Adobe Illustrator 19.0.0, SVG Export Plug-In . SVG Version: 6.00 Build 0)  -->
<svg version="1.1" id="Warstwa_1" xmlns="http://www.w3.org/2000/svg" xmlns:xlink="http://www.w3.org/1999/xlink" x="0px" y="0px"
	 viewBox="-201 98.4 49.2 38" style="enable-background:new -201 98.4 49.2 38;" xml:space="preserve">
<style type="text/css">
	.st0{fill:#838383;}
</style>
<g>
	<g id="XMLID_66_">
		<path class="st0" d="M-179.9,103.5h-6c-0.4,0-0.6-0.3-0.6-0.6s0.3-0.6,0.6-0.6h6c0.4,0,0.7,0.3,0.7,0.6S-179.5,103.5-179.9,103.5z
			"/>
	</g>
	<g id="XMLID_65_">
		<path class="st0" d="M-155.9,120.8h-41c-0.4,0-0.6-0.3-0.6-0.7v-17.3c0-0.4,0.3-0.6,0.6-0.6h3.9c0.4,0,0.6,0.3,0.6,0.6
			s-0.3,0.6-0.6,0.6h-3.3v16h39.7v-16h-3.3c-0.4,0-0.7-0.3-0.7-0.6s0.3-0.6,0.7-0.6h3.9c0.4,0,0.7,0.3,0.7,0.6v17.3
			C-155.2,120.5-155.5,120.8-155.9,120.8z"/>
	</g>
	<g id="XMLID_64_">
		<path class="st0" d="M-166.8,103.5h-6.1c-0.4,0-0.7-0.3-0.7-0.6s0.3-0.6,0.7-0.6h6.1c0.4,0,0.7,0.3,0.7,0.6
			S-166.4,103.5-166.8,103.5z"/>
	</g>
	<g id="XMLID_63_">
		<path class="st0" d="M-186,105.7h-7c-0.4,0-0.6-0.3-0.6-0.6v-4.8c0-0.4,0.3-0.6,0.6-0.6h7c0.4,0,0.6,0.3,0.6,0.6v4.8
			C-185.4,105.4-185.6,105.7-186,105.7z M-192.4,104.4h5.7v-3.5h-5.7V104.4z"/>
	</g>
	<g id="XMLID_50_">
		<path class="st0" d="M-172.9,105.7h-7c-0.4,0-0.7-0.3-0.7-0.6v-4.8c0-0.4,0.3-0.6,0.7-0.6h7c0.4,0,0.7,0.3,0.7,0.6v4.8
			C-172.2,105.4-172.5,105.7-172.9,105.7z M-179.2,104.4h5.7v-3.5h-5.7V104.4z"/>
	</g>
	<g id="XMLID_47_">
		<path class="st0" d="M-159.8,105.7h-7c-0.4,0-0.7-0.3-0.7-0.6v-4.8c0-0.4,0.3-0.6,0.7-0.6h7c0.4,0,0.7,0.3,0.7,0.6v4.8
			C-159.1,105.4-159.4,105.7-159.8,105.7z M-166.1,104.4h5.7v-3.5h-5.7V104.4z"/>
	</g>
	<g id="XMLID_31_">
		<g id="XMLID_35_">
			<path class="st0" d="M-189.5,111.8c-0.4,0-0.6-0.3-0.6-0.7v-3.6c0-0.4,0.3-0.6,0.6-0.6s0.6,0.3,0.6,0.6v3.6
				C-188.9,111.5-189.1,111.8-189.5,111.8z"/>
		</g>
		<g id="XMLID_34_">
			<path class="st0" d="M-193.8,110.2c-0.1,0-0.3,0-0.4-0.2c-0.3-0.2-0.3-0.6-0.1-0.9l1.7-2c0.2-0.3,0.6-0.3,0.9-0.1
				c0.3,0.2,0.3,0.6,0.1,0.9l-1.7,2C-193.5,110.1-193.7,110.2-193.8,110.2z"/>
		</g>
		<g id="XMLID_32_">
			<path class="st0" d="M-185.2,110.2c-0.2,0-0.4-0.1-0.5-0.2l-1.7-2c-0.2-0.3-0.2-0.7,0.1-0.9c0.3-0.2,0.7-0.2,0.9,0.1l1.7,2
				c0.2,0.3,0.2,0.7-0.1,0.9C-184.9,110.1-185,110.2-185.2,110.2z"/>
		</g>
	</g>
	<g id="XMLID_11_">
		<g id="XMLID_22_">
			<path class="st0" d="M-176.4,111.8c-0.4,0-0.7-0.3-0.7-0.7v-3.6c0-0.4,0.3-0.6,0.7-0.6s0.7,0.3,0.7,0.6v3.6
				C-175.7,111.5-176,111.8-176.4,111.8z"/>
		</g>
		<g id="XMLID_14_">
			<path class="st0" d="M-180.7,110.2c-0.1,0-0.3,0-0.4-0.2c-0.3-0.2-0.3-0.6-0.1-0.9l1.7-2c0.2-0.3,0.6-0.3,0.9-0.1
				c0.3,0.2,0.3,0.6,0.1,0.9l-1.7,2C-180.4,110.1-180.6,110.2-180.7,110.2z"/>
		</g>
		<g id="XMLID_13_">
			<path class="st0" d="M-172.1,110.2c-0.2,0-0.4-0.1-0.5-0.2l-1.7-2c-0.2-0.3-0.2-0.7,0.1-0.9c0.3-0.2,0.7-0.2,0.9,0.1l1.7,2
				c0.2,0.3,0.2,0.7-0.1,0.9C-171.8,110.1-171.9,110.2-172.1,110.2z"/>
		</g>
	</g>
	<g id="XMLID_6_">
		<g id="XMLID_10_">
			<path class="st0" d="M-163.3,111.8c-0.4,0-0.7-0.3-0.7-0.7v-3.6c0-0.4,0.3-0.6,0.7-0.6s0.7,0.3,0.7,0.6v3.6
				C-162.6,111.5-162.9,111.8-163.3,111.8z"/>
		</g>
		<g id="XMLID_8_">
			<path class="st0" d="M-167.6,110.2c-0.1,0-0.3,0-0.4-0.2c-0.3-0.2-0.3-0.6-0.1-0.9l1.7-2c0.2-0.3,0.6-0.3,0.9-0.1
				c0.3,0.2,0.3,0.6,0.1,0.9l-1.7,2C-167.3,110.1-167.5,110.2-167.6,110.2z"/>
		</g>
		<g id="XMLID_7_">
			<path class="st0" d="M-159,110.2c-0.2,0-0.4-0.1-0.5-0.2l-1.7-2c-0.2-0.3-0.2-0.7,0.1-0.9c0.3-0.2,0.7-0.2,0.9,0.1l1.7,2
				c0.2,0.3,0.2,0.7-0.1,0.9C-158.7,110.1-158.8,110.2-159,110.2z"/>
		</g>
	</g>
	<g id="XMLID_2_">
		<path class="st0" d="M-156,135.3h-3.8c-0.4,0-0.7-0.3-0.7-0.7v-14.5c0-0.4,0.3-0.7,0.7-0.7h3.8c0.4,0,0.7,0.3,0.7,0.7v14.5
			C-155.4,135-155.7,135.3-156,135.3z M-159.1,134h2.5v-13.2h-2.5V134z"/>
	</g>
	<g id="XMLID_69_">
		<path class="st0" d="M-193.1,135.3h-3.8c-0.4,0-0.6-0.3-0.6-0.7v-14.5c0-0.4,0.3-0.7,0.6-0.7h3.8c0.4,0,0.6,0.3,0.6,0.7v14.5
			C-192.5,135-192.8,135.3-193.1,135.3z M-196.3,134h2.5v-13.2h-2.5V134z"/>
	</g>
</g>
</svg>
