<?xml version="1.0" encoding="utf-8"?>
<!-- Generator: Adobe Illustrator 19.0.0, SVG Export Plug-In . SVG Version: 6.00 Build 0)  -->
<svg version="1.1" id="Warstwa_1" xmlns="http://www.w3.org/2000/svg" xmlns:xlink="http://www.w3.org/1999/xlink" x="0px" y="0px"
	 viewBox="-398 279.3 50.5 38" style="enable-background:new -398 279.3 50.5 38;" xml:space="preserve">
<style type="text/css">
	.st0{fill:#838383;}
</style>
<g>
	<path class="st0" d="M-352.2,308.1h-2.5v-15.9V289v-1.2h2.3c0.4,0,0.7-0.3,0.7-0.6v-6c0-0.4-0.3-0.6-0.7-0.6h-6h-11.3h-6h-11.4h-6
		c-0.4,0-0.6,0.3-0.6,0.6v6c0,0.4,0.3,0.6,0.6,0.6h2.3v1.2v3.3v15.9h-2.4c-0.4,0-0.6,0.3-0.6,0.7v6.6c0,0.4,0.3,0.7,0.6,0.7h41
		c0.4,0,0.7-0.3,0.7-0.7v-6.6C-351.5,308.4-351.8,308.1-352.2,308.1z M-353,286.5h-2.3h-2.3v-4.7h4.7V286.5z M-369,286.5v-4.7h10
		v4.7H-369z M-370.3,281.8v4.7h-4.7v-4.7H-370.3z M-386.5,286.5v-4.7h10.1v4.7H-386.5z M-392.5,281.8h4.7v4.7h-2.3h-2.4V281.8z
		 M-389.5,292.2V289v-1.2h2.3h11.4h6h11.3h2.3v1.2v3.3v15.9h-33.5V292.2z M-352.8,314.7h-39.7v-5.3h2.4h34.8h2.5V314.7z"/>
	<path class="st0" d="M-372.7,292.9c0.4,0,0.7-0.3,0.7-0.6V289c0-0.4-0.3-0.6-0.7-0.6s-0.7,0.3-0.7,0.6v3.3
		C-373.3,292.6-373.1,292.9-372.7,292.9z"/>
	<path class="st0" d="M-368.1,291.5c0.1,0.2,0.3,0.3,0.5,0.3c0.1,0,0.3,0,0.4-0.1c0.3-0.2,0.3-0.6,0.1-0.9l-1.6-2.2
		c-0.2-0.3-0.6-0.3-0.9-0.1c-0.3,0.2-0.3,0.6-0.1,0.9L-368.1,291.5z"/>
	<path class="st0" d="M-377.8,291.8c0.2,0,0.4-0.1,0.5-0.3l1.6-2.2c0.2-0.3,0.2-0.7-0.1-0.9c-0.3-0.2-0.7-0.2-0.9,0.1l-1.6,2.2
		c-0.2,0.3-0.2,0.7,0.1,0.9C-378.1,291.7-378,291.8-377.8,291.8z"/>
	<path class="st0" d="M-385.5,291.5c0.1,0.2,0.3,0.3,0.5,0.3c0.1,0,0.3,0,0.4-0.1c0.3-0.2,0.3-0.6,0.1-0.9l-1.6-2.2
		c-0.2-0.3-0.6-0.3-0.9-0.1c-0.3,0.2-0.3,0.6-0.1,0.9L-385.5,291.5z"/>
	<path class="st0" d="M-393.3,288.4c-0.3-0.2-0.7-0.2-0.9,0.1l-1.6,2.2c-0.2,0.3-0.2,0.7,0.1,0.9c0.1,0.1,0.3,0.1,0.4,0.1
		c0.2,0,0.4-0.1,0.5-0.3l1.6-2.2C-392.9,289.1-393,288.7-393.3,288.4z"/>
	<path class="st0" d="M-349.7,290.8l-1.6-2.2c-0.2-0.3-0.6-0.3-0.9-0.1c-0.3,0.2-0.3,0.6-0.1,0.9l1.6,2.2c0.1,0.2,0.3,0.3,0.5,0.3
		c0.1,0,0.3,0,0.4-0.1C-349.5,291.4-349.5,291-349.7,290.8z"/>
	<path class="st0" d="M-360.5,291.8c0.2,0,0.4-0.1,0.5-0.3l1.6-2.2c0.2-0.3,0.2-0.7-0.1-0.9c-0.3-0.2-0.7-0.2-0.9,0.1l-1.6,2.2
		c-0.2,0.3-0.2,0.7,0.1,0.9C-360.8,291.7-360.7,291.8-360.5,291.8z"/>
	<path class="st0" d="M-358.6,294h-28.2c-0.4,0-0.7,0.3-0.7,0.6v10.9c0,0.4,0.3,0.7,0.7,0.7h28.2c0.4,0,0.7-0.3,0.7-0.7v-10.9
		C-357.9,294.3-358.2,294-358.6,294z M-359.2,304.9h-26.9v-9.6h26.9V304.9z"/>
</g>
</svg>
