<?xml version="1.0" encoding="utf-8"?>
<!-- Generator: Adobe Illustrator 19.0.0, SVG Export Plug-In . SVG Version: 6.00 Build 0)  -->
<svg version="1.1" id="Warstwa_1" xmlns="http://www.w3.org/2000/svg" xmlns:xlink="http://www.w3.org/1999/xlink" x="0px" y="0px"
	 viewBox="-3 7 41.5 38" style="enable-background:new -3 7 41.5 38;" xml:space="preserve">
<style type="text/css">
	.st0{fill:#838383;}
	.st1{fill:none;}
	.st2{fill:#FFFFFF;}
</style>
<g>
	<g id="XMLID_40_">
		<g id="XMLID_42_">
			<path class="st0" d="M35.2,31.7V11.8c0-2-1.7-3.7-3.7-3.7H15.3c-1.8,0-3.4,1.3-3.7,3.1c-0.1,0.4,0.2,0.7,0.5,0.7
				c0.4,0.1,0.7-0.2,0.7-0.5c0.2-1.2,1.2-2,2.4-2h16.2c1.3,0,2.4,1.1,2.4,2.4v19.9h1C35,31.6,35.1,31.7,35.2,31.7z"/>
		</g>
		<g id="XMLID_41_">
			<path class="st0" d="M15.3,36.5c-0.4,0-0.7,0.3-0.7,0.6s0.3,0.6,0.7,0.6H25v-1.3H15.3z"/>
		</g>
	</g>
	<g id="XMLID_35_">
		<g id="XMLID_39_">
			<path class="st1" d="M14.9,35.1c0,1.5-0.4,2.9-1.1,4.1h14c1.3,0,2.4-1.1,2.4-2.4V14.3c0-1.3-1.1-2.4-2.4-2.4H11.6
				c-1.3,0-2.4,1.1-2.4,2.4v13C12.5,28.4,14.9,31.4,14.9,35.1z"/>
		</g>
		<g id="XMLID_36_">
			<g id="XMLID_38_">
				<path class="st0" d="M31.5,14.3c0-2-1.7-3.7-3.7-3.7H11.6c-2,0-3.7,1.7-3.7,3.7v12.8c0.4,0.1,0.9,0.1,1.3,0.3v-13
					c0-1.3,1.1-2.4,2.4-2.4h16.2c1.3,0,2.4,1.1,2.4,2.4v17.3h1.3V14.3z"/>
			</g>
			<g id="XMLID_37_">
				<path class="st0" d="M13.8,39.1c-0.3,0.5-0.6,0.9-1,1.3H25v-1.3H13.8z"/>
			</g>
		</g>
	</g>
	<g id="XMLID_34_">
		<path class="st0" d="M21.4,32.3H18c-0.3,0-0.6-0.2-0.8-0.5c-0.2-0.3-0.2-0.6,0-0.9l0.5-0.8c0.2-0.3,0.2-0.6,0.3-0.9
			c-1.5,0.7-3.5,0.4-4.7-0.8c-0.8-0.8-1.2-1.8-1.2-2.9c0-1.6,1-3,2.5-3.7c0.4-0.2,0.9-0.3,1.3-0.4c-0.2-0.5-0.3-1-0.3-1.5
			c0-1.1,0.4-2.2,1.3-3s1.9-1.2,3-1.1c2.1,0.1,3.8,1.8,4,3.9c0,0.6-0.1,1.2-0.3,1.7c0.4,0,0.9,0.2,1.3,0.4c0,0,0,0,0,0
			c1.5,0.7,2.4,2.1,2.5,3.7c0,1.1-0.4,2.2-1.2,2.9c-1.2,1.2-3.1,1.6-4.7,0.8c0,0.3,0.1,0.6,0.3,0.9l0.5,0.8c0.2,0.3,0.2,0.6,0,0.9
			C22,32.2,21.7,32.3,21.4,32.3z M18.7,31h2l-0.1-0.2c-0.3-0.5-0.5-1.1-0.5-1.7v-1c0-0.3,0.2-0.5,0.4-0.6c0.2-0.1,0.5,0,0.7,0.1
			c1.1,1,2.9,1,4-0.1c0.5-0.5,0.8-1.3,0.8-2c0-1.1-0.7-2-1.7-2.5l0,0c-0.6-0.3-1.2-0.3-1.8-0.2c-0.3,0.1-0.6-0.1-0.7-0.3
			c-0.1-0.2-0.1-0.5,0.1-0.8c0.5-0.6,0.7-1.2,0.7-2c-0.1-1.4-1.3-2.6-2.7-2.7c-0.8,0-1.5,0.2-2.1,0.8c-0.6,0.5-0.9,1.3-0.9,2
			c0,0.7,0.2,1.3,0.7,1.8c0.2,0.2,0.2,0.5,0.1,0.8c-0.1,0.2-0.4,0.4-0.7,0.3c-0.6-0.1-1.2-0.1-1.8,0.2c-1,0.5-1.7,1.5-1.7,2.5
			c0,0.8,0.3,1.5,0.8,2c1,1.1,2.9,1.1,4,0c0.2-0.2,0.5-0.2,0.7-0.1c0.2,0.1,0.4,0.3,0.4,0.6v1c0,0.6-0.2,1.2-0.5,1.7L18.7,31z"/>
	</g>
	<g id="XMLID_24_">
		<g id="XMLID_33_">
			<path class="st0" d="M34.9,44h-8.1c-1.3,0-2.4-1.1-2.4-2.4v-8.1c0-1.3,1.1-2.4,2.4-2.4h8.1c1.3,0,2.4,1.1,2.4,2.4v8.1
				C37.3,42.9,36.2,44,34.9,44z M26.8,32.3c-0.6,0-1.1,0.5-1.1,1.1v8.1c0,0.6,0.5,1.1,1.1,1.1h8.1c0.6,0,1.1-0.5,1.1-1.1v-8.1
				c0-0.6-0.5-1.1-1.1-1.1H26.8z"/>
		</g>
		<g id="XMLID_29_">
			<g id="XMLID_32_">
				<path class="st0" d="M28,38.9c-0.8,0-1.5-0.7-1.5-1.5s0.7-1.5,1.5-1.5s1.5,0.7,1.5,1.5S28.8,38.9,28,38.9z M28,36.9
					c-0.3,0-0.5,0.2-0.5,0.5s0.2,0.5,0.5,0.5s0.5-0.2,0.5-0.5S28.3,36.9,28,36.9z"/>
			</g>
			<g id="XMLID_31_">
				<path class="st0" d="M28,42.3c-0.8,0-1.5-0.7-1.5-1.5s0.7-1.5,1.5-1.5s1.5,0.7,1.5,1.5S28.8,42.3,28,42.3z M28,40.3
					c-0.3,0-0.5,0.2-0.5,0.5s0.2,0.5,0.5,0.5s0.5-0.2,0.5-0.5S28.3,40.3,28,40.3z"/>
			</g>
			<g id="XMLID_30_">
				<path class="st0" d="M28,35.6c-0.8,0-1.5-0.7-1.5-1.5s0.7-1.5,1.5-1.5s1.5,0.7,1.5,1.5S28.8,35.6,28,35.6z M28,33.6
					c-0.3,0-0.5,0.2-0.5,0.5s0.2,0.5,0.5,0.5s0.5-0.2,0.5-0.5S28.3,33.6,28,33.6z"/>
			</g>
		</g>
		<g id="XMLID_25_">
			<g id="XMLID_28_">
				<path class="st0" d="M33.7,38.9c-0.8,0-1.5-0.7-1.5-1.5s0.7-1.5,1.5-1.5s1.5,0.7,1.5,1.5S34.6,38.9,33.7,38.9z M33.7,36.9
					c-0.3,0-0.5,0.2-0.5,0.5s0.2,0.5,0.5,0.5s0.5-0.2,0.5-0.5S34,36.9,33.7,36.9z"/>
			</g>
			<g id="XMLID_27_">
				<path class="st0" d="M33.7,42.3c-0.8,0-1.5-0.7-1.5-1.5s0.7-1.5,1.5-1.5s1.5,0.7,1.5,1.5S34.6,42.3,33.7,42.3z M33.7,40.3
					c-0.3,0-0.5,0.2-0.5,0.5s0.2,0.5,0.5,0.5s0.5-0.2,0.5-0.5S34,40.3,33.7,40.3z"/>
			</g>
			<g id="XMLID_26_">
				<path class="st0" d="M33.7,35.6c-0.8,0-1.5-0.7-1.5-1.5s0.7-1.5,1.5-1.5s1.5,0.7,1.5,1.5S34.6,35.6,33.7,35.6z M33.7,33.6
					c-0.3,0-0.5,0.2-0.5,0.5s0.2,0.5,0.5,0.5s0.5-0.2,0.5-0.5S34,33.6,33.7,33.6z"/>
			</g>
		</g>
	</g>
	<g id="XMLID_1_">
		<g id="XMLID_3_">
			<g id="XMLID_20_">
				<g id="XMLID_21_">
					<path class="st0" d="M6.9,43.7c-4.8,0-8.7-3.9-8.7-8.7c0-4.8,3.9-8.7,8.7-8.7c4.8,0,8.7,3.9,8.7,8.7
						C15.5,39.8,11.7,43.7,6.9,43.7z M6.9,27.7c-4.1,0-7.4,3.3-7.4,7.4c0,4.1,3.3,7.4,7.4,7.4c4.1,0,7.4-3.3,7.4-7.4
						C14.2,31,10.9,27.7,6.9,27.7z"/>
				</g>
			</g>
			<g id="XMLID_16_">
				<g id="XMLID_19_">
					<path class="st2" d="M3.2,28.7"/>
				</g>
				<g id="XMLID_17_">
					<g id="XMLID_18_">
						<path class="st0" d="M3.8,28.4c-0.2-0.3-0.6-0.4-0.9-0.2c-0.3,0.2-0.4,0.6-0.2,0.9l1.5,2.7c0.3-0.3,0.7-0.5,1.1-0.7L3.8,28.4z
							"/>
					</g>
				</g>
			</g>
			<g id="XMLID_4_">
				<g id="XMLID_15_">
					<path class="st0" d="M0.5,31.4l2.7,1.6c0.1-0.2,0.2-0.4,0.3-0.6l-2.7-1.6c-0.3-0.2-0.7-0.1-0.9,0.2c-0.2,0.3-0.1,0.7,0.2,0.9
						l2.8,1.6c0.1-0.2,0.2-0.4,0.3-0.6L0.5,31.4z"/>
				</g>
				<g id="XMLID_14_">
					<path class="st0" d="M-0.5,35.1h3.2c0-0.1,0-0.1,0-0.2c0-0.2,0-0.3,0-0.5h-3.2c-0.4,0-0.7,0.3-0.7,0.6s0.3,0.6,0.7,0.6h3.3
						c0-0.2-0.1-0.4-0.1-0.6H-0.5z"/>
				</g>
				<g id="XMLID_13_">
					<path class="st0" d="M0.5,38.7l2.8-1.6c-0.1-0.2-0.2-0.4-0.3-0.6l-2.9,1.6c-0.3,0.2-0.4,0.6-0.2,0.9c0.1,0.2,0.3,0.3,0.6,0.3
						c0.1,0,0.2,0,0.3-0.1l2.9-1.7c-0.1-0.2-0.3-0.3-0.4-0.5L0.5,38.7z"/>
				</g>
				<g id="XMLID_12_">
					<path class="st0" d="M3.2,41.4l1.7-2.9c-0.2-0.1-0.4-0.2-0.5-0.4l-1.7,2.9c-0.2,0.3-0.1,0.7,0.2,0.9c0.1,0.1,0.2,0.1,0.3,0.1
						c0.2,0,0.4-0.1,0.6-0.3l1.7-3c-0.2-0.1-0.4-0.2-0.6-0.3L3.2,41.4z"/>
				</g>
				<g id="XMLID_11_">
					<path class="st0" d="M6.9,42.4v-3.4c-0.2,0-0.4,0-0.7-0.1v3.4c0,0.4,0.3,0.6,0.7,0.6s0.7-0.3,0.7-0.6V39
						c-0.2,0-0.4,0.1-0.7,0.1V42.4z"/>
				</g>
				<g id="XMLID_10_">
					<path class="st0" d="M10.5,41.4l-1.7-2.9c-0.2,0.1-0.4,0.2-0.6,0.3l1.7,3c0.1,0.2,0.3,0.3,0.6,0.3c0.1,0,0.2,0,0.3-0.1
						c0.3-0.2,0.4-0.6,0.2-0.9l-1.7-2.9c-0.2,0.1-0.4,0.2-0.5,0.4L10.5,41.4z"/>
				</g>
				<g id="XMLID_9_">
					<path class="st0" d="M13.2,38.7l-2.8-1.6c-0.1,0.2-0.3,0.4-0.4,0.5l2.9,1.7c0.1,0.1,0.2,0.1,0.3,0.1c0.2,0,0.4-0.1,0.6-0.3
						c0.2-0.3,0.1-0.7-0.2-0.9l-2.9-1.6c-0.1,0.2-0.2,0.4-0.3,0.6L13.2,38.7z"/>
				</g>
				<g id="XMLID_8_">
					<path class="st0" d="M14.2,34.4H11c0,0.2,0,0.3,0,0.5c0,0.1,0,0.1,0,0.2h3.2H11c0,0.2,0,0.4-0.1,0.6h3.3c0.4,0,0.7-0.3,0.7-0.6
						S14.6,34.4,14.2,34.4z"/>
				</g>
				<g id="XMLID_7_">
					<path class="st0" d="M13.2,31.4l-2.7,1.6c0.1,0.2,0.2,0.4,0.3,0.6l2.8-1.6c0.3-0.2,0.4-0.6,0.2-0.9c-0.2-0.3-0.6-0.4-0.9-0.2
						l-2.7,1.6c0.1,0.2,0.2,0.4,0.3,0.6L13.2,31.4z"/>
				</g>
				<g id="XMLID_6_">
					<path class="st0" d="M10.5,28.7L9,31.3c0.2,0.1,0.4,0.2,0.5,0.4l1.6-2.7c0.2-0.3,0.1-0.7-0.2-0.9c-0.3-0.2-0.7-0.1-0.9,0.2
						L8.5,31c0.2,0.1,0.4,0.2,0.6,0.3L10.5,28.7z"/>
				</g>
				<g id="XMLID_5_">
					<path class="st0" d="M6.9,27.7v3c0.2,0,0.4,0,0.7,0.1v-3.1c0-0.4-0.3-0.6-0.7-0.6s-0.7,0.3-0.7,0.6v3.1c0.2,0,0.4-0.1,0.7-0.1
						V27.7z"/>
				</g>
			</g>
		</g>
		<g id="XMLID_2_">
			<path class="st0" d="M6.9,39.7c-2.7,0-4.8-2.2-4.8-4.8C2,32.2,4.2,30,6.9,30s4.8,2.2,4.8,4.8C11.7,37.5,9.5,39.7,6.9,39.7z
				 M6.9,31.3c-1.9,0-3.5,1.6-3.5,3.5c0,1.9,1.6,3.5,3.5,3.5s3.5-1.6,3.5-3.5C10.4,32.9,8.8,31.3,6.9,31.3z"/>
		</g>
	</g>
</g>
</svg>
