<?xml version="1.0" encoding="utf-8"?>
<!-- Generator: Adobe Illustrator 19.0.0, SVG Export Plug-In . SVG Version: 6.00 Build 0)  -->
<svg version="1.1" id="Warstwa_1" xmlns="http://www.w3.org/2000/svg" xmlns:xlink="http://www.w3.org/1999/xlink" x="0px" y="0px"
	 viewBox="-398 279.3 50.5 38" style="enable-background:new -398 279.3 50.5 38;" xml:space="preserve">
<style type="text/css">
	.st0{fill:#838383;}
</style>
<g>
	<path class="st0" d="M-365.7,302c-0.2-0.1-0.4-0.2-0.6-0.4l-3.6-2.4c-1.2-0.8-2.6-1.2-4-1.2h-6.6c-1.9,0-3.7,0.7-5.1,2.1
		c-0.6,0.6-1.3,1.1-2,1.5c-0.7,0.4-1.1,1.1-1.1,1.8c0,1.1,0.9,2.1,2.1,2.1h20.6c0.8,0,1.5-0.7,1.5-1.5
		C-364.6,303.1-365,302.4-365.7,302z M-379.1,304.1h-7.5c-0.4,0-0.8-0.3-0.8-0.8c0-0.3,0.2-0.5,0.4-0.7c0.8-0.4,1.6-1,2.3-1.7
		c1.1-1.1,2.6-1.7,4.2-1.7h1.4V304.1z M-366,304.1h-11.8v-4.8h3.9c1.2,0,2.3,0.3,3.3,1l3.6,2.4c0.2,0.2,0.5,0.3,0.7,0.5c0,0,0,0,0,0
		c0.3,0.2,0.5,0.5,0.5,0.8C-365.9,304-365.9,304.1-366,304.1z"/>
	<path class="st0" d="M-375.5,306.1h-2.9c-0.4,0-0.7,0.3-0.7,0.7s0.3,0.7,0.7,0.7h2.9c0.4,0,0.7-0.3,0.7-0.7
		S-375.2,306.1-375.5,306.1z"/>
	<path class="st0" d="M-353.4,281.1h-9.7c-1.4,0-2.5,1.1-2.5,2.5v9.6c0,1.4,1.1,2.5,2.5,2.5h2.6v5.8l-1.4-0.3
		c-1-0.2-1.9-0.8-2.6-1.2l-3.9-2.6c-0.8-0.6-1.7-1-2.6-1.2c0-0.1,0.1-0.2,0.1-0.3v-1.3h0.7c1.1,0,1.9-0.9,1.9-1.9v-8.4
		c0-1.1-0.9-1.9-1.9-1.9h-5.3c-1.1,0-1.9,0.9-1.9,1.9v8.4c0,1.1,0.9,1.9,1.9,1.9h0.7v1.2h-5.8c-1.3,0-2.6,0.3-3.8,0.8v-4.9h2.3
		c1.1,0,2-0.9,2-2v-5.8c0-1.1-0.9-2-2-2h-8.2c-1.1,0-2,0.9-2,2v5.8c0,1.1,0.9,2,2,2h1.9v7.8c-0.7,0.5-1.5,0.8-2.4,1l-0.8,0.2
		c-1.5,0.3-2.7,1.7-2.7,3.3v5.7c0,0.9,0.6,1.8,1.4,2.1l2.7,1.4c0.1,0,0.2,0.1,0.2,0.1c0.2,0.5,0.5,0.9,0.8,1.3
		c1.4,1.4,3.9,1.4,5.3,0c0.4-0.4,0.7-0.8,0.8-1.3c0.1,0,0.1,0,0.2,0h20c0.2,0.5,0.5,0.9,0.8,1.3c0.7,0.7,1.7,1.1,2.7,1.1
		c1,0,2-0.4,2.7-1.1c0.4-0.4,0.7-0.8,0.8-1.3h1c1.6,0,2.8-1.3,2.8-2.8v-3c0-0.8-0.2-1.5-0.6-2.1l-0.2-0.3c-0.8-1.3-2-2.2-3.5-2.5
		v-6.6h3.1c1.4,0,2.5-1.1,2.5-2.5v-9.6C-350.9,282.2-352,281.1-353.4,281.1z M-376.3,292.6v-8.4c0-0.3,0.3-0.6,0.6-0.6h5.3
		c0.3,0,0.6,0.3,0.6,0.6v8.4c0,0.3-0.3,0.6-0.6,0.6h-5.3C-376,293.2-376.3,292.9-376.3,292.6z M-372.3,294.5v1.3
		c-0.5-0.1-0.9-0.1-1.4-0.1v-1.2H-372.3z M-391.2,289.6v-5.8c0-0.4,0.3-0.7,0.7-0.7h8.2c0.4,0,0.7,0.3,0.7,0.7v5.8
		c0,0.4-0.3,0.7-0.7,0.7h-8.2C-390.9,290.3-391.2,290-391.2,289.6z M-386,291.6v5.6c-0.5,0.3-1,0.7-1.4,1.1v-6.7H-386z M-385,313.4
		c-0.9,0.9-2.6,0.9-3.5,0c-0.7-0.7-0.9-1.8-0.5-2.9l-0.6-0.3l0.6,0.2l-0.6-0.3l0.6,0.2l-0.5-0.4l0.6,0.2l-0.5-0.4l0.6,0.3l-0.5-0.4
		l0.6,0.3l0.2-0.2c0,0,0.1-0.1,0.1-0.1c0,0,0,0,0,0c0.9-0.7,2.2-0.7,3.1,0c0,0,0,0,0,0l0.3,0.3l0.5-0.4l-0.4,0.5l0.5-0.4l-0.4,0.5
		l0.1,0.1C-384.1,311.3-384.2,312.6-385,313.4z M-357.8,313.4c-0.9,0.9-2.6,0.9-3.5,0c-0.7-0.7-0.9-1.8-0.5-2.8c0,0,0-0.1,0-0.1
		l-0.6-0.3l0.6,0.2l-0.6-0.3l0.6,0.2l-0.5-0.4l0.6,0.2l-0.5-0.4l0.6,0.3l-0.5-0.5l0.6,0.3l0,0c0,0,0.1-0.1,0.1-0.1l0.1-0.1
		c0,0,0.1-0.1,0.1-0.1c0.9-0.7,2.2-0.7,3.1,0c0,0,0,0,0,0l0.3,0.3l0.5-0.4l-0.4,0.5l0.5-0.4l-0.4,0.5l0.5-0.4l-0.5,0.5
		C-356.8,311.3-357,312.6-357.8,313.4z M-354.1,305.4l0.2,0.3c0.3,0.4,0.4,1,0.4,1.5v3c0,0.8-0.7,1.5-1.5,1.5h-0.7
		c0-0.7-0.2-1.5-0.6-2.2l-0.1-0.2c0,0-0.1-0.1-0.1-0.1l-0.6-0.6c0,0,0,0,0,0c-1.4-1.1-3.4-1.1-4.7,0l-0.2,0.2c0,0-0.1,0.1-0.1,0.1
		l-0.2,0.2c0,0-0.1,0.1-0.1,0.1c0,0-0.1,0.1-0.1,0.1l-0.1,0.1c0,0-0.1,0.1-0.1,0.1l-0.2,0.3c0,0-0.1,0.1-0.1,0.1l-0.1,0.1
		c-0.2,0.5-0.3,1.1-0.3,1.7H-383c0-0.7-0.2-1.5-0.6-2.2l-0.1-0.2c0,0-0.1-0.1-0.1-0.1c0,0-0.1-0.1-0.1-0.1c0,0-0.1-0.1-0.1-0.1
		l-0.4-0.4c0,0,0,0-0.1-0.1c-1.4-1.1-3.3-1.1-4.7,0c0,0,0,0,0,0l-0.6,0.6c0,0-0.1,0.1-0.1,0.1l0,0.1c0,0-0.1,0.1-0.1,0.1l-0.2,0.3
		c0,0-0.1,0.1-0.1,0.1l-0.1,0.1c-0.2,0.5-0.3,0.9-0.3,1.4l-2.1-1.1c-0.4-0.2-0.6-0.6-0.6-1v-5.7c0-1,0.7-1.8,1.6-2l0.8-0.2
		c1.6-0.3,3-1.1,4.2-2.3c1.5-1.5,3.6-2.4,5.8-2.4h7.1c1.6,0,3.2,0.5,4.6,1.4l3.9,2.6c0.7,0.5,1.9,1.2,3,1.4l3.8,0.8l1.5,0.3
		C-355.7,303.7-354.7,304.4-354.1,305.4z M-357.8,302l-0.3-0.1h0l-1.1-0.2v-6h1.4V302z M-352.2,293.2c0,0.6-0.5,1.2-1.2,1.2h-9.7
		c-0.6,0-1.2-0.5-1.2-1.2v-9.6c0-0.6,0.5-1.2,1.2-1.2h9.7c0.7,0,1.2,0.5,1.2,1.2V293.2z"/>
	<path class="st0" d="M-383.8,286.7c0-1.5-1.2-2.7-2.7-2.7s-2.7,1.2-2.7,2.7c0,1.5,1.2,2.7,2.7,2.7S-383.8,288.2-383.8,286.7z
		 M-387.8,286.7c0-0.8,0.6-1.4,1.4-1.4s1.4,0.6,1.4,1.4c0,0.8-0.6,1.4-1.4,1.4S-387.8,287.5-387.8,286.7z"/>
	<path class="st0" d="M-358.3,289.4c1.7,0,3.1-1.4,3.1-3.1c0-1.7-1.4-3.1-3.1-3.1s-3.1,1.4-3.1,3.1
		C-361.4,288-360,289.4-358.3,289.4z M-358.3,284.4c1,0,1.8,0.8,1.8,1.8c0,1-0.8,1.8-1.8,1.8s-1.8-0.8-1.8-1.8
		C-360.1,285.3-359.3,284.4-358.3,284.4z"/>
	<path class="st0" d="M-354.2,289.9h-7.8c-0.4,0-0.7,0.3-0.7,0.6v2.7c0,0.4,0.3,0.6,0.7,0.6h7.8c0.4,0,0.7-0.3,0.7-0.6v-2.7
		C-353.6,290.2-353.9,289.9-354.2,289.9z M-354.9,292.5h-6.5v-1.4h6.5V292.5z"/>
	<path class="st0" d="M-371.6,284.8h-2.7c-0.4,0-0.7,0.3-0.7,0.6v5.5c0,0.4,0.3,0.6,0.7,0.6h2.7c0.4,0,0.7-0.3,0.7-0.6v-5.5
		C-371,285.1-371.3,284.8-371.6,284.8z M-372.3,290.3h-1.4v-4.2h1.4V290.3z"/>
</g>
</svg>
