<?xml version="1.0" encoding="utf-8"?>
<!-- Generator: Adobe Illustrator 19.0.0, SVG Export Plug-In . SVG Version: 6.00 Build 0)  -->
<svg version="1.1" id="Warstwa_1" xmlns="http://www.w3.org/2000/svg" xmlns:xlink="http://www.w3.org/1999/xlink" x="0px" y="0px"
	 viewBox="2.4 7 38.2 38" style="enable-background:new 2.4 7 38.2 38;" xml:space="preserve">
<style type="text/css">
	.st0{fill:#848484;}
</style>
<g>
	<path class="st0" d="M38.9,11.7c0-0.8-0.3-1.6-0.9-2.2c-0.6-0.6-1.4-1-2.2-1c-0.9,0-1.8,0.3-2.4,1l-2.7,2.7l-3.5-3.5
		c0,0-0.1-0.1-0.2-0.1h-0.1c0,0-0.1,0-0.2-0.1H11.6c-1.6,0-2.9,1.3-2.9,2.9v22.4l-0.4,0.4c0,0-0.1,0.1-0.1,0.1c0,0,0,0,0,0l-4.1,8.2
		c-0.1,0.3,0,0.6,0.3,0.8c0.2,0.1,0.4,0.1,0.6,0l4.6-2.6c0.6,0.6,1.3,1,2.2,1h19.6c1.6,0,2.9-1.3,2.9-2.9l0.1-13.3v-6.1l1.5-1.5
		c0.3-0.3,0.5-0.8,0.5-1.2c0-0.3-0.1-0.5-0.2-0.7L38,14C38.6,13.4,38.9,12.6,38.9,11.7z M26.7,25.3l-0.8-0.8l0.8-0.8l0.8,0.8
		L26.7,25.3z M24.6,24c-0.2,0.2-0.2,0.6,0,0.8l0.4,0.4l-3.9,3.8l0,0l-8.7,8.5l-2.6-2.6v-0.6l4.5-4.5l0,0l13.5-13.3l2.1,2.1L24.6,24z
		 M29.9,13.1l-2,2c-0.4-0.3-0.6-0.8-0.6-1.3v-3.2L29.9,13.1z M11.6,9.7h14.5v4c0,0.8,0.3,1.6,0.9,2.1l-6.2,6.1h-8.7
		c-0.3,0-0.6,0.3-0.6,0.6s0.3,0.6,0.6,0.6h7.5l-1.2,1.2h-6.3c-0.3,0-0.6,0.3-0.6,0.6s0.3,0.6,0.6,0.6h5.1l-1.2,1.2h-4
		c-0.3,0-0.6,0.3-0.6,0.6s0.3,0.6,0.6,0.6h2.8l-1.2,1.2h-1.6c-0.3,0-0.6,0.3-0.6,0.6c0,0.3,0.3,0.6,0.6,0.6h0.4l-2.7,2.7V11.5
		C9.8,10.5,10.6,9.7,11.6,9.7z M8.9,35.6l2.6,2.6L6,41.4L8.9,35.6z M33.1,25.4L33,38.8c0,1-0.8,1.8-1.8,1.8H11.6
		c-0.4,0-0.8-0.1-1.2-0.4l2.2-1.3c0,0,0.1-0.1,0.1-0.1l9-8.7h8.4c0.3,0,0.6-0.3,0.6-0.6c0-0.3-0.3-0.6-0.6-0.6H23l2.9-2.8l0.4,0.4
		c0.1,0.1,0.2,0.1,0.3,0.2h0.1l0,0c0.1,0,0.1,0,0.2,0h0.1c0.1,0,0.1-0.1,0.2-0.1l6-6V25.4z M34.9,17.1l-1.6,1.6l0,0l-5,5l-0.8-0.8
		l3.7-3.7l0,0l2.4-2.4c0,0,0.7-0.5,0.7-0.6l0,0l0,0c0.1,0,0.1,0,0.2,0h0.1c0.1,0,0.1,0,0.2,0h0c0.1,0,0.1,0.1,0.2,0.1
		C35.1,16.5,35.1,16.8,34.9,17.1C34.9,17.1,34.9,17.1,34.9,17.1L34.9,17.1z M37.7,11.7c0,0.5-0.2,1.1-0.6,1.4l-1.9,1.9h-0.1l-0.1,0
		L34.9,15h-0.1c-0.1,0-0.2,0-0.3,0h0c-0.1,0-0.2,0-0.3,0h-0.1L33.9,15l-0.1,0l-0.2,0.1l-0.1,0.1c-0.1,0.1-0.2,0.1-0.2,0.2l-0.2,0.1
		l-0.2,0.2l0,0l-2.2,2.2l-2-2l2.3-2.3l0,0l3.1-3.1c0.4-0.4,1-0.7,1.6-0.7c0.5,0,1,0.2,1.4,0.6C37.5,10.7,37.7,11.2,37.7,11.7
		L37.7,11.7z"/>
</g>
</svg>
