<?xml version="1.0" encoding="utf-8"?>
<!-- Generator: Adobe Illustrator 25.2.3, SVG Export Plug-In . SVG Version: 6.00 Build 0)  -->
<svg version="1.1" id="Warstwa_1" xmlns="http://www.w3.org/2000/svg" xmlns:xlink="http://www.w3.org/1999/xlink" x="0px" y="0px"
	 viewBox="0 0 49.2 38" style="enable-background:new 0 0 49.2 38;" xml:space="preserve">
<style type="text/css">
	.st0{fill:#838383;}
</style>
<g>
	<path class="st0" d="M41.6,14.4C41.6,14.4,41.6,14.4,41.6,14.4C41.6,14.4,41.6,14.4,41.6,14.4c-0.4-1.5-1-2.9-1.7-4.2
		c0-0.1,0-0.1-0.1-0.1c-0.7-1.3-1.7-2.5-2.7-3.5c0-0.1-0.1-0.1-0.1-0.1c-1.1-1-2.2-1.9-3.5-2.7c0,0-0.1-0.1-0.1-0.1
		C32,2.9,30.6,2.4,29.2,2c0,0,0,0,0,0c0,0,0,0,0,0c-3-0.8-6.1-0.8-9.1,0c0,0,0,0,0,0c0,0,0,0,0,0c-1.5,0.4-2.9,1-4.2,1.7
		c-0.1,0-0.1,0-0.1,0.1c-1.3,0.7-2.5,1.7-3.5,2.7c-0.1,0-0.1,0.1-0.1,0.1c-1,1.1-1.9,2.2-2.7,3.5c0,0-0.1,0.1-0.1,0.1
		C8.5,11.6,8,13,7.6,14.4c0,0,0,0,0,0s0,0,0,0C7.2,15.9,7,17.5,7,19v17.2c0,0.3,0.2,0.5,0.5,0.5h34.3c0.3,0,0.5-0.2,0.5-0.5V19
		C42.2,17.5,42,15.9,41.6,14.4z M24.6,11.4c-4.1,0-7.4,3.3-7.4,7.4v9.3L10.7,35V19.3v0v0V19c0-7.7,6.2-13.9,13.9-13.9
		S38.5,11.3,38.5,19v0.3v0v0V35L32,28.1v-9.3C32,14.7,28.7,11.4,24.6,11.4z M31,18.8v9H18.2v-9c-0.1-3.5,2.8-6.4,6.3-6.5
		c3.5-0.1,6.4,2.8,6.5,6.3C31,18.7,31,18.7,31,18.8L31,18.8z M8.4,15.2l1.7,0.5c-0.2,1.1-0.4,2.1-0.4,3.2H7.9
		C7.9,17.6,8.1,16.4,8.4,15.2z M9.9,11.1l1.6,0.9c-0.5,0.9-0.8,1.8-1.1,2.7l-1.7-0.5C8.9,13.1,9.4,12.1,9.9,11.1L9.9,11.1z
		 M12.5,7.6l1.3,1.3c-0.7,0.7-1.3,1.5-1.8,2.3l-1.6-0.9C11,9.3,11.7,8.4,12.5,7.6z M15.8,4.8l0.9,1.6c-0.8,0.5-1.6,1.1-2.3,1.8
		l-1.3-1.3C14,6.1,14.9,5.4,15.8,4.8L15.8,4.8z M19.8,3l0.5,1.7c-0.9,0.3-1.8,0.7-2.7,1.1l-0.9-1.6C17.7,3.8,18.7,3.3,19.8,3L19.8,3
		z M32.5,4.3l-0.9,1.6c-0.9-0.5-1.8-0.8-2.7-1.1L29.4,3C30.5,3.3,31.5,3.8,32.5,4.3L32.5,4.3z M36,6.9l-1.3,1.3
		c-0.7-0.7-1.5-1.3-2.3-1.8l0.9-1.6C34.3,5.4,35.2,6.1,36,6.9L36,6.9z M38.8,10.2l-1.6,0.9c-0.5-0.8-1.1-1.6-1.8-2.3l1.3-1.3
		C37.5,8.4,38.2,9.3,38.8,10.2L38.8,10.2z M40.6,14.2l-1.7,0.5c-0.3-0.9-0.7-1.8-1.1-2.7l1.6-0.9C39.8,12.1,40.3,13.1,40.6,14.2
		L40.6,14.2z M39.5,26.7h1.8v2.5h-1.8V26.7z M39.5,25.7v-2.5h1.8v2.5H39.5z M39.5,22.3v-2.5h1.8v2.5H39.5z M41.3,18.8h-1.8
		c0-1.1-0.1-2.2-0.4-3.2l1.7-0.5C41.1,16.4,41.3,17.6,41.3,18.8L41.3,18.8z M28,4.5c-1-0.2-1.9-0.3-2.9-0.4V2.3
		c1.1,0,2.3,0.2,3.4,0.4L28,4.5z M24.1,4.1c-1,0-1.9,0.2-2.9,0.4l-0.5-1.7c1.1-0.3,2.2-0.4,3.4-0.4V4.1z M9.7,25.7H7.9v-2.5h1.8
		V25.7z M9.7,26.7v2.5H7.9v-2.5H9.7z M9.7,19.8v2.5H7.9v-2.5H9.7z M7.9,30.1h1.8v2.5H7.9V30.1z M39.5,30.1h1.8v2.5h-1.8V30.1z
		 M7.9,33.6h1.8v2.1H7.9V33.6z M11.3,35.7l6.6-6.9h13.3l6.6,6.9H11.3z M39.5,35.7v-2.1h1.8v2.1H39.5z"/>
</g>
</svg>
