<?xml version="1.0" encoding="utf-8"?>
<!-- Generator: Adobe Illustrator 19.0.0, SVG Export Plug-In . SVG Version: 6.00 Build 0)  -->
<svg version="1.1" id="Warstwa_1" xmlns="http://www.w3.org/2000/svg" xmlns:xlink="http://www.w3.org/1999/xlink" x="0px" y="0px"
	 viewBox="-4 7 41 38" style="enable-background:new -4 7 41 38;" xml:space="preserve">
<style type="text/css">
	.st0{fill:#838383;}
	.st1{fill:#FFFFFF;}
</style>
<g id="XMLID_2413_">
	<g id="XMLID_2425_">
		<g id="XMLID_2428_">
			<g id="XMLID_2430_">
				<path class="st0" d="M27.6,43.6h-0.8c-1.4,0-2.6-1.2-2.6-2.6v-6.7c0-0.4,0.3-0.7,0.7-0.7s0.7,0.3,0.7,0.7V41
					c0,0.7,0.6,1.3,1.3,1.3h0.8c0.7,0,1.3-0.6,1.3-1.3v-6.7c0-0.4,0.3-0.7,0.7-0.7s0.7,0.3,0.7,0.7V41C30.2,42.4,29,43.6,27.6,43.6z
					"/>
			</g>
			<g id="XMLID_2429_">
				<line class="st1" x1="27.2" y1="34.3" x2="27.2" y2="42.9"/>
				<path class="st0" d="M27.2,43.6c-0.4,0-0.7-0.3-0.7-0.7v-8.6c0-0.4,0.3-0.7,0.7-0.7s0.7,0.3,0.7,0.7v8.6
					C27.8,43.3,27.6,43.6,27.2,43.6z"/>
			</g>
		</g>
		<g id="XMLID_2427_">
			<path class="st0" d="M32,35h-9.7c-0.2,0-0.4-0.1-0.5-0.2c-0.1-0.1-0.2-0.3-0.1-0.5l1.1-6.5l-2.1,0c-0.2,0-0.4-0.1-0.5-0.2
				c-0.1-0.1-0.2-0.3-0.2-0.5l0.8-6.4C21.1,19,22,16,24.8,16h4.8c2.9,0,3.8,3,3.9,4.6l0.8,6.4c0,0.2,0,0.4-0.2,0.5
				c-0.1,0.1-0.3,0.2-0.5,0.2l-2.1,0l1.1,6.5c0,0.2,0,0.4-0.1,0.5C32.4,34.9,32.2,35,32,35z M23.1,33.7h8.1l-1.1-6.5
				c0-0.2,0-0.4,0.1-0.5s0.3-0.2,0.5-0.2l2.1,0l-0.7-5.7c0-0.2-0.2-3.5-2.6-3.5h-4.8c-2.2,0-2.6,3.4-2.6,3.4l-0.7,5.7l2.1,0
				c0.2,0,0.4,0.1,0.5,0.2s0.2,0.3,0.1,0.5L23.1,33.7z"/>
		</g>
		<g id="XMLID_2426_">
			<path class="st0" d="M27.2,15.5c-2,0-3.6-1.6-3.6-3.6c0-2,1.6-3.6,3.6-3.6s3.6,1.6,3.6,3.6C30.7,14,29.2,15.5,27.2,15.5z
				 M27.2,9.7c-1.2,0-2.3,1-2.3,2.3c0,1.2,1,2.3,2.3,2.3s2.3-1,2.3-2.3C29.4,10.7,28.4,9.7,27.2,9.7z"/>
		</g>
	</g>
	<g id="XMLID_2424_">
		<line class="st1" x1="16.5" y1="9.2" x2="16.5" y2="42.9"/>
		<path class="st0" d="M16.5,43.6c-0.4,0-0.6-0.3-0.6-0.7V9.2c0-0.4,0.3-0.6,0.6-0.6s0.6,0.3,0.6,0.6v33.7
			C17.1,43.3,16.9,43.6,16.5,43.6z"/>
	</g>
	<g id="XMLID_2414_">
		<g id="XMLID_2423_">
			<line class="st1" x1="9.3" y1="22.5" x2="9.3" y2="29.5"/>
			<path class="st0" d="M9.3,30.1c-0.4,0-0.6-0.3-0.6-0.7v-7c0-0.4,0.3-0.6,0.6-0.6s0.6,0.3,0.6,0.6v7C10,29.8,9.7,30.1,9.3,30.1z"
				/>
		</g>
		<g id="XMLID_2415_">
			<g id="XMLID_2421_">
				<g id="XMLID_2422_">
					<path class="st0" d="M8.4,43.6H8c-0.9,0-1.6-0.7-1.6-1.6L5.2,29.9c0-0.4,0.2-0.7,0.6-0.7c0.4,0,0.7,0.2,0.7,0.6l1.2,12.1
						c0,0.2,0.1,0.4,0.3,0.4h0.4c0.2,0,0.3-0.1,0.3-0.3V29.5c0-0.4,0.3-0.7,0.6-0.7s0.6,0.3,0.6,0.7V42C10,42.8,9.3,43.6,8.4,43.6z"
						/>
				</g>
			</g>
			<g id="XMLID_2420_">
				<path class="st0" d="M12.2,27.7C12.2,27.7,12.2,27.7,12.2,27.7l-2.9,0c-0.4,0-0.6-0.3-0.6-0.7c0-0.4,0.3-0.6,0.6-0.6
					c0,0,0,0,0,0l2.1,0l-0.7-5.7c0-0.2-0.2-3.5-2.6-3.5H3.4c-2.2,0-2.6,3.4-2.6,3.4l-0.7,5.7l2.1,0c0.4,0,0.7,0.3,0.7,0.6
					s-0.3,0.7-0.6,0.7l-2.9,0c0,0,0,0,0,0c-0.2,0-0.4-0.1-0.5-0.2c-0.1-0.1-0.2-0.3-0.2-0.5l0.8-6.4C-0.3,19,0.7,16,3.4,16h4.8
					c2.9,0,3.8,3,3.9,4.6l0.8,6.4c0,0.2,0,0.4-0.2,0.5C12.6,27.6,12.4,27.7,12.2,27.7z"/>
			</g>
			<g id="XMLID_2419_">
				<path class="st0" d="M5.8,15.5c-2,0-3.6-1.6-3.6-3.6c0-2,1.6-3.6,3.6-3.6c2,0,3.6,1.6,3.6,3.6C9.4,14,7.8,15.5,5.8,15.5z
					 M5.8,9.7c-1.2,0-2.3,1-2.3,2.3c0,1.2,1,2.3,2.3,2.3c1.2,0,2.3-1,2.3-2.3C8.1,10.7,7,9.7,5.8,9.7z"/>
			</g>
			<g id="XMLID_2417_">
				<g id="XMLID_2418_">
					<path class="st0" d="M3.7,43.6H3.3c-0.9,0-1.6-0.7-1.6-1.6v-9.1c0-0.4,0.3-0.7,0.6-0.7S3,32.5,3,32.9V42c0,0.2,0.1,0.3,0.3,0.3
						h0.4C3.9,42.3,4,42.1,4,42l1.2-12.2c0-0.4,0.4-0.6,0.7-0.6c0.4,0,0.6,0.4,0.6,0.7L5.3,42C5.3,42.8,4.6,43.6,3.7,43.6z"/>
				</g>
			</g>
			<g id="XMLID_2416_">
				<line class="st1" x1="2.3" y1="22.5" x2="2.3" y2="34.6"/>
				<path class="st0" d="M2.3,35.3c-0.4,0-0.6-0.3-0.6-0.7V22.5c0-0.4,0.3-0.6,0.6-0.6S3,22.1,3,22.5v12.1C3,35,2.7,35.3,2.3,35.3z"
					/>
			</g>
		</g>
	</g>
</g>
</svg>
