<?xml version="1.0" encoding="utf-8"?>
<!-- Generator: Adobe Illustrator 19.0.0, SVG Export Plug-In . SVG Version: 6.00 Build 0)  -->
<svg version="1.1" id="Warstwa_1" xmlns="http://www.w3.org/2000/svg" xmlns:xlink="http://www.w3.org/1999/xlink" x="0px" y="0px"
	 viewBox="12 7 73.2 38" style="enable-background:new 12 7 73.2 38;" xml:space="preserve">
<style type="text/css">
	.st0{fill:#838383;}
	.st1{fill:#FFFFFF;}
</style>
<g id="XMLID_2751_">
	<g id="XMLID_2590_">
		<path class="st0" d="M68.2,37.2H38.9c-0.4,0-0.6-0.3-0.6-0.7s0.3-0.7,0.6-0.7h29.3c0.4,0,0.7,0.3,0.7,0.7S68.6,37.2,68.2,37.2z"/>
	</g>
	<g id="XMLID_2511_">
		<path class="st0" d="M83.6,37.2h-5.2c-0.4,0-0.7-0.3-0.7-0.7s0.3-0.7,0.7-0.7h4.6V14.4c0-2.8-2.2-5-5-5H23.1v26.5H29
			c0.4,0,0.6,0.3,0.6,0.7s-0.3,0.7-0.6,0.7h-6.6c-0.4,0-0.6-0.3-0.6-0.7V8.8c0-0.4,0.3-0.6,0.6-0.6h55.5c3.5,0,6.3,2.8,6.3,6.3v22.1
			C84.2,36.9,83.9,37.2,83.6,37.2z"/>
	</g>
	<g id="XMLID_2769_">
		<line class="st1" x1="83.6" y1="23.1" x2="22.4" y2="23.1"/>
		<path class="st0" d="M83.6,23.7H22.4c-0.4,0-0.6-0.3-0.6-0.6s0.3-0.6,0.6-0.6h61.1c0.4,0,0.7,0.3,0.7,0.6S83.9,23.7,83.6,23.7z"/>
	</g>
	<g id="XMLID_2766_">
		<g id="XMLID_2768_">
			<path class="st0" d="M33.9,43.9c-3.2,0-5.8-2.6-5.8-5.8s2.6-5.8,5.8-5.8s5.8,2.6,5.8,5.8S37.1,43.9,33.9,43.9z M33.9,33.5
				c-2.5,0-4.5,2-4.5,4.5s2,4.5,4.5,4.5s4.5-2,4.5-4.5S36.4,33.5,33.9,33.5z"/>
		</g>
		<g id="XMLID_2767_">
			<path class="st0" d="M33.9,40.7c-1.5,0-2.6-1.2-2.6-2.7s1.2-2.7,2.6-2.7s2.6,1.2,2.6,2.7S35.4,40.7,33.9,40.7z M33.9,36.7
				c-0.7,0-1.4,0.6-1.4,1.3s0.6,1.3,1.4,1.3s1.4-0.6,1.4-1.3S34.7,36.7,33.9,36.7z"/>
		</g>
	</g>
	<g id="XMLID_2763_">
		<g id="XMLID_2765_">
			<path class="st0" d="M73.4,43.9c-3.2,0-5.8-2.6-5.8-5.8s2.6-5.8,5.8-5.8s5.8,2.6,5.8,5.8S76.6,43.9,73.4,43.9z M73.4,33.5
				c-2.5,0-4.5,2-4.5,4.5s2,4.5,4.5,4.5s4.5-2,4.5-4.5S75.9,33.5,73.4,33.5z"/>
		</g>
		<g id="XMLID_2764_">
			<path class="st0" d="M73.4,40.7c-1.5,0-2.7-1.2-2.7-2.7s1.2-2.7,2.7-2.7S76,36.6,76,38S74.9,40.7,73.4,40.7z M73.4,36.7
				c-0.7,0-1.3,0.6-1.3,1.3s0.6,1.3,1.3,1.3s1.3-0.6,1.3-1.3S74.1,36.7,73.4,36.7z"/>
		</g>
	</g>
	<g id="XMLID_2762_">
		<line class="st1" x1="73.8" y1="8.8" x2="73.8" y2="22.3"/>
		<path class="st0" d="M73.8,23c-0.4,0-0.7-0.3-0.7-0.6V8.8c0-0.4,0.3-0.6,0.7-0.6s0.7,0.3,0.7,0.6v13.6C74.5,22.7,74.2,23,73.8,23z
			"/>
	</g>
	<g id="XMLID_2761_">
		<line class="st1" x1="80.6" y1="17.4" x2="78.6" y2="23.1"/>
		<path class="st0" d="M78.6,23.7c-0.1,0-0.1,0-0.2,0c-0.3-0.1-0.5-0.5-0.4-0.8l2-5.7c0.1-0.3,0.5-0.5,0.8-0.4
			c0.3,0.1,0.5,0.5,0.4,0.8l-2,5.7C79.1,23.6,78.8,23.7,78.6,23.7z"/>
	</g>
	<g id="XMLID_2760_">
		<polyline class="st1" points="73.8,11.8 52.4,11.8 22.4,11.8 		"/>
		<path class="st0" d="M73.8,12.5H22.4c-0.4,0-0.6-0.3-0.6-0.6s0.3-0.6,0.6-0.6h51.4c0.4,0,0.7,0.3,0.7,0.6S74.2,12.5,73.8,12.5z"/>
	</g>
	<g id="XMLID_2759_">
		<line class="st1" x1="65.3" y1="23.1" x2="65.3" y2="11.8"/>
		<path class="st0" d="M65.3,23.7c-0.4,0-0.7-0.3-0.7-0.6V11.8c0-0.4,0.3-0.6,0.7-0.6s0.7,0.3,0.7,0.6v11.3
			C65.9,23.5,65.6,23.7,65.3,23.7z"/>
	</g>
	<g id="XMLID_2758_">
		<line class="st1" x1="55.9" y1="23.1" x2="55.9" y2="11.8"/>
		<path class="st0" d="M55.9,23.7c-0.4,0-0.7-0.3-0.7-0.6V11.8c0-0.4,0.3-0.6,0.7-0.6s0.7,0.3,0.7,0.6v11.3
			C56.6,23.5,56.3,23.7,55.9,23.7z"/>
	</g>
	<g id="XMLID_2757_">
		<line class="st1" x1="46.6" y1="23.1" x2="46.6" y2="11.8"/>
		<path class="st0" d="M46.6,23.7c-0.4,0-0.6-0.3-0.6-0.6V11.8c0-0.4,0.3-0.6,0.6-0.6s0.6,0.3,0.6,0.6v11.3
			C47.2,23.5,47,23.7,46.6,23.7z"/>
	</g>
	<g id="XMLID_2756_">
		<line class="st1" x1="37.3" y1="23.1" x2="37.3" y2="11.8"/>
		<path class="st0" d="M37.3,23.7c-0.4,0-0.6-0.3-0.6-0.6V11.8c0-0.4,0.3-0.6,0.6-0.6s0.6,0.3,0.6,0.6v11.3
			C37.9,23.5,37.6,23.7,37.3,23.7z"/>
	</g>
	<g id="XMLID_2755_">
		<line class="st1" x1="27.9" y1="23.1" x2="27.9" y2="11.8"/>
		<path class="st0" d="M27.9,23.7c-0.4,0-0.6-0.3-0.6-0.6V11.8c0-0.4,0.3-0.6,0.6-0.6s0.6,0.3,0.6,0.6v11.3
			C28.6,23.5,28.3,23.7,27.9,23.7z"/>
	</g>
	<g id="XMLID_2754_">
		<line class="st1" x1="14.6" y1="26.5" x2="25.8" y2="26.5"/>
		<path class="st0" d="M25.8,27.1H14.6c-0.4,0-0.6-0.3-0.6-0.7s0.3-0.7,0.6-0.7h11.2c0.4,0,0.6,0.3,0.6,0.7S26.2,27.1,25.8,27.1z"/>
	</g>
	<g id="XMLID_2753_">
		<line class="st1" x1="17.6" y1="29" x2="28.8" y2="29"/>
		<path class="st0" d="M28.8,29.6H17.6c-0.4,0-0.6-0.3-0.6-0.7s0.3-0.7,0.6-0.7h11.2c0.4,0,0.6,0.3,0.6,0.7S29.1,29.6,28.8,29.6z"/>
	</g>
	<g id="XMLID_2752_">
		<line class="st1" x1="13.6" y1="31.5" x2="24.8" y2="31.5"/>
		<path class="st0" d="M24.8,32.1H13.6c-0.4,0-0.6-0.3-0.6-0.7s0.3-0.7,0.6-0.7h11.2c0.4,0,0.6,0.3,0.6,0.7S25.2,32.1,24.8,32.1z"/>
	</g>
</g>
</svg>
