<?xml version="1.0" encoding="utf-8"?>
<!-- Generator: Adobe Illustrator 19.0.0, SVG Export Plug-In . SVG Version: 6.00 Build 0)  -->
<svg version="1.1" id="Warstwa_1" xmlns="http://www.w3.org/2000/svg" xmlns:xlink="http://www.w3.org/1999/xlink" x="0px" y="0px"
	 viewBox="-2 7 44.5 38" style="enable-background:new -2 7 44.5 38;" xml:space="preserve">
<style type="text/css">
	.st0{fill:#838383;}
</style>
<g>
	<g id="XMLID_2412_">
		<path class="st0" d="M37.7,43.8H1.8c-0.4,0-0.6-0.3-0.6-0.7s0.3-0.7,0.6-0.7h35.8c0.2,0,0.3-0.2,0.3-0.3V15.5
			c0-0.2-0.2-0.3-0.3-0.3H35c0,0.1,0,0.2,0,0.3v20.9c0,0.4-0.3,0.7-0.7,0.7s-0.7-0.3-0.7-0.7V15.5c0-0.5-0.1-0.9-0.1-0.9
			c0-0.2,0-0.4,0.1-0.5c0.1-0.1,0.3-0.2,0.5-0.2h3.4c0.9,0,1.6,0.7,1.6,1.6v26.6C39.3,43.1,38.6,43.8,37.7,43.8z"/>
	</g>
	<g id="XMLID_2411_">
		<path class="st0" d="M1.8,43.8c-0.2,0-0.3-0.1-0.4-0.2c-0.1-0.1-0.2-0.3-0.2-0.5V13.8c0-0.3,0.2-0.6,0.6-0.6l0.6-0.1L33,8.2
			c0.5-0.1,1,0.1,1.3,0.4c0.4,0.3,0.6,0.8,0.6,1.2v26.6c0,0.8-0.6,1.5-1.4,1.6L2,43.8C1.9,43.8,1.9,43.8,1.8,43.8z M2.5,14.4v27.9
			l30.8-5.6c0,0,0,0,0,0c0.2,0,0.3-0.2,0.3-0.3V9.8c0-0.1-0.1-0.2-0.1-0.3c0,0-0.1-0.1-0.3-0.1L2.5,14.4z"/>
	</g>
	<g id="XMLID_2410_">
		<path class="st0" d="M7.5,31.4c-0.3,0-0.6-0.2-0.6-0.5c-0.1-0.4,0.2-0.7,0.5-0.7l22-3.5c0.3-0.1,0.7,0.2,0.7,0.5
			c0.1,0.4-0.2,0.7-0.5,0.7l-22,3.5C7.6,31.4,7.6,31.4,7.5,31.4z"/>
	</g>
	<g id="XMLID_2510_">
		<path class="st0" d="M23.8,19.3c-0.3,0-0.6-0.2-0.6-0.5c-0.1-0.4,0.2-0.7,0.5-0.7l10.4-1.6c0.3-0.1,0.7,0.2,0.7,0.5
			c0.1,0.4-0.2,0.7-0.5,0.7l-10.4,1.6C23.9,19.3,23.9,19.3,23.8,19.3z"/>
	</g>
	<g id="XMLID_2508_">
		<path class="st0" d="M1.8,22.8c-0.3,0-0.6-0.2-0.6-0.5c-0.1-0.4,0.2-0.7,0.5-0.7l8.4-1.3c0.4-0.1,0.7,0.2,0.7,0.5
			c0.1,0.4-0.2,0.7-0.5,0.7l-8.4,1.3C1.9,22.8,1.9,22.8,1.8,22.8z"/>
	</g>
	<g id="XMLID_2408_">
		<path class="st0" d="M17,34.5c-0.3,0-0.6-0.2-0.6-0.5c-0.1-0.4,0.2-0.7,0.5-0.7l12.5-2c0.4-0.1,0.7,0.2,0.7,0.5
			c0.1,0.4-0.2,0.7-0.5,0.7l-12.5,2C17.1,34.5,17.1,34.5,17,34.5z"/>
	</g>
	<g id="XMLID_368_">
		<path class="st0" d="M7.5,36.1c-0.3,0-0.6-0.2-0.6-0.5c-0.1-0.4,0.2-0.7,0.5-0.7l5.9-0.9c0.3-0.1,0.7,0.2,0.7,0.5
			c0.1,0.4-0.2,0.7-0.5,0.7l-5.9,0.9C7.6,36.1,7.6,36.1,7.5,36.1z"/>
	</g>
	<g id="XMLID_385_">
		<path class="st0" d="M11.4,23.9c-0.4,0-0.9-0.2-1.2-0.5c-0.3-0.3-0.5-0.7-0.5-1.2l0-4.7c0-0.9,0.7-1.7,1.7-1.7
			c0.2,0,0.5,0.1,0.8,0.2l5.3,2.6c0.2,0.1,0.4,0.3,0.4,0.6l0,1.3c0,0.2-0.1,0.5-0.4,0.6l-5.3,2.7C11.9,23.8,11.7,23.9,11.4,23.9
			C11.4,23.9,11.4,23.9,11.4,23.9z M11.3,17.1C11.3,17.1,11.3,17.1,11.3,17.1c-0.2,0-0.4,0.2-0.4,0.4l0,4.7c0,0,0,0,0,0
			c0,0.1,0,0.2,0.1,0.3c0.1,0.1,0.2,0.1,0.3,0.1c0.1,0,0.1,0,0.2,0l4.9-2.5l0-0.5l-5-2.4C11.5,17.1,11.4,17.1,11.3,17.1z"/>
	</g>
	<g id="XMLID_2457_">
		<path class="st0" d="M22.7,22.6c-0.2,0-0.3,0-0.5-0.1L17,21.2c-0.3-0.1-0.5-0.3-0.5-0.6l0-1.5c0-0.2,0.1-0.4,0.2-0.5l5.1-4.2
			c0,0,0.1-0.1,0.1-0.1c0.2-0.1,0.5-0.2,0.8-0.2c0,0,0,0,0,0c0.9,0,1.7,0.8,1.7,1.7l0,4.7c0,1-0.5,1.5-0.8,1.8
			C23.3,22.6,23,22.6,22.7,22.6z M17.8,20.1l4.8,1.2c0,0,0.1,0,0.1,0c0,0,0.1,0,0.3-0.1c0.1-0.1,0.2-0.3,0.2-0.6l0-4.7
			c0-0.2-0.2-0.4-0.4-0.4c0,0-0.1,0-0.1,0l-4.8,3.9L17.8,20.1z"/>
	</g>
	<g id="XMLID_2458_">
		<path class="st0" d="M20.5,24.2c-1.3,0-2.3-0.4-2.9-1.1c-0.9-1-0.8-2.3-0.8-2.4c0-0.4,0.4-0.6,0.7-0.6c0.4,0,0.6,0.4,0.6,0.7
			c0,0-0.1,0.8,0.5,1.4c0.5,0.5,1.2,0.7,2.3,0.6c0.4,0,0.7,0.3,0.7,0.6c0,0.4-0.3,0.7-0.6,0.7C20.7,24.2,20.6,24.2,20.5,24.2z"/>
	</g>
	<g id="XMLID_2460_">
		<path class="st0" d="M14,25c-0.1,0-0.2,0-0.3,0c-0.4,0-0.6-0.3-0.6-0.7s0.3-0.6,0.7-0.6c0.9,0,1.6-0.2,2-0.6
			c0.8-0.8,0.7-2.2,0.7-2.2c0-0.4,0.2-0.7,0.6-0.7c0.4,0,0.7,0.2,0.7,0.6c0,0.1,0.1,1.9-1.1,3.2C16.1,24.6,15.1,25,14,25z"/>
	</g>
</g>
</svg>
