<?xml version="1.0" encoding="utf-8"?>
<!-- Generator: Adobe Illustrator 17.0.0, SVG Export Plug-In . SVG Version: 6.00 Build 0)  -->
<!DOCTYPE svg PUBLIC "-//W3C//DTD SVG 1.1//EN" "http://www.w3.org/Graphics/SVG/1.1/DTD/svg11.dtd">
<svg version="1.1" id="Layer_1" xmlns="http://www.w3.org/2000/svg" xmlns:xlink="http://www.w3.org/1999/xlink" x="0px" y="0px"
	 width="507.987px" height="347.335px" viewBox="0 0 507.987 347.335" enable-background="new 0 0 507.987 347.335"
	 xml:space="preserve">
<g>
	<path fill="#838383" d="M365.611,338.046l16.403,6.743c1.867,0.468,9.44,2.236,18.347,2.511c7.994,0.248,19.084-0.696,26.529-6.592
		c1.266-1.002,2.066-2.436,2.251-4.036c0.186-1.601-0.266-3.18-1.269-4.448c-0.642-0.811-1.484-1.447-2.432-1.837
		c-2.028-0.835-4.353-0.51-6.069,0.848c-8.027,6.354-27.217,3.652-33.307,2.203l-0.43-0.139l-10.914-4.493l9.05-21.982l2.507,0.768
		c28.804,8.817,54.643,1.072,62.837-18.831c4.392-10.669,0.781-36.88-14.619-66.332c-10.037-19.197-32.931-54.191-73.485-72.882
		l-1.542-0.711l-2.645-36.126c-0.174-2.294-1.602-4.266-3.728-5.141l-24.758-10.193c-1.471-0.605-3.153-0.603-4.616,0.006
		l-44.299,18.461L151.97,63.373l-0.223-1.644c-0.861-6.339-3.518-12.248-7.686-17.089l-0.619-0.72l-2.806-38.318
		c-0.173-2.294-1.607-4.269-3.745-5.149c-0.762-0.314-1.569-0.465-2.4-0.451l-19.75,0.327c-3.157,0.045-5.702,2.467-5.924,5.633
		l-2.048,29.737l-1.53,0.72c-7.429,3.499-13.237,9.599-16.357,17.177c-4.436,10.774-2.764,23.235,4.364,32.518l1.011,1.315
		l-5.856,14.225c-1.269,3.083,0.207,6.624,3.289,7.892l8.253,3.398c2.125,0.875,4.539,0.475,6.3-1.045l14.979-13.047l0.927-0.085
		c5.947-0.541,11.639-2.685,16.46-6.2l1.587-1.158l1.657,1.056c25.619,16.328,70.892,48.745,78.065,66.683l0.162,0.405l0.135,1.693
		c2.961,36.156,6.647,81.161,42.364,95.866l43.926,18.084l-8.987,21.829l-76.937-31.674c-3.083-1.269-6.624,0.207-7.893,3.289
		c-1.269,3.082,0.207,6.624,3.29,7.893l81.856,33.651l0.125,0.067c0.357,0.19,0.743,0.348,1.129,0.464l0.268,0.095l64.319,26.443
		l0.159,0.089c0.543,0.308,0.827,0.425,1.437,0.591L365.611,338.046z M128.975,12.179l1.682,22.892l-3.828-0.914
		c-1.605-0.383-3.261-0.646-4.922-0.78l-2.834-0.23l1.429-20.826L128.975,12.179z M111.34,85.254
		c-10.568-4.351-15.627-16.489-11.276-27.058c4.351-10.569,16.49-15.627,27.058-11.276c10.568,4.351,15.627,16.49,11.276,27.058
		C134.047,84.546,121.91,89.605,111.34,85.254z M362.686,163.896c28.103,15.049,45.98,38.597,56.029,55.702
		c12.605,21.457,18.505,41.779,19.823,53.642l0.536,4.83l-67.717-27.878c-12.21-5.027-19.539-17.227-18.24-30.361l5.77-57.966
		L362.686,163.896z M363.537,324.203l-54.84-22.577l8.987-21.829l54.84,22.577L363.537,324.203z M267.179,245.926
		c-28.874-11.887-32.079-51.088-34.907-85.675l-0.21-2.43c-0.045-0.461-0.147-0.964-0.292-1.426
		c-3.24-9.84-15.724-23.79-36.089-40.307c-17.213-13.96-35.943-26.467-45.577-32.68l-2.097-1.352l1.041-2.267
		c0.183-0.399,0.365-0.799,0.533-1.208l1.096-2.662l126.452,52.059c1.47,0.605,3.153,0.603,4.616-0.007l44.299-18.461l18.99,7.818
		l2.605,35.576l-0.025,0.248l-6.52,65.497c-1.835,18.491,8.475,35.669,25.653,42.741l68.519,28.209l-4.027,3.038
		c-10.684,8.062-30.183,8.406-48.523,0.856L267.179,245.926L267.179,245.926z"/>
	<path fill="#838383" d="M504.242,138.972L361.283,80.117l4.493-10.914c1.268-3.082-0.207-6.624-3.29-7.893
		c-3.083-1.269-6.624,0.207-7.893,3.29l-4.493,10.914L207.142,16.658c-3.083-1.269-6.624,0.207-7.893,3.29
		c-1.269,3.082,0.207,6.624,3.29,7.893l297.101,122.313c3.083,1.269,6.624-0.207,7.892-3.289
		C508.801,143.782,507.325,140.241,504.242,138.972z"/>
</g>
<path fill="#838383" d="M74.678,16.203H48.103c-3.334,0-6.047,2.713-6.047,6.047c0,3.333,2.713,6.046,6.047,6.046h26.576
	c3.334,0,6.046-2.713,6.046-6.046C80.725,18.915,78.012,16.203,74.678,16.203z"/>
<path fill="#838383" d="M173.39,194.633h-55.021c-3.334,0-6.047,2.713-6.047,6.047c0,3.333,2.713,6.046,6.047,6.046h55.022
	c3.334,0,6.046-2.713,6.046-6.046C179.436,197.345,176.723,194.633,173.39,194.633z"/>
<path fill="#838383" d="M132.609,138.517H21.922c-3.334,0-6.047,2.713-6.047,6.047c0,3.333,2.713,6.046,6.047,6.046H132.61
	c3.334,0,6.046-2.713,6.046-6.046C138.656,141.229,135.943,138.517,132.609,138.517z"/>
<path fill="#838383" d="M66.39,77.36H6.047C2.713,77.36,0,80.073,0,83.407c0,3.333,2.713,6.046,6.047,6.046H66.39
	c3.334,0,6.046-2.713,6.046-6.046C72.436,80.072,69.723,77.36,66.39,77.36z"/>
</svg>
