<?xml version="1.0" encoding="utf-8"?>
<!-- Generator: Adobe Illustrator 25.2.3, SVG Export Plug-In . SVG Version: 6.00 Build 0)  -->
<svg version="1.1" id="Warstwa_1" xmlns="http://www.w3.org/2000/svg" xmlns:xlink="http://www.w3.org/1999/xlink" x="0px" y="0px"
	 viewBox="0 0 49.2 38" style="enable-background:new 0 0 49.2 38;" xml:space="preserve">
<style type="text/css">
	.st0{fill:#838383;}
</style>
<g>
	<path class="st0" d="M48.1,25.1C48.1,25.1,48.1,25,48.1,25.1C48.1,25,48.1,25,48.1,25.1c0-0.1,0-0.1,0-0.1c0,0,0,0,0,0c0,0,0,0,0,0
		c0,0,0,0,0,0c0,0,0,0,0,0c0,0,0,0,0,0c0,0,0,0,0,0l-3-6.1c-0.1-0.2-0.4-0.4-0.6-0.4h-3.9v-3.2h3.9c0.4,0,0.7-0.3,0.7-0.7V3.8
		c0-0.4-0.3-0.7-0.7-0.7h-32c-0.4,0-0.7,0.3-0.7,0.7s0.3,0.7,0.7,0.7h31.3v9.3h-3.9c0,0,0,0,0,0h-3c0,0,0,0,0,0H12.4c0,0,0,0,0,0h-3
		c0,0,0,0,0,0H5.5V4.5h4c0.4,0,0.7-0.3,0.7-0.7S9.9,3.1,9.5,3.1H4.8c-0.4,0-0.7,0.3-0.7,0.7v10.7c0,0.4,0.3,0.7,0.7,0.7h3.9v3.2H4.8
		c-0.3,0-0.5,0.1-0.6,0.4l-3,6.1c0,0,0,0,0,0c0,0,0,0,0,0c0,0,0,0,0,0c0,0,0,0,0,0c0,0,0,0,0,0c0,0,0,0,0,0c0,0,0,0,0,0c0,0,0,0,0,0
		c0,0,0,0,0,0c0,0,0,0,0,0v3c0,0.4,0.3,0.7,0.7,0.7h5.4v4.7H6.3c-0.4,0-0.7,0.3-0.7,0.7s0.3,0.7,0.7,0.7h1.5h0h3h0h1.5
		c0.4,0,0.7-0.3,0.7-0.7s-0.3-0.7-0.7-0.7h-0.8v-4.7h26v4.7h-0.8c-0.4,0-0.7,0.3-0.7,0.7s0.3,0.7,0.7,0.7h1.5h0h3h0h1.5
		c0.4,0,0.7-0.3,0.7-0.7s-0.3-0.7-0.7-0.7H42v-4.7h5.4c0.4,0,0.7-0.3,0.7-0.7L48.1,25.1C48.1,25.1,48.1,25.1,48.1,25.1z M39.1,18.3
		h-1.7v-3.2h1.7V18.3z M13.1,18.3v-3.2h23v3.2L13.1,18.3z M10.1,15.1h1.7v3.2h-1.7V15.1z M5.2,19.7h4.1h0h0h3h0h0l31.5,0l2.4,4.7
		H2.9L5.2,19.7z M10.2,33.5H8.6v-4.7h1.7V33.5z M40.6,33.5H39v-4.7h1.7V33.5z M46.7,27.4h-5.4c0,0,0,0,0,0c0,0,0,0,0,0h-3
		c0,0,0,0,0,0c0,0,0,0,0,0H10.9c0,0,0,0,0,0c0,0,0,0,0,0h-3c0,0,0,0,0,0c0,0,0,0,0,0H2.5v-1.7h44.3V27.4z"/>
	<path class="st0" d="M8.7,9.1c0,1.2,1,2.2,2.2,2.2s2.2-1,2.2-2.2c0-1.2-1-2.2-2.2-2.2S8.7,7.9,8.7,9.1z M10.9,8.3
		c0.5,0,0.8,0.4,0.8,0.8s-0.4,0.8-0.8,0.8s-0.8-0.4-0.8-0.8S10.4,8.3,10.9,8.3z"/>
	<path class="st0" d="M40.5,9.1c0-1.2-1-2.2-2.2-2.2c-1.2,0-2.2,1-2.2,2.2c0,1.2,1,2.2,2.2,2.2C39.5,11.3,40.5,10.3,40.5,9.1z
		 M37.5,9.1c0-0.5,0.4-0.8,0.8-0.8c0.5,0,0.8,0.4,0.8,0.8c0,0.5-0.4,0.8-0.8,0.8C37.8,9.9,37.5,9.6,37.5,9.1z"/>
</g>
</svg>
