<?xml version="1.0" encoding="utf-8"?>
<!-- Generator: Adobe Illustrator 19.0.0, SVG Export Plug-In . SVG Version: 6.00 Build 0)  -->
<svg version="1.1" id="Warstwa_1" xmlns="http://www.w3.org/2000/svg" xmlns:xlink="http://www.w3.org/1999/xlink" x="0px" y="0px"
	 viewBox="-2 7 44.5 38" style="enable-background:new -2 7 44.5 38;" xml:space="preserve">
<style type="text/css">
	.st0{fill:#838383;}
	.st1{fill:#FFFFFF;}
	.st2{fill:none;}
</style>
<g>
	<g id="XMLID_16_">
		<g id="XMLID_17_">
			<path class="st0" d="M35.5,43.7H9.1c-3,0-5.4-2.4-5.4-5.4V26.5c0-0.4,0.3-0.6,0.6-0.6h22.7c0.4,0,0.7,0.3,0.7,0.6v2.8
				c0,1.2,1,2.2,2.2,2.2s2.2-1,2.2-2.2v-2.8c0-0.4,0.3-0.6,0.7-0.6h7.5c0.4,0,0.7,0.3,0.7,0.6v11.9C40.9,41.3,38.5,43.7,35.5,43.7z
				 M5,27.1v11.2c0,2.2,1.8,4.1,4.1,4.1h26.4c2.2,0,4.1-1.8,4.1-4.1V27.1h-6.2v2.2c0,1.9-1.6,3.5-3.5,3.5s-3.5-1.6-3.5-3.5v-2.2H5z"
				/>
		</g>
	</g>
	<g id="XMLID_15_">
		<line class="st1" x1="4.4" y1="30" x2="27.2" y2="30"/>
		<path class="st0" d="M27.2,30.6H4.4c-0.4,0-0.6-0.3-0.6-0.7s0.3-0.7,0.6-0.7h22.8c0.4,0,0.7,0.3,0.7,0.7S27.5,30.6,27.2,30.6z"/>
	</g>
	<g id="XMLID_14_">
		<line class="st1" x1="32.7" y1="30" x2="40.2" y2="30"/>
		<path class="st0" d="M40.2,30.6h-7.5c-0.4,0-0.7-0.3-0.7-0.7s0.3-0.7,0.7-0.7h7.5c0.4,0,0.7,0.3,0.7,0.7S40.6,30.6,40.2,30.6z"/>
	</g>
	<g id="XMLID_13_">
		<path class="st0" d="M31.5,23.7c-0.2,0-0.3-0.1-0.5-0.2c-0.7-0.8-1.6-1.7-1.6-3.6c0-1.9,0.9-2.9,1.6-3.7c0.6-0.6,0.9-1,0.9-1.9
			c0-0.9-0.4-1.2-0.9-1.8c-0.7-0.8-1.6-1.7-1.6-3.6c0-0.4,0.3-0.7,0.6-0.7c0.3,0,0.7,0.3,0.7,0.6c0,1.4,0.6,2,1.3,2.8
			c0.6,0.7,1.3,1.4,1.3,2.7c0,1.4-0.6,2-1.2,2.7c-0.6,0.7-1.3,1.4-1.2,2.8c0,1.4,0.6,2,1.3,2.8c0.2,0.3,0.2,0.7,0,0.9
			C31.8,23.7,31.7,23.7,31.5,23.7z"/>
	</g>
	<g id="XMLID_12_">
		<path class="st0" d="M25.1,24.6c-0.2,0-0.3-0.1-0.4-0.2c-0.3-0.2-0.3-0.7,0-0.9c0.6-0.6,0.9-1,0.9-1.9c0-0.9-0.4-1.2-0.9-1.8
			c-0.7-0.8-1.6-1.7-1.6-3.6c0-1.9,0.9-2.9,1.6-3.7c0.2-0.3,0.7-0.3,0.9,0c0.3,0.2,0.3,0.7,0,0.9c-0.6,0.7-1.3,1.4-1.2,2.8
			c0,1.4,0.6,2,1.3,2.8c0.7,0.7,1.3,1.4,1.3,2.7c0,1.4-0.6,2-1.2,2.7C25.4,24.5,25.2,24.6,25.1,24.6z"/>
	</g>
	<g id="XMLID_1_">
		<g id="XMLID_11_">
			<path class="st2" d="M27.1,28.5v0.8c0,1.2,0.8,2.2,1.9,2.6l0.9-2.4L27.1,28.5z"/>
		</g>
		<g id="XMLID_10_">
			<rect x="4.4" y="17.5" transform="matrix(0.3513 -0.9363 0.9363 0.3513 -16.8483 19.7733)" class="st2" width="2.8" height="9"/>
		</g>
		<g id="XMLID_9_">
			<polygon class="st2" points="11.8,22.8 10.8,25.4 13.7,26.5 21.7,26.5 			"/>
		</g>
		<g id="XMLID_8_">
			<path class="st0" d="M29.9,29.5L29,32c0.3,0.1,0.6,0.2,0.9,0.2c0.1,0,0.3,0,0.4,0l1-2.7c0.1-0.3,0-0.7-0.4-0.8l-3.8-1.4v1.4
				L29.9,29.5z"/>
		</g>
		<g id="XMLID_7_">
			<path class="st0" d="M10.8,25.4L10.6,26c-0.1,0.3-0.3,0.4-0.6,0.4c-0.1,0-0.2,0-0.2,0c-0.3-0.1-0.5-0.5-0.4-0.8l0.2-0.6l-8.4-3.2
				l1-2.6l8.4,3.2l0.2-0.6c0.1-0.3,0.5-0.5,0.8-0.4L2,17.7c-0.3-0.1-0.7,0-0.8,0.4l-1.4,3.9c-0.1,0.2-0.1,0.3,0,0.5
				c0.1,0.2,0.2,0.3,0.4,0.3l9.9,3.7h3.7L10.8,25.4z"/>
		</g>
		<g id="XMLID_6_">
			<path class="st0" d="M12,22.2l-0.2,0.6l9.9,3.7h3.7l-13.8-5.2C12,21.4,12.1,21.8,12,22.2z"/>
		</g>
		<g id="XMLID_5_">
			<polygon class="st0" points="11.6,21.3 11.6,21.3 11.6,21.3 			"/>
		</g>
		<g id="XMLID_4_">
			
				<rect x="9.3" y="23.2" transform="matrix(0.3511 -0.9363 0.9363 0.3511 -15.4115 25.4704)" class="st0" width="2.8" height="1.3"/>
		</g>
		<g id="XMLID_3_">
			<path class="st0" d="M10.8,21.7l-0.2,0.6l1.2,0.5l0.2-0.6c0.1-0.3,0-0.7-0.4-0.8l0,0C11.3,21.2,10.9,21.4,10.8,21.7z"/>
		</g>
		<g id="XMLID_2_">
			<path class="st0" d="M9.3,25.6c-0.1,0.3,0,0.7,0.4,0.8c0.1,0,0.2,0,0.2,0c0.3,0,0.5-0.2,0.6-0.4l0.2-0.6l-1.2-0.5L9.3,25.6z"/>
		</g>
	</g>
</g>
</svg>
