<?xml version="1.0" encoding="utf-8"?>
<!-- Generator: Adobe Illustrator 25.2.1, SVG Export Plug-In . SVG Version: 6.00 Build 0)  -->
<svg version="1.1" id="Warstwa_1" xmlns="http://www.w3.org/2000/svg" xmlns:xlink="http://www.w3.org/1999/xlink" x="0px" y="0px"
	 viewBox="0 0 39 38" style="enable-background:new 0 0 39 38;" xml:space="preserve">
<style type="text/css">
	.st0{fill:#838383;}
</style>
<g>
	<g>
		<g>
			<path class="st0" d="M34.6,1.7H4.4c-2.2,0-4,1.8-4,4v16.6v2.6c0,2.2,1.8,4,4,4h9.8L13,34.8H9.2c-0.4,0-0.7,0.3-0.7,0.7
				s0.3,0.7,0.7,0.7h20.6c0.4,0,0.7-0.3,0.7-0.7s-0.3-0.7-0.7-0.7H26l-1.2-5.9h9.8c2.2,0,4-1.8,4-4v-2.6V5.8
				C38.6,3.5,36.8,1.7,34.6,1.7z M14.5,34.8l1.2-5.9h7.6l1.2,5.9H14.5L14.5,34.8z M37.2,24.9c0,1.4-1.2,2.6-2.6,2.6H4.4
				c-1.4,0-2.6-1.2-2.6-2.6V23h35.3L37.2,24.9L37.2,24.9z M37.2,21.6H1.8v-1.5h4.4c0.4,0,0.7-0.3,0.7-0.7s-0.3-0.7-0.7-0.7H1.8V5.8
				c0-1.4,1.2-2.6,2.6-2.6h30.2c1.4,0,2.6,1.2,2.6,2.6L37.2,21.6L37.2,21.6z"/>
		</g>
	</g>
	<g>
		<g>
			<path class="st0" d="M19.5,23.8c-0.8,0-1.5,0.7-1.5,1.5s0.7,1.5,1.5,1.5s1.5-0.7,1.5-1.5C21,24.4,20.3,23.8,19.5,23.8z"/>
		</g>
	</g>
	<g>
		<g>
			<path class="st0" d="M25.5,15.8L24,14.2l1.3-1.3c0.2-0.2,0.3-0.5,0.2-0.7c-0.1-0.3-0.3-0.5-0.5-0.5l-6.8-1.6
				c-0.2-0.1-0.5,0-0.7,0.2s-0.3,0.4-0.2,0.7l1.6,6.8c0.1,0.3,0.3,0.5,0.5,0.5c0.3,0.1,0.5,0,0.7-0.2l1.3-1.3l1.6,1.6
				c0.1,0.1,0.3,0.2,0.5,0.2s0.4-0.1,0.5-0.2l1.6-1.6C25.8,16.6,25.8,16.1,25.5,15.8z M23.4,16.8l-1.6-1.6c-0.1-0.1-0.3-0.2-0.5-0.2
				s-0.4,0.1-0.5,0.2l-0.8,1l-1-4.3l4.3,1l-0.9,0.9c-0.3,0.3-0.3,0.8,0,1l1.6,1.6L23.4,16.8z"/>
		</g>
	</g>
	<g>
		<g>
			<path class="st0" d="M16.5,8.3l-0.7-0.7c-0.3-0.3-0.8-0.3-1,0s-0.3,0.8,0,1l0.7,0.7c0.1,0.1,0.3,0.2,0.5,0.2
				c0.2,0,0.4-0.1,0.5-0.2C16.8,9.1,16.8,8.6,16.5,8.3z"/>
		</g>
	</g>
	<g>
		<g>
			<path class="st0" d="M15,10.3h-1c-0.4,0-0.7,0.3-0.7,0.7s0.3,0.7,0.7,0.7h1c0.4,0,0.7-0.3,0.7-0.7C15.8,10.6,15.4,10.3,15,10.3z"
				/>
		</g>
	</g>
	<g>
		<g>
			<path class="st0" d="M16.5,12.7c-0.3-0.3-0.8-0.3-1,0l-0.7,0.7c-0.3,0.3-0.3,0.8,0,1c0.1,0.1,0.3,0.2,0.5,0.2s0.4-0.1,0.5-0.2
				l0.7-0.7C16.8,13.5,16.8,13,16.5,12.7z"/>
		</g>
	</g>
	<g>
		<g>
			<path class="st0" d="M21.6,7.6c-0.3-0.3-0.8-0.3-1,0l-0.7,0.7c-0.3,0.3-0.3,0.8,0,1c0.1,0.1,0.3,0.2,0.5,0.2s0.4-0.1,0.5-0.2
				l0.7-0.7C21.9,8.3,21.9,7.9,21.6,7.6z"/>
		</g>
	</g>
	<g>
		<g>
			<path class="st0" d="M18.2,6.1c-0.4,0-0.7,0.3-0.7,0.7v1c0,0.4,0.3,0.7,0.7,0.7c0.4,0,0.7-0.3,0.7-0.7v-1
				C18.9,6.5,18.6,6.1,18.2,6.1z"/>
		</g>
	</g>
	<g>
		<g>
			<path class="st0" d="M9.2,19.2v-0.1c0,0,0-0.1-0.1-0.1L9,18.9l-0.1-0.1c0,0-0.1,0-0.1-0.1H8.7c-0.1,0-0.2,0-0.3,0H8.3
				c0,0-0.1,0-0.1,0.1l-0.1,0.1L8,19c0,0,0,0.1-0.1,0.1v0.1v0.1v0.1v0.1c0,0,0,0.1,0.1,0.1l0.1,0.1c0,0-0.1,0.3,0,0.3
				c0,0,0.1,0,0.1,0.1h0.1h0.1h0.1h0.1c0,0,0.1,0,0.1-0.1l0.1-0.1l0.1-0.1c0,0,0-0.1,0.1-0.1v-0.1v-0.1C9,19.5,9.2,19.3,9.2,19.2z"
				/>
		</g>
	</g>
</g>
</svg>
