<?xml version="1.0" encoding="utf-8"?>
<!-- Generator: Adobe Illustrator 25.2.3, SVG Export Plug-In . SVG Version: 6.00 Build 0)  -->
<svg version="1.1" id="Warstwa_1" xmlns="http://www.w3.org/2000/svg" xmlns:xlink="http://www.w3.org/1999/xlink" x="0px" y="0px"
	 viewBox="0 0 49.2 38" style="enable-background:new 0 0 49.2 38;" xml:space="preserve">
<style type="text/css">
	.st0{fill:#838383;}
</style>
<g>
	<path class="st0" d="M38.2,16.2l-1.3-0.3c-0.4-0.1-0.8-0.4-0.9-0.9l-0.2-1.2c0.5-0.4,0.9-0.9,1.2-1.5h0.4c1.2,0,2.2-1,2.2-2.2
		c0-0.5-0.2-1-0.5-1.3l0.2-0.6c0.2-0.5,0.2-1,0.2-1.5c0-2.7-2.2-4.9-4.9-4.9h-1.5c-1.4,0-2.6,0.6-3.4,1.7l-0.4,0.1
		c-0.3,0.1-0.6,0.2-0.9,0.4H8.5v14.4h5.4l-0.8,3.3H7.4v1.1h34.4v-2.4C41.8,18.4,40.3,16.6,38.2,16.2L38.2,16.2z M21.9,18.4l0.8,3.3
		H17l0.8-3.3H21.9z M23.1,18.4h2.6c-0.3,0.6-0.5,1.3-0.5,2.1v1.3h-1.2L23.1,18.4z M26.3,20.5c0-1.6,1.1-3,2.7-3.3l0.5-0.1l2.1,4.6
		h-5.2V20.5z M31.4,16.4l1,0.5L31,18l-0.5-1.1C30.9,16.8,31.2,16.6,31.4,16.4L31.4,16.4z M33.6,18.4h-0.3l-0.2-0.7l0.4-0.3l0.4,0.3
		L33.6,18.4z M32.4,19l-0.2,1.4l-0.6-1.4l0.7-0.5L32.4,19z M33.4,19.6h0.2l0.4,2.2H33L33.4,19.6z M34.6,19l0.2-0.5l0.7,0.5l-0.6,1.4
		L34.6,19z M36.4,16.9L35.9,18l-1.4-1.1l1-0.5C35.8,16.6,36.1,16.8,36.4,16.9L36.4,16.9z M34.9,15.2c0,0.1,0,0.1,0,0.2l-1.5,0.8
		L32,15.4c0-0.1,0-0.1,0-0.2l0.2-0.9c0.4,0.1,0.8,0.2,1.3,0.2c0.4,0,0.9-0.1,1.3-0.2L34.9,15.2z M36.3,10.7c0,1.5-1.2,2.8-2.8,2.8
		c-1.5,0-2.8-1.2-2.8-2.8V8.5c0-0.8,0.5-1.4,1.3-1.6c0.3,0.6,0.8,1,1.5,1h2.2c0.3,0,0.6,0.2,0.6,0.6V10.7z M37.4,11.2L37.4,11.2
		c0-0.2,0-0.4,0-0.6V9c0.6,0,1.1,0.5,1.1,1.1S38,11.2,37.4,11.2z M29.7,4.7l0.8-0.2l0.1-0.2c0.6-0.9,1.6-1.4,2.7-1.4h1.5
		c2.1,0,3.7,1.7,3.7,3.7c0,0.4-0.1,0.8-0.2,1.2l-0.1,0.2C38,8,37.7,7.9,37.4,7.9h-0.1c-0.2-0.6-0.8-1.1-1.6-1.1h-2.2
		c-0.3,0-0.6-0.2-0.6-0.6s0.2-0.6,0.6-0.6H34V4.6h-0.6c-0.8,0-1.4,0.5-1.6,1.2l-0.2,0c-1,0.3-1.8,1.1-2,2.1h-0.1
		c-0.3,0-0.5,0.1-0.8,0.2c-0.1-0.5-0.3-1.2-0.3-1.8C28.5,5.5,29,4.9,29.7,4.7L29.7,4.7z M29.6,9v1.7c0,0.2,0,0.4,0,0.6h0
		c-0.6,0-1.1-0.5-1.1-1.1S29,9,29.6,9z M9.6,5.1h18c-0.2,0.3-0.2,0.7-0.2,1.1c0,0.9,0.3,2,0.5,2.5c-0.3,0.4-0.5,0.8-0.5,1.4
		c0,1.2,1,2.2,2.2,2.2H30c0.3,0.6,0.7,1.1,1.2,1.5L30.9,15c-0.1,0.4-0.4,0.8-0.9,0.9l-1.3,0.3c-0.9,0.2-1.6,0.6-2.2,1.2H9.6L9.6,5.1
		z M15,18.4h1.6l-0.8,3.3h-1.6L15,18.4z M40.7,21.8h-5.2l2.1-4.6l0.5,0.1c1.6,0.3,2.7,1.7,2.7,3.3V21.8z"/>
	<path class="st0" d="M26.3,7.3h-6.7v2.2h-2.2V6.2h-6.7v6.7h3.3v3.3h7.8v-3.3h4.4V7.3z M11.8,7.3h4.4v4.4h-4.4V7.3z M20.7,15.1h-5.6
		v-2.2h2.2v-2.2h3.3V15.1z M25.2,11.8h-3.3V9.6h-1.1V8.5h4.4V11.8z"/>
	<path class="st0" d="M38.2,30.9c0.9-0.7,1.4-1.8,1.4-3v-0.6c0-1.8-1.5-3.3-3.3-3.3h-1.1c-1.8,0-3.3,1.5-3.3,3.3v0.6
		c0,1.2,0.5,2.2,1.4,3c-1.3,0.4-2.4,1.3-3.1,2.5c-0.6-1.2-1.7-2.1-3.1-2.5c0.8-0.7,1.4-1.8,1.4-3v-0.6c0-1.8-1.5-3.3-3.3-3.3H24
		c-1.8,0-3.3,1.5-3.3,3.3v0.6c0,1.2,0.5,2.3,1.4,3c-1.3,0.4-2.4,1.3-3.1,2.5c-0.6-1.2-1.7-2.1-3.1-2.5c0.8-0.7,1.4-1.8,1.4-3v-1.1
		c0-1.5-1.2-2.8-2.8-2.8h-3.9c-0.6,0-1.1,0.5-1.1,1.1v2.8c0,1.2,0.5,2.3,1.4,3c-2.1,0.6-3.6,2.5-3.6,4.8v0.6h34.4v-0.6
		C41.8,33.4,40.3,31.5,38.2,30.9z M36.8,31.8c0,0.6-0.5,1.1-1.1,1.1s-1.1-0.5-1.1-1.1c0-0.1,0-0.1,0-0.2c0.4,0.1,0.7,0.2,1.1,0.2
		c0.4,0,0.7-0.1,1.1-0.2C36.8,31.7,36.8,31.7,36.8,31.8z M32.9,27.9v-0.6c0-1.2,1-2.2,2.2-2.2h1.1c1.2,0,2.2,1,2.2,2.2v0.6
		c0,1.1-0.6,2.1-1.6,2.5c-0.7,0.3-1.6,0.3-2.4,0C33.6,29.9,32.9,29,32.9,27.9z M21.8,27.9v-0.6c0-1.2,1-2.2,2.2-2.2h1.1
		c1.2,0,2.2,1,2.2,2.2v0.6c0,1.5-1.2,2.8-2.8,2.8S21.8,29.4,21.8,27.9z M23.5,31.8h2.2c2,0,3.6,1.5,3.8,3.3h-9.9
		C19.9,33.2,21.5,31.8,23.5,31.8L23.5,31.8z M10.7,27.9v-2.8h3.9c0.9,0,1.7,0.7,1.7,1.7v1.1c0,1.5-1.2,2.8-2.8,2.8
		S10.7,29.4,10.7,27.9z M8.5,35.1c0.3-1.9,1.9-3.3,3.8-3.3h2.2c2,0,3.6,1.5,3.8,3.3H8.5z M30.8,35.1c0.2-1.5,1.3-2.8,2.7-3.2
		c0.1,1.2,1,2.1,2.2,2.1c1.2,0,2.1-0.9,2.2-2.1c1.5,0.4,2.5,1.7,2.8,3.2H30.8z"/>
</g>
</svg>
