<?xml version="1.0" encoding="utf-8"?>
<!-- Generator: Adobe Illustrator 24.3.0, SVG Export Plug-In . SVG Version: 6.00 Build 0)  -->
<svg version="1.1" xmlns="http://www.w3.org/2000/svg" xmlns:xlink="http://www.w3.org/1999/xlink" x="0px" y="0px"
	 viewBox="0 0 245 347" style="enable-background:new 0 0 245 347;" xml:space="preserve">
<style type="text/css">
	.st0{opacity:0.2;}
	.st1{fill:#CC211F;}
	.st2{display:none;fill:#FECB41;fill-opacity:0.8;}
	.st3{fill:#FFFFFF;}
	.st4{opacity:0.3;fill:url(#SVGID_1_);}
</style>
<g id="Layer_1">
	<polygon class="st0" points="0,82.8 0,88 88,0 82.8,0 	"/>
	<path class="st1" d="M-0.2,41.6c0-1.2,0.5-2.4,1.4-3.3v0l37-37h0C39,0.5,40.2,0,41.4,0H88c-1.2,0-2.4,0.5-3.3,1.4l0,0h0L1.1,85l0,0
		c-0.9,0.9-1.4,2.1-1.4,3.3V41.6z"/>
	<path class="st2" d="M41.3,1.4L41.3,1.4l-1.2,1.2c0,0,0,0,0,0l0,0l-0.8,0.8h0l-1.2,1.2l-35,35v0l-2,2v0c-0.9,0.9-1.4,2.1-1.4,3.3
		v1.2c0-1.2,0.4-2.3,1.3-3.2c0,0,0,0,0.1-0.1l0.7-0.7L38.1,5.9l0,0v0l2-2l0,0v0l0.5-0.5l1.3-1.3l0.7-0.7h0c0,0,0,0,0.1-0.1
		C43.5,0.4,44.7,0,45.9,0h-1.2C43.4,0,42.3,0.5,41.3,1.4z"/>
	<path class="st2" d="M82.8,0.1C82.8,0.1,82.8,0.1,82.8,0.1c-0.9,0.2-1.8,0.6-2.5,1.3L1.1,80.5C0.4,81.2,0,82.1-0.2,83c0,0,0,0,0,0
		c0,0.2-0.1,0.5-0.1,0.7V85c0-1.2,0.5-2.4,1.4-3.3L81.5,1.3C82.4,0.5,83.6,0,84.7,0h-1.2C83.3,0,83,0,82.8,0.1z"/>
	<g>
		<path class="st3" d="M3.7,52.1l2.4-2.4l7.6,7.9l4-4.1l2.2,2.3l-6.4,6.5L3.7,52.1z"/>
		<path class="st3" d="M25.2,46.5l-3.6,3.6l1.2,2.6l-2.4,2.5l-6-14l2.4-2.4l13.5,6.4l-2.5,2.5L25.2,46.5z M22.5,45.1l-4.2-2.2l2,4.4
			L22.5,45.1z"/>
		<path class="st3" d="M25.4,34.8l-2.6,2.6l-2.2-2.3l7.6-7.6l2.2,2.3l-2.6,2.6l7.6,7.9l-2.4,2.4L25.4,34.8z"/>
		<path class="st3" d="M44.1,27.2l2.1,2.2l-6.8,6.8L29.7,26l6.6-6.7l2.1,2.2l-4.3,4.3l1.6,1.7l3.8-3.8l2.1,2.2l-3.8,3.8l1.8,1.9
			L44.1,27.2z"/>
		<path class="st3" d="M49,26.4c-0.8,0.4-1.6,0.7-2.4,0.8l-1.2-2.9c0.7-0.1,1.3-0.3,2-0.6c0.7-0.3,1.3-0.7,1.7-1.2
			c0.9-0.9,1.1-1.7,0.6-2.2c-0.3-0.3-0.6-0.4-1-0.3c-0.4,0.1-1,0.4-1.7,0.8c-0.8,0.5-1.5,0.8-2.1,1.1c-0.6,0.2-1.3,0.3-2,0.2
			c-0.7-0.1-1.4-0.5-2.1-1.2c-0.6-0.6-1-1.3-1.2-2.1c-0.2-0.8-0.2-1.6,0.1-2.5s0.8-1.7,1.6-2.5c0.6-0.6,1.2-1,1.9-1.4
			c0.7-0.4,1.4-0.6,2.1-0.8l1.3,2.9c-1.3,0.3-2.3,0.8-3.1,1.6c-0.5,0.5-0.7,0.9-0.8,1.3c-0.1,0.4,0,0.7,0.3,1c0.3,0.3,0.6,0.3,1,0.2
			c0.4-0.1,0.9-0.4,1.6-0.8c0.8-0.5,1.5-0.8,2.1-1.1s1.3-0.3,2-0.2c0.7,0.1,1.4,0.5,2.1,1.2c0.6,0.6,1,1.3,1.2,2.1
			c0.2,0.8,0.1,1.6-0.1,2.5c-0.3,0.9-0.8,1.7-1.6,2.5C50.6,25.4,49.8,25.9,49,26.4z"/>
		<path class="st3" d="M50.6,9.4L48,12l-2.2-2.3l7.6-7.6l2.2,2.3L53,7l7.6,7.9l-2.4,2.4L50.6,9.4z"/>
	</g>
	
		<linearGradient id="SVGID_1_" gradientUnits="userSpaceOnUse" x1="6134.812" y1="-11875.5088" x2="6134.812" y2="-11963.751" gradientTransform="matrix(0 1 1 0 11963.5059 -6090.6885)">
		<stop  offset="0.8953" style="stop-color:#000000"/>
		<stop  offset="0.902" style="stop-color:#0D0D0D"/>
		<stop  offset="0.9146" style="stop-color:#303030"/>
		<stop  offset="0.9317" style="stop-color:#696969"/>
		<stop  offset="0.9523" style="stop-color:#B7B7B7"/>
		<stop  offset="0.97" style="stop-color:#FFFFFF"/>
		<stop  offset="1" style="stop-color:#000000"/>
	</linearGradient>
	<path class="st4" d="M-0.2,41.6c0-1.2,0.5-2.4,1.4-3.3v0l37-37h0C39,0.5,40.2,0,41.4,0H88c-1.2,0-2.4,0.5-3.3,1.4l0,0h0L1.1,85l0,0
		c-0.9,0.9-1.4,2.1-1.4,3.3V41.6z"/>
</g>
<g id="Layer_2">
</g>
</svg>
